<svg width="24" height="24" viewBox="0 0 24 24" fill="none" xmlns="http://www.w3.org/2000/svg">
<symbol id="ico-sheme" viewBox="0 0 24 24" stroke="none">
<g clip-path="url(#clip0_0_2239)">
<path d="M22.1992 8.63033L20.96 7.52383L18.4353 8.49412L18.0918 9.91175L16.7715 15.9011L21.0588 17.7688L21.5908 17.0819C22.3249 15.5764 22.7365 13.8847 22.7365 12.0966C22.7365 10.8881 22.5475 9.72373 22.1992 8.63033Z" fill="#FE7D43"/>
<path d="M17.7851 15.1744L16.2805 15.9012L12.4122 18.6259L14.1362 22.4724L15.3671 22.7773V22.7778C18.1176 21.755 20.3309 19.6675 21.6061 17.0503L17.7851 15.1744Z" fill="#EE6161"/>
<path d="M13.8937 18.7358L13.073 18.1605L8.16813 17.4156L5.81158 21.2015L6.8963 22.5677V22.5682C8.27612 23.1617 9.79652 23.4903 11.3937 23.4903C12.7913 23.4903 14.1298 23.2389 15.3671 22.7779V22.7774L13.8937 18.7358Z" fill="#C2A1D5"/>
<path d="M8.39412 17.3187L5.66786 13.0361L0.911072 14.5078V16.5686C2.05917 19.2567 4.21142 21.4138 6.89622 22.5681V22.5676L8.62004 18.6258L8.39412 17.3187Z" fill="#8AC9FE"/>
<path d="M2.01418 6.66595L0.722536 8.09731H0.722056C0.255239 9.34183 0 10.6895 0 12.0967C0 13.6842 0.324805 15.1955 0.911086 16.5686H0.911566L4.87976 14.9067L5.39858 13.715L5.7101 7.85281L2.01418 6.66595Z" fill="#75CDD5"/>
<path d="M8.7278 1.83676H6.43277C3.81225 3.10624 1.75164 5.34965 0.722046 8.0973H0.722526L4.74061 9.63353L7.36784 8.30351L10.8423 5.17813L8.7278 1.83676Z" fill="#6CF5C2"/>
<path d="M18.1426 9.91179L17.9321 8.97595L15.3384 9.63353L15.1987 10.8306C15.3316 11.2283 15.4031 11.6543 15.4031 12.0967C15.4031 12.7089 15.2659 13.2884 15.0207 13.8071L15.0768 14.7621L16.7715 15.664L17.7851 15.1744C18.2342 14.2437 18.486 13.1997 18.486 12.0967C18.4866 11.3549 18.3707 10.6176 18.1426 9.91179Z" fill="#FD6930"/>
<path d="M15.0207 13.8071C14.5826 14.7345 13.7997 15.4666 12.8372 15.8379L12.4673 16.5338L13.2384 18.5086L13.8937 18.7358C15.6031 18.0919 16.9978 16.8076 17.7851 15.1744L15.0207 13.8071Z" fill="#E94444"/>
<path d="M12.8373 15.838C12.3896 16.0111 11.9027 16.1061 11.3936 16.1061C10.8486 16.1061 10.3295 15.9977 9.85597 15.8L9.04683 15.8878L8.08441 17.8498L8.62008 18.6259C9.47215 18.9886 10.4096 19.1892 11.3936 19.1892C12.2735 19.1892 13.116 19.0289 13.8937 18.7358L12.8373 15.838Z" fill="#A274BF"/>
<path d="M7.72433 13.715L7.09127 13.2572L5.02532 13.9731L4.87976 14.9067C5.60086 16.5768 6.94518 17.9139 8.62006 18.6259L9.85595 15.8C8.90552 15.4057 8.13933 14.6548 7.72433 13.715Z" fill="#26A6FE"/>
<path d="M16.8558 2.09584C15.2342 1.20826 13.3727 0.703064 11.3936 0.703064C9.61513 0.703064 7.93209 1.11039 6.4328 1.83676L8.2804 5.72291L10.116 6.54611L15.8914 7.52388L17.5719 3.95774L16.8558 2.09584Z" fill="#FEE97D"/>
<path d="M23.9829 7.74995C24.04 7.91452 23.9488 8.09347 23.7828 8.14529L22.2284 8.63034L19.284 9.5491C18.6258 7.50335 17.197 5.80352 15.3384 4.79216L16.8343 2.09585L17.6259 0.669004C17.7094 0.517876 17.9013 0.464622 18.0505 0.55146C20.8025 2.1467 22.9312 4.69765 23.9829 7.74995Z" fill="#FEC165"/>
<path d="M7.38416 12.0967C7.38416 11.6183 7.46764 11.1597 7.62165 10.7346L7.58624 9.06332H5.86698L4.74062 9.63353C4.45659 10.4007 4.30115 11.2307 4.30115 12.0967C4.30115 13.0951 4.50745 14.045 4.87975 14.9067L7.72432 13.715C7.50554 13.2203 7.38416 12.6729 7.38416 12.0967Z" fill="#2ABCC8"/>
<path d="M9.71962 6.18796L8.28036 5.72287C6.65249 6.51833 5.37486 7.91974 4.7406 9.63349L7.62163 10.7346C7.97282 9.76255 8.68864 8.96517 9.60453 8.50794V8.50746L10.2645 7.76435L9.71962 6.18796Z" fill="#00F2A6"/>
<path d="M14.7693 5.85725L14.7687 5.85715C13.765 5.31314 12.6156 5.00421 11.3936 5.00421C10.2767 5.00421 9.22027 5.26233 8.2804 5.72291L9.60457 8.50798C10.1601 8.23065 10.7727 8.08659 11.3936 8.08722C12.073 8.08722 12.7125 8.2561 13.2729 8.55452L14.282 8.60418L15.2693 7.28778L14.7693 5.85725Z" fill="#FEDF30"/>
<path d="M19.284 9.54911L18.1211 9.91182L15.1987 10.8306C14.872 9.84753 14.1583 9.02506 13.2563 8.54576L14.7478 5.85727L15.3384 4.79218C17.197 5.80353 18.6258 7.50336 19.284 9.54911Z" fill="#FDB441"/>
</g>
<defs>
<clipPath id="clip0_0_2239">
<rect width="24" height="24" fill="white"/>
</clipPath>
</defs>
</symbol>
</svg>
