<svg width="24" height="24" viewBox="0 0 24 24" fill="none" xmlns="http://www.w3.org/2000/svg">
<symbol id="ico-calendar" viewBox="0 0 24 24" stroke="none">
<path fill-rule="evenodd" clip-rule="evenodd" d="M7.49999 4.4685H11.2455V3.75C11.2455 3.55109 11.3245 3.36032 11.4652 3.21967C11.6058 3.07902 11.7966 3 11.9955 3C12.1944 3 12.3852 3.07902 12.5258 3.21967C12.6665 3.36032 12.7455 3.55109 12.7455 3.75V4.4685H16.5V3.75C16.5 3.55109 16.579 3.36032 16.7197 3.21967C16.8603 3.07902 17.0511 3 17.25 3C17.4489 3 17.6397 3.07902 17.7803 3.21967C17.921 3.36032 18 3.55109 18 3.75V4.4685H18.747C19.0425 4.4684 19.3351 4.52658 19.608 4.6397C19.881 4.75282 20.129 4.91867 20.3377 5.12775C20.76 5.54925 20.997 6.1215 20.997 6.7185V18.7537C20.9971 19.0492 20.9389 19.3418 20.8258 19.6148C20.7127 19.8877 20.5468 20.1357 20.3377 20.3445C19.9162 20.7668 19.344 21.0037 18.747 21.0037H5.24399C4.64725 21.0037 4.07495 20.7667 3.653 20.3447C3.23104 19.9228 2.99399 19.3505 2.99399 18.7537V6.7185C2.99399 6.12176 3.23104 5.54947 3.653 5.12751C4.07495 4.70555 4.64725 4.4685 5.24399 4.4685H5.99999V3.78525C5.99999 3.58634 6.07901 3.39557 6.21966 3.25492C6.36031 3.11427 6.55108 3.03525 6.74999 3.03525C6.9489 3.03525 7.13967 3.11427 7.28032 3.25492C7.42097 3.39557 7.49999 3.58634 7.49999 3.78525V4.4685ZM19.497 18.7537V10.5068H4.49399V18.7537C4.49369 18.8523 4.51289 18.95 4.55047 19.0411C4.58806 19.1322 4.64329 19.215 4.713 19.2847C4.7827 19.3544 4.8655 19.4097 4.95662 19.4473C5.04775 19.4848 5.14541 19.504 5.24399 19.5037H18.747C18.8456 19.504 18.9432 19.4848 19.0344 19.4473C19.1255 19.4097 19.2083 19.3544 19.278 19.2847C19.3477 19.215 19.4029 19.1322 19.4405 19.0411C19.4781 18.95 19.4973 18.8523 19.497 18.7537ZM17.7803 7.27733C17.921 7.13668 18 6.94591 18 6.747V5.9685H18.747C18.8456 5.9682 18.9432 5.9874 19.0344 6.02499C19.1255 6.06257 19.2083 6.1178 19.278 6.18751C19.3477 6.25721 19.4029 6.34001 19.4405 6.43114C19.4781 6.52226 19.4973 6.61993 19.497 6.7185V9.00675H4.49399V6.7185C4.49369 6.61993 4.51289 6.52226 4.55047 6.43114C4.58806 6.34001 4.64329 6.25721 4.713 6.18751C4.7827 6.1178 4.8655 6.06257 4.95662 6.02499C5.04775 5.9874 5.14541 5.9682 5.24399 5.9685H5.99999V6.7785C5.99999 6.97741 6.07901 7.16818 6.21966 7.30883C6.36031 7.44948 6.55108 7.5285 6.74999 7.5285C6.9489 7.5285 7.13967 7.44948 7.28032 7.30883C7.42097 7.16818 7.49999 6.97741 7.49999 6.7785V5.9685H11.2455V6.7785C11.2455 6.97741 11.3245 7.16818 11.4652 7.30883C11.6058 7.44948 11.7966 7.5285 11.9955 7.5285C12.1944 7.5285 12.3852 7.44948 12.5258 7.30883C12.6665 7.16818 12.7455 6.97741 12.7455 6.7785V5.9685H16.5V6.747C16.5 6.94591 16.579 7.13668 16.7197 7.27733C16.8603 7.41798 17.0511 7.497 17.25 7.497C17.4489 7.497 17.6397 7.41798 17.7803 7.27733Z" fill=""/>
<path d="M6.75 12.7365H8.25V14.2365H6.75V12.7365ZM6.75 15.75H8.25V17.25H6.75V15.75ZM9.75 12.7365H11.25V14.2365H9.75V12.7365ZM9.75 15.75H11.25V17.25H9.75V15.75ZM12.75 12.7365H14.25V14.2365H12.75V12.7365ZM12.75 15.75H14.25V17.25H12.75V15.75ZM15.75 12.7365H17.25V14.2365H15.75V12.7365ZM15.75 15.75H17.25V17.25H15.75V15.75Z" fill=""/>
</symbol>
</svg>
