<?xml version="1.0" encoding="UTF-8"?>
<svg id="_Слой_2" data-name="Слой 2" xmlns="http://www.w3.org/2000/svg" viewBox="0 0 311.61 86.68">
  <defs>
    <style>
      .cls-1 {
        fill: #c64f15;
      }

      .cls-1, .cls-2 {
        fill-rule: evenodd;
        stroke-width: 0px;
      }

      .cls-2 {
        fill: #85878a;
      }
    </style>
  </defs>
  <g id="svg9">
    <g id="Layer1000">
      <path id="path2" class="cls-1" d="M49.61,86.68l15.45-11.51h-26.94l11.48,11.51Z"/>
      <path id="path4" class="cls-1" d="M0,85.22h27.24l10.29-10.33-12.06-12.12h24.14l15.91-15.87v15.87h16.03l-16.03,12.12v10.33h19.81V0S0,85.22,0,85.22Z"/>
      <path id="path6" class="cls-2" d="M273.2,59.24h11.89v-9.49h-11.89v9.49ZM213.45,59.24h0l9.44-9.49h-13.85l-9.43,9.49h13.85ZM270.21,62.75h-11.83v12.94h-32.5c0,2.53,1.17,5.01,3.39,6.89,1.68,1.44,5.13,2.6,8.38,2.6h20.74c3.32,0,6.7-1.23,8.7-3.12,2.09-1.89,3.13-4.23,3.13-6.37v-12.94ZM225.87,72.25h0v-13.01c0-2.08,1.09-4.49,3.12-6.37,2.01-1.81,5.46-3.12,8.71-3.12h20.81c3.12,0,6.69,1.24,8.33,2.67,2.2,1.88,3.38,4.29,3.38,6.82h-32.51v13.01h-11.83ZM143.11,72.25h0v-13.01c0,.07,0-4.54-2.99-6.89-2.99-2.34-6.75-2.6-8.91-2.6l-9.81-.12-9.49,9.49,19.3.12v13.01h11.9ZM299.78,85.18h11.84v-9.36h-11.84v9.36ZM285.09,85.18h-11.89v-22.43h26.57v-13h11.84v22.51h-26.52v12.93ZM211.11,85.18h0v-12.93h-26.65v-20.74l-7.74,7.73h-18.85v13.01h-11.83v-13.01c0-2.34.58-5.2,3.26-7.08,3.23-2.22,6.23-2.42,8.57-2.42h38.42v13h14.82c3.19,0,6.37,0,8.71,2.15,3.01,2.66,3.07,4.93,3.07,7.35v12.93h-11.77ZM184.46,85.18h11.83v-9.36h-11.83v9.36ZM157.28,85.18h24.18v-9.36h-35.43c0,1.75.52,4.17,2.72,6.25,2.15,2.08,5.54,3.12,8.52,3.12h0ZM109.78,85.18h0c-4.1,0-9.9.59-12.36-4.88-1.37-3.05,1.1-8.05,3.83-10.79l6.7-6.76,16.33-.12-13.06,13.19h31.9v9.36h-33.34Z"/>
    </g>
  </g>
</svg>