<?xml version="1.0" encoding="UTF-8"?>
<svg id="New_Layer" data-name="New Layer" xmlns="http://www.w3.org/2000/svg" viewBox="0 0 1719.82 319.19">
  <defs>
    <style>
      .cls-1 {
        fill: #1d1d1b;
        stroke-width: 0px;
      }
    </style>
  </defs>
  <polyline class="cls-1" points="64.82 108.98 113.33 54.39 178.23 54.39 116.6 117.89 184.79 223.1 118.48 223.1 77.94 155.85 64.82 169.67 64.82 223.1 9.52 223.1 9.52 54.39 64.82 54.39 64.82 108.98"/>
  <path class="cls-1" d="M248.34,96.8c43.35,0,70.06,25.54,70.06,63.73,0,44.99-30.46,66.08-69.82,66.08s-69.83-21.56-69.83-63.5,28.12-66.32,69.59-66.32h0ZM227.48,160.53c0,23.2,8.67,33.28,21.09,33.28,13.12,0,21.09-10.08,21.09-33.28,0-18.04-8.21-30.93-20.63-30.93-16.63,0-21.55,17.11-21.55,30.93"/>
  <polyline class="cls-1" points="387.44 100.31 408.76 168.51 430.08 100.31 485.85 100.31 485.85 223.1 442.73 223.1 442.73 172.02 447.42 140.61 446.48 140.61 420.24 223.1 397.28 223.1 371.03 140.61 370.09 140.61 374.78 174.83 374.78 223.1 331.67 223.1 331.67 100.31 387.44 100.31"/>
  <polyline class="cls-1" points="559.57 100.31 580.89 168.51 602.21 100.31 657.99 100.31 657.99 223.1 614.87 223.1 614.87 172.02 619.55 140.61 618.62 140.61 592.37 223.1 569.41 223.1 543.17 140.61 542.23 140.61 546.92 174.83 546.92 223.1 503.8 223.1 503.8 100.31 559.57 100.31"/>
  <path class="cls-1" d="M718.51,172.71c0,14.53,11.24,24.14,24.13,24.14,7.74,0,14.76-3.52,18.28-10.78h46.63c-8.43,30.47-39.36,40.54-67.95,40.54-39.37,0-69.83-22.5-69.83-63.74s30.23-66.08,69.6-66.08c45.46,0,72.17,29.76,72.17,75.92h-93.03ZM762.79,147.88c0-11.25-10.07-21.32-21.56-21.32-14.52,0-22.73,8.2-22.73,21.32h44.28"/>
  <path class="cls-1" d="M864.47,100.31v18.28h.47c6.8-15,24.37-21.79,38.43-21.79,37.02,0,54.83,30.23,54.83,63.97,0,48.27-30,65.85-57.41,65.85-13.36,0-23.2-5.39-31.41-15.7v53.89h-48.74V100.31h43.82ZM909.46,161.47c0-19.45-8.43-29.05-21.33-29.05-11.71,0-19.68,11.71-19.68,28.11s7.27,28.83,19.92,28.83,21.09-11.01,21.09-27.89"/>
  <path class="cls-1" d="M1056.29,147.18c0-9.6-7.04-17.58-17.81-17.58-18.29,0-21.33,18.98-21.33,33.51,0,18.51,7.03,30.69,21.33,30.69,12.65,0,17.57-8.67,18.98-18.27h49.2c-4.22,37.26-34.22,51.08-68.19,51.08-39.6,0-70.07-22.26-70.07-63.74s29.53-66.08,70.07-66.08c32.81,0,63.73,14.06,67.25,50.38h-49.44"/>
  <path class="cls-1" d="M1119.11,138.04c0-26.01,18.51-41.24,67.02-41.24,58.11,0,61.62,21.56,61.62,50.85v57.41c0,7.02.24,10.54,6.56,15.7v2.35h-50.38l-2.34-13.12c-13.83,12.88-27.89,16.63-46.16,16.63-23.2,0-43.82-11.48-43.82-37.03,0-55.76,87.4-30.46,87.4-53.42,0-8.9-10.78-10.08-15.93-10.08-6.8,0-15.93,1.41-17.11,11.95h-46.86ZM1161.99,188.65c0,6.09,5.86,10.31,15.47,10.31,17.11,0,21.56-11.48,21.56-30.23-15.93,7.74-37.03,3.98-37.03,19.92"/>
  <polyline class="cls-1" points="1319.17 141.31 1355.26 141.31 1355.26 100.31 1403.99 100.31 1403.99 223.1 1355.26 223.1 1355.26 176.94 1319.17 176.94 1319.17 223.1 1270.44 223.1 1270.44 100.31 1319.17 100.31 1319.17 141.31"/>
  <polyline class="cls-1" points="1545.32 100.31 1545.32 135.93 1502.91 135.93 1502.91 223.1 1454.17 223.1 1454.17 135.93 1411.75 135.93 1411.75 100.31 1545.32 100.31"/>
  <path class="cls-1" d="M1629.69,100.31v43.12h27.19c35.85,0,53.43,19.22,53.43,40.07,0,25.07-17.58,39.6-53.66,39.6h-73.82v-94.67h-31.16v-28.12h78.02ZM1629.69,194.98h15.47c11.73,0,18.28-1.88,18.28-11.48s-6.32-11.95-18.28-11.95h-15.47v23.43"/>
</svg>