<?xml version="1.0" encoding="UTF-8"?>
<svg id="New_Layer" data-name="New Layer" xmlns="http://www.w3.org/2000/svg" viewBox="0 0 1590 183">
  <defs>
    <style>
      .cls-1 {
        fill: #080405;
        fill-rule: evenodd;
        stroke-width: 0px;
      }
    </style>
  </defs>
  <path class="cls-1" d="M0,89.5v89.5h58v-56.6l7.3-7.2,7.4-7.3,21.3,35.5,21.3,35.6h34.9c27.7,0,34.9-.3,34.5-1.3-.2-.6-4.4-7.3-9.2-14.7-32.5-49.8-61.6-95.3-61.3-96,.2-.5,14.6-15.5,32.1-33.3C163.7,15.8,178,.9,178,.6c0-.4-15.4-.5-34.2-.4l-34.2.3-25,28c-13.7,15.4-25.3,28.1-25.8,28.3-.4.2-.8-12.5-.8-28.2V0H0v89.5Z"/>
  <path class="cls-1" d="M1513,28.5v20.5h-18v29h17.8l.5,37.2c.5,40.4,1.1,45.7,6.2,52.4,6.5,8.5,14.5,10.4,46.3,11.1l24.2.6-.2-18.4-.3-18.4-9.2-.5c-8.5-.5-9.5-.7-12-3.3l-2.8-2.7-.3-29-.3-29h25.1v-29h-25V8h-52v20.5Z"/>
  <path class="cls-1" d="M229.5,46c-29.9,4.7-49.9,21.5-57.2,48-1.4,5-1.8,10.1-1.7,22,0,14.1.3,16.2,2.6,22.8,10.7,29.8,38.2,45.8,75.8,43.9,34-1.7,56.6-17.2,65.6-45.2,2.1-6.3,2.7-10.7,3.1-20.5.6-15.5-1-24.2-6.8-35.9-8.1-16.4-23.3-28-43.4-33.2-9.3-2.3-28.8-3.3-38-1.9ZM253,82c9.8,5,15.1,20.9,12.9,39.5-2,18-9.1,26.5-22,26.5-14.4,0-22-11.9-22.1-34.5-.1-12.2,1.9-19.7,6.7-26.1,5.5-7.2,16.3-9.6,24.5-5.4Z"/>
  <path class="cls-1" d="M406.5,46c-9.5,1.9-24.5,11-29.7,18.1-1.2,1.6-2.5,2.9-3,2.9-.4,0-.8-4.1-.8-9v-9h-47v130h51.9l.3-39.8.3-39.7,2.5-4.5c3.7-6.5,7.9-9,15.4-9,7.1,0,11.6,2.2,14.1,7,2.6,5.1,3.5,17.8,3.5,52.7v33.3h51v-34.3c0-36.1.7-44.7,4.3-51,3.1-5.6,7.2-7.7,14.7-7.7,7.9,0,12.1,2.4,14.6,8.3,1.7,3.8,1.9,7.9,2.2,44.4l.3,40.3h52l-.3-47.3c-.4-40.9-.7-48-2.1-53.1-5.2-17.8-12.7-26-28.2-30.9-9.5-3-28.2-3-36.7,0-8.6,3-16.4,8.1-22.3,14.5-2.8,3.2-5.4,5.8-5.7,5.8-.2,0-1.9-2.2-3.7-4.9-8.7-13.6-28.9-20.8-47.6-17.1Z"/>
  <path class="cls-1" d="M644.1,46.5c-8.4,2.4-17,7.4-24.3,14.4l-6.8,6.3v-18.2h-47v130h51v-33.8c0-36.5.7-44.1,4.2-51,3-5.8,7.4-8.2,15.1-8.2,7.3,0,11.1,2.1,14,7.5,2.1,3.9,2.2,5.2,2.5,44.7l.3,40.8h51.9v-36.3c0-29.2.3-37.4,1.5-42.1,3-11.4,7.7-15,18.7-14.4,6,.3,7.2.7,9.9,3.5,5.3,5.3,5.9,10.1,5.9,52v37.3h52.2l-.4-45.7c-.5-50.3-.9-54.5-6.9-66.4-7.5-15-25.7-23.3-47.3-21.5-15,1.3-25.2,6.2-35.4,17l-5.8,6.3-3.7-5.7c-4.2-6.6-11.4-12-20-15-7.9-2.8-22.4-3.5-29.6-1.5Z"/>
  <path class="cls-1" d="M859.1,46.5c-33,6.2-54.8,28.8-58,59.9-3.4,33.6,12,60.1,41.3,71.1,25.2,9.5,61.2,6.3,82.2-7.4,9.6-6.1,18.7-17.8,21.8-27.9l.7-2.2h-49.8l-1.3,2.5c-1.9,3.6-7.9,7.4-13.2,8.4-9.4,1.7-19.1-1.7-25.1-8.9-2.4-2.8-5.7-11.3-5.7-14.7,0-1.1,9.2-1.3,49.6-1.3h49.7l-.6-9.1c-.9-12-3.9-23.6-8.9-33.9-3.4-6.9-5.8-10.1-12.7-17-9.8-9.7-18.3-14.6-31.7-18.1-10.3-2.7-28.3-3.4-38.3-1.4ZM886.9,79.3c5.6,2.9,10.1,8.4,11.6,14.4l1.2,4.8-23.5.3c-12.9.1-23.7,0-24-.2-.9-1,1.9-10.1,4.1-13.3,5.8-8.5,20.2-11.4,30.6-6Z"/>
  <path class="cls-1" d="M1035.4,46c-11.1,2.2-21.2,10.6-27,22.5l-3.4,7v-26.5h-47v130h51.9l.3-30.3c.3-28.6.5-30.5,2.6-35.9,2.5-6.2,8-11.9,14.1-14.6,2.6-1.2,6.7-1.6,14.4-1.7h10.7v-25.1c0-22-.2-25.3-1.6-25.8-2.1-.8-9.9-.6-15,.4Z"/>
  <path class="cls-1" d="M1103,46.1c-21.7,2.8-38.7,13.5-44.1,27.8-3,7.9-3,20.9,0,27.6,6.8,15.4,17.9,21.2,55.2,28.9,12.3,2.6,19.2,5.4,20.9,8.5,1.9,3.6,1.2,8.6-1.7,11.5-3.2,3.3-6.1,4.1-13.8,4.1-4.2,0-7.1-.6-9.5-2.1-4.1-2.4-8-7.7-8-11v-2.4h-49.7l.9,5.2c1.4,8.1,6.1,16.8,12.1,22.5,10.6,10,25.2,15,46.8,16,36.4,1.7,62.7-8.4,72.1-27.5,3.1-6.2,3.3-7.4,3.3-16.7s-.3-10.6-2.8-15.6c-6.5-13.4-22-21.5-53.4-27.9-20.5-4.3-25.7-7.1-25.1-13.7.4-5.3,5-7.8,14-7.8,7.9,0,11.2,1.9,14.3,8.3l2,4.1,23.3.1h23.3l-.7-3.8c-2-11.1-8.4-20.7-18.1-27.2-12.1-7.9-38.6-11.8-61.3-8.9Z"/>
  <path class="cls-1" d="M1250,46.1c-11.6,1.3-22.9,4.2-30.6,8-11.8,5.8-19.8,17.3-20.5,29.5l-.3,4.9,24.6.3,24.6.2,1.2-3.5c1.8-5.6,6.8-8.7,14.8-9.2,12.2-.9,19.3,2.8,19.5,10.2.2,7.6-5.8,10.1-33.3,13.9-9.6,1.4-19.5,2.9-22,3.5-25.2,5.7-37.2,18.2-37.2,38.8,0,9.9,2.2,17.8,6.5,23.5,8.6,11.2,22.4,16.8,41.9,16.8,15.7,0,30.3-4.6,41.6-13.1,2.9-2.3,5.5-3.9,5.6-3.7.2.1.7,3,1.2,6.3l.9,6,26.8.3c28.8.3,29.5.1,24.2-4.8-1.4-1.3-2.9-4-3.5-5.9-.6-2.1-1-19.9-1-42.6,0-21.5-.5-41.9-1-45.5-.6-3.6-2.5-9.4-4.3-13-7.3-14.6-23.4-20.9-55.2-21.5-8.8-.2-19.8.1-24.5.6ZM1283.4,127.7c-1.8,17.4-7.1,24.4-19.6,25.9-6.9.8-13.3-1-17.1-4.7-2.6-2.7-2.9-3.5-2.4-7.5.8-7.6,5.3-10.8,20.2-14.3,5-1.1,10.9-2.7,13-3.5,6.5-2.4,6.6-2.3,5.9,4.1Z"/>
  <path class="cls-1" d="M1431.6,46.1c-8.6,1.4-18.9,7.2-26.6,15.1l-7,7.1v-19.3h-47v130h51v-36c0-22.4.4-37.9,1.1-41.2,2.3-11.1,8-15.8,18.9-15.8,10,0,14.9,3.8,17.5,13.5,1.2,4.8,1.5,12.7,1.5,42.7v36.8h52.2l-.4-45.3c-.5-41.8-.7-45.8-2.6-52.8-2.8-10.4-5.6-16.1-10.9-21.9-9.7-10.8-29.1-16.1-47.7-12.9Z"/>
</svg>