<?xml version="1.0" encoding="UTF-8" standalone="no"?>
<svg
   xmlns:dc="http://purl.org/dc/elements/1.1/"
   xmlns:cc="http://creativecommons.org/ns#"
   xmlns:rdf="http://www.w3.org/1999/02/22-rdf-syntax-ns#"
   xmlns:svg="http://www.w3.org/2000/svg"
   xmlns="http://www.w3.org/2000/svg"
   viewBox="0 0 1200 800"
   height="800"
   width="1200"
   xml:space="preserve"
   id="svg2"
   version="1.1"><metadata
     id="metadata8"><rdf:RDF><cc:Work
         rdf:about=""><dc:format>image/svg+xml</dc:format><dc:type
           rdf:resource="http://purl.org/dc/dcmitype/StillImage" /></cc:Work></rdf:RDF></metadata><defs
     id="defs6"><clipPath
       id="clipPath18"
       clipPathUnits="userSpaceOnUse"><path
         id="path16"
         d="m 17.432,116.624 h 810.924 v 376.94 H 17.432 Z" /></clipPath></defs><g
     transform="matrix(1.3333333,0,0,-1.3333333,0,800)"
     id="g10"><g
       id="g12"><g
         clip-path="url(#clipPath18)"
         id="g14"><g
           transform="translate(473.5186,381.7964)"
           id="g20"><path
             id="path22"
             style="fill:#393536;fill-opacity:1;fill-rule:nonzero;stroke:none"
             d="m 0,0 11.98,34.234 c 0.892,2.188 1.843,4.776 2.857,7.766 1.019,2.991 1.971,6.233 2.868,9.74 1.013,-3.446 2.026,-6.655 3.04,-9.611 1.014,-2.963 1.965,-5.537 2.862,-7.724 L 35.683,0 Z M 35.875,77.611 H 3.944 L -48.115,-48.036 h 24.367 c 2.584,0 4.752,0.647 6.508,1.95 1.747,1.285 2.967,2.736 3.647,4.344 l 7.937,21.908 h 51.131 l 7.929,-21.908 c 0.87,-1.838 2.134,-3.342 3.79,-4.523 1.664,-1.178 3.845,-1.771 6.555,-1.771 h 24.182 z m 156.154,0 c -1.466,0 -2.89,-0.259 -4.238,-0.777 -1.353,-0.51 -2.617,-1.191 -3.783,-2.016 -1.172,-0.838 -2.237,-1.778 -3.178,-2.806 -0.961,-1.043 -1.782,-2.072 -2.456,-3.106 L 137.489,3.624 c -1.6,-2.364 -3.226,-5.102 -4.892,-8.236 -1.662,-3.14 -3.207,-6.512 -4.617,-10.135 0.682,4.142 1.117,8.038 1.291,11.689 0.191,3.643 0.282,7.111 0.282,10.387 V 77.611 H 98.171 V -48.036 h 23.536 c 1.481,0 2.885,0.259 4.246,0.777 1.347,0.519 2.617,1.198 3.789,2.024 1.164,0.838 2.225,1.778 3.186,2.805 0.94,1.035 1.761,2.073 2.442,3.107 l 40.884,65.281 c 1.6,2.357 3.229,5.103 4.885,8.236 1.671,3.134 3.207,6.539 4.625,10.218 -0.625,-4.136 -1.032,-8.039 -1.256,-11.683 -0.211,-3.651 -0.324,-7.118 -0.324,-10.394 v -70.371 h 31.382 V 77.611 Z m 162.809,0 H 241.596 V -48.036 h 31.382 V 55.97 h 50.478 V -48.036 h 31.382 z" /></g><g
           transform="translate(363.8701,289.0342)"
           id="g24"><path
             id="path26"
             style="fill:#2056ae;fill-opacity:1;fill-rule:nonzero;stroke:none"
             d="M 0,0 C 1.114,10.75 1.094,21.395 0.051,31.871 L 29.82,46.284 C 27.753,59.288 24.367,71.841 19.822,83.83 l -33.01,-2.392 c -4.365,9.692 -9.703,18.951 -15.894,27.608 l 18.611,27.396 c -8.187,10.08 -17.373,19.304 -27.412,27.512 l -27.378,-18.568 c -8.491,6.143 -17.705,11.504 -27.532,15.945 l 2.419,33.064 c -11.959,4.57 -24.485,7.99 -37.464,10.08 l -14.417,-29.813 c -10.737,1.089 -21.385,1.075 -31.835,0.04 l -14.384,29.828 c -12.994,-2.077 -25.524,-5.463 -37.492,-10.027 l 2.381,-33.084 c -9.678,-4.365 -18.915,-9.699 -27.544,-15.911 l -27.358,18.637 c -10.052,-8.195 -19.255,-17.39 -27.458,-27.451 l 18.542,-27.409 c -6.14,-8.55 -11.487,-17.751 -15.911,-27.601 l -33.007,2.432 c -4.562,-11.981 -7.972,-24.53 -10.062,-37.533 l 29.773,-14.467 c -1.108,-10.742 -1.081,-21.387 -0.05,-31.879 l -29.778,-14.406 c 2.067,-13.011 5.459,-25.564 10.004,-37.551 l 33.038,2.39 c 4.373,-9.692 9.668,-18.941 15.86,-27.578 l -18.589,-27.428 c 8.179,-10.082 17.358,-19.291 27.404,-27.506 l 27.371,18.569 c 8.527,-6.143 17.719,-11.512 27.558,-15.924 l -2.438,-33.093 c 11.953,-4.563 24.477,-7.982 37.457,-10.066 l 14.441,29.821 c 10.719,-1.105 21.368,-1.092 31.811,-0.028 l 14.384,-29.847 c 12.987,2.069 25.517,5.463 37.485,10.026 l -2.367,33.089 c 9.68,4.359 18.909,9.7 27.531,15.886 l 27.352,-18.622 c 10.065,8.2 19.266,17.395 27.463,27.463 l -18.534,27.407 c 6.139,8.534 11.488,17.738 15.923,27.593 L 19.704,-52 c 4.575,11.976 7.985,24.521 10.069,37.524 z" /></g><g
           transform="translate(309.4336,294.5586)"
           id="g28"><path
             id="path30"
             style="fill:#ffffff;fill-opacity:1;fill-rule:nonzero;stroke:none"
             d="m 0,0 c 0.73,7.042 0.718,14.038 0.034,20.919 l 19.537,9.446 C 18.213,38.9 15.993,47.135 13.003,55.002 L -8.655,53.436 c -2.863,6.362 -6.371,12.439 -10.423,18.106 l 12.204,17.982 c -5.375,6.614 -11.396,12.669 -17.984,18.05 L -42.821,95.388 c -5.569,4.04 -11.62,7.561 -18.06,10.463 l 1.58,21.702 c -7.844,2.989 -16.061,5.238 -24.578,6.606 l -9.462,-19.562 c -7.036,0.722 -14.036,0.709 -20.881,0.027 l -9.44,19.576 c -8.529,-1.362 -16.75,-3.589 -24.596,-6.579 l 1.556,-21.709 c -6.345,-2.861 -12.411,-6.369 -18.064,-10.442 l -17.957,12.241 c -6.592,-5.388 -12.631,-11.423 -18.012,-18.017 l 12.164,-17.988 c -4.025,-5.606 -7.541,-11.642 -10.438,-18.119 l -21.661,1.607 c -2.985,-7.867 -5.236,-16.103 -6.599,-24.632 l 19.537,-9.487 c -0.723,-7.045 -0.71,-14.038 -0.036,-20.912 l -19.535,-9.462 c 1.357,-8.521 3.575,-16.769 6.572,-24.637 l 21.659,1.567 c 2.875,-6.355 6.35,-12.431 10.422,-18.099 l -12.205,-17.996 c 5.362,-6.599 11.393,-12.647 17.979,-18.05 l 17.962,12.2 c 5.59,-4.045 11.621,-7.562 18.073,-10.457 l -1.599,-21.699 c 7.845,-3.009 16.061,-5.243 24.586,-6.607 l 9.466,19.559 c 7.041,-0.727 14.025,-0.714 20.881,-0.019 l 9.442,-19.594 c 8.515,1.362 16.73,3.598 24.592,6.58 l -1.56,21.727 c 6.351,2.853 12.411,6.354 18.066,10.415 l 17.943,-12.227 c 6.601,5.381 12.643,11.421 18.018,18.022 l -12.161,17.983 c 4.035,5.599 7.547,11.642 10.45,18.106 l 21.654,-1.587 c 2.983,7.852 5.228,16.088 6.597,24.609 z" /></g><g
           transform="translate(273.6875,311.8926)"
           id="g32"><path
             id="path34"
             style="fill:#ed1c24;fill-opacity:1;fill-rule:nonzero;stroke:none"
             d="m 0,0 12.802,6.199 c -0.883,5.598 -2.346,11 -4.299,16.151 L -5.695,21.315 c -1.873,4.181 -4.179,8.166 -6.837,11.884 l 7.999,11.785 c -3.515,4.339 -7.472,8.304 -11.785,11.838 l -11.777,-7.99 c -3.654,2.645 -7.622,4.947 -11.842,6.866 l 1.038,14.217 c -5.155,1.961 -10.542,3.433 -16.119,4.345 l -6.204,-12.846 c -4.622,0.482 -9.195,0.478 -13.693,0.028 L -81.1,74.28 c -5.592,-0.891 -10.987,-2.356 -16.13,-4.312 l 1.015,-14.235 c -4.157,-1.88 -8.138,-4.175 -11.83,-6.852 l -11.78,8.023 c -4.324,-3.521 -8.279,-7.479 -11.806,-11.81 l 7.971,-11.792 c -2.649,-3.672 -4.939,-7.635 -6.847,-11.879 l -14.209,1.05 c -1.95,-5.144 -3.41,-10.545 -4.316,-16.139 l 12.811,-6.231 c -0.473,-4.618 -0.466,-9.197 -0.019,-13.711 l -12.816,-6.2 c 0.894,-5.59 2.344,-10.987 4.305,-16.148 l 14.211,1.026 c 1.873,-4.174 4.165,-8.153 6.823,-11.865 l -7.999,-11.798 c 3.516,-4.339 7.468,-8.297 11.785,-11.83 l 11.773,7.983 c 3.673,-2.643 7.626,-4.945 11.859,-6.846 l -1.05,-14.237 c 5.151,-1.968 10.542,-3.424 16.118,-4.339 l 6.216,12.84 c 4.61,-0.484 9.184,-0.476 13.681,-0.021 l 6.191,-12.832 c 5.582,0.892 10.975,2.343 16.118,4.306 l -1.009,14.234 c 4.165,1.881 8.138,4.171 11.843,6.841 l 11.76,-8.019 c 4.331,3.53 8.292,7.487 11.813,11.818 l -7.971,11.793 c 2.645,3.664 4.942,7.634 6.843,11.863 l 14.204,-1.04 c 1.965,5.156 3.426,10.551 4.331,16.143 l -12.817,6.225 C 0.451,-9.086 0.445,-4.507 0,0" /></g><g
           transform="translate(205.5645,275.6426)"
           id="g36"><path
             id="path38"
             style="fill:#ffffff;fill-opacity:1;fill-rule:nonzero;stroke:none"
             d="M 0,0 C 16.237,0 29.397,13.188 29.397,29.453 29.397,45.72 16.237,58.899 0,58.899 -16.237,58.899 -29.393,45.72 -29.393,29.453 -29.393,13.188 -16.237,0 0,0" /></g></g></g><text
       id="text46"
       style="font-variant:normal;font-weight:normal;font-stretch:normal;font-size:41px;font-family:Lato;-inkscape-font-specification:Lato-Regular;writing-mode:lr-tb;fill:#393536;fill-opacity:1;fill-rule:nonzero;stroke:none"
       transform="matrix(1,0,0,-1,429.0972,255.7607)"><tspan
         id="tspan40"
         y="0"
         x="0 26.9575 53.7715 80.585503 113.3855 145.36549 176.6485 204.3235 236.3035 267.58649 294.8515">АССОЦИАЦИЯ </tspan><tspan
         id="tspan42"
         y="49.200001"
         x="0 31.283001 62.566002 94.095001 118.7155 146.1035 170.2935 194.89349 226.1765 254.446 284.17099 309.099 340.38199 377.241 403.85001">ИНДУСТРИАЛЬНЫХ </tspan><tspan
         id="tspan44"
         y="98.400002"
         x="0 30.135 57.810001 82.410004 108.527 141.327 167.813 178.30901 202.909 235.709 262.52301 289.91101 321.194">ПАРКОВ РОССИИ</tspan></text>
</g></svg>