<?xml version="1.0" encoding="UTF-8" standalone="no"?>
<!-- Created with Inkscape (http://www.inkscape.org/) -->

<svg
   version="1.1"
   id="svg2"
   width="355.28"
   height="204.09332"
   viewBox="0 0 355.28 204.09332"
   sodipodi:docname="Logo.ai"
   xmlns:inkscape="http://www.inkscape.org/namespaces/inkscape"
   xmlns:sodipodi="http://sodipodi.sourceforge.net/DTD/sodipodi-0.dtd"
   xmlns="http://www.w3.org/2000/svg"
   xmlns:svg="http://www.w3.org/2000/svg">
  <defs
     id="defs6">
    <clipPath
       clipPathUnits="userSpaceOnUse"
       id="clipPath16">
      <path
         d="M 0,153.07 H 266.46 V 0 H 0 Z"
         id="path14" />
    </clipPath>
  </defs>
  <sodipodi:namedview
     id="namedview4"
     pagecolor="#ffffff"
     bordercolor="#000000"
     borderopacity="0.25"
     inkscape:showpageshadow="2"
     inkscape:pageopacity="0.0"
     inkscape:pagecheckerboard="0"
     inkscape:deskcolor="#d1d1d1" />
  <g
     id="g8"
     inkscape:groupmode="layer"
     inkscape:label="Logo"
     transform="matrix(1.3333333,0,0,-1.3333333,0,204.09333)">
    <g
       id="g10">
      <g
         id="g12"
         clip-path="url(#clipPath16)">
        <g
           id="g18"
           transform="translate(195.147,79.5503)">
          <path
             d="m 0,0 c -0.187,0 -0.352,-0.034 -0.496,-0.103 -0.146,-0.067 -0.273,-0.189 -0.381,-0.362 -0.109,-0.174 -0.191,-0.409 -0.247,-0.708 -0.057,-0.297 -0.085,-0.673 -0.085,-1.124 0,-0.451 0.029,-0.826 0.09,-1.124 0.061,-0.299 0.147,-0.534 0.26,-0.707 0.113,-0.174 0.253,-0.294 0.418,-0.364 0.164,-0.068 0.352,-0.101 0.561,-0.101 H 1.451 V -5.199 C 1.265,-5.263 1.034,-5.32 0.756,-5.369 0.477,-5.417 0.186,-5.441 -0.121,-5.441 c -0.428,0 -0.798,0.057 -1.112,0.17 -0.316,0.112 -0.579,0.293 -0.792,0.543 -0.214,0.25 -0.373,0.574 -0.479,0.975 -0.103,0.398 -0.156,0.883 -0.156,1.456 0,0.573 0.053,1.058 0.156,1.457 0.106,0.4 0.261,0.724 0.466,0.974 0.206,0.25 0.457,0.431 0.756,0.543 0.299,0.114 0.644,0.171 1.04,0.171 0.306,0 0.598,-0.025 0.876,-0.074 C 0.912,0.726 1.145,0.67 1.33,0.605 V 0 Z m -7.921,0.726 h 1.512 l -1.39,-2.962 1.451,-3.084 H -7.86 l -0.967,2.237 -0.968,-2.237 h -1.512 l 1.452,3.084 -1.391,2.962 h 1.512 l 0.907,-2.116 z m -8.827,-5.319 c 0.105,0 0.212,0.017 0.321,0.052 0.109,0.038 0.205,0.098 0.289,0.182 0.085,0.085 0.156,0.201 0.212,0.352 0.057,0.148 0.085,0.336 0.085,0.562 0,0.209 -0.028,0.385 -0.085,0.526 -0.056,0.141 -0.127,0.253 -0.212,0.338 -0.084,0.084 -0.18,0.143 -0.289,0.175 -0.109,0.032 -0.216,0.048 -0.321,0.048 h -0.665 v -2.235 z m -0.665,3.022 c 0.154,0.032 0.324,0.061 0.515,0.085 0.189,0.023 0.361,0.035 0.513,0.035 0.29,0 0.557,-0.027 0.799,-0.084 0.241,-0.056 0.451,-0.156 0.628,-0.302 0.177,-0.145 0.316,-0.347 0.418,-0.604 0.1,-0.259 0.149,-0.594 0.149,-1.004 0,-0.411 -0.05,-0.746 -0.156,-1.004 -0.104,-0.259 -0.256,-0.46 -0.453,-0.604 -0.198,-0.146 -0.444,-0.246 -0.737,-0.303 -0.295,-0.057 -0.632,-0.085 -1.011,-0.085 -0.458,0 -0.851,0.019 -1.173,0.055 -0.322,0.037 -0.637,0.099 -0.943,0.187 v 5.925 h 1.451 z m 5.14,-3.749 h -1.451 v 6.045 h 1.451 z m -11.247,0 h -1.451 v 6.046 h 1.451 v -2.539 h 1.633 v 2.539 h 1.451 V -5.32 h -1.451 v 2.6 h -1.633 z m -6.106,0 h -1.451 v 6.046 h 1.451 v -2.539 h 1.633 v 2.539 h 1.451 V -5.32 h -1.451 v 2.6 h -1.633 z m -4.171,3.446 c 0,0.396 -0.022,0.718 -0.067,0.968 -0.045,0.25 -0.103,0.447 -0.176,0.593 -0.071,0.145 -0.161,0.243 -0.265,0.295 -0.105,0.053 -0.217,0.079 -0.339,0.079 -0.121,0 -0.234,-0.026 -0.337,-0.079 -0.106,-0.052 -0.196,-0.15 -0.267,-0.295 -0.073,-0.146 -0.131,-0.343 -0.176,-0.593 -0.044,-0.25 -0.066,-0.572 -0.066,-0.968 z m 1.45,-0.846 h -3.143 c 0,-0.694 0.123,-1.18 0.369,-1.456 0.245,-0.279 0.627,-0.417 1.142,-0.417 h 1.331 v -0.606 c -0.187,-0.064 -0.417,-0.121 -0.696,-0.17 -0.278,-0.048 -0.57,-0.072 -0.877,-0.072 -0.467,0 -0.873,0.057 -1.215,0.17 -0.343,0.112 -0.625,0.293 -0.847,0.543 -0.22,0.25 -0.387,0.574 -0.494,0.975 -0.11,0.398 -0.164,0.883 -0.164,1.456 0,0.573 0.052,1.058 0.157,1.457 0.105,0.4 0.254,0.724 0.447,0.974 0.194,0.25 0.434,0.431 0.72,0.543 0.287,0.114 0.611,0.171 0.973,0.171 0.364,0 0.688,-0.057 0.974,-0.171 0.285,-0.112 0.525,-0.293 0.719,-0.543 0.193,-0.25 0.342,-0.574 0.447,-0.974 0.106,-0.399 0.157,-0.884 0.157,-1.457 z m -10.216,3.325 c 0.305,0.088 0.619,0.152 0.936,0.187 0.318,0.037 0.691,0.056 1.118,0.056 0.396,0 0.742,-0.028 1.041,-0.079 0.297,-0.053 0.55,-0.143 0.755,-0.273 0.206,-0.128 0.361,-0.301 0.465,-0.519 0.105,-0.217 0.158,-0.492 0.158,-0.823 0,-0.193 -0.031,-0.361 -0.09,-0.502 -0.061,-0.141 -0.139,-0.26 -0.237,-0.356 -0.097,-0.097 -0.201,-0.175 -0.314,-0.236 -0.113,-0.061 -0.222,-0.111 -0.326,-0.151 V -2.14 c 0.136,-0.039 0.276,-0.096 0.416,-0.169 0.142,-0.073 0.27,-0.169 0.388,-0.291 0.116,-0.12 0.213,-0.266 0.29,-0.435 0.076,-0.169 0.115,-0.366 0.115,-0.591 0,-0.364 -0.052,-0.663 -0.158,-0.897 -0.104,-0.232 -0.264,-0.418 -0.476,-0.555 -0.214,-0.137 -0.481,-0.232 -0.799,-0.283 -0.318,-0.053 -0.687,-0.08 -1.107,-0.08 -0.484,0 -0.89,0.019 -1.22,0.055 -0.331,0.037 -0.65,0.099 -0.955,0.187 z M -41.113,0 v -1.752 h 0.604 c 0.113,0 0.224,0.016 0.333,0.048 0.11,0.033 0.205,0.083 0.29,0.15 0.084,0.069 0.154,0.156 0.206,0.261 0.053,0.104 0.078,0.234 0.078,0.387 0,0.169 -0.028,0.31 -0.085,0.423 -0.055,0.113 -0.126,0.206 -0.21,0.278 -0.085,0.073 -0.182,0.125 -0.291,0.158 C -40.296,-0.016 -40.404,0 -40.509,0 Z m 0.725,-4.593 c 0.138,0 0.269,0.015 0.393,0.048 0.126,0.032 0.234,0.087 0.327,0.169 0.094,0.081 0.168,0.187 0.223,0.32 0.057,0.133 0.086,0.296 0.086,0.489 0,0.363 -0.104,0.614 -0.309,0.756 -0.205,0.141 -0.445,0.211 -0.72,0.211 h -0.725 v -1.993 z m -3.084,5.319 v -0.907 h -1.51 V -5.32 h -1.452 v 5.139 h -1.511 V 0.726 Z M -49.698,0 c -0.185,0 -0.351,-0.034 -0.496,-0.103 -0.146,-0.067 -0.273,-0.189 -0.381,-0.362 -0.11,-0.174 -0.192,-0.409 -0.247,-0.708 -0.057,-0.297 -0.085,-0.673 -0.085,-1.124 0,-0.451 0.029,-0.826 0.091,-1.124 0.06,-0.299 0.146,-0.534 0.258,-0.707 0.114,-0.174 0.253,-0.294 0.418,-0.364 0.165,-0.068 0.353,-0.101 0.562,-0.101 h 1.331 v -0.606 c -0.185,-0.064 -0.417,-0.121 -0.695,-0.17 -0.279,-0.048 -0.571,-0.072 -0.877,-0.072 -0.427,0 -0.798,0.057 -1.113,0.17 -0.314,0.112 -0.578,0.293 -0.792,0.543 -0.213,0.25 -0.373,0.574 -0.478,0.975 -0.104,0.398 -0.156,0.883 -0.156,1.456 0,0.573 0.052,1.058 0.156,1.457 0.105,0.4 0.261,0.724 0.467,0.974 0.205,0.25 0.456,0.431 0.755,0.543 0.298,0.114 0.644,0.171 1.041,0.171 0.306,0 0.598,-0.025 0.876,-0.074 0.277,-0.048 0.509,-0.104 0.695,-0.169 V 0 Z m -5.683,0.848 c 0.297,0 0.574,-0.057 0.828,-0.171 0.254,-0.112 0.472,-0.293 0.653,-0.543 0.181,-0.25 0.323,-0.574 0.422,-0.974 0.102,-0.399 0.152,-0.884 0.152,-1.457 0,-0.573 -0.05,-1.058 -0.152,-1.456 -0.099,-0.401 -0.246,-0.725 -0.434,-0.975 -0.19,-0.25 -0.419,-0.431 -0.69,-0.543 -0.27,-0.113 -0.57,-0.17 -0.901,-0.17 -0.209,0 -0.399,0.028 -0.574,0.085 -0.173,0.057 -0.324,0.128 -0.452,0.218 v -2.6 h -1.452 v 8.464 h 1.027 l 0.183,-0.362 h 0.06 c 0.129,0.12 0.298,0.231 0.507,0.332 0.209,0.1 0.483,0.152 0.823,0.152 m -1.148,-5.2 c 0.064,-0.065 0.152,-0.122 0.265,-0.171 0.113,-0.047 0.246,-0.07 0.399,-0.07 0.153,0 0.296,0.033 0.429,0.101 0.133,0.07 0.248,0.19 0.345,0.364 0.096,0.173 0.173,0.408 0.23,0.707 0.055,0.298 0.084,0.673 0.084,1.124 0,0.451 -0.029,0.827 -0.084,1.124 -0.057,0.299 -0.134,0.534 -0.23,0.708 -0.097,0.173 -0.212,0.295 -0.345,0.362 -0.133,0.069 -0.276,0.103 -0.429,0.103 -0.153,0 -0.28,-0.023 -0.381,-0.071 -0.102,-0.049 -0.196,-0.106 -0.283,-0.169 z m -5.624,-1.089 c -0.257,0 -0.5,0.027 -0.725,0.08 -0.227,0.051 -0.424,0.15 -0.593,0.295 -0.169,0.145 -0.304,0.342 -0.405,0.592 -0.101,0.25 -0.152,0.573 -0.152,0.968 0,0.395 0.051,0.717 0.152,0.967 0.101,0.25 0.24,0.448 0.417,0.594 0.177,0.144 0.387,0.243 0.628,0.296 0.242,0.052 0.509,0.078 0.799,0.078 0.185,0 0.365,-0.012 0.538,-0.037 0.173,-0.024 0.337,-0.053 0.49,-0.083 v 0.483 c 0,0.482 -0.113,0.806 -0.339,0.968 -0.225,0.16 -0.536,0.24 -0.931,0.24 h -1.209 v 0.605 c 0.185,0.065 0.413,0.121 0.684,0.169 0.27,0.049 0.525,0.074 0.767,0.074 0.411,0 0.77,-0.029 1.076,-0.086 0.307,-0.056 0.564,-0.159 0.773,-0.308 0.21,-0.148 0.367,-0.359 0.472,-0.628 0.106,-0.27 0.157,-0.615 0.157,-1.034 V -5.32 h -1.027 l -0.181,0.362 h -0.06 c -0.13,-0.12 -0.299,-0.231 -0.509,-0.333 -0.209,-0.099 -0.483,-0.15 -0.822,-0.15 m 1.149,3.023 h -0.666 c -0.104,0 -0.211,-0.015 -0.32,-0.048 -0.108,-0.032 -0.205,-0.09 -0.291,-0.176 -0.083,-0.085 -0.154,-0.197 -0.21,-0.338 -0.057,-0.141 -0.086,-0.316 -0.086,-0.526 0,-0.21 0.029,-0.385 0.086,-0.526 0.056,-0.141 0.127,-0.254 0.21,-0.339 0.086,-0.084 0.183,-0.142 0.291,-0.174 0.109,-0.033 0.216,-0.048 0.32,-0.048 0.154,0 0.286,0.023 0.4,0.07 0.113,0.049 0.202,0.106 0.266,0.171 z m -5.636,0.278 c 0.218,-0.048 0.423,-0.157 0.618,-0.326 0.193,-0.17 0.334,-0.435 0.423,-0.798 l 0.242,-0.968 c 0.032,-0.12 0.109,-0.23 0.23,-0.332 0.121,-0.1 0.286,-0.151 0.495,-0.151 V -5.32 c -0.065,-0.023 -0.14,-0.045 -0.229,-0.06 -0.161,-0.041 -0.347,-0.061 -0.557,-0.061 -0.395,0 -0.706,0.094 -0.931,0.285 -0.226,0.19 -0.379,0.436 -0.46,0.742 l -0.302,1.15 c -0.056,0.21 -0.142,0.372 -0.26,0.49 -0.117,0.116 -0.253,0.174 -0.405,0.174 h -0.181 v -2.72 h -1.451 v 6.046 h 1.451 v -2.417 h 0.181 c 0.089,0 0.173,0.042 0.254,0.125 0.081,0.085 0.177,0.265 0.291,0.539 l 0.362,0.907 c 0.121,0.306 0.282,0.544 0.483,0.713 0.202,0.169 0.484,0.255 0.847,0.255 0.104,0 0.206,-0.007 0.303,-0.019 0.096,-0.013 0.181,-0.026 0.253,-0.042 0.089,-0.025 0.166,-0.045 0.23,-0.061 V 0.122 c -0.21,0 -0.362,-0.039 -0.46,-0.115 -0.096,-0.077 -0.164,-0.159 -0.205,-0.247 l -0.303,-0.787 c -0.128,-0.339 -0.267,-0.589 -0.416,-0.75 -0.15,-0.161 -0.316,-0.266 -0.503,-0.314 z m -5.488,0.266 c 0,0.396 -0.023,0.718 -0.068,0.968 -0.043,0.25 -0.102,0.447 -0.176,0.593 -0.071,0.145 -0.16,0.243 -0.264,0.295 -0.106,0.053 -0.218,0.079 -0.34,0.079 -0.12,0 -0.233,-0.026 -0.337,-0.079 -0.106,-0.052 -0.195,-0.15 -0.267,-0.295 -0.072,-0.146 -0.13,-0.343 -0.175,-0.593 -0.045,-0.25 -0.066,-0.572 -0.066,-0.968 z m 1.45,-0.846 h -3.143 c 0,-0.694 0.123,-1.18 0.368,-1.456 0.246,-0.279 0.627,-0.417 1.142,-0.417 h 1.331 v -0.606 c -0.186,-0.064 -0.417,-0.121 -0.696,-0.17 -0.278,-0.048 -0.57,-0.072 -0.877,-0.072 -0.467,0 -0.872,0.057 -1.215,0.17 -0.342,0.112 -0.624,0.293 -0.847,0.543 -0.22,0.25 -0.386,0.574 -0.494,0.975 -0.11,0.398 -0.163,0.883 -0.163,1.456 0,0.573 0.052,1.058 0.156,1.457 0.106,0.4 0.254,0.724 0.448,0.974 0.194,0.25 0.433,0.431 0.72,0.543 0.286,0.114 0.61,0.171 0.972,0.171 0.364,0 0.688,-0.057 0.975,-0.171 0.285,-0.112 0.525,-0.293 0.719,-0.543 0.193,-0.25 0.342,-0.574 0.447,-0.974 0.105,-0.399 0.157,-0.884 0.157,-1.457 z m -5.865,3.446 V -5.32 h -1.451 v 5.139 h -1.256 l -0.194,-3.203 c -0.04,-0.694 -0.208,-1.209 -0.502,-1.549 -0.295,-0.338 -0.652,-0.508 -1.071,-0.508 -0.209,0 -0.39,0.02 -0.544,0.061 -0.153,0.041 -0.234,0.06 -0.242,0.06 v 0.605 c 0.211,0 0.406,0.1 0.588,0.301 0.181,0.203 0.288,0.545 0.32,1.03 l 0.242,4.11 z M 50.544,13.436 V 12.529 H 49.032 V 7.39 h -1.451 v 5.139 H 46.07 v 0.907 z m -6.348,0 h 1.39 L 44.438,7.269 C 44.277,6.415 44.019,5.797 43.663,5.418 43.31,5.04 42.842,4.85 42.261,4.85 42.02,4.85 41.796,4.874 41.59,4.923 41.384,4.971 41.206,5.028 41.052,5.092 v 0.605 h 0.786 c 0.152,0 0.291,0.022 0.411,0.066 0.121,0.045 0.23,0.125 0.327,0.242 0.096,0.116 0.182,0.278 0.259,0.484 0.077,0.205 0.147,0.465 0.212,0.78 -0.363,0 -0.681,0.135 -0.955,0.405 -0.275,0.27 -0.459,0.618 -0.557,1.046 l -1.088,4.716 h 1.391 L 42.926,8.72 C 42.95,8.614 42.979,8.535 43.011,8.478 43.043,8.421 43.076,8.38 43.106,8.357 43.14,8.325 43.18,8.305 43.229,8.297 Z m -4.112,0 V 12.529 H 38.573 V 7.39 h -1.451 v 5.139 H 35.61 v 0.907 z M 33.313,11.198 H 33.252 L 31.56,7.39 h -1.452 v 6.046 h 1.39 V 9.748 h 0.062 l 1.572,3.688 h 1.571 V 7.39 h -1.39 z m -4.112,2.238 V 12.529 H 27.69 V 7.39 h -1.451 v 5.139 h -1.511 v 0.907 z M 22.975,12.71 c -0.187,0 -0.351,-0.034 -0.496,-0.103 -0.146,-0.069 -0.273,-0.189 -0.381,-0.362 -0.11,-0.174 -0.192,-0.41 -0.248,-0.708 -0.056,-0.297 -0.084,-0.673 -0.084,-1.124 0,-0.452 0.029,-0.827 0.09,-1.124 0.061,-0.299 0.147,-0.536 0.259,-0.708 0.114,-0.173 0.253,-0.295 0.418,-0.363 0.165,-0.069 0.353,-0.102 0.562,-0.102 h 1.331 V 7.51 C 24.239,7.445 24.009,7.39 23.73,7.341 23.452,7.293 23.16,7.269 22.854,7.269 c -0.427,0 -0.798,0.056 -1.113,0.169 -0.314,0.113 -0.578,0.294 -0.792,0.544 -0.213,0.25 -0.373,0.574 -0.478,0.973 -0.104,0.4 -0.157,0.885 -0.157,1.458 0,0.571 0.053,1.058 0.157,1.456 0.105,0.401 0.26,0.725 0.467,0.975 0.205,0.25 0.456,0.43 0.754,0.543 0.299,0.113 0.645,0.169 1.041,0.169 0.305,0 0.599,-0.025 0.875,-0.072 0.279,-0.048 0.511,-0.105 0.697,-0.17 V 12.71 Z M 15.961,7.39 H 14.51 v 6.046 h 1.451 v -2.54 h 1.632 v 2.54 h 1.451 V 7.39 h -1.451 v 2.6 h -1.632 z m -4.413,3.808 H 11.486 L 9.794,7.39 h -1.45 v 6.046 h 1.39 V 9.748 h 0.06 l 1.572,3.688 h 1.572 V 7.39 h -1.39 z m -9.19,0 H 2.297 L 0.604,7.39 h -1.451 v 6.046 h 1.39 V 9.748 h 0.061 l 1.573,3.688 H 3.748 V 7.39 h -1.39 z m -0.967,3.93 c 0.241,0 0.454,0.051 0.634,0.152 0.182,0.1 0.333,0.211 0.454,0.332 L 3.084,15.007 C 2.897,14.732 2.667,14.514 2.395,14.349 2.12,14.183 1.785,14.1 1.391,14.1 c -0.395,0 -0.73,0.083 -1.004,0.249 -0.275,0.165 -0.504,0.383 -0.69,0.658 l 0.605,0.605 C 0.423,15.491 0.574,15.38 0.756,15.28 0.937,15.179 1.148,15.128 1.391,15.128 M -6.893,8.116 c 0.105,0 0.211,0.017 0.321,0.054 0.109,0.036 0.205,0.096 0.29,0.181 0.084,0.085 0.156,0.201 0.211,0.351 0.056,0.149 0.085,0.337 0.085,0.562 0,0.21 -0.029,0.385 -0.085,0.526 -0.055,0.14 -0.127,0.254 -0.211,0.339 -0.085,0.084 -0.181,0.142 -0.29,0.174 -0.11,0.033 -0.216,0.049 -0.321,0.049 H -7.558 V 8.116 Z m -0.665,3.022 c 0.154,0.033 0.325,0.06 0.514,0.084 0.19,0.025 0.361,0.037 0.514,0.037 0.29,0 0.556,-0.029 0.799,-0.084 0.241,-0.057 0.451,-0.158 0.627,-0.303 0.179,-0.146 0.317,-0.347 0.418,-0.604 0.101,-0.258 0.152,-0.593 0.152,-1.004 0,-0.412 -0.053,-0.745 -0.158,-1.004 C -4.797,8.002 -4.948,7.801 -5.146,7.656 -5.343,7.51 -5.589,7.409 -5.883,7.354 -6.178,7.297 -6.515,7.269 -6.893,7.269 c -0.459,0 -0.851,0.019 -1.172,0.053 -0.324,0.037 -0.638,0.099 -0.944,0.188 v 5.926 h 1.451 z M -2.419,7.39 H -3.87 v 6.045 h 1.451 z m -11.246,0 h -1.451 v 6.046 h 1.451 v -2.54 h 1.633 v 2.54 h 1.451 V 7.39 h -1.451 v 2.6 h -1.633 z m -6.106,0 h -1.452 v 6.046 h 1.452 v -2.54 h 1.632 v 2.54 h 1.451 V 7.39 h -1.451 v 2.6 h -1.632 z m -4.171,3.445 c 0,0.395 -0.023,0.718 -0.067,0.968 -0.044,0.25 -0.102,0.447 -0.176,0.593 -0.072,0.145 -0.16,0.244 -0.265,0.296 -0.106,0.052 -0.218,0.079 -0.339,0.079 -0.121,0 -0.234,-0.027 -0.338,-0.079 -0.105,-0.052 -0.193,-0.151 -0.267,-0.296 -0.073,-0.146 -0.13,-0.343 -0.175,-0.593 -0.044,-0.25 -0.067,-0.573 -0.067,-0.968 z m 1.451,-0.845 h -3.145 c 0,-0.693 0.123,-1.18 0.369,-1.458 0.246,-0.279 0.627,-0.416 1.144,-0.416 h 1.329 V 7.51 c -0.185,-0.065 -0.417,-0.12 -0.694,-0.169 -0.279,-0.048 -0.572,-0.072 -0.877,-0.072 -0.468,0 -0.873,0.056 -1.216,0.169 -0.342,0.113 -0.625,0.294 -0.846,0.544 -0.221,0.25 -0.388,0.574 -0.496,0.973 -0.109,0.4 -0.164,0.885 -0.164,1.458 0,0.571 0.053,1.058 0.157,1.456 0.106,0.401 0.254,0.725 0.449,0.975 0.193,0.25 0.432,0.43 0.718,0.543 0.287,0.113 0.612,0.169 0.974,0.169 0.363,0 0.687,-0.056 0.974,-0.169 0.286,-0.113 0.525,-0.293 0.718,-0.543 0.194,-0.25 0.344,-0.574 0.448,-0.975 0.105,-0.398 0.158,-0.885 0.158,-1.456 z m -10.218,3.324 c 0.307,0.089 0.619,0.151 0.938,0.187 0.317,0.037 0.69,0.055 1.117,0.055 0.395,0 0.742,-0.026 1.041,-0.078 0.297,-0.052 0.55,-0.144 0.755,-0.272 0.206,-0.129 0.361,-0.303 0.466,-0.52 0.104,-0.218 0.157,-0.492 0.157,-0.822 0,-0.193 -0.03,-0.361 -0.09,-0.503 -0.062,-0.14 -0.14,-0.259 -0.238,-0.357 -0.095,-0.095 -0.201,-0.174 -0.313,-0.234 -0.113,-0.062 -0.222,-0.111 -0.326,-0.152 v -0.049 c 0.138,-0.04 0.275,-0.095 0.417,-0.169 0.14,-0.072 0.27,-0.169 0.387,-0.29 0.117,-0.12 0.212,-0.266 0.29,-0.435 0.077,-0.169 0.115,-0.367 0.115,-0.593 0,-0.362 -0.053,-0.661 -0.157,-0.894 -0.106,-0.234 -0.265,-0.419 -0.478,-0.556 -0.214,-0.138 -0.48,-0.233 -0.798,-0.285 -0.318,-0.053 -0.687,-0.078 -1.106,-0.078 -0.484,0 -0.891,0.019 -1.222,0.053 -0.331,0.037 -0.648,0.099 -0.955,0.188 z m 1.451,-0.604 v -1.754 h 0.604 c 0.114,0 0.224,0.016 0.333,0.048 0.109,0.033 0.205,0.083 0.29,0.152 0.086,0.069 0.153,0.156 0.206,0.26 0.053,0.105 0.078,0.234 0.078,0.387 0,0.169 -0.027,0.31 -0.084,0.423 -0.057,0.113 -0.127,0.206 -0.212,0.278 -0.085,0.074 -0.182,0.125 -0.291,0.157 -0.107,0.033 -0.215,0.049 -0.32,0.049 z m 0.726,-4.594 c 0.136,0 0.267,0.014 0.393,0.047 0.124,0.032 0.234,0.089 0.326,0.17 0.093,0.08 0.167,0.187 0.224,0.32 0.056,0.133 0.084,0.296 0.084,0.49 0,0.363 -0.103,0.614 -0.308,0.756 -0.206,0.141 -0.446,0.211 -0.719,0.211 h -0.726 V 8.116 Z m -3.083,5.32 v -0.907 h -1.513 V 7.39 h -1.451 v 5.139 h -1.511 v 0.907 z m -6.229,-0.726 c -0.184,0 -0.349,-0.034 -0.496,-0.103 -0.144,-0.069 -0.271,-0.189 -0.381,-0.362 -0.107,-0.174 -0.19,-0.41 -0.247,-0.708 -0.056,-0.297 -0.085,-0.673 -0.085,-1.124 0,-0.452 0.032,-0.827 0.091,-1.124 0.061,-0.299 0.147,-0.536 0.261,-0.708 0.111,-0.173 0.251,-0.295 0.416,-0.363 0.166,-0.069 0.353,-0.102 0.563,-0.102 h 1.329 V 7.51 c -0.184,-0.065 -0.417,-0.12 -0.695,-0.169 -0.277,-0.048 -0.57,-0.072 -0.876,-0.072 -0.428,0 -0.799,0.056 -1.113,0.169 -0.314,0.113 -0.578,0.294 -0.792,0.544 -0.213,0.25 -0.373,0.574 -0.477,0.973 -0.105,0.4 -0.158,0.885 -0.158,1.458 0,0.571 0.053,1.058 0.158,1.456 0.104,0.401 0.259,0.725 0.465,0.975 0.205,0.25 0.458,0.43 0.757,0.543 0.297,0.113 0.645,0.169 1.039,0.169 0.307,0 0.599,-0.025 0.877,-0.072 0.278,-0.048 0.509,-0.105 0.695,-0.17 V 12.71 Z m -5.682,0.846 c 0.297,0 0.574,-0.056 0.828,-0.169 0.254,-0.113 0.471,-0.293 0.652,-0.543 0.183,-0.25 0.323,-0.574 0.425,-0.975 0.1,-0.398 0.149,-0.885 0.149,-1.456 0,-0.573 -0.049,-1.058 -0.149,-1.458 -0.102,-0.399 -0.246,-0.723 -0.436,-0.973 -0.19,-0.25 -0.42,-0.431 -0.69,-0.544 -0.269,-0.113 -0.57,-0.169 -0.9,-0.169 -0.209,0 -0.401,0.028 -0.575,0.085 -0.174,0.055 -0.324,0.128 -0.453,0.217 v -2.6 h -1.452 v 8.465 h 1.028 l 0.182,-0.363 h 0.061 c 0.128,0.12 0.296,0.231 0.507,0.333 0.21,0.1 0.485,0.15 0.823,0.15 m -1.149,-5.199 c 0.065,-0.065 0.153,-0.121 0.266,-0.169 0.112,-0.048 0.246,-0.072 0.398,-0.072 0.155,0 0.296,0.033 0.43,0.102 0.133,0.068 0.247,0.19 0.345,0.363 0.095,0.172 0.173,0.409 0.229,0.708 0.057,0.297 0.085,0.672 0.085,1.124 0,0.451 -0.028,0.827 -0.085,1.124 -0.056,0.298 -0.134,0.534 -0.229,0.708 -0.098,0.173 -0.212,0.293 -0.345,0.362 -0.134,0.069 -0.275,0.103 -0.43,0.103 -0.152,0 -0.279,-0.024 -0.381,-0.073 -0.099,-0.048 -0.194,-0.104 -0.283,-0.169 z m -5.623,-1.088 c -0.258,0 -0.5,0.025 -0.725,0.078 -0.226,0.052 -0.423,0.151 -0.593,0.296 -0.169,0.146 -0.305,0.343 -0.405,0.593 -0.101,0.25 -0.151,0.573 -0.151,0.968 0,0.394 0.05,0.717 0.151,0.967 0.1,0.25 0.24,0.447 0.417,0.592 0.178,0.146 0.387,0.244 0.629,0.297 0.243,0.051 0.508,0.078 0.797,0.078 0.187,0 0.365,-0.012 0.538,-0.036 0.174,-0.024 0.338,-0.053 0.491,-0.085 V 11.5 c 0,0.484 -0.114,0.807 -0.339,0.968 -0.226,0.161 -0.535,0.242 -0.931,0.242 h -1.208 v 0.604 c 0.185,0.065 0.412,0.122 0.682,0.17 0.27,0.047 0.526,0.072 0.767,0.072 0.412,0 0.771,-0.027 1.077,-0.084 0.306,-0.057 0.564,-0.159 0.775,-0.308 0.208,-0.15 0.366,-0.36 0.47,-0.63 0.105,-0.27 0.158,-0.615 0.158,-1.034 V 7.39 h -1.029 l -0.18,0.362 h -0.061 C -51.097,7.632 -51.267,7.521 -51.477,7.42 -51.686,7.318 -51.96,7.269 -52.298,7.269 m 1.149,3.022 h -0.665 c -0.105,0 -0.212,-0.016 -0.32,-0.047 -0.11,-0.033 -0.206,-0.091 -0.291,-0.176 -0.085,-0.085 -0.155,-0.198 -0.212,-0.339 -0.056,-0.141 -0.084,-0.316 -0.084,-0.525 0,-0.21 0.028,-0.386 0.084,-0.526 0.057,-0.142 0.127,-0.254 0.212,-0.339 0.085,-0.086 0.181,-0.144 0.291,-0.176 0.108,-0.033 0.215,-0.047 0.32,-0.047 0.153,0 0.287,0.024 0.399,0.072 0.113,0.048 0.201,0.104 0.266,0.169 z m -7.122,2.238 -0.133,-2.6 c -0.025,-0.427 -0.09,-0.767 -0.2,-1.021 -0.109,-0.255 -0.224,-0.459 -0.344,-0.611 h 1.813 v 4.232 z m 3.313,-4.232 V 5.636 h -0.907 c -0.121,0.21 -0.224,0.464 -0.308,0.762 -0.085,0.299 -0.143,0.628 -0.176,0.992 h -3.205 C -59.585,7.026 -59.645,6.697 -59.729,6.398 -59.813,6.1 -59.916,5.846 -60.036,5.636 h -0.908 v 2.661 h 0.545 c 0.12,0.152 0.236,0.356 0.344,0.611 0.11,0.254 0.175,0.594 0.2,1.021 l 0.181,3.507 h 3.99 V 8.297 Z m -7.739,5.139 h 1.39 l -1.148,-6.167 c -0.161,-0.854 -0.42,-1.472 -0.774,-1.851 -0.355,-0.378 -0.822,-0.568 -1.403,-0.568 -0.242,0 -0.466,0.024 -0.671,0.073 -0.206,0.048 -0.385,0.105 -0.538,0.169 v 0.605 h 0.786 c 0.153,0 0.289,0.022 0.411,0.066 0.121,0.045 0.23,0.125 0.326,0.242 0.097,0.116 0.184,0.278 0.26,0.484 0.078,0.205 0.148,0.465 0.213,0.78 -0.364,0 -0.681,0.135 -0.956,0.405 -0.274,0.27 -0.459,0.618 -0.556,1.046 l -1.088,4.716 h 1.39 l 1.088,-4.716 c 0.025,-0.106 0.053,-0.185 0.085,-0.242 0.033,-0.057 0.065,-0.098 0.096,-0.121 0.033,-0.032 0.073,-0.052 0.122,-0.06 z m -5.622,-0.726 c -0.187,0 -0.351,-0.034 -0.496,-0.103 -0.146,-0.069 -0.273,-0.189 -0.381,-0.362 -0.11,-0.174 -0.192,-0.41 -0.249,-0.708 -0.056,-0.297 -0.083,-0.673 -0.083,-1.124 0,-0.452 0.029,-0.827 0.09,-1.124 0.061,-0.299 0.147,-0.536 0.259,-0.708 0.114,-0.173 0.253,-0.295 0.418,-0.363 0.165,-0.069 0.353,-0.102 0.562,-0.102 h 1.33 V 7.51 c -0.186,-0.065 -0.417,-0.12 -0.695,-0.169 -0.278,-0.048 -0.57,-0.072 -0.877,-0.072 -0.427,0 -0.798,0.056 -1.112,0.169 -0.315,0.113 -0.578,0.294 -0.792,0.544 -0.213,0.25 -0.373,0.574 -0.478,0.973 -0.104,0.4 -0.157,0.885 -0.157,1.458 0,0.571 0.053,1.058 0.157,1.456 0.105,0.401 0.261,0.725 0.466,0.975 0.206,0.25 0.457,0.43 0.755,0.543 0.299,0.113 0.645,0.169 1.039,0.169 0.307,0 0.599,-0.025 0.877,-0.072 0.279,-0.048 0.511,-0.105 0.696,-0.17 V 12.71 Z m -6.047,0.846 c 0.395,0 0.742,-0.056 1.04,-0.169 0.298,-0.113 0.551,-0.293 0.756,-0.543 0.205,-0.25 0.361,-0.574 0.466,-0.975 0.104,-0.398 0.157,-0.885 0.157,-1.456 0,-0.573 -0.053,-1.058 -0.157,-1.458 -0.105,-0.399 -0.261,-0.723 -0.466,-0.973 -0.205,-0.25 -0.458,-0.431 -0.756,-0.544 -0.298,-0.113 -0.645,-0.169 -1.04,-0.169 -0.394,0 -0.742,0.056 -1.04,0.169 -0.298,0.113 -0.551,0.294 -0.756,0.544 -0.205,0.25 -0.36,0.574 -0.464,0.973 -0.106,0.4 -0.159,0.885 -0.159,1.458 0,0.571 0.053,1.058 0.159,1.456 0.104,0.401 0.259,0.725 0.464,0.975 0.205,0.25 0.458,0.43 0.756,0.543 0.298,0.113 0.646,0.169 1.04,0.169 m 0,-0.785 c -0.136,0 -0.263,-0.034 -0.381,-0.103 -0.116,-0.069 -0.219,-0.192 -0.308,-0.369 -0.089,-0.177 -0.157,-0.419 -0.205,-0.726 -0.049,-0.306 -0.073,-0.693 -0.073,-1.16 0,-0.468 0.024,-0.854 0.073,-1.161 0.048,-0.307 0.116,-0.548 0.205,-0.726 0.089,-0.178 0.192,-0.299 0.308,-0.368 0.118,-0.069 0.245,-0.103 0.381,-0.103 0.138,0 0.263,0.034 0.381,0.103 0.118,0.069 0.22,0.19 0.308,0.368 0.09,0.178 0.158,0.419 0.206,0.726 0.048,0.307 0.073,0.693 0.073,1.161 0,0.467 -0.025,0.854 -0.073,1.16 -0.048,0.307 -0.116,0.549 -0.206,0.726 -0.088,0.177 -0.19,0.3 -0.308,0.369 -0.118,0.069 -0.243,0.103 -0.381,0.103 m -6.59,3.083 h 4.171 v -0.967 h -2.719 V 7.39 h -1.452 z"
             style="fill:#231f20;fill-opacity:1;fill-rule:nonzero;stroke:none"
             id="path20" />
        </g>
        <g
           id="g22"
           transform="translate(227.3599,64.7012)">
          <path
             d="M 0,0 C 0.218,-0.049 0.423,-0.156 0.616,-0.326 0.81,-0.494 0.95,-0.762 1.039,-1.123 l 0.242,-0.969 c 0.032,-0.121 0.11,-0.232 0.23,-0.332 0.122,-0.099 0.287,-0.15 0.496,-0.15 V -3.18 C 1.942,-3.205 1.866,-3.223 1.777,-3.24 1.616,-3.279 1.43,-3.299 1.221,-3.299 c -0.395,0 -0.705,0.094 -0.932,0.283 -0.226,0.19 -0.378,0.438 -0.459,0.745 l -0.302,1.148 c -0.056,0.207 -0.142,0.373 -0.26,0.488 -0.117,0.117 -0.251,0.176 -0.406,0.176 h -0.18 V -3.18 H -2.77 v 6.047 h 1.452 V 0.449 h 0.18 c 0.09,0 0.175,0.041 0.254,0.127 0.081,0.084 0.178,0.262 0.291,0.537 l 0.364,0.907 c 0.12,0.308 0.281,0.544 0.482,0.712 0.203,0.17 0.483,0.254 0.848,0.254 0.103,0 0.205,-0.004 0.302,-0.015 C 1.499,2.957 1.584,2.943 1.657,2.928 1.745,2.902 1.822,2.885 1.887,2.867 V 2.262 C 1.676,2.262 1.523,2.225 1.426,2.146 1.33,2.07 1.261,1.986 1.221,1.9 L 0.919,1.113 C 0.789,0.773 0.65,0.525 0.502,0.363 0.352,0.203 0.186,0.098 0,0.049 Z M -5.731,0.631 H -5.792 L -7.485,-3.18 h -1.452 v 6.047 h 1.391 V -0.82 h 0.061 l 1.571,3.687 h 1.573 V -3.18 h -1.39 z M -9.844,2.867 V 1.961 h -1.511 V -3.18 h -1.451 v 5.141 h -1.511 V 2.867 Z M -16.567,0 c 0.219,-0.049 0.424,-0.156 0.618,-0.326 0.193,-0.168 0.335,-0.436 0.423,-0.797 l 0.241,-0.969 c 0.033,-0.121 0.11,-0.232 0.23,-0.332 0.121,-0.099 0.286,-0.15 0.495,-0.15 V -3.18 c -0.064,-0.025 -0.139,-0.043 -0.229,-0.06 -0.16,-0.039 -0.347,-0.059 -0.557,-0.059 -0.394,0 -0.705,0.094 -0.93,0.283 -0.226,0.19 -0.379,0.438 -0.46,0.745 l -0.301,1.148 c -0.057,0.207 -0.144,0.373 -0.261,0.488 -0.116,0.117 -0.252,0.176 -0.405,0.176 h -0.182 V -3.18 h -1.451 v 6.047 h 1.451 V 0.449 h 0.182 c 0.089,0 0.174,0.041 0.254,0.127 0.081,0.084 0.178,0.262 0.29,0.537 l 0.362,0.907 c 0.122,0.308 0.282,0.544 0.484,0.712 0.203,0.17 0.484,0.254 0.847,0.254 0.105,0 0.205,-0.004 0.303,-0.015 0.096,-0.014 0.181,-0.028 0.254,-0.043 0.088,-0.026 0.165,-0.043 0.229,-0.061 V 2.262 c -0.211,0 -0.363,-0.037 -0.459,-0.116 -0.097,-0.076 -0.166,-0.16 -0.207,-0.246 l -0.3,-0.787 c -0.13,-0.34 -0.27,-0.588 -0.418,-0.75 -0.149,-0.16 -0.317,-0.265 -0.503,-0.314 z m -6.94,-3.299 c -0.258,0 -0.5,0.024 -0.725,0.078 -0.226,0.051 -0.423,0.153 -0.592,0.295 -0.17,0.147 -0.306,0.344 -0.405,0.592 -0.102,0.252 -0.152,0.572 -0.152,0.967 0,0.398 0.05,0.719 0.152,0.969 0.099,0.25 0.239,0.447 0.416,0.593 0.178,0.143 0.387,0.244 0.629,0.295 0.242,0.053 0.508,0.078 0.797,0.078 0.187,0 0.366,-0.011 0.538,-0.035 0.174,-0.023 0.338,-0.051 0.491,-0.084 v 0.485 c 0,0.482 -0.114,0.804 -0.338,0.966 -0.227,0.161 -0.536,0.241 -0.933,0.241 h -1.208 v 0.605 c 0.186,0.065 0.412,0.121 0.683,0.168 0.27,0.049 0.525,0.072 0.767,0.072 0.412,0 0.771,-0.027 1.077,-0.084 0.307,-0.056 0.564,-0.158 0.775,-0.306 0.209,-0.149 0.366,-0.36 0.472,-0.631 0.103,-0.27 0.156,-0.613 0.156,-1.031 V -3.18 h -1.029 l -0.18,0.366 h -0.062 c -0.128,-0.124 -0.297,-0.233 -0.508,-0.336 -0.209,-0.1 -0.483,-0.149 -0.821,-0.149 m 1.149,3.022 h -0.665 c -0.106,0 -0.212,-0.016 -0.321,-0.049 -0.109,-0.033 -0.205,-0.09 -0.29,-0.176 -0.085,-0.084 -0.155,-0.197 -0.212,-0.338 -0.055,-0.14 -0.084,-0.316 -0.084,-0.527 0,-0.207 0.029,-0.383 0.084,-0.524 0.057,-0.14 0.127,-0.254 0.212,-0.338 0.085,-0.085 0.181,-0.142 0.29,-0.175 0.109,-0.034 0.215,-0.049 0.321,-0.049 0.153,0 0.287,0.023 0.398,0.072 0.114,0.047 0.202,0.104 0.267,0.168 z m -6.045,3.263 c 0.297,0 0.574,-0.056 0.828,-0.166 0.252,-0.115 0.471,-0.295 0.652,-0.547 0.181,-0.248 0.321,-0.572 0.423,-0.972 0.102,-0.401 0.151,-0.885 0.151,-1.457 0,-0.573 -0.049,-1.059 -0.151,-1.457 -0.102,-0.399 -0.246,-0.723 -0.435,-0.973 -0.189,-0.25 -0.419,-0.432 -0.689,-0.545 -0.271,-0.113 -0.57,-0.168 -0.901,-0.168 -0.209,0 -0.402,0.028 -0.575,0.084 -0.172,0.057 -0.324,0.129 -0.454,0.217 V -5.6 h -1.45 v 8.467 h 1.027 l 0.181,-0.363 h 0.062 c 0.13,0.121 0.297,0.232 0.507,0.332 0.209,0.102 0.484,0.15 0.824,0.15 m -1.151,-5.199 c 0.065,-0.064 0.155,-0.121 0.267,-0.168 0.113,-0.049 0.245,-0.072 0.399,-0.072 0.154,0 0.296,0.033 0.429,0.103 0.134,0.067 0.248,0.188 0.345,0.362 0.096,0.174 0.174,0.408 0.229,0.709 0.057,0.297 0.085,0.672 0.085,1.123 0,0.451 -0.028,0.828 -0.085,1.125 -0.055,0.297 -0.133,0.535 -0.229,0.707 -0.097,0.174 -0.211,0.295 -0.345,0.363 -0.133,0.066 -0.275,0.102 -0.429,0.102 -0.154,0 -0.281,-0.024 -0.381,-0.073 C -29.37,2.02 -29.465,1.963 -29.554,1.9 Z M -35.66,-3.18 h -1.451 v 6.047 h 4.535 V -3.18 h -1.451 v 5.141 h -1.633 z m -7.013,6.047 h 1.511 l -1.391,-2.963 1.451,-3.084 h -1.51 l -0.967,2.237 -0.968,-2.237 h -1.512 l 1.452,3.084 -1.391,2.963 h 1.512 l 0.907,-2.117 z m -5.744,-2.236 h -0.061 l -1.691,-3.811 h -1.451 v 6.047 h 1.39 V -0.82 h 0.061 l 1.571,3.687 h 1.572 V -3.18 h -1.391 z M -60.448,-3.18 v 6.047 h 1.451 v -5.138 h 1.33 v 5.138 h 1.451 v -5.138 h 1.329 v 5.138 h 1.451 v -5.138 h 0.726 v -2.661 h -0.906 c -0.12,0.209 -0.223,0.463 -0.309,0.76 -0.085,0.301 -0.142,0.629 -0.175,0.992 z m -4.171,-0.119 c -0.258,0 -0.5,0.024 -0.726,0.078 -0.225,0.051 -0.425,0.153 -0.593,0.295 -0.169,0.147 -0.304,0.344 -0.404,0.592 -0.101,0.252 -0.151,0.572 -0.151,0.967 0,0.398 0.05,0.719 0.151,0.969 0.1,0.25 0.239,0.447 0.416,0.593 0.179,0.143 0.387,0.244 0.63,0.295 0.241,0.053 0.507,0.078 0.797,0.078 0.186,0 0.365,-0.011 0.538,-0.035 0.174,-0.023 0.338,-0.051 0.49,-0.084 v 0.485 c 0,0.482 -0.113,0.804 -0.339,0.966 -0.225,0.161 -0.535,0.241 -0.931,0.241 h -1.209 v 0.605 c 0.186,0.065 0.413,0.121 0.683,0.168 0.271,0.049 0.526,0.072 0.768,0.072 0.411,0 0.77,-0.027 1.077,-0.084 0.306,-0.056 0.564,-0.158 0.773,-0.306 0.21,-0.149 0.368,-0.36 0.471,-0.631 0.106,-0.27 0.158,-0.613 0.158,-1.031 V -3.18 h -1.028 l -0.181,0.366 h -0.061 c -0.128,-0.124 -0.298,-0.233 -0.508,-0.336 -0.209,-0.1 -0.483,-0.149 -0.821,-0.149 m 1.148,3.022 h -0.665 c -0.105,0 -0.212,-0.016 -0.321,-0.049 -0.108,-0.033 -0.205,-0.09 -0.289,-0.176 -0.085,-0.084 -0.155,-0.197 -0.212,-0.338 -0.058,-0.14 -0.084,-0.316 -0.084,-0.527 0,-0.207 0.026,-0.383 0.084,-0.524 0.057,-0.14 0.127,-0.254 0.212,-0.338 0.084,-0.085 0.181,-0.142 0.289,-0.175 0.109,-0.034 0.216,-0.049 0.321,-0.049 0.154,0 0.285,0.023 0.399,0.072 0.114,0.047 0.202,0.104 0.266,0.168 z m -6.832,3.144 V 0.449 h 0.06 c 0.089,0 0.175,0.041 0.254,0.127 0.081,0.084 0.178,0.262 0.291,0.537 l 0.363,0.907 c 0.12,0.308 0.281,0.544 0.483,0.712 0.202,0.17 0.485,0.254 0.846,0.254 0.106,0 0.206,-0.004 0.303,-0.015 0.097,-0.014 0.182,-0.028 0.255,-0.043 0.087,-0.026 0.164,-0.043 0.229,-0.061 V 2.262 c -0.21,0 -0.363,-0.037 -0.46,-0.116 -0.096,-0.076 -0.166,-0.16 -0.206,-0.246 l -0.302,-0.787 c -0.129,-0.34 -0.268,-0.588 -0.417,-0.75 -0.149,-0.16 -0.316,-0.265 -0.501,-0.314 V 0 c 0.217,-0.049 0.422,-0.156 0.616,-0.326 0.193,-0.168 0.335,-0.436 0.423,-0.797 l 0.242,-0.969 c 0.032,-0.121 0.109,-0.232 0.229,-0.332 0.122,-0.099 0.286,-0.15 0.496,-0.15 V -3.18 c -0.063,-0.025 -0.14,-0.043 -0.229,-0.06 -0.161,-0.039 -0.347,-0.059 -0.557,-0.059 -0.394,0 -0.706,0.094 -0.929,0.283 -0.228,0.19 -0.38,0.438 -0.461,0.745 l -0.302,1.148 c -0.057,0.207 -0.143,0.373 -0.261,0.488 -0.116,0.117 -0.251,0.176 -0.405,0.176 h -0.06 V -3.18 h -1.451 v 2.721 h -0.06 c -0.153,0 -0.289,-0.059 -0.406,-0.176 -0.116,-0.115 -0.203,-0.281 -0.259,-0.488 l -0.303,-1.148 c -0.079,-0.307 -0.234,-0.555 -0.459,-0.745 -0.226,-0.189 -0.537,-0.283 -0.932,-0.283 -0.209,0 -0.394,0.02 -0.556,0.059 -0.088,0.017 -0.165,0.035 -0.23,0.06 v 0.606 c 0.211,0 0.376,0.051 0.496,0.15 0.122,0.1 0.197,0.211 0.23,0.332 l 0.242,0.969 c 0.089,0.361 0.229,0.629 0.424,0.797 0.193,0.17 0.399,0.277 0.616,0.326 v 0.049 c -0.185,0.049 -0.353,0.154 -0.501,0.314 -0.151,0.162 -0.289,0.41 -0.418,0.75 L -74.173,1.9 c -0.04,0.086 -0.109,0.17 -0.205,0.246 -0.097,0.079 -0.25,0.116 -0.459,0.116 v 0.605 c 0.065,0.018 0.141,0.035 0.23,0.061 0.073,0.015 0.155,0.029 0.247,0.043 0.093,0.011 0.196,0.015 0.309,0.015 0.363,0 0.645,-0.084 0.846,-0.254 0.201,-0.168 0.363,-0.404 0.483,-0.712 l 0.363,-0.907 c 0.114,-0.275 0.211,-0.453 0.291,-0.537 0.081,-0.086 0.166,-0.127 0.254,-0.127 h 0.06 v 2.418 z m -6.59,-2.599 c 0,0.394 -0.022,0.716 -0.067,0.964 -0.045,0.252 -0.103,0.45 -0.176,0.596 -0.071,0.143 -0.161,0.242 -0.264,0.295 -0.106,0.053 -0.218,0.078 -0.339,0.078 -0.121,0 -0.235,-0.025 -0.338,-0.078 -0.106,-0.053 -0.194,-0.152 -0.267,-0.295 -0.073,-0.146 -0.131,-0.344 -0.176,-0.596 -0.043,-0.248 -0.066,-0.57 -0.066,-0.964 z m 1.451,-0.848 h -3.144 c 0,-0.691 0.123,-1.178 0.369,-1.457 0.246,-0.277 0.627,-0.416 1.142,-0.416 h 1.331 v -0.606 c -0.187,-0.064 -0.417,-0.121 -0.695,-0.17 -0.279,-0.048 -0.571,-0.07 -0.877,-0.07 -0.468,0 -0.873,0.055 -1.215,0.168 -0.344,0.113 -0.624,0.295 -0.848,0.545 -0.22,0.25 -0.386,0.574 -0.494,0.973 -0.109,0.398 -0.164,0.884 -0.164,1.457 0,0.572 0.053,1.056 0.157,1.457 0.106,0.4 0.254,0.724 0.447,0.972 0.195,0.252 0.434,0.432 0.72,0.547 0.287,0.11 0.611,0.166 0.974,0.166 0.363,0 0.687,-0.056 0.973,-0.166 0.286,-0.115 0.526,-0.295 0.719,-0.547 0.193,-0.248 0.342,-0.572 0.447,-0.972 0.106,-0.401 0.158,-0.885 0.158,-1.457 z m -5.865,3.447 V -3.18 h -1.451 v 5.141 h -1.257 l -0.193,-3.205 c -0.04,-0.694 -0.208,-1.209 -0.503,-1.547 -0.294,-0.34 -0.649,-0.508 -1.07,-0.508 -0.209,0 -0.39,0.02 -0.544,0.059 -0.153,0.041 -0.235,0.06 -0.24,0.06 v 0.606 c 0.209,0 0.403,0.099 0.586,0.303 0.181,0.199 0.288,0.542 0.32,1.027 l 0.242,4.111 z m -8.875,-0.906 -0.133,-2.602 c -0.024,-0.425 -0.091,-0.767 -0.199,-1.021 -0.11,-0.254 -0.224,-0.455 -0.344,-0.609 h 1.813 v 4.232 z m 3.314,-4.232 v -2.661 h -0.907 c -0.121,0.209 -0.224,0.463 -0.308,0.76 -0.085,0.301 -0.144,0.629 -0.176,0.992 h -3.205 c -0.032,-0.363 -0.091,-0.691 -0.176,-0.992 -0.084,-0.297 -0.186,-0.551 -0.308,-0.76 h -0.906 v 2.661 h 0.544 c 0.121,0.154 0.235,0.355 0.344,0.609 0.109,0.254 0.176,0.596 0.199,1.021 l 0.183,3.508 h 3.99 v -5.138 z m -9.493,-1.028 c -0.258,0 -0.5,0.024 -0.725,0.078 -0.226,0.051 -0.423,0.153 -0.592,0.295 -0.171,0.147 -0.306,0.344 -0.405,0.592 -0.102,0.252 -0.152,0.572 -0.152,0.967 0,0.398 0.05,0.719 0.152,0.969 0.099,0.25 0.238,0.447 0.417,0.593 0.177,0.143 0.386,0.244 0.628,0.295 0.242,0.053 0.508,0.078 0.797,0.078 0.187,0 0.365,-0.011 0.539,-0.035 0.174,-0.023 0.337,-0.051 0.49,-0.084 v 0.485 c 0,0.482 -0.112,0.804 -0.338,0.966 -0.227,0.161 -0.536,0.241 -0.932,0.241 h -1.208 v 0.605 c 0.185,0.065 0.412,0.121 0.682,0.168 0.27,0.049 0.526,0.072 0.767,0.072 0.412,0 0.771,-0.027 1.077,-0.084 0.307,-0.056 0.565,-0.158 0.774,-0.306 0.21,-0.149 0.367,-0.36 0.472,-0.631 0.104,-0.27 0.157,-0.613 0.157,-1.031 V -3.18 h -1.029 l -0.18,0.366 h -0.061 c -0.129,-0.124 -0.299,-0.233 -0.507,-0.336 -0.211,-0.1 -0.485,-0.149 -0.823,-0.149 m 1.149,3.022 h -0.665 c -0.105,0 -0.212,-0.016 -0.32,-0.049 -0.11,-0.033 -0.206,-0.09 -0.291,-0.176 -0.085,-0.084 -0.155,-0.197 -0.212,-0.338 -0.055,-0.14 -0.084,-0.316 -0.084,-0.527 0,-0.207 0.029,-0.383 0.084,-0.524 0.057,-0.14 0.127,-0.254 0.212,-0.338 0.085,-0.085 0.181,-0.142 0.291,-0.175 0.108,-0.034 0.215,-0.049 0.32,-0.049 0.152,0 0.286,0.023 0.398,0.072 0.114,0.047 0.202,0.104 0.267,0.168 z m -7.377,-2.903 h -1.451 v 6.047 h 1.451 V 0.328 h 1.632 v 2.539 h 1.452 V -3.18 h -1.452 v 2.6 h -1.632 z m -7.435,3.811 h -0.061 l -1.693,-3.811 h -1.451 v 6.047 h 1.39 V -0.82 h 0.061 l 1.571,3.687 h 1.573 V -3.18 h -1.39 z M -2.527,15.455 c 0.306,0.087 0.618,0.151 0.937,0.186 0.318,0.037 0.691,0.056 1.117,0.056 0.396,0 0.743,-0.028 1.04,-0.079 0.299,-0.053 0.551,-0.143 0.756,-0.273 0.205,-0.128 0.361,-0.301 0.466,-0.519 0.106,-0.217 0.157,-0.492 0.157,-0.823 0,-0.193 -0.03,-0.36 -0.091,-0.502 C 1.795,13.36 1.717,13.241 1.62,13.146 1.523,13.048 1.419,12.97 1.306,12.909 1.192,12.848 1.084,12.798 0.979,12.758 V 12.709 C 1.116,12.67 1.256,12.613 1.396,12.54 1.537,12.467 1.666,12.371 1.782,12.25 1.9,12.129 1.997,11.983 2.073,11.814 2.15,11.646 2.188,11.448 2.188,11.223 2.188,10.859 2.136,10.561 2.031,10.326 1.926,10.094 1.768,9.908 1.553,9.771 1.34,9.634 1.074,9.539 0.756,9.488 0.437,9.436 0.068,9.408 -0.351,9.408 c -0.484,0 -0.89,0.019 -1.221,0.055 -0.331,0.037 -0.649,0.1 -0.955,0.187 z m 1.451,-0.606 v -1.752 h 0.603 c 0.114,0 0.225,0.016 0.334,0.049 0.109,0.032 0.205,0.082 0.289,0.149 0.085,0.069 0.155,0.156 0.205,0.261 0.053,0.104 0.081,0.234 0.081,0.387 0,0.169 -0.029,0.31 -0.085,0.423 -0.057,0.113 -0.127,0.206 -0.213,0.278 -0.083,0.073 -0.181,0.126 -0.289,0.158 -0.11,0.031 -0.216,0.047 -0.322,0.047 z m 0.725,-4.593 c 0.136,0 0.268,0.015 0.393,0.048 0.125,0.032 0.234,0.088 0.326,0.169 0.093,0.081 0.167,0.187 0.224,0.32 0.057,0.133 0.086,0.296 0.086,0.489 0,0.364 -0.105,0.614 -0.31,0.757 -0.206,0.14 -0.445,0.211 -0.719,0.211 h -0.725 v -1.994 z m -3.084,5.319 V 14.668 H -4.946 V 9.529 h -1.45 v 5.139 h -1.512 v 0.907 z m -6.227,-0.726 c -0.186,0 -0.351,-0.034 -0.496,-0.102 -0.145,-0.068 -0.272,-0.189 -0.38,-0.363 -0.109,-0.174 -0.191,-0.409 -0.248,-0.708 -0.057,-0.297 -0.084,-0.673 -0.084,-1.124 0,-0.451 0.029,-0.825 0.091,-1.124 0.058,-0.299 0.145,-0.533 0.258,-0.707 0.114,-0.174 0.252,-0.294 0.418,-0.364 0.165,-0.068 0.353,-0.101 0.562,-0.101 h 1.33 V 9.65 C -8.396,9.586 -8.627,9.529 -8.905,9.48 -9.184,9.432 -9.476,9.408 -9.782,9.408 c -0.428,0 -0.799,0.057 -1.113,0.17 -0.314,0.112 -0.58,0.293 -0.793,0.543 -0.213,0.25 -0.372,0.574 -0.477,0.975 -0.106,0.398 -0.156,0.883 -0.156,1.456 0,0.573 0.05,1.058 0.156,1.457 0.105,0.4 0.26,0.724 0.465,0.974 0.207,0.25 0.458,0.431 0.757,0.543 0.297,0.114 0.644,0.171 1.039,0.171 0.306,0 0.598,-0.025 0.877,-0.073 0.278,-0.049 0.509,-0.104 0.696,-0.169 v -0.606 z m -6.759,-0.181 -0.134,-2.6 c -0.023,-0.426 -0.091,-0.767 -0.199,-1.021 -0.109,-0.254 -0.224,-0.458 -0.344,-0.611 h 1.813 v 4.232 z m 3.314,-4.232 V 7.775 h -0.908 c -0.121,0.209 -0.224,0.464 -0.307,0.762 -0.086,0.299 -0.144,0.629 -0.176,0.992 h -3.205 c -0.032,-0.363 -0.091,-0.693 -0.175,-0.992 -0.085,-0.298 -0.187,-0.553 -0.31,-0.762 h -0.906 v 2.661 h 0.545 c 0.12,0.153 0.235,0.357 0.344,0.611 0.109,0.254 0.176,0.595 0.2,1.021 l 0.182,3.507 h 3.99 v -5.139 z m -7.921,2.539 c 0,0.396 -0.023,0.718 -0.067,0.968 -0.045,0.25 -0.102,0.447 -0.176,0.593 -0.071,0.145 -0.161,0.243 -0.264,0.296 -0.106,0.052 -0.218,0.078 -0.34,0.078 -0.121,0 -0.233,-0.026 -0.339,-0.078 -0.103,-0.053 -0.193,-0.151 -0.265,-0.296 -0.073,-0.146 -0.13,-0.343 -0.175,-0.593 -0.045,-0.25 -0.067,-0.572 -0.067,-0.968 z m 1.451,-0.846 h -3.144 c 0,-0.693 0.123,-1.18 0.369,-1.456 0.247,-0.278 0.626,-0.417 1.142,-0.417 h 1.331 V 9.65 c -0.186,-0.064 -0.418,-0.121 -0.696,-0.17 -0.279,-0.048 -0.57,-0.072 -0.877,-0.072 -0.467,0 -0.872,0.057 -1.214,0.17 -0.344,0.112 -0.625,0.293 -0.848,0.543 -0.221,0.25 -0.386,0.574 -0.496,0.975 -0.107,0.398 -0.162,0.883 -0.162,1.456 0,0.573 0.052,1.058 0.157,1.457 0.106,0.4 0.254,0.724 0.448,0.974 0.193,0.25 0.433,0.431 0.718,0.543 0.286,0.114 0.613,0.171 0.974,0.171 0.364,0 0.688,-0.057 0.974,-0.171 0.286,-0.112 0.526,-0.293 0.719,-0.543 0.194,-0.25 0.342,-0.574 0.448,-0.974 0.105,-0.399 0.157,-0.884 0.157,-1.457 z m -7.618,3.568 c 0.298,0 0.575,-0.057 0.828,-0.171 0.255,-0.112 0.472,-0.293 0.653,-0.543 0.182,-0.25 0.322,-0.574 0.424,-0.974 0.101,-0.399 0.15,-0.884 0.15,-1.457 0,-0.573 -0.049,-1.058 -0.15,-1.456 -0.102,-0.401 -0.246,-0.725 -0.436,-0.975 -0.189,-0.25 -0.419,-0.431 -0.689,-0.543 -0.27,-0.113 -0.57,-0.17 -0.901,-0.17 -0.209,0 -0.402,0.029 -0.575,0.085 -0.172,0.057 -0.324,0.128 -0.454,0.218 v -2.6 h -1.451 v 8.464 h 1.028 l 0.182,-0.362 h 0.061 c 0.129,0.12 0.298,0.231 0.507,0.332 0.21,0.1 0.485,0.152 0.823,0.152 m -1.15,-5.2 c 0.066,-0.065 0.155,-0.122 0.267,-0.171 0.113,-0.047 0.246,-0.07 0.4,-0.07 0.153,0 0.296,0.033 0.428,0.101 0.134,0.07 0.249,0.19 0.345,0.364 0.097,0.174 0.175,0.408 0.229,0.707 0.057,0.299 0.085,0.673 0.085,1.124 0,0.451 -0.028,0.827 -0.085,1.124 -0.054,0.299 -0.132,0.534 -0.229,0.708 -0.096,0.174 -0.211,0.295 -0.345,0.363 -0.132,0.068 -0.275,0.102 -0.428,0.102 -0.154,0 -0.281,-0.023 -0.382,-0.071 -0.1,-0.049 -0.195,-0.106 -0.285,-0.169 z"
             style="fill:#231f20;fill-opacity:1;fill-rule:nonzero;stroke:none"
             id="path24" />
        </g>
        <g
           id="g26"
           transform="translate(35.8931,97.3589)">
          <path
             d="M 0,0 C 4.094,0 7.834,-1.519 10.688,-4.022 L 8.271,-6.306 C 6.031,-4.433 3.147,-3.307 0,-3.307 c -7.128,0 -12.909,-5.78 -12.909,-12.909 0,-7.127 5.781,-12.909 12.909,-12.909 1.91,0 3.724,0.417 5.355,1.161 l -4.699,4.699 2.241,2.242 7.494,-7.549 C 9.959,-29.039 9.448,-29.408 8.92,-29.757 6.362,-31.447 3.296,-32.431 0,-32.431 c -8.954,0 -16.215,7.262 -16.215,16.215 C -16.215,-7.261 -8.954,0 0,0"
             style="fill:#26366c;fill-opacity:1;fill-rule:evenodd;stroke:none"
             id="path28" />
        </g>
        <g
           id="g30"
           transform="translate(54.0371,81.4766)">
          <path
             d="m 0,0 -8.182,8.183 2.446,2.309 8.114,-8.114 8.58,8.579 L 13.403,8.648 4.755,0 l 8.529,-8.529 -2.443,-2.311 -8.463,8.462 -8.068,-8.067 -2.378,2.377 z"
             style="fill:#991d23;fill-opacity:1;fill-rule:evenodd;stroke:none"
             id="path32" />
        </g>
        <g
           id="g34"
           transform="translate(76.5039,97.3589)">
          <path
             d="m 0,0 c 8.954,0 16.215,-7.261 16.215,-16.216 0,-8.953 -7.261,-16.215 -16.215,-16.215 -2.143,0 -4.188,0.416 -6.062,1.172 v -8.598 h -3.277 l 0.006,10.717 2.242,2.137 c 2.036,-1.34 4.472,-2.122 7.091,-2.122 7.128,0 12.909,5.782 12.909,12.909 0,7.129 -5.781,12.909 -12.909,12.909 -2.799,0 -5.391,-0.893 -7.506,-2.407 l -2.44,2.305 C -7.199,-1.274 -3.748,0 0,0"
             style="fill:#26366c;fill-opacity:1;fill-rule:evenodd;stroke:none"
             id="path36" />
        </g>
        <g
           id="g38"
           transform="translate(62.2104,61.5996)">
          <path
             d="M 0,0 V -4.279 H -0.648 V 0.633 H 2.708 V -4.279 H 2.06 L 2.06,0 Z m -4.631,-2.109 v -2.17 h -0.648 v 4.912 h 0.648 v -2.121 h 2.101 v 2.121 h 0.648 V -4.279 H -2.53 v 2.17 z m -5.769,-2.17 h -0.567 v 3.5 h 0.593 v -2.592 l 1.904,2.592 h 0.566 v -3.5 h -0.6 v 2.595 z"
             style="fill:#26366c;fill-opacity:1;fill-rule:nonzero;stroke:none"
             id="path40" />
        </g>
        <g
           id="g42"
           transform="translate(64.2261,64.4551)">
          <path
             d="m 0,0 h 0.818 c -0.414,-0.846 -1.139,-1.27 -2.176,-1.27 -0.704,0 -1.296,0.254 -1.776,0.758 -0.48,0.506 -0.72,1.112 -0.72,1.821 0,0.689 0.247,1.281 0.74,1.777 0.493,0.5 1.084,0.748 1.77,0.748 0.487,0 0.916,-0.109 1.289,-0.328 C 0.336,3.277 0.627,2.949 0.818,2.518 H 0.041 c -0.332,0.445 -0.798,0.668 -1.399,0.668 -0.49,0 -0.916,-0.188 -1.275,-0.565 -0.359,-0.379 -0.539,-0.816 -0.539,-1.312 0,-0.512 0.173,-0.959 0.518,-1.342 0.356,-0.397 0.787,-0.594 1.296,-0.594 0.601,0 1.053,0.209 1.358,0.627 m -6.493,2.928 -1.407,-4.1 h -0.703 l 1.781,4.91 h 0.648 l 1.78,-4.91 h -0.691 z m -3.657,-0.282 -2.476,-3.818 h -0.6 v 4.91 h 0.655 v -3.82 l 2.476,3.82 h 0.6 v -4.91 h -0.655 z m -6.031,0.485 v -4.303 h -0.654 v 4.91 h 2.523 V 3.131 Z"
             style="fill:#991d23;fill-opacity:1;fill-rule:nonzero;stroke:none"
             id="path44" />
        </g>
      </g>
    </g>
  </g>
</svg>
