<?xml version="1.0" encoding="UTF-8" standalone="no"?>
<!-- Created with Inkscape (http://www.inkscape.org/) -->

<svg
   version="1.1"
   id="svg2"
   width="155.05733"
   height="154.76401"
   viewBox="0 0 155.05733 154.76401"
   sodipodi:docname="LOGO_ROSATOM_eng_VERT_COLOR.ai"
   xmlns:inkscape="http://www.inkscape.org/namespaces/inkscape"
   xmlns:sodipodi="http://sodipodi.sourceforge.net/DTD/sodipodi-0.dtd"
   xmlns="http://www.w3.org/2000/svg"
   xmlns:svg="http://www.w3.org/2000/svg">
  <defs
     id="defs6">
    <radialGradient
       fx="0"
       fy="0"
       cx="0"
       cy="0"
       r="1"
       gradientUnits="userSpaceOnUse"
       gradientTransform="matrix(12.134739,-5.1e-6,-5.1e-6,-12.134739,55.384094,79.829285)"
       spreadMethod="pad"
       id="radialGradient26">
      <stop
         style="stop-opacity:1;stop-color:#4b97d2"
         offset="0"
         id="stop22" />
      <stop
         style="stop-opacity:1;stop-color:#1f2466"
         offset="1"
         id="stop24" />
    </radialGradient>
    <linearGradient
       x1="0"
       y1="0"
       x2="1"
       y2="0"
       gradientUnits="userSpaceOnUse"
       gradientTransform="matrix(20.408516,31.426355,31.426355,-20.408516,29.039648,80.826347)"
       spreadMethod="pad"
       id="linearGradient46">
      <stop
         style="stop-opacity:1;stop-color:#4b97d2"
         offset="0"
         id="stop42" />
      <stop
         style="stop-opacity:1;stop-color:#1f2466"
         offset="1"
         id="stop44" />
    </linearGradient>
    <linearGradient
       x1="0"
       y1="0"
       x2="1"
       y2="0"
       gradientUnits="userSpaceOnUse"
       gradientTransform="matrix(50.697659,-20.483183,-20.483183,-50.697659,37.185757,117.0447)"
       spreadMethod="pad"
       id="linearGradient66">
      <stop
         style="stop-opacity:1;stop-color:#4b97d2"
         offset="0"
         id="stop62" />
      <stop
         style="stop-opacity:1;stop-color:#1f2466"
         offset="1"
         id="stop64" />
    </linearGradient>
    <linearGradient
       x1="0"
       y1="0"
       x2="1"
       y2="0"
       gradientUnits="userSpaceOnUse"
       gradientTransform="matrix(-37.418034,1.9605194,1.9605194,37.418034,67.680679,46.924011)"
       spreadMethod="pad"
       id="linearGradient86">
      <stop
         style="stop-opacity:1;stop-color:#4b97d2"
         offset="0"
         id="stop82" />
      <stop
         style="stop-opacity:1;stop-color:#1f2466"
         offset="1"
         id="stop84" />
    </linearGradient>
    <linearGradient
       x1="0"
       y1="0"
       x2="1"
       y2="0"
       gradientUnits="userSpaceOnUse"
       gradientTransform="matrix(-7.6111593,54.151222,54.151222,7.6111593,32.244434,35.868469)"
       spreadMethod="pad"
       id="linearGradient106">
      <stop
         style="stop-opacity:1;stop-color:#4b97d2"
         offset="0"
         id="stop102" />
      <stop
         style="stop-opacity:1;stop-color:#1f2466"
         offset="1"
         id="stop104" />
    </linearGradient>
    <linearGradient
       x1="0"
       y1="0"
       x2="1"
       y2="0"
       gradientUnits="userSpaceOnUse"
       gradientTransform="matrix(17.011354,-33.387714,-33.387714,-17.011354,77.718529,97.340157)"
       spreadMethod="pad"
       id="linearGradient126">
      <stop
         style="stop-opacity:1;stop-color:#4b97d2"
         offset="0"
         id="stop122" />
      <stop
         style="stop-opacity:1;stop-color:#1f2466"
         offset="1"
         id="stop124" />
    </linearGradient>
    <linearGradient
       x1="0"
       y1="0"
       x2="1"
       y2="0"
       gradientUnits="userSpaceOnUse"
       gradientTransform="matrix(-43.089687,-33.664471,-33.664471,43.089687,105.01103,72.176353)"
       spreadMethod="pad"
       id="linearGradient146">
      <stop
         style="stop-opacity:1;stop-color:#4b97d2"
         offset="0"
         id="stop142" />
      <stop
         style="stop-opacity:1;stop-color:#1f2466"
         offset="1"
         id="stop144" />
    </linearGradient>
    <clipPath
       clipPathUnits="userSpaceOnUse"
       id="clipPath156">
      <path
         d="M 0,116.073 H 116.293 V 0 H 0 Z"
         id="path154" />
    </clipPath>
  </defs>
  <sodipodi:namedview
     id="namedview4"
     pagecolor="#ffffff"
     bordercolor="#000000"
     borderopacity="0.25"
     inkscape:showpageshadow="2"
     inkscape:pageopacity="0.0"
     inkscape:pagecheckerboard="0"
     inkscape:deskcolor="#d1d1d1" />
  <g
     id="g8"
     inkscape:groupmode="layer"
     inkscape:label="LOGO_ROSATOM_eng_VERT_COLOR"
     transform="matrix(1.3333333,0,0,-1.3333333,0,154.764)">
    <g
       id="g10">
      <g
         id="g12">
        <g
           id="g18">
          <g
             id="g20">
            <path
               d="m 51.74,80.806 c -3.186,-3.536 -2.902,-8.99 0.634,-12.18 v 0 c 3.536,-3.19 8.986,-2.912 12.179,0.624 v 0 c 3.185,3.535 2.904,8.987 -0.632,12.178 v 0 c -1.65,1.487 -3.718,2.221 -5.779,2.221 v 0 c -2.355,0 -4.7,-0.958 -6.402,-2.843"
               style="fill:url(#radialGradient26);stroke:none"
               id="path28" />
          </g>
        </g>
      </g>
    </g>
    <g
       id="g30">
      <g
         id="g32">
        <g
           id="g38">
          <g
             id="g40">
            <path
               d="M 33.458,107.819 C 27.817,103.564 23.308,97.886 20.466,91.318 v 0 c 3.411,-0.84 13.622,-4.164 18.308,-16.813 v 0 c 1.409,0.459 4.447,2.229 6.555,9.065 v 0 c 2.825,9.151 8.188,17.953 15.14,20.908 v 0 c -4.174,4.129 -9.146,6.358 -14.83,6.358 v 0 c -3.757,0 -7.825,-0.974 -12.181,-3.017"
               style="fill:url(#linearGradient46);stroke:none"
               id="path48" />
          </g>
        </g>
      </g>
    </g>
    <g
       id="g50">
      <g
         id="g52">
        <g
           id="g58">
          <g
             id="g60">
            <path
               d="m 58.146,116.073 c -9.267,0 -17.818,-3.072 -24.688,-8.254 v 0 c 15.191,7.127 26.898,1.247 34.067,-13.613 v 0 c 11.42,-2.049 19.177,3.634 22.232,6.996 v 0 c 10e-4,0.001 0.002,0.002 0.003,0.002 v 0 c -7.529,9.084 -18.895,14.869 -31.614,14.869 z"
               style="fill:url(#linearGradient66);stroke:none"
               id="path68" />
          </g>
        </g>
      </g>
    </g>
    <g
       id="g70">
      <g
         id="g72">
        <g
           id="g78">
          <g
             id="g80">
            <path
               d="m 42.098,37.254 c 6.505,-2.759 13.676,-3.825 20.784,-3.003 v 0 c -0.977,3.374 -3.206,13.881 5.406,24.263 v 0 c -1.102,0.991 -4.154,2.737 -11.127,1.145 v 0 c -9.338,-2.128 -19.64,-1.885 -25.676,2.659 v 0 C 29.012,52.883 32.18,44.164 42.098,37.254"
               style="fill:url(#linearGradient86);stroke:none"
               id="path88" />
          </g>
        </g>
      </g>
    </g>
    <g
       id="g90">
      <g
         id="g92">
        <g
           id="g98">
          <g
             id="g100">
            <path
               d="m 22.605,54.508 c 4.634,-8.027 11.57,-13.895 19.493,-17.254 v 0 C 28.33,46.846 27.568,59.926 36.852,73.566 v 0 C 32.916,84.48 24.117,88.357 19.678,89.322 v 0 c -0.001,0 -0.002,0 -0.003,10e-4 v 0 C 15.573,78.261 16.246,65.524 22.605,54.508"
               style="fill:url(#linearGradient106);stroke:none"
               id="path108" />
          </g>
        </g>
      </g>
    </g>
    <g
       id="g110">
      <g
         id="g112">
        <g
           id="g118">
          <g
             id="g120">
            <path
               d="m 67.378,92.072 c -0.307,-1.451 -0.293,-4.966 4.573,-10.21 v 0 C 78.462,74.839 83.403,65.794 82.486,58.295 v 0 c 9.407,2.575 15.373,9.679 16.398,21.723 v 0 c -0.864,7.014 -3.526,13.757 -7.792,19.503 v 0 C 88.659,96.988 80.675,89.805 67.378,92.072"
               style="fill:url(#linearGradient126);stroke:none"
               id="path128" />
          </g>
        </g>
      </g>
    </g>
    <g
       id="g130">
      <g
         id="g132">
        <g
           id="g138">
          <g
             id="g140">
            <path
               d="M 70.062,57.319 C 62.579,48.453 63.621,38.894 65.005,34.566 v 0 c 0,-0.001 0.001,-0.002 0.001,-0.002 v 0 c 11.63,1.978 22.323,8.929 28.682,19.944 v 0 c 4.634,8.028 6.249,16.969 5.196,25.51 v 0 C 97.461,63.299 86.516,56.099 70.062,57.319"
               style="fill:url(#linearGradient146);stroke:none"
               id="path148" />
          </g>
        </g>
      </g>
    </g>
    <g
       id="g150">
      <g
         id="g152"
         clip-path="url(#clipPath156)">
        <g
           id="g158"
           transform="translate(3.4494,9.6696)">
          <path
             d="m 0,0 h 2.042 c 0.392,0 0.759,0.031 1.104,0.094 0.343,0.062 0.637,0.167 0.88,0.317 0.242,0.148 0.434,0.352 0.575,0.61 0.14,0.258 0.211,0.59 0.211,0.997 0,0.72 -0.247,1.221 -0.739,1.502 C 3.58,3.802 2.84,3.943 1.855,3.943 H 0 Z m 0.071,-2.91 v -6.478 h -3.52 V 7.041 h 5.585 c 2.081,0 3.657,-0.38 4.73,-1.139 C 7.937,5.143 8.473,3.943 8.473,2.3 8.473,1.69 8.391,1.15 8.227,0.681 8.063,0.211 7.835,-0.2 7.546,-0.552 7.256,-0.904 6.92,-1.197 6.536,-1.432 6.153,-1.667 5.743,-1.854 5.305,-1.995 5.664,-2.136 5.969,-2.339 6.22,-2.605 6.47,-2.872 6.733,-3.274 7.006,-3.814 7.279,-4.354 7.604,-5.07 7.98,-5.961 8.356,-6.853 8.848,-7.996 9.459,-9.388 H 5.704 c -0.563,1.22 -0.99,2.245 -1.28,3.074 C 4.135,-5.484 3.869,-4.82 3.627,-4.319 3.384,-3.818 3.11,-3.458 2.805,-3.239 2.5,-3.02 2.05,-2.91 1.455,-2.91 Z"
             style="fill:#3d3d3c;fill-opacity:1;fill-rule:nonzero;stroke:none"
             id="path160" />
        </g>
        <g
           id="g162"
           transform="translate(23.6108,3.0977)">
          <path
             d="m 0,0 c 0.595,0 1.142,0.109 1.642,0.329 0.501,0.219 0.932,0.551 1.291,0.997 0.361,0.446 0.638,1.006 0.834,1.679 0.195,0.672 0.293,1.47 0.293,2.393 0,1.862 -0.391,3.228 -1.174,4.096 -0.782,0.868 -1.814,1.302 -3.097,1.302 -0.579,0 -1.123,-0.109 -1.631,-0.328 C -2.351,10.249 -2.793,9.916 -3.169,9.47 -3.544,9.024 -3.837,8.461 -4.049,7.78 -4.26,7.1 -4.366,6.306 -4.366,5.398 -4.366,4.475 -4.252,3.677 -4.025,3.005 -3.798,2.332 -3.489,1.772 -3.098,1.326 -2.707,0.88 -2.245,0.548 -1.714,0.329 -1.182,0.109 -0.61,0 0,0 m -0.117,-3.098 c -1.19,0 -2.273,0.184 -3.251,0.552 -0.978,0.367 -1.819,0.911 -2.523,1.631 -0.704,0.719 -1.248,1.608 -1.631,2.664 -0.384,1.056 -0.575,2.272 -0.575,3.649 0,1.377 0.199,2.594 0.598,3.65 0.4,1.056 0.951,1.944 1.655,2.664 0.704,0.719 1.537,1.263 2.499,1.631 0.963,0.367 2.007,0.551 3.134,0.551 1.268,0 2.398,-0.195 3.391,-0.586 C 4.174,12.917 5.011,12.357 5.691,11.63 6.372,10.902 6.892,10.01 7.252,8.954 7.612,7.898 7.792,6.713 7.792,5.398 7.792,3.943 7.593,2.68 7.193,1.608 6.795,0.536 6.239,-0.348 5.527,-1.044 4.815,-1.741 3.978,-2.257 3.016,-2.593 2.054,-2.929 1.009,-3.098 -0.117,-3.098"
             style="fill:#3d3d3c;fill-opacity:1;fill-rule:nonzero;stroke:none"
             id="path164" />
        </g>
        <g
           id="g166"
           transform="translate(35.0881,4.1773)">
          <path
             d="M 0,0 C 0.187,-0.125 0.426,-0.254 0.716,-0.387 1.005,-0.52 1.329,-0.645 1.69,-0.763 2.049,-0.88 2.429,-0.974 2.828,-1.044 3.226,-1.115 3.638,-1.15 4.06,-1.15 c 0.923,0 1.599,0.164 2.03,0.493 0.43,0.329 0.645,0.798 0.645,1.408 0,0.344 -0.05,0.63 -0.152,0.857 C 6.481,1.834 6.325,2.034 6.114,2.206 5.902,2.378 5.625,2.531 5.28,2.664 4.936,2.797 4.521,2.95 4.036,3.122 L 3.473,3.31 C 2.174,3.747 1.223,4.35 0.622,5.117 0.019,5.883 -0.282,6.845 -0.282,8.004 c 0,0.75 0.144,1.423 0.434,2.018 0.289,0.594 0.692,1.099 1.209,1.513 0.516,0.415 1.122,0.732 1.818,0.951 0.697,0.219 1.459,0.329 2.289,0.329 1.08,0 2.007,-0.091 2.781,-0.272 0.775,-0.18 1.397,-0.373 1.866,-0.577 L 9.294,8.947 C 8.714,9.211 8.116,9.405 7.498,9.53 6.88,9.655 6.313,9.717 5.797,9.717 4.999,9.717 4.389,9.588 3.966,9.332 3.543,9.075 3.332,8.674 3.332,8.13 3.332,7.85 3.376,7.613 3.462,7.419 3.547,7.225 3.704,7.046 3.931,6.882 4.158,6.719 4.467,6.552 4.857,6.381 5.249,6.209 5.75,6.023 6.36,5.821 L 6.971,5.609 C 7.69,5.359 8.285,5.07 8.754,4.741 9.223,4.413 9.591,4.052 9.857,3.662 10.123,3.27 10.311,2.848 10.42,2.394 10.53,1.94 10.585,1.463 10.585,0.962 10.585,0.133 10.432,-0.602 10.127,-1.244 9.821,-1.885 9.395,-2.425 8.847,-2.863 8.3,-3.301 7.654,-3.63 6.912,-3.849 6.168,-4.068 5.358,-4.177 4.483,-4.177 c -0.502,0 -1.002,0.031 -1.502,0.093 -0.501,0.063 -0.979,0.145 -1.433,0.247 -0.453,0.101 -0.876,0.223 -1.267,0.364 -0.391,0.14 -0.728,0.289 -1.009,0.445 z"
             style="fill:#3d3d3c;fill-opacity:1;fill-rule:nonzero;stroke:none"
             id="path168" />
        </g>
        <g
           id="g170"
           transform="translate(53.6754,6.9706)">
          <path
             d="M 0,0 H 4.389 L 2.206,6.9 Z M 5.351,-3.098 H -0.962 L -2.136,-6.689 H -5.609 L 0,9.74 h 4.577 l 5.538,-16.429 h -3.59 z"
             style="fill:#3d3d3c;fill-opacity:1;fill-rule:nonzero;stroke:none"
             id="path172" />
        </g>
        <g
           id="g174"
           transform="translate(71.912,0.2815)">
          <path
             d="m 0,0 h -3.521 v 13.19 h -4.67 v 3.239 H 4.647 V 13.19 L 0,13.19 Z"
             style="fill:#3d3d3c;fill-opacity:1;fill-rule:nonzero;stroke:none"
             id="path176" />
        </g>
        <g
           id="g178"
           transform="translate(86.416,3.0977)">
          <path
             d="m 0,0 c 0.595,0 1.142,0.109 1.643,0.329 0.5,0.219 0.931,0.551 1.291,0.997 0.36,0.446 0.637,1.006 0.833,1.679 0.196,0.672 0.293,1.47 0.293,2.393 0,1.862 -0.391,3.228 -1.174,4.096 -0.782,0.868 -1.814,1.302 -3.097,1.302 -0.579,0 -1.123,-0.109 -1.631,-0.328 C -2.351,10.249 -2.793,9.916 -3.169,9.47 -3.544,9.024 -3.837,8.461 -4.049,7.78 -4.26,7.1 -4.366,6.306 -4.366,5.398 -4.366,4.475 -4.252,3.677 -4.025,3.005 -3.798,2.332 -3.489,1.772 -3.098,1.326 -2.707,0.88 -2.245,0.548 -1.714,0.329 -1.182,0.109 -0.61,0 0,0 m -0.117,-3.098 c -1.19,0 -2.273,0.184 -3.251,0.552 -0.978,0.367 -1.819,0.911 -2.523,1.631 -0.704,0.719 -1.248,1.608 -1.631,2.664 -0.383,1.056 -0.575,2.272 -0.575,3.649 0,1.377 0.2,2.594 0.598,3.65 0.4,1.056 0.951,1.944 1.655,2.664 0.704,0.719 1.537,1.263 2.499,1.631 0.963,0.367 2.007,0.551 3.134,0.551 1.268,0 2.398,-0.195 3.391,-0.586 C 4.174,12.917 5.011,12.357 5.691,11.63 6.372,10.902 6.892,10.01 7.252,8.954 7.612,7.898 7.792,6.713 7.792,5.398 7.792,3.943 7.593,2.68 7.193,1.608 6.795,0.536 6.239,-0.348 5.527,-1.044 4.815,-1.741 3.978,-2.257 3.016,-2.593 2.054,-2.929 1.01,-3.098 -0.117,-3.098"
             style="fill:#3d3d3c;fill-opacity:1;fill-rule:nonzero;stroke:none"
             id="path180" />
        </g>
        <g
           id="g182"
           transform="translate(116.2932,0.2815)">
          <path
             d="M 0,0 H -3.543 L -4.436,10.914 -7.815,0 h -3.357 L -14.504,10.866 -15.396,0 h -3.544 l 1.643,16.429 h 4.201 l 3.708,-12.392 3.661,12.392 h 4.06 z"
             style="fill:#3d3d3c;fill-opacity:1;fill-rule:nonzero;stroke:none"
             id="path184" />
        </g>
      </g>
    </g>
  </g>
</svg>
