<?xml version="1.0" standalone="no"?>
<!DOCTYPE svg PUBLIC "-//W3C//DTD SVG 20010904//EN"
 "http://www.w3.org/TR/2001/REC-SVG-20010904/DTD/svg10.dtd">
<svg version="1.0" xmlns="http://www.w3.org/2000/svg"
 width="939.000000pt" height="192.000000pt" viewBox="0 0 939.000000 192.000000"
 preserveAspectRatio="xMidYMid meet">
<metadata>
Created by potrace 1.16, written by Peter Selinger 2001-2019
</metadata>
<g transform="translate(0.000000,192.000000) scale(0.100000,-0.100000)"
fill="#000000" stroke="none">
<path d="M802 1831 c-29 -49 -52 -92 -52 -95 0 -3 159 -6 354 -6 l354 0 187
-325 187 -325 -188 -325 -188 -325 -353 0 c-194 0 -353 -2 -353 -4 0 -2 22
-42 48 -88 l48 -83 364 0 363 0 239 413 239 412 -242 420 -242 420 -356 0
-357 0 -52 -89z"/>
<path d="M477 1693 c-116 -197 -477 -826 -477 -831 0 -4 81 -146 179 -317
l178 -310 107 -3 c58 -1 106 1 106 5 0 5 -79 145 -176 313 -96 167 -173 311
-171 320 2 8 85 155 185 325 l180 310 373 2 374 3 169 -295 c93 -163 174 -303
180 -311 9 -11 21 3 64 75 28 50 52 93 52 96 0 7 -338 595 -352 613 -8 9 -118
12 -489 12 -263 0 -480 -3 -482 -7z"/>
<path d="M6542 1635 c-53 -16 -78 -38 -103 -87 -41 -81 -9 -185 71 -226 36
-19 56 -22 105 -19 33 2 72 9 88 15 23 10 27 17 27 52 0 44 -9 48 -50 25 -14
-8 -44 -14 -68 -15 -107 -1 -140 130 -45 175 38 18 79 15 126 -9 l27 -15 0 44
c0 32 -5 47 -17 53 -34 18 -117 22 -161 7z"/>
<path d="M7685 1643 c-88 -23 -135 -84 -135 -175 0 -94 59 -158 153 -166 71
-6 119 11 156 53 57 65 61 155 10 226 -31 45 -128 77 -184 62z m85 -88 c33
-17 54 -70 44 -109 -9 -35 -50 -66 -88 -66 -84 0 -123 106 -60 161 36 31 63
35 104 14z"/>
<path d="M8381 1640 c-49 -12 -83 -40 -108 -90 -63 -122 21 -250 162 -250 69
0 123 32 153 90 71 142 -49 288 -207 250z m117 -106 c52 -59 12 -154 -65 -154
-58 1 -93 38 -93 97 0 83 102 120 158 57z"/>
<path d="M9164 1640 c-47 -15 -69 -45 -69 -96 0 -52 20 -76 97 -113 29 -14 53
-33 53 -41 0 -24 -61 -25 -101 -1 -19 12 -37 21 -40 21 -2 0 -4 -18 -4 -41 0
-36 3 -41 35 -55 19 -7 57 -14 85 -14 41 0 55 5 82 29 28 25 33 36 33 74 0 55
-18 76 -90 111 -63 29 -72 41 -46 55 14 8 33 7 68 -4 26 -8 49 -15 51 -15 1 0
2 16 2 35 0 22 -6 38 -17 44 -29 15 -105 21 -139 11z"/>
<path d="M5790 1605 l0 -35 55 0 55 0 0 -135 0 -135 40 0 40 0 0 135 0 135 55
0 55 0 0 35 0 35 -150 0 -150 0 0 -35z"/>
<path d="M6140 1470 l0 -170 120 0 120 0 0 35 0 35 -75 0 -75 0 0 35 0 35 70
0 70 0 0 35 0 35 -70 0 -70 0 0 30 0 30 70 0 70 0 0 35 0 35 -115 0 -115 0 0
-170z"/>
<path d="M6790 1470 l0 -170 40 0 40 0 0 70 0 70 75 0 75 0 0 -70 0 -70 40 0
40 0 0 170 0 170 -40 0 -40 0 0 -65 0 -65 -75 0 -75 0 0 65 0 65 -40 0 -40 0
0 -170z"/>
<path d="M7170 1470 l0 -170 45 0 44 0 3 96 3 96 78 -96 c71 -88 81 -96 113
-96 l34 0 0 170 0 170 -45 0 -45 0 0 -91 0 -91 -72 90 c-71 88 -74 91 -115 91
l-43 1 0 -170z"/>
<path d="M7960 1470 l0 -170 45 0 45 0 0 64 0 64 55 7 c44 5 59 12 80 36 36
44 35 101 -4 140 -28 28 -33 29 -125 29 l-96 0 0 -170z m155 70 c0 -21 -5 -26
-32 -28 -31 -3 -33 -1 -33 28 0 29 2 31 33 28 27 -2 32 -7 32 -28z"/>
<path d="M8660 1470 l0 -170 125 0 125 0 0 35 0 35 -80 0 -80 0 0 135 0 135
-45 0 -45 0 0 -170z"/>
<path d="M8950 1470 l0 -170 45 0 45 0 0 170 0 170 -45 0 -45 0 0 -170z"/>
<path d="M586 1458 c-55 -89 -336 -584 -336 -595 0 -7 106 -197 237 -423 l236
-410 486 2 486 3 177 307 177 306 -52 91 c-29 50 -54 91 -57 91 -3 0 -86 -140
-185 -312 l-179 -311 -276 6 c-151 4 -318 7 -372 7 l-96 0 -183 317 c-100 175
-182 322 -182 328 0 5 75 140 167 298 92 159 170 295 173 303 4 12 -13 14
-101 14 -99 0 -106 -1 -120 -22z"/>
<path d="M5650 1060 c-146 -19 -282 -93 -362 -197 -140 -186 -141 -467 -2
-652 52 -69 153 -142 238 -171 174 -59 421 -35 555 54 l46 31 3 213 2 212
-175 0 -175 0 0 -80 0 -80 70 0 70 0 0 -75 c0 -71 -1 -75 -28 -89 -44 -23
-132 -34 -198 -26 -170 21 -282 136 -292 301 -5 90 13 163 58 230 104 158 356
188 613 75 l38 -17 -3 102 -3 102 -64 24 c-69 26 -230 54 -296 52 -22 -1 -65
-5 -95 -9z"/>
<path d="M2340 535 l0 -515 105 0 105 0 0 215 0 215 260 0 260 0 0 -215 0
-215 105 0 105 0 0 515 0 515 -105 0 -105 0 0 -215 0 -215 -260 0 -260 0 0
215 0 215 -105 0 -105 0 0 -515z"/>
<path d="M3530 535 l0 -515 105 0 105 0 0 515 0 515 -105 0 -105 0 0 -515z"/>
<path d="M3980 535 l0 -515 105 0 105 0 0 346 0 346 141 -181 c77 -99 147
-181 154 -181 7 0 77 82 154 181 l141 181 0 -346 0 -346 105 0 105 0 0 515 0
515 -97 -1 -98 0 -155 -199 -154 -200 -23 28 c-12 15 -82 104 -155 199 l-133
172 -97 0 -98 1 0 -515z"/>
<path d="M6370 536 l0 -516 105 0 105 0 0 215 0 215 59 0 c108 0 152 -51 245
-283 l59 -147 113 0 c63 0 114 4 114 9 0 13 -105 264 -142 338 -18 38 -49 80
-75 102 l-43 39 28 11 c43 18 103 80 126 131 30 68 27 172 -8 244 -29 59 -64
94 -130 129 -39 21 -55 22 -298 25 l-258 3 0 -515z m428 334 c90 -41 96 -177
10 -230 -27 -16 -50 -20 -130 -20 l-98 0 0 135 0 135 88 0 c64 0 98 -5 130
-20z"/>
<path d="M7645 1038 c-92 -249 -365 -1002 -365 -1009 0 -5 49 -9 109 -9 l109
0 35 103 34 102 227 0 228 0 37 -100 38 -100 111 -3 c62 -1 112 1 112 6 0 5
-91 236 -203 513 l-203 504 -132 3 c-101 2 -134 -1 -137 -10z m229 -422 c47
-126 86 -231 86 -233 0 -1 -77 -3 -171 -3 -159 0 -171 1 -164 18 4 9 38 107
75 217 76 222 81 237 85 233 2 -2 42 -106 89 -232z"/>
<path d="M8460 535 l0 -515 235 0 c266 0 349 11 448 62 161 81 247 239 247
452 -1 258 -134 442 -365 501 -45 11 -118 15 -312 15 l-253 0 0 -515z m530
324 c70 -32 116 -79 149 -149 23 -50 26 -67 26 -175 0 -139 -14 -182 -84 -258
-65 -70 -121 -89 -278 -95 l-133 -5 0 358 0 357 133 -4 c115 -3 139 -7 187
-29z"/>
</g>
</svg>
