<?xml version="1.0" encoding="utf-8"?>
<!-- Generator: Adobe Illustrator 21.0.0, SVG Export Plug-In . SVG Version: 6.00 Build 0)  -->
<svg version="1.1" id="Слой_1" xmlns="http://www.w3.org/2000/svg" xmlns:xlink="http://www.w3.org/1999/xlink" x="0px" y="0px"
	 viewBox="0 0 427 79.1" style="enable-background:new 0 0 427 79.1;" xml:space="preserve">
<style type="text/css">
	.st0{fill:#1B1C20;}
	.st1{fill-rule:evenodd;clip-rule:evenodd;fill:#222F67;}
	.st2{fill-rule:evenodd;clip-rule:evenodd;fill:#A11214;}
	.st3{fill:#222F67;}
	.st4{fill:#A11214;}
</style>
<path class="st0" d="M179.4,6.2h7.9V8h-5.1v14.1h-2.7L179.4,6.2L179.4,6.2z M191.8,12c-0.3,0-0.5,0.1-0.7,0.2
	c-0.2,0.1-0.4,0.4-0.6,0.7c-0.2,0.3-0.3,0.8-0.4,1.4c-0.1,0.6-0.1,1.3-0.1,2.2s0,1.6,0.1,2.2c0.1,0.6,0.2,1,0.4,1.4
	c0.2,0.3,0.4,0.6,0.6,0.7c0.2,0.1,0.5,0.2,0.7,0.2c0.3,0,0.5-0.1,0.7-0.2c0.2-0.1,0.4-0.4,0.6-0.7c0.2-0.3,0.3-0.8,0.4-1.4
	c0.1-0.6,0.1-1.3,0.1-2.2s0-1.6-0.1-2.2c-0.1-0.6-0.2-1-0.4-1.4c-0.2-0.3-0.4-0.6-0.6-0.7C192.3,12.1,192.1,12,191.8,12L191.8,12z
	 M191.8,10.6c0.7,0,1.4,0.1,2,0.3s1,0.6,1.4,1c0.4,0.5,0.7,1.1,0.9,1.8c0.2,0.8,0.3,1.7,0.3,2.7c0,1.1-0.1,2-0.3,2.7
	c-0.2,0.8-0.5,1.4-0.9,1.8c-0.4,0.5-0.9,0.8-1.4,1c-0.6,0.2-1.2,0.3-2,0.3c-0.7,0-1.4-0.1-2-0.3s-1-0.6-1.4-1
	c-0.4-0.5-0.7-1.1-0.9-1.8c-0.2-0.8-0.3-1.7-0.3-2.7c0-1.1,0.1-2,0.3-2.7c0.2-0.8,0.5-1.4,0.9-1.8c0.4-0.5,0.9-0.8,1.4-1
	C190.4,10.7,191.1,10.6,191.8,10.6L191.8,10.6z M203.2,12.1c-0.4,0-0.7,0.1-0.9,0.2c-0.3,0.1-0.5,0.4-0.7,0.7s-0.4,0.8-0.5,1.3
	c-0.1,0.6-0.2,1.3-0.2,2.1s0.1,1.6,0.2,2.1c0.1,0.6,0.3,1,0.5,1.3s0.5,0.6,0.8,0.7c0.3,0.1,0.7,0.2,1.1,0.2h2.5v1.1
	c-0.3,0.1-0.8,0.2-1.3,0.3s-1.1,0.1-1.7,0.1c-0.8,0-1.5-0.1-2.1-0.3s-1.1-0.6-1.5-1c-0.4-0.5-0.7-1.1-0.9-1.8
	c-0.2-0.8-0.3-1.7-0.3-2.7c0-1.1,0.1-2,0.3-2.7c0.2-0.8,0.5-1.4,0.9-1.8c0.4-0.5,0.9-0.8,1.4-1c0.6-0.2,1.2-0.3,2-0.3
	c0.6,0,1.1,0,1.7,0.1c0.5,0.1,1,0.2,1.3,0.3v1.1H203.2L203.2,12.1z M213.8,10.8h2.6l-2.2,11.6c-0.3,1.6-0.8,2.8-1.5,3.5
	s-1.5,1.1-2.6,1.1c-0.5,0-0.9,0-1.3-0.1c-0.4-0.1-0.7-0.2-1-0.3v-1.1h1.5c0.3,0,0.5,0,0.8-0.1c0.2-0.1,0.4-0.2,0.6-0.5
	c0.2-0.2,0.3-0.5,0.5-0.9c0.1-0.4,0.3-0.9,0.4-1.5c-0.7,0-1.3-0.3-1.8-0.8s-0.9-1.2-1-2l-2-8.9h2.6l2,8.9c0,0.2,0.1,0.3,0.2,0.5
	c0.1,0.1,0.1,0.2,0.2,0.2c0.1,0.1,0.1,0.1,0.2,0.1L213.8,10.8L213.8,10.8z M228.4,20.5v5h-1.7c-0.2-0.4-0.4-0.9-0.6-1.4
	c-0.2-0.6-0.3-1.2-0.3-1.9h-6c-0.1,0.7-0.2,1.3-0.3,1.9c-0.2,0.6-0.4,1-0.6,1.4h-1.7v-5h1c0.2-0.3,0.4-0.7,0.6-1.1
	c0.2-0.5,0.3-1.1,0.4-1.9l0.3-6.6h7.5v9.7h1.4V20.5z M222.1,12.5l-0.3,4.9c0,0.8-0.2,1.4-0.4,1.9s-0.4,0.9-0.6,1.1h3.4v-8
	L222.1,12.5L222.1,12.5z M235.5,16.7h-1.3c-0.2,0-0.4,0-0.6,0.1c-0.2,0.1-0.4,0.2-0.5,0.3c-0.2,0.2-0.3,0.4-0.4,0.6
	c-0.1,0.3-0.2,0.6-0.2,1s0.1,0.7,0.2,1c0.1,0.3,0.2,0.5,0.4,0.6c0.2,0.2,0.3,0.3,0.5,0.3c0.2,0.1,0.4,0.1,0.6,0.1
	c0.3,0,0.5,0,0.8-0.1c0.2-0.1,0.4-0.2,0.5-0.3V16.7L235.5,16.7z M233.4,22.4c-0.5,0-0.9,0-1.4-0.1c-0.4-0.1-0.8-0.3-1.1-0.6
	s-0.6-0.6-0.8-1.1s-0.3-1.1-0.3-1.8s0.1-1.4,0.3-1.8c0.2-0.5,0.5-0.8,0.8-1.1s0.7-0.5,1.2-0.6s1-0.1,1.5-0.1c0.4,0,0.7,0,1,0.1
	c0.3,0,0.6,0.1,0.9,0.2v-0.9c0-0.9-0.2-1.5-0.6-1.8c-0.4-0.3-1-0.5-1.8-0.5h-2.3v-1.1c0.3-0.1,0.8-0.2,1.3-0.3s1-0.1,1.4-0.1
	c0.8,0,1.5,0.1,2,0.2c0.6,0.1,1.1,0.3,1.5,0.6s0.7,0.7,0.9,1.2s0.3,1.2,0.3,1.9v7.7h-1.9l-0.3-0.7h-0.1c-0.2,0.2-0.6,0.4-1,0.6
	C234.5,22.3,234,22.4,233.4,22.4L233.4,22.4z M244,20.3c0.1,0.1,0.3,0.2,0.5,0.3s0.5,0.1,0.8,0.1s0.6-0.1,0.8-0.2
	c0.3-0.1,0.5-0.4,0.6-0.7c0.2-0.3,0.3-0.8,0.4-1.3c0.1-0.6,0.2-1.3,0.2-2.1c0-0.9-0.1-1.6-0.2-2.1c-0.1-0.6-0.3-1-0.4-1.3
	c-0.2-0.3-0.4-0.6-0.6-0.7c-0.3-0.1-0.5-0.2-0.8-0.2s-0.5,0-0.7,0.1s-0.4,0.2-0.5,0.3v7.8H244z M246.1,10.6c0.6,0,1.1,0.1,1.6,0.3
	s0.9,0.6,1.2,1c0.3,0.5,0.6,1.1,0.8,1.8c0.2,0.8,0.3,1.7,0.3,2.7c0,1.1-0.1,2-0.3,2.7c-0.2,0.8-0.5,1.4-0.8,1.8
	c-0.4,0.5-0.8,0.8-1.3,1s-1.1,0.3-1.7,0.3c-0.4,0-0.8-0.1-1.1-0.2c-0.3-0.1-0.6-0.2-0.9-0.4v4.9h-2.7V10.8h1.9l0.3,0.7h0.1
	c0.2-0.2,0.6-0.4,1-0.6C245,10.6,245.5,10.6,246.1,10.6L246.1,10.6z M256.8,12.1c-0.3,0-0.7,0.1-0.9,0.2c-0.3,0.1-0.5,0.4-0.7,0.7
	s-0.4,0.8-0.5,1.3c-0.1,0.6-0.2,1.3-0.2,2.1s0.1,1.6,0.2,2.1c0.1,0.6,0.3,1,0.5,1.3s0.5,0.6,0.8,0.7c0.3,0.1,0.7,0.2,1.1,0.2h2.5
	v1.1c-0.3,0.1-0.8,0.2-1.3,0.3s-1.1,0.1-1.6,0.1c-0.8,0-1.5-0.1-2.1-0.3s-1.1-0.6-1.5-1c-0.4-0.5-0.7-1.1-0.9-1.8
	c-0.2-0.8-0.3-1.7-0.3-2.7c0-1.1,0.1-2,0.3-2.7c0.2-0.8,0.5-1.4,0.9-1.8c0.4-0.5,0.9-0.8,1.4-1c0.6-0.2,1.2-0.3,2-0.3
	c0.6,0,1.1,0,1.7,0.1c0.5,0.1,1,0.2,1.3,0.3v1.1H256.8L256.8,12.1z M268.6,10.8v1.7h-2.8v9.7H263v-9.7h-2.8v-1.7H268.6L268.6,10.8z
	 M274.4,20.8c0.3,0,0.5,0,0.7-0.1s0.4-0.2,0.6-0.3c0.2-0.2,0.3-0.4,0.4-0.6c0.1-0.2,0.2-0.6,0.2-0.9c0-0.7-0.2-1.2-0.6-1.4
	c-0.4-0.3-0.8-0.4-1.4-0.4H273v3.8L274.4,20.8L274.4,20.8z M273,12.1v3.3h1.1c0.2,0,0.4,0,0.6-0.1s0.4-0.2,0.5-0.3
	c0.2-0.1,0.3-0.3,0.4-0.5s0.1-0.4,0.1-0.7s-0.1-0.6-0.2-0.8s-0.2-0.4-0.4-0.5c-0.2-0.1-0.3-0.2-0.5-0.3s-0.4-0.1-0.6-0.1L273,12.1
	L273,12.1z M270.3,11c0.6-0.2,1.2-0.3,1.8-0.4c0.6-0.1,1.3-0.1,2.1-0.1c0.7,0,1.4,0,2,0.1s1,0.3,1.4,0.5s0.7,0.6,0.9,1
	c0.2,0.4,0.3,0.9,0.3,1.5c0,0.4-0.1,0.7-0.2,0.9c-0.1,0.3-0.3,0.5-0.4,0.7c-0.2,0.2-0.4,0.3-0.6,0.4c-0.2,0.1-0.4,0.2-0.6,0.3V16
	c0.3,0.1,0.5,0.2,0.8,0.3s0.5,0.3,0.7,0.5s0.4,0.5,0.5,0.8s0.2,0.7,0.2,1.1c0,0.7-0.1,1.2-0.3,1.7c-0.2,0.4-0.5,0.8-0.9,1
	c-0.4,0.3-0.9,0.4-1.5,0.5s-1.3,0.1-2.1,0.1c-0.9,0-1.7,0-2.3-0.1c-0.6-0.1-1.2-0.2-1.8-0.4V11L270.3,11z M289.5,17.3h-5.9
	c0,1.3,0.2,2.2,0.7,2.7s1.2,0.8,2.2,0.8h2.5v1.1c-0.3,0.1-0.8,0.2-1.3,0.3s-1.1,0.1-1.7,0.1c-0.9,0-1.6-0.1-2.3-0.3
	c-0.6-0.2-1.2-0.6-1.6-1c-0.4-0.5-0.7-1.1-0.9-1.8c-0.2-0.8-0.3-1.7-0.3-2.7c0-1.1,0.1-2,0.3-2.7c0.2-0.8,0.5-1.4,0.8-1.8
	c0.4-0.5,0.8-0.8,1.4-1c0.5-0.2,1.2-0.3,1.8-0.3c0.7,0,1.3,0.1,1.8,0.3s1,0.6,1.4,1s0.6,1.1,0.8,1.8c0.2,0.8,0.3,1.7,0.3,2.7
	L289.5,17.3L289.5,17.3z M286.8,15.7c0-0.7,0-1.4-0.1-1.8c-0.1-0.5-0.2-0.8-0.3-1.1c-0.1-0.3-0.3-0.5-0.5-0.6s-0.4-0.1-0.6-0.1
	s-0.4,0.1-0.6,0.1c-0.2,0.1-0.4,0.3-0.5,0.6s-0.2,0.6-0.3,1.1c-0.1,0.5-0.1,1.1-0.1,1.8H286.8L286.8,15.7z M294.6,22.2h-2.7V10.8
	h2.7v4.8h3.1v-4.8h2.7v11.4h-2.7v-4.9h-3.1V22.2L294.6,22.2z M306.1,22.2h-2.7V10.8h2.7v4.8h3.1v-4.8h2.7v11.4h-2.7v-4.9h-3.1V22.2
	L306.1,22.2z M327.3,10.8v11.4h-2.7V10.8H327.3L327.3,10.8z M317.6,15.1c0.3-0.1,0.6-0.1,1-0.2c0.4,0,0.7-0.1,1-0.1
	c0.5,0,1,0.1,1.5,0.2c0.5,0.1,0.8,0.3,1.2,0.6c0.3,0.3,0.6,0.7,0.8,1.1c0.2,0.5,0.3,1.1,0.3,1.9c0,0.8-0.1,1.4-0.3,1.9
	c-0.2,0.5-0.5,0.9-0.9,1.1c-0.4,0.3-0.8,0.5-1.4,0.6s-1.2,0.2-1.9,0.2c-0.9,0-1.6,0-2.2-0.1s-1.2-0.2-1.8-0.4V10.8h2.7L317.6,15.1
	L317.6,15.1z M318.9,20.8c0.2,0,0.4,0,0.6-0.1s0.4-0.2,0.5-0.3c0.2-0.2,0.3-0.4,0.4-0.7s0.2-0.6,0.2-1.1c0-0.4-0.1-0.7-0.2-1
	s-0.2-0.5-0.4-0.6c-0.2-0.2-0.3-0.3-0.5-0.3c-0.2-0.1-0.4-0.1-0.6-0.1h-1.3v4.2L318.9,20.8L318.9,20.8z M334.5,7.6
	c0.5,0,0.9-0.1,1.2-0.3c0.3-0.2,0.6-0.4,0.9-0.6l1.1,1.1c-0.4,0.5-0.8,0.9-1.3,1.2s-1.1,0.5-1.9,0.5c-0.7,0-1.4-0.2-1.9-0.5
	s-0.9-0.7-1.3-1.2l1.1-1.1c0.2,0.2,0.5,0.4,0.9,0.6C333.6,7.5,334,7.6,334.5,7.6L334.5,7.6z M336.3,15h-0.1l-3.2,7.2h-2.7V10.8h2.6
	v6.9h0.1l3-6.9h3v11.4h-2.6L336.3,15L336.3,15z M353.6,15h-0.1l-3.2,7.2h-2.7V10.8h2.6v6.9h0.1l3-6.9h3v11.4h-2.6L353.6,15L353.6,15
	z M361.9,22.2h-2.7V10.8h2.7v4.8h3.1v-4.8h2.7v11.4H365v-4.9h-3.1V22.2L361.9,22.2z M375.1,12.1c-0.4,0-0.7,0.1-0.9,0.2
	c-0.3,0.1-0.5,0.4-0.7,0.7s-0.4,0.8-0.5,1.3c-0.1,0.6-0.2,1.3-0.2,2.1s0.1,1.6,0.2,2.1c0.1,0.6,0.3,1,0.5,1.3s0.5,0.6,0.8,0.7
	c0.3,0.1,0.7,0.2,1.1,0.2h2.5v1.1c-0.4,0.1-0.8,0.2-1.3,0.3s-1.1,0.1-1.7,0.1c-0.8,0-1.5-0.1-2.1-0.3s-1.1-0.6-1.5-1
	c-0.4-0.5-0.7-1.1-0.9-1.8c-0.2-0.8-0.3-1.7-0.3-2.7c0-1.1,0.1-2,0.3-2.7c0.2-0.8,0.5-1.4,0.9-1.8c0.4-0.5,0.9-0.8,1.4-1
	c0.6-0.2,1.2-0.3,2-0.3c0.6,0,1.1,0,1.6,0.1s1,0.2,1.3,0.3v1.1H375.1L375.1,12.1z M386.8,10.8v1.7H384v9.7h-2.7v-9.7h-2.8v-1.7
	H386.8L386.8,10.8z M394.6,15h-0.1l-3.2,7.2h-2.7V10.8h2.6v6.9h0.1l3-6.9h3v11.4h-2.6L394.6,15L394.6,15z M407.3,10.8v1.7h-2.8v9.7
	h-2.7v-9.7H399v-1.7H407.3L407.3,10.8z M415,10.8h2.6l-2.2,11.6c-0.3,1.6-0.8,2.8-1.5,3.5s-1.5,1.1-2.6,1.1c-0.5,0-0.9,0-1.3-0.1
	s-0.7-0.2-1-0.3v-1.1h1.5c0.3,0,0.5,0,0.8-0.1c0.2-0.1,0.4-0.2,0.6-0.5c0.2-0.2,0.3-0.5,0.5-0.9c0.1-0.4,0.3-0.9,0.4-1.5
	c-0.7,0-1.3-0.3-1.8-0.8s-0.9-1.2-1-2l-2-8.9h2.6l2,8.9c0,0.2,0.1,0.3,0.2,0.5c0.1,0.1,0.1,0.2,0.2,0.2c0.1,0.1,0.1,0.1,0.2,0.1
	L415,10.8L415,10.8z M427,10.8v1.7h-2.8v9.7h-2.7v-9.7h-2.8v-1.7H427L427,10.8z M187.7,34.7v11.4H185v-9.7h-2.4l-0.4,6
	c-0.1,1.3-0.4,2.3-0.9,2.9c-0.6,0.6-1.2,1-2,1c-0.4,0-0.7,0-1-0.1s-0.4-0.1-0.5-0.1V45c0.4,0,0.8-0.2,1.1-0.6s0.5-1,0.6-1.9l0.5-7.7
	h7.7V34.7z M198.8,41.2h-5.9c0,1.3,0.2,2.2,0.7,2.7s1.2,0.8,2.2,0.8h2.5v1.1c-0.4,0.1-0.8,0.2-1.3,0.3c-0.5,0.1-1.1,0.1-1.7,0.1
	c-0.9,0-1.6-0.1-2.3-0.3c-0.6-0.2-1.2-0.6-1.6-1c-0.4-0.5-0.7-1.1-0.9-1.8c-0.2-0.8-0.3-1.7-0.3-2.7c0-1.1,0.1-2,0.3-2.7
	c0.2-0.8,0.5-1.4,0.8-1.8c0.4-0.5,0.8-0.8,1.4-1c0.5-0.2,1.1-0.3,1.8-0.3s1.3,0.1,1.8,0.3c0.5,0.2,1,0.6,1.4,1
	c0.4,0.5,0.6,1.1,0.8,1.8c0.2,0.8,0.3,1.7,0.3,2.7V41.2L198.8,41.2z M196,39.6c0-0.7,0-1.4-0.1-1.8c-0.1-0.5-0.2-0.8-0.3-1.1
	c-0.1-0.3-0.3-0.5-0.5-0.6s-0.4-0.1-0.6-0.1c-0.2,0-0.4,0-0.6,0.1c-0.2,0.1-0.4,0.3-0.5,0.6c-0.1,0.3-0.2,0.6-0.3,1.1
	s-0.1,1.1-0.1,1.8H196L196,39.6z M206.4,40.1c0.4,0.1,0.8,0.3,1.2,0.6c0.4,0.3,0.6,0.8,0.8,1.5l0.5,1.8c0.1,0.2,0.2,0.4,0.4,0.6
	s0.5,0.3,0.9,0.3v1.2c-0.1,0-0.3,0.1-0.4,0.1c-0.3,0.1-0.7,0.1-1,0.1c-0.7,0-1.3-0.2-1.8-0.5c-0.4-0.4-0.7-0.8-0.9-1.4l-0.6-2.2
	c-0.1-0.4-0.3-0.7-0.5-0.9c-0.2-0.2-0.5-0.3-0.8-0.3h-0.3v5.1h-2.7V34.7h2.7v4.6h0.3c0.2,0,0.3-0.1,0.5-0.2c0.2-0.2,0.3-0.5,0.5-1
	l0.7-1.7c0.2-0.6,0.5-1,0.9-1.3s0.9-0.5,1.6-0.5c0.2,0,0.4,0,0.6,0c0.2,0,0.3,0,0.5,0.1c0.2,0,0.3,0.1,0.4,0.1v1.1
	c-0.4,0-0.7,0.1-0.9,0.2s-0.3,0.3-0.4,0.5l-0.6,1.5c-0.2,0.6-0.5,1.1-0.8,1.4C207,39.7,206.7,39.9,206.4,40.1L206.4,40.1L206.4,40.1
	z M217,40.6h-1.3c-0.2,0-0.4,0-0.6,0.1c-0.2,0.1-0.4,0.2-0.5,0.3c-0.2,0.2-0.3,0.4-0.4,0.6c-0.1,0.3-0.2,0.6-0.2,1s0.1,0.7,0.2,1
	c0.1,0.3,0.2,0.5,0.4,0.6c0.2,0.2,0.3,0.3,0.5,0.3c0.2,0.1,0.4,0.1,0.6,0.1c0.3,0,0.5,0,0.8-0.1c0.2-0.1,0.4-0.2,0.5-0.3V40.6
	L217,40.6z M214.8,46.3c-0.5,0-0.9-0.1-1.4-0.2c-0.4-0.1-0.8-0.3-1.1-0.6c-0.3-0.3-0.6-0.6-0.8-1.1s-0.3-1.1-0.3-1.8
	c0-0.7,0.1-1.4,0.3-1.8c0.2-0.5,0.5-0.8,0.8-1.1c0.3-0.3,0.7-0.5,1.2-0.6s1-0.1,1.5-0.1c0.3,0,0.7,0,1,0.1c0.3,0,0.6,0.1,0.9,0.2
	v-0.9c0-0.9-0.2-1.5-0.6-1.8c-0.4-0.3-1-0.5-1.8-0.5h-2.3V35c0.3-0.1,0.8-0.2,1.3-0.3c0.5-0.1,1-0.1,1.4-0.1c0.8,0,1.4,0.1,2,0.2
	s1.1,0.3,1.5,0.6c0.4,0.3,0.7,0.7,0.9,1.2s0.3,1.2,0.3,1.9v7.6h-1.9l-0.3-0.7h-0.1c-0.2,0.2-0.6,0.4-1,0.6
	C216,46.2,215.5,46.3,214.8,46.3L214.8,46.3z M225.4,44.3c0.1,0.1,0.3,0.2,0.5,0.3c0.2,0.1,0.5,0.1,0.8,0.1s0.6-0.1,0.8-0.2
	c0.3-0.1,0.5-0.4,0.6-0.7c0.2-0.3,0.3-0.8,0.4-1.3c0.1-0.6,0.2-1.3,0.2-2.1s-0.1-1.6-0.2-2.1c-0.1-0.6-0.3-1-0.4-1.3
	c-0.2-0.3-0.4-0.6-0.6-0.7c-0.3-0.1-0.5-0.2-0.8-0.2s-0.5,0-0.7,0.1s-0.4,0.2-0.5,0.3v7.8H225.4z M227.6,34.5c0.6,0,1.1,0.1,1.6,0.3
	c0.5,0.2,0.9,0.6,1.2,1c0.3,0.5,0.6,1.1,0.8,1.8c0.2,0.8,0.3,1.7,0.3,2.7c0,1.1-0.1,2-0.3,2.7c-0.2,0.8-0.5,1.4-0.8,1.8
	c-0.4,0.5-0.8,0.8-1.3,1s-1.1,0.3-1.7,0.3c-0.4,0-0.8-0.1-1.1-0.2s-0.6-0.2-0.9-0.4v4.9h-2.7V34.7h1.9l0.3,0.7h0.1
	c0.2-0.2,0.6-0.4,1-0.6C226.4,34.6,226.9,34.5,227.6,34.5L227.6,34.5z M238.3,36.1c-0.3,0-0.7,0.1-0.9,0.2c-0.3,0.1-0.5,0.4-0.7,0.7
	c-0.2,0.3-0.4,0.8-0.5,1.3c-0.1,0.6-0.2,1.3-0.2,2.1s0.1,1.6,0.2,2.1c0.1,0.6,0.3,1,0.5,1.3s0.5,0.6,0.8,0.7s0.7,0.2,1.1,0.2h2.5
	v1.1c-0.3,0.1-0.8,0.2-1.3,0.3c-0.5,0.1-1.1,0.1-1.7,0.1c-0.8,0-1.5-0.1-2.1-0.3c-0.6-0.2-1.1-0.6-1.5-1c-0.4-0.5-0.7-1.1-0.9-1.8
	c-0.2-0.8-0.3-1.7-0.3-2.7c0-1.1,0.1-2,0.3-2.7c0.2-0.8,0.5-1.4,0.9-1.8c0.4-0.5,0.9-0.8,1.4-1c0.6-0.2,1.2-0.3,2-0.3
	c0.6,0,1.1,0,1.7,0.1c0.5,0.1,1,0.2,1.3,0.3v1.1H238.3L238.3,36.1z M250,34.7v1.7h-2.8v9.7h-2.7v-9.7h-2.8v-1.7L250,34.7L250,34.7z
	 M255.8,44.7c0.3,0,0.5,0,0.7-0.1s0.4-0.2,0.6-0.3c0.2-0.2,0.3-0.4,0.4-0.6c0.1-0.3,0.2-0.6,0.2-0.9c0-0.7-0.2-1.2-0.6-1.4
	c-0.4-0.3-0.8-0.4-1.4-0.4h-1.4v3.8L255.8,44.7L255.8,44.7z M254.4,36.1v3.3h1.1c0.2,0,0.4,0,0.6-0.1s0.4-0.2,0.5-0.3
	c0.2-0.1,0.3-0.3,0.4-0.5s0.1-0.4,0.1-0.7c0-0.3-0.1-0.6-0.2-0.8c-0.1-0.2-0.2-0.4-0.4-0.5c-0.2-0.1-0.3-0.2-0.5-0.3
	c-0.2-0.1-0.4-0.1-0.6-0.1H254.4L254.4,36.1z M251.7,34.9c0.6-0.2,1.2-0.3,1.8-0.4s1.3-0.1,2.1-0.1c0.7,0,1.4,0.1,2,0.1
	c0.6,0.1,1,0.3,1.4,0.5s0.7,0.6,0.9,1c0.2,0.4,0.3,0.9,0.3,1.5c0,0.4-0.1,0.7-0.2,0.9c-0.1,0.3-0.3,0.5-0.4,0.7
	c-0.2,0.2-0.4,0.3-0.6,0.4s-0.4,0.2-0.6,0.3v0.3c0.3,0.1,0.5,0.2,0.8,0.3c0.3,0.1,0.5,0.3,0.7,0.5s0.4,0.5,0.5,0.8s0.2,0.7,0.2,1.1
	c0,0.7-0.1,1.2-0.3,1.7c-0.2,0.4-0.5,0.8-0.9,1c-0.4,0.3-0.9,0.4-1.5,0.5s-1.3,0.2-2.1,0.2c-0.9,0-1.7,0-2.3-0.1s-1.2-0.2-1.8-0.4
	L251.7,34.9L251.7,34.9z M270.9,41.2H265c0,1.3,0.2,2.2,0.7,2.7s1.2,0.8,2.1,0.8h2.5v1.1c-0.4,0.1-0.8,0.2-1.3,0.3
	c-0.5,0.1-1.1,0.1-1.7,0.1c-0.9,0-1.6-0.1-2.3-0.3c-0.6-0.2-1.2-0.6-1.6-1c-0.4-0.5-0.7-1.1-0.9-1.8c-0.2-0.8-0.3-1.7-0.3-2.7
	c0-1.1,0.1-2,0.3-2.7c0.2-0.8,0.5-1.4,0.8-1.8c0.4-0.5,0.8-0.8,1.4-1c0.5-0.2,1.2-0.3,1.8-0.3c0.7,0,1.3,0.1,1.8,0.3
	c0.5,0.2,1,0.6,1.4,1c0.4,0.5,0.6,1.1,0.8,1.8c0.2,0.8,0.3,1.7,0.3,2.7v0.8H270.9z M268.2,39.6c0-0.7,0-1.4-0.1-1.8
	c-0.1-0.5-0.2-0.8-0.3-1.1c-0.1-0.3-0.3-0.5-0.5-0.6s-0.4-0.1-0.6-0.1s-0.4,0-0.6,0.1s-0.4,0.3-0.5,0.6c-0.1,0.3-0.2,0.6-0.3,1.1
	c-0.1,0.5-0.1,1.1-0.1,1.8H268.2L268.2,39.6z M276.1,46.1h-2.7V34.7h2.7v4.8h3.1v-4.8h2.7v11.4h-2.7v-4.9h-3.1V46.1L276.1,46.1z
	 M287.6,46.1h-2.7V34.7h2.7v4.8h3.1v-4.8h2.7v11.4h-2.7v-4.9h-3.1V46.1L287.6,46.1z M308.7,34.7v11.4H306V34.7H308.7L308.7,34.7z
	 M299.1,39c0.3-0.1,0.6-0.1,1-0.2c0.4,0,0.7-0.1,1-0.1c0.5,0,1,0.1,1.5,0.2s0.8,0.3,1.2,0.6c0.3,0.3,0.6,0.7,0.8,1.1
	c0.2,0.5,0.3,1.1,0.3,1.9s-0.1,1.4-0.3,1.9c-0.2,0.5-0.5,0.9-0.9,1.1c-0.4,0.3-0.8,0.5-1.4,0.6s-1.2,0.2-1.9,0.2
	c-0.9,0-1.6,0-2.2-0.1s-1.2-0.2-1.8-0.4V34.7h2.7L299.1,39L299.1,39z M300.3,44.7c0.2,0,0.4,0,0.6-0.1s0.4-0.2,0.5-0.3
	c0.2-0.2,0.3-0.4,0.4-0.7c0.1-0.3,0.2-0.6,0.2-1.1c0-0.4-0.1-0.7-0.2-1s-0.2-0.5-0.4-0.6c-0.2-0.2-0.3-0.3-0.5-0.3
	c-0.2-0.1-0.4-0.1-0.6-0.1H299v4.2H300.3L300.3,44.7z M316.9,34.7h2.8l-2.6,5.6l2.7,5.8H317l-1.8-4.2l-1.8,4.2h-2.8l2.7-5.8
	l-2.6-5.6h2.8l1.7,4L316.9,34.7L316.9,34.7z M331.8,36.1c-0.4,0-0.7,0.1-0.9,0.2c-0.3,0.1-0.5,0.4-0.7,0.7c-0.2,0.3-0.4,0.8-0.5,1.3
	c-0.1,0.6-0.2,1.3-0.2,2.1s0.1,1.6,0.2,2.1c0.1,0.6,0.3,1,0.5,1.3s0.5,0.6,0.8,0.7s0.7,0.2,1.1,0.2h2.5v1.1
	c-0.4,0.1-0.8,0.2-1.3,0.3c-0.5,0.1-1.1,0.1-1.7,0.1c-0.8,0-1.5-0.1-2.1-0.3c-0.6-0.2-1.1-0.6-1.5-1c-0.4-0.5-0.7-1.1-0.9-1.8
	c-0.2-0.8-0.3-1.7-0.3-2.7c0-1.1,0.1-2,0.3-2.7c0.2-0.8,0.5-1.4,0.9-1.8c0.4-0.5,0.9-0.8,1.4-1c0.6-0.2,1.2-0.3,2-0.3
	c0.6,0,1.1,0,1.6,0.1s1,0.2,1.3,0.3v1.1H331.8L331.8,36.1z"/>
<path class="st0" d="M339.1,44.3c0.1,0.1,0.3,0.2,0.5,0.3c0.2,0.1,0.5,0.1,0.8,0.1s0.6-0.1,0.8-0.2c0.3-0.1,0.5-0.4,0.6-0.7
	c0.2-0.3,0.3-0.8,0.4-1.3c0.1-0.6,0.2-1.3,0.2-2.1s-0.1-1.6-0.2-2.1c-0.1-0.6-0.2-1-0.4-1.3c-0.2-0.3-0.4-0.6-0.6-0.7
	s-0.5-0.2-0.8-0.2s-0.5,0-0.7,0.1s-0.4,0.2-0.5,0.3L339.1,44.3L339.1,44.3z M341.3,34.5c0.6,0,1.1,0.1,1.6,0.3
	c0.5,0.2,0.9,0.6,1.2,1c0.3,0.5,0.6,1.1,0.8,1.8c0.2,0.8,0.3,1.7,0.3,2.7c0,1.1-0.1,2-0.3,2.7c-0.2,0.8-0.5,1.4-0.8,1.8
	c-0.4,0.5-0.8,0.8-1.3,1s-1.1,0.3-1.7,0.3c-0.4,0-0.8-0.1-1.1-0.2c-0.3-0.1-0.6-0.2-0.9-0.4v4.9h-2.7V34.7h1.9l0.3,0.7h0.1
	c0.2-0.2,0.6-0.4,1-0.6C340.1,34.6,340.7,34.5,341.3,34.5L341.3,34.5z M355.6,41.2h-5.9c0,1.3,0.2,2.2,0.7,2.7s1.2,0.8,2.1,0.8h2.5
	v1.1c-0.4,0.1-0.8,0.2-1.3,0.3c-0.5,0.1-1.1,0.1-1.7,0.1c-0.9,0-1.6-0.1-2.3-0.3c-0.6-0.2-1.2-0.6-1.6-1c-0.4-0.5-0.7-1.1-0.9-1.8
	c-0.2-0.8-0.3-1.7-0.3-2.7c0-1.1,0.1-2,0.3-2.7c0.2-0.8,0.5-1.4,0.8-1.8c0.4-0.5,0.8-0.8,1.4-1c0.5-0.2,1.2-0.3,1.8-0.3
	c0.7,0,1.3,0.1,1.8,0.3c0.5,0.2,1,0.6,1.4,1c0.4,0.5,0.6,1.1,0.8,1.8c0.2,0.8,0.3,1.7,0.3,2.7v0.8H355.6z M352.9,39.6
	c0-0.7,0-1.4-0.1-1.8c-0.1-0.5-0.2-0.8-0.3-1.1c-0.1-0.3-0.3-0.5-0.5-0.6s-0.4-0.1-0.6-0.1s-0.4,0-0.6,0.1s-0.4,0.3-0.5,0.6
	c-0.1,0.3-0.2,0.6-0.3,1.1c-0.1,0.5-0.1,1.1-0.1,1.8H352.9L352.9,39.6z M367.8,44.4v5h-1.7c-0.2-0.4-0.4-0.9-0.6-1.4
	c-0.2-0.6-0.3-1.2-0.3-1.9h-6c-0.1,0.7-0.2,1.3-0.3,1.9c-0.2,0.6-0.4,1-0.6,1.4h-1.7v-5h1c0.2-0.3,0.4-0.7,0.6-1.2s0.3-1.1,0.4-1.9
	l0.3-6.6h7.5v9.7H367.8L367.8,44.4z M361.6,36.4l-0.3,4.9c0,0.8-0.2,1.4-0.4,1.9c-0.2,0.5-0.4,0.9-0.6,1.2h3.4v-8H361.6L361.6,36.4z
	 M374.3,36.1c-0.3,0-0.7,0.1-0.9,0.2c-0.3,0.1-0.5,0.4-0.7,0.7c-0.2,0.3-0.4,0.8-0.5,1.3c-0.1,0.6-0.2,1.3-0.2,2.1s0.1,1.6,0.2,2.1
	c0.1,0.6,0.3,1,0.5,1.3s0.5,0.6,0.8,0.7s0.7,0.2,1.1,0.2h2.5v1.1c-0.3,0.1-0.8,0.2-1.3,0.3c-0.5,0.1-1.1,0.1-1.7,0.1
	c-0.8,0-1.5-0.1-2.1-0.3c-0.6-0.2-1.1-0.6-1.5-1c-0.4-0.5-0.7-1.1-0.9-1.8c-0.2-0.8-0.3-1.7-0.3-2.7c0-1.1,0.1-2,0.3-2.7
	c0.2-0.8,0.5-1.4,0.9-1.8c0.4-0.5,0.9-0.8,1.4-1c0.6-0.2,1.2-0.3,2-0.3c0.6,0,1.1,0,1.7,0.1c0.5,0.1,1,0.2,1.3,0.3v1.1H374.3
	L374.3,36.1z M386,34.7v1.7h-2.8v9.7h-2.7v-9.7h-2.8v-1.7L386,34.7L386,34.7z M391.8,44.7c0.3,0,0.5,0,0.7-0.1s0.4-0.2,0.6-0.3
	c0.2-0.2,0.3-0.4,0.4-0.6c0.1-0.3,0.2-0.6,0.2-0.9c0-0.7-0.2-1.2-0.6-1.4c-0.4-0.3-0.8-0.4-1.4-0.4h-1.4v3.8L391.8,44.7L391.8,44.7z
	 M390.5,36.1v3.3h1.1c0.2,0,0.4,0,0.6-0.1s0.4-0.2,0.5-0.3c0.2-0.1,0.3-0.3,0.4-0.5s0.2-0.4,0.2-0.7c0-0.3-0.1-0.6-0.2-0.8
	c-0.1-0.2-0.2-0.4-0.4-0.5c-0.2-0.1-0.3-0.2-0.5-0.3c-0.2-0.1-0.4-0.1-0.6-0.1H390.5L390.5,36.1z M387.7,34.9
	c0.6-0.2,1.2-0.3,1.8-0.4c0.6-0.1,1.3-0.1,2.1-0.1c0.7,0,1.4,0.1,2,0.1c0.6,0.1,1,0.3,1.4,0.5s0.7,0.6,0.9,1
	c0.2,0.4,0.3,0.9,0.3,1.5c0,0.4-0.1,0.7-0.2,0.9c-0.1,0.3-0.3,0.5-0.4,0.7c-0.2,0.2-0.4,0.3-0.6,0.4s-0.4,0.2-0.6,0.3v0.3
	c0.3,0.1,0.5,0.2,0.8,0.3c0.3,0.1,0.5,0.3,0.7,0.5s0.4,0.5,0.5,0.8s0.2,0.7,0.2,1.1c0,0.7-0.1,1.2-0.3,1.7c-0.2,0.4-0.5,0.8-0.9,1
	c-0.4,0.3-0.9,0.4-1.5,0.5s-1.3,0.2-2.1,0.2c-0.9,0-1.7,0-2.3-0.1c-0.6-0.1-1.2-0.2-1.8-0.4V34.9L387.7,34.9z M185.3,62.8h-0.1
	L182,70h-2.7V58.6h2.6v6.9h0.1l3-6.9h3V70h-2.6v-7.2H185.3z M199.3,70h-2.7V58.6h2.7v4.8h3.1v-4.8h2.7V70h-2.7v-4.9h-3.1V70
	L199.3,70z M213.2,64.6H212c-0.2,0-0.4,0-0.6,0.1c-0.2,0.1-0.4,0.2-0.5,0.3c-0.2,0.2-0.3,0.4-0.4,0.6c-0.1,0.3-0.2,0.6-0.2,1
	s0.1,0.7,0.2,1c0.1,0.3,0.2,0.5,0.4,0.6c0.2,0.2,0.3,0.3,0.5,0.3c0.2,0.1,0.4,0.1,0.6,0.1c0.3,0,0.5,0,0.8-0.1
	c0.2-0.1,0.4-0.2,0.5-0.3v-3.6H213.2z M211.1,70.2c-0.5,0-0.9,0-1.4-0.1c-0.4-0.1-0.8-0.3-1.1-0.6c-0.3-0.3-0.6-0.6-0.8-1.1
	s-0.3-1.1-0.3-1.8c0-0.8,0.1-1.4,0.3-1.8c0.2-0.5,0.4-0.8,0.8-1.1c0.3-0.3,0.7-0.5,1.2-0.6s1-0.1,1.5-0.1c0.4,0,0.7,0,1,0.1
	c0.3,0,0.6,0.1,0.9,0.2v-0.9c0-0.9-0.2-1.5-0.6-1.8c-0.4-0.3-1-0.5-1.8-0.5h-2.3V59c0.3-0.1,0.8-0.2,1.3-0.3c0.5-0.1,1-0.1,1.4-0.1
	c0.8,0,1.5,0.1,2,0.2c0.6,0.1,1.1,0.3,1.5,0.6c0.4,0.3,0.7,0.7,0.9,1.2s0.3,1.2,0.3,1.9v7.7H214l-0.3-0.7h-0.1
	c-0.2,0.2-0.6,0.4-1,0.6C212.2,70.1,211.7,70.2,211.1,70.2L211.1,70.2z M228.9,68.3v5h-1.7c-0.2-0.4-0.4-0.9-0.6-1.4
	c-0.2-0.6-0.3-1.2-0.3-1.9h-6c-0.1,0.7-0.2,1.3-0.3,1.9c-0.2,0.6-0.4,1-0.6,1.4h-1.7v-5h1c0.2-0.3,0.4-0.7,0.6-1.1
	c0.2-0.5,0.3-1.1,0.4-1.9l0.3-6.6h7.5v9.7L228.9,68.3L228.9,68.3z M222.7,60.3l-0.3,4.9c0,0.8-0.2,1.4-0.4,1.9s-0.4,0.9-0.6,1.1h3.4
	v-8L222.7,60.3L222.7,60.3z M239.4,58.6V70h-2.7v-9.7h-2.4l-0.4,6c-0.1,1.3-0.4,2.3-0.9,2.9c-0.6,0.6-1.2,1-2,1c-0.4,0-0.7,0-1-0.1
	s-0.4-0.1-0.5-0.1v-1.1c0.4,0,0.8-0.2,1.1-0.6s0.5-1,0.6-1.9l0.5-7.7h7.7V58.6z M250.5,65.1h-5.9c0,1.3,0.2,2.2,0.7,2.7
	s1.2,0.8,2.1,0.8h2.5v1.1c-0.4,0.1-0.8,0.2-1.3,0.3c-0.5,0.1-1.1,0.1-1.7,0.1c-0.9,0-1.6-0.1-2.3-0.3c-0.6-0.2-1.2-0.6-1.6-1
	c-0.4-0.5-0.7-1.1-0.9-1.8c-0.2-0.8-0.3-1.7-0.3-2.7c0-1.1,0.1-2,0.3-2.7c0.2-0.8,0.5-1.4,0.8-1.8c0.4-0.5,0.8-0.8,1.4-1
	c0.5-0.2,1.2-0.3,1.8-0.3c0.7,0,1.3,0.1,1.8,0.3c0.5,0.2,1,0.6,1.4,1c0.4,0.5,0.6,1.1,0.8,1.8c0.2,0.8,0.3,1.7,0.3,2.7L250.5,65.1
	L250.5,65.1z M247.7,63.5c0-0.7,0-1.3-0.1-1.8s-0.2-0.8-0.3-1.1c-0.1-0.3-0.3-0.5-0.5-0.6s-0.4-0.1-0.6-0.1s-0.4,0-0.6,0.1
	c-0.2,0.1-0.4,0.3-0.5,0.6c-0.1,0.3-0.2,0.6-0.3,1.1s-0.1,1.1-0.1,1.8H247.7L247.7,63.5z M260.1,58.6v4.6h0.1c0.2,0,0.3-0.1,0.5-0.2
	c0.2-0.2,0.3-0.5,0.5-1l0.7-1.7c0.2-0.6,0.5-1,0.9-1.3s0.9-0.5,1.6-0.5c0.2,0,0.4,0,0.6,0s0.3,0.1,0.5,0.1s0.3,0.1,0.4,0.1v1.1
	c-0.4,0-0.7,0.1-0.9,0.2c-0.2,0.1-0.3,0.3-0.4,0.5L264,62c-0.2,0.6-0.5,1.1-0.8,1.4s-0.6,0.5-0.9,0.6v0.1c0.4,0.1,0.8,0.3,1.2,0.6
	c0.4,0.3,0.6,0.8,0.8,1.5l0.5,1.8c0.1,0.2,0.2,0.4,0.4,0.6c0.2,0.2,0.5,0.3,0.9,0.3V70c-0.1,0-0.3,0.1-0.4,0.1
	c-0.3,0.1-0.7,0.1-1,0.1c-0.7,0-1.3-0.2-1.8-0.5c-0.4-0.4-0.7-0.8-0.9-1.4l-0.6-2.2c-0.1-0.4-0.3-0.7-0.5-0.9
	c-0.2-0.2-0.5-0.3-0.8-0.3H260V70h-2.7v-5.1h-0.1c-0.3,0-0.5,0.1-0.8,0.3c-0.2,0.2-0.4,0.5-0.5,0.9l-0.6,2.2c-0.1,0.6-0.4,1-0.9,1.4
	c-0.4,0.4-1,0.5-1.8,0.5c-0.4,0-0.7,0-1-0.1c-0.2,0-0.3-0.1-0.4-0.1v-1.1c0.4,0,0.7-0.1,0.9-0.3c0.2-0.2,0.4-0.4,0.4-0.6l0.5-1.8
	c0.2-0.7,0.4-1.2,0.8-1.5c0.4-0.3,0.8-0.5,1.2-0.6V64c-0.3-0.1-0.7-0.3-0.9-0.6c-0.3-0.3-0.5-0.8-0.8-1.4l-0.6-1.5
	c-0.1-0.2-0.2-0.3-0.4-0.5c-0.2-0.1-0.5-0.2-0.9-0.2v-1.1c0.1,0,0.3-0.1,0.4-0.1c0.1,0,0.3-0.1,0.5-0.1s0.4,0,0.6,0
	c0.7,0,1.2,0.2,1.6,0.5c0.4,0.3,0.7,0.8,0.9,1.3l0.7,1.7c0.2,0.5,0.4,0.9,0.5,1c0.2,0.2,0.3,0.2,0.5,0.2h0.1v-4.6H260.1L260.1,58.6z
	 M273,64.6h-1.3c-0.2,0-0.4,0-0.6,0.1s-0.4,0.2-0.5,0.3c-0.2,0.2-0.3,0.4-0.4,0.6c-0.1,0.3-0.2,0.6-0.2,1s0,0.7,0.2,1
	c0.1,0.3,0.2,0.5,0.4,0.6c0.2,0.2,0.3,0.3,0.5,0.3c0.2,0.1,0.4,0.1,0.6,0.1c0.3,0,0.5,0,0.8-0.1c0.2-0.1,0.4-0.2,0.5-0.3V64.6
	L273,64.6z M270.8,70.2c-0.5,0-0.9,0-1.4-0.1c-0.4-0.1-0.8-0.3-1.1-0.6c-0.3-0.3-0.6-0.6-0.8-1.1c-0.2-0.5-0.3-1.1-0.3-1.8
	c0-0.8,0.1-1.4,0.3-1.8c0.2-0.5,0.5-0.8,0.8-1.1c0.3-0.3,0.7-0.5,1.2-0.6s1-0.1,1.5-0.1c0.3,0,0.7,0,1,0.1c0.3,0,0.6,0.1,0.9,0.2
	v-0.9c0-0.9-0.2-1.5-0.6-1.8s-1-0.5-1.8-0.5h-2.3V59c0.4-0.1,0.8-0.2,1.3-0.3c0.5-0.1,1-0.1,1.4-0.1c0.8,0,1.5,0.1,2,0.2
	c0.6,0.1,1.1,0.3,1.5,0.6c0.4,0.3,0.7,0.7,0.9,1.2c0.2,0.5,0.3,1.2,0.3,1.9v7.7h-1.9l-0.3-0.7h-0.1c-0.2,0.2-0.6,0.4-1,0.6
	C272,70.1,271.5,70.2,270.8,70.2L270.8,70.2z M278.7,70V58.6h2.7v9.7h2.5v-9.7h2.7v9.7h2.5v-9.7h2.7v9.7h1.4v5h-1.7
	c-0.2-0.4-0.4-0.9-0.6-1.4c-0.2-0.6-0.3-1.2-0.3-1.9L278.7,70L278.7,70z M301.3,62.8h-0.1L298,70h-2.7V58.6h2.6v6.9h0.1l3-6.9h3V70
	h-2.6L301.3,62.8L301.3,62.8z M312.1,58.6h2.8l-2.6,5.6L315,70h-2.8l-1.8-4.2l-1.8,4.2h-2.8l2.7-5.8l-2.6-5.6h2.8l1.7,4L312.1,58.6
	L312.1,58.6z M325.4,70h-2.7V58.6h8.5V70h-2.7v-9.7h-3.1L325.4,70L325.4,70z M336.8,68.2c0.1,0.1,0.3,0.2,0.5,0.3
	c0.2,0.1,0.5,0.1,0.8,0.1s0.6-0.1,0.8-0.2c0.3-0.1,0.5-0.4,0.6-0.7s0.3-0.8,0.4-1.3c0.1-0.6,0.2-1.3,0.2-2.1c0-0.8-0.1-1.6-0.2-2.1
	c-0.1-0.6-0.3-1-0.4-1.3c-0.2-0.3-0.4-0.6-0.6-0.7c-0.3-0.1-0.5-0.2-0.8-0.2s-0.5,0-0.7,0.1s-0.4,0.2-0.5,0.3L336.8,68.2L336.8,68.2
	z M339,58.4c0.6,0,1.1,0.1,1.6,0.3c0.5,0.2,0.9,0.6,1.2,1c0.3,0.5,0.6,1.1,0.8,1.8c0.2,0.8,0.3,1.7,0.3,2.7c0,1.1-0.1,2-0.3,2.7
	c-0.2,0.8-0.5,1.4-0.8,1.8c-0.4,0.5-0.8,0.8-1.3,1s-1.1,0.3-1.7,0.3c-0.4,0-0.8-0.1-1.1-0.2c-0.3-0.1-0.6-0.2-0.9-0.4v4.9h-2.7V58.6
	h1.9l0.3,0.7h0.1c0.2-0.2,0.6-0.4,1-0.6C337.9,58.5,338.4,58.4,339,58.4L339,58.4z M350.4,64.6h-1.3c-0.2,0-0.4,0-0.6,0.1
	s-0.4,0.2-0.5,0.3c-0.2,0.2-0.3,0.4-0.4,0.6c-0.1,0.3-0.2,0.6-0.2,1s0.1,0.7,0.2,1s0.2,0.5,0.4,0.6c0.2,0.2,0.3,0.3,0.5,0.3
	c0.2,0.1,0.4,0.1,0.6,0.1c0.3,0,0.5,0,0.8-0.1c0.2-0.1,0.4-0.2,0.5-0.3V64.6L350.4,64.6z M348.2,70.2c-0.5,0-0.9,0-1.4-0.1
	c-0.4-0.1-0.8-0.3-1.1-0.6c-0.3-0.3-0.6-0.6-0.8-1.1c-0.2-0.5-0.3-1.1-0.3-1.8c0-0.8,0.1-1.4,0.3-1.8c0.2-0.5,0.5-0.8,0.8-1.1
	c0.3-0.3,0.7-0.5,1.2-0.6s1-0.1,1.5-0.1c0.4,0,0.7,0,1,0.1c0.3,0,0.6,0.1,0.9,0.2v-0.9c0-0.9-0.2-1.5-0.6-1.8s-1-0.5-1.8-0.5h-2.3
	V59c0.3-0.1,0.8-0.2,1.3-0.3c0.5-0.1,1-0.1,1.4-0.1c0.8,0,1.5,0.1,2,0.2c0.6,0.1,1.1,0.3,1.5,0.6c0.4,0.3,0.7,0.7,0.9,1.2
	c0.2,0.5,0.3,1.2,0.3,1.9v7.7h-1.9l-0.3-0.7h-0.1c-0.2,0.2-0.6,0.4-1,0.6C349.4,70.1,348.9,70.2,348.2,70.2L348.2,70.2z M361.3,64
	c0.4,0.1,0.8,0.3,1.2,0.6c0.4,0.3,0.6,0.8,0.8,1.5l0.5,1.8c0.1,0.2,0.2,0.4,0.4,0.6c0.2,0.2,0.5,0.3,0.9,0.3v1.1
	c-0.1,0-0.3,0.1-0.4,0.1c-0.3,0.1-0.7,0.1-1,0.1c-0.7,0-1.3-0.2-1.8-0.5c-0.4-0.4-0.7-0.8-0.9-1.4l-0.6-2.2
	c-0.1-0.4-0.3-0.7-0.5-0.9c-0.2-0.2-0.5-0.3-0.8-0.3h-0.3v5.1h-2.7V58.6h2.7v4.6h0.3c0.2,0,0.3-0.1,0.5-0.2c0.2-0.2,0.3-0.5,0.5-1
	l0.7-1.7c0.2-0.6,0.5-1,0.9-1.3s0.9-0.5,1.6-0.5c0.2,0,0.4,0,0.6,0s0.3,0.1,0.5,0.1s0.3,0.1,0.4,0.1v1.1c-0.4,0-0.7,0.1-0.9,0.2
	c-0.2,0.1-0.3,0.3-0.4,0.5l-0.6,1.5c-0.2,0.6-0.5,1.1-0.8,1.4C362,63.6,361.6,63.8,361.3,64L361.3,64L361.3,64z M374,58.6v1.7h-2.8
	V70h-2.7v-9.7h-2.8v-1.7H374L374,58.6z M381.7,62.8h-0.1l-3.2,7.2h-2.7V58.6h2.6v6.9h0.1l3-6.9h3V70h-2.6L381.7,62.8L381.7,62.8z
	 M392.5,64c0.4,0.1,0.8,0.3,1.2,0.6c0.4,0.3,0.6,0.8,0.8,1.5l0.5,1.8c0.1,0.2,0.2,0.4,0.4,0.6c0.2,0.2,0.5,0.3,0.9,0.3v1.1
	c-0.1,0-0.3,0.1-0.4,0.1c-0.3,0.1-0.7,0.1-1,0.1c-0.7,0-1.3-0.2-1.8-0.5c-0.4-0.4-0.7-0.8-0.9-1.4l-0.6-2.2
	c-0.1-0.4-0.3-0.7-0.5-0.9c-0.2-0.2-0.5-0.3-0.8-0.3H390v5.1h-2.7V58.6h2.7v4.6h0.3c0.2,0,0.3-0.1,0.5-0.2c0.2-0.2,0.3-0.5,0.5-1
	l0.7-1.7c0.2-0.6,0.5-1,0.9-1.3s0.9-0.5,1.6-0.5c0.2,0,0.4,0,0.6,0s0.3,0.1,0.5,0.1s0.3,0.1,0.4,0.1v1.1c-0.4,0-0.7,0.1-0.9,0.2
	c-0.2,0.1-0.3,0.3-0.4,0.5l-0.6,1.5c-0.2,0.6-0.5,1.1-0.8,1.4C393.2,63.6,392.8,63.8,392.5,64L392.5,64L392.5,64z"/>
<path class="st1" d="M31.9,2c7.9,0,15.1,2.9,20.5,7.7l-4.6,4.4c-4.3-3.6-9.9-5.8-15.9-5.8C18.2,8.3,7.1,19.4,7.1,33.1
	C7.1,46.8,18.2,58,31.9,58c3.7,0,7.2-0.8,10.3-2.2l-9-9l4.3-4.3l14.4,14.5C51,57.8,50,58.5,49,59.2c-4.9,3.2-10.8,5.1-17.1,5.1
	c-17.2,0-31.2-14-31.2-31.2C0.7,15.9,14.7,2,31.9,2L31.9,2z"/>
<polygon class="st2" points="66.7,32.5 51,16.8 55.7,12.3 71.3,27.9 87.8,11.4 92.5,15.9 75.9,32.5 92.3,48.9 87.6,53.3 71.3,37.1 
	55.8,52.6 51.2,48 66.7,32.5 "/>
<path class="st1" d="M109.9,2c17.2,0,31.2,14,31.2,31.2c0,17.2-14,31.2-31.2,31.2c-4.1,0-8.1-0.8-11.7-2.3v16.5H92L92,58l4.3-4.1
	c3.9,2.6,8.6,4.1,13.6,4.1c13.7,0,24.8-11.1,24.8-24.8c0-13.7-11.1-24.8-24.8-24.8c-5.4,0-10.4,1.7-14.4,4.6l-4.7-4.4
	C96.1,4.4,102.7,2,109.9,2L109.9,2z"/>
<path class="st3" d="M62.5,78.9h-1.1v-6.7h1.1v5l3.7-5h1.1v6.7h-1.2v-5L62.5,78.9L62.5,78.9z M73.6,74.8v4.2h-1.2v-9.4h1.2v4.1h4
	v-4.1h1.2v9.4h-1.2v-4.2H73.6L73.6,74.8z M82.5,70.7v8.2h-1.2v-9.4h6.4v9.4h-1.2v-8.2H82.5L82.5,70.7z"/>
<path class="st4" d="M55.2,59.2v8.3H54V58h4.9v1.2H55.2L55.2,59.2z M66.8,60.1l-4.8,7.3h-1.2V58h1.3v7.3l4.8-7.3h1.2v9.4h-1.3V60.1
	L66.8,60.1z M73.9,59.6l-2.7,7.9h-1.4l3.4-9.4h1.2l3.4,9.4h-1.3L73.9,59.6L73.9,59.6z M86.3,65.2h1.6c-0.8,1.6-2.2,2.4-4.2,2.4
	c-1.4,0-2.5-0.5-3.4-1.5c-0.9-1-1.4-2.1-1.4-3.5c0-1.3,0.5-2.5,1.4-3.4c0.9-1,2.1-1.4,3.4-1.4c0.9,0,1.8,0.2,2.5,0.6
	c0.8,0.4,1.3,1.1,1.7,1.9h-1.5c-0.6-0.9-1.5-1.3-2.7-1.3c-0.9,0-1.8,0.4-2.5,1.1c-0.7,0.7-1,1.6-1,2.5c0,1,0.3,1.8,1,2.6
	c0.7,0.8,1.5,1.1,2.5,1.1C84.9,66.4,85.7,66,86.3,65.2L86.3,65.2z"/>
</svg>
