<?xml version="1.0" encoding="UTF-8" standalone="no"?>
<!-- Created with Inkscape (http://www.inkscape.org/) -->

<svg
   version="1.1"
   id="svg2"
   width="340.15732"
   height="158.71066"
   viewBox="0 0 340.15732 158.71066"
   sodipodi:docname="IMM_Full_Logo.ai"
   xmlns:inkscape="http://www.inkscape.org/namespaces/inkscape"
   xmlns:sodipodi="http://sodipodi.sourceforge.net/DTD/sodipodi-0.dtd"
   xmlns="http://www.w3.org/2000/svg"
   xmlns:svg="http://www.w3.org/2000/svg">
  <defs
     id="defs6">
    <clipPath
       clipPathUnits="userSpaceOnUse"
       id="clipPath16">
      <path
         d="M 0,119.033 H 255.118 V 0 H 0 Z"
         id="path14" />
    </clipPath>
  </defs>
  <sodipodi:namedview
     id="namedview4"
     pagecolor="#ffffff"
     bordercolor="#000000"
     borderopacity="0.25"
     inkscape:showpageshadow="2"
     inkscape:pageopacity="0.0"
     inkscape:pagecheckerboard="0"
     inkscape:deskcolor="#d1d1d1" />
  <g
     id="g8"
     inkscape:groupmode="layer"
     inkscape:label="IMM_Full_Logo"
     transform="matrix(1.3333333,0,0,-1.3333333,0,158.71067)">
    <g
       id="g10">
      <g
         id="g12"
         clip-path="url(#clipPath16)">
        <g
           id="g18"
           transform="translate(111.3564,85.9319)">
          <path
             d="M 0,0 H 1.774 C 2.01,0 2.117,0.085 2.223,0.364 l 4.319,10.455 c 0.065,0.171 0.107,0.213 0.171,0.213 0.064,0 0.108,-0.064 0.108,-0.15 V 0.427 C 6.821,0.192 7.013,0 7.248,0 h 1.09 c 0.236,0 0.429,0.192 0.429,0.427 v 14.112 c 0,0.235 -0.193,0.427 -0.429,0.427 H 6.563 c -0.234,0 -0.341,-0.085 -0.448,-0.363 L 1.796,4.233 C 1.731,4.062 1.688,4.02 1.625,4.02 1.561,4.02 1.519,4.084 1.519,4.169 v 10.37 c 0,0.235 -0.193,0.427 -0.429,0.427 H 0 c -0.234,0 -0.428,-0.192 -0.428,-0.427 V 0.427 C -0.428,0.192 -0.234,0 0,0"
             style="fill:#1d1d1b;fill-opacity:1;fill-rule:nonzero;stroke:none"
             id="path20" />
        </g>
        <g
           id="g22"
           transform="translate(123.1128,85.9319)">
          <path
             d="m 0,0 h 1.176 c 0.235,0 0.427,0.192 0.427,0.427 v 5.987 c 0,0.128 0.085,0.214 0.214,0.214 h 4.704 c 0.128,0 0.213,-0.086 0.213,-0.214 V 0.427 C 6.734,0.192 6.927,0 7.162,0 h 1.176 c 0.236,0 0.429,0.192 0.429,0.427 v 14.112 c 0,0.235 -0.193,0.427 -0.429,0.427 H 7.162 c -0.235,0 -0.428,-0.192 -0.428,-0.427 V 8.873 C 6.734,8.744 6.649,8.66 6.521,8.66 H 1.817 c -0.129,0 -0.214,0.084 -0.214,0.213 v 5.666 c 0,0.235 -0.192,0.427 -0.427,0.427 H 0 c -0.235,0 -0.428,-0.192 -0.428,-0.427 V 0.427 C -0.428,0.192 -0.235,0 0,0"
             style="fill:#1d1d1b;fill-opacity:1;fill-rule:nonzero;stroke:none"
             id="path24" />
        </g>
        <g
           id="g26"
           transform="translate(139.2725,85.7181)">
          <path
             d="m 0,0 c 2.907,0 4.811,1.795 4.811,4.832 0,0.214 -0.213,0.385 -0.427,0.385 H 3.187 C 2.95,5.217 2.758,5.024 2.758,4.79 2.758,3.036 1.689,2.032 0,2.032 c -1.111,0 -1.988,0.555 -2.416,1.453 -0.406,0.855 -0.448,2.63 -0.448,4.213 0,1.582 0.042,3.356 0.448,4.212 0.428,0.898 1.305,1.453 2.416,1.453 1.689,0 2.758,-1.005 2.758,-2.758 0,-0.235 0.192,-0.428 0.429,-0.428 h 1.197 c 0.214,0 0.427,0.172 0.427,0.385 0,3.037 -1.904,4.832 -4.811,4.832 -2.139,0 -3.613,-1.09 -4.298,-2.523 C -4.939,11.525 -4.96,9.686 -4.96,7.698 -4.96,5.708 -4.939,3.87 -4.298,2.523 -3.613,1.09 -2.139,0 0,0"
             style="fill:#1d1d1b;fill-opacity:1;fill-rule:nonzero;stroke:none"
             id="path28" />
        </g>
        <g
           id="g30"
           transform="translate(155.7109,100.8987)">
          <path
             d="m 0,0 h -9.835 c -0.234,0 -0.427,-0.192 -0.427,-0.428 v -1.175 c 0,-0.236 0.193,-0.429 0.427,-0.429 h 3.699 c 0.129,0 0.214,-0.085 0.214,-0.213 v -12.294 c 0,-0.236 0.193,-0.428 0.428,-0.428 h 1.176 c 0.234,0 0.426,0.192 0.426,0.428 v 12.294 c 0,0.128 0.087,0.213 0.215,0.213 H 0 c 0.235,0 0.428,0.193 0.428,0.429 v 1.175 C 0.428,-0.192 0.235,0 0,0"
             style="fill:#1d1d1b;fill-opacity:1;fill-rule:nonzero;stroke:none"
             id="path32" />
        </g>
        <g
           id="g34"
           transform="translate(158.3809,85.9319)">
          <path
             d="m 0,0 h 1.774 c 0.235,0 0.342,0.085 0.449,0.364 l 4.319,10.455 c 0.064,0.171 0.107,0.213 0.171,0.213 0.063,0 0.107,-0.064 0.107,-0.15 V 0.427 C 6.82,0.192 7.013,0 7.247,0 h 1.091 c 0.235,0 0.428,0.192 0.428,0.427 v 14.112 c 0,0.235 -0.193,0.427 -0.428,0.427 H 6.562 c -0.234,0 -0.34,-0.085 -0.448,-0.363 L 1.795,4.233 C 1.731,4.062 1.687,4.02 1.624,4.02 1.561,4.02 1.518,4.084 1.518,4.169 v 10.37 c 0,0.235 -0.193,0.427 -0.429,0.427 H 0 c -0.235,0 -0.428,-0.192 -0.428,-0.427 V 0.427 C -0.428,0.192 -0.235,0 0,0"
             style="fill:#1d1d1b;fill-opacity:1;fill-rule:nonzero;stroke:none"
             id="path36" />
        </g>
        <g
           id="g38"
           transform="translate(169.3887,98.8675)">
          <path
             d="m 0,0 h 3.699 c 0.127,0 0.213,-0.086 0.213,-0.214 v -12.294 c 0,-0.235 0.192,-0.428 0.428,-0.428 h 1.176 c 0.235,0 0.427,0.193 0.427,0.428 V -0.214 C 5.943,-0.086 6.029,0 6.156,0 h 3.679 c 0.234,0 0.427,0.192 0.427,0.428 v 1.176 c 0,0.235 -0.193,0.427 -0.427,0.427 L 0,2.031 c -0.235,0 -0.428,-0.192 -0.428,-0.427 V 0.428 C -0.428,0.192 -0.235,0 0,0"
             style="fill:#1d1d1b;fill-opacity:1;fill-rule:nonzero;stroke:none"
             id="path40" />
        </g>
        <g
           id="g42"
           transform="translate(185.0566,90.0794)">
          <path
             d="M 0,0 C 0.043,-0.106 0.021,-0.17 -0.021,-0.277 L -1.326,-3.72 c -0.085,-0.214 0.087,-0.427 0.428,-0.427 h 1.261 c 0.193,0 0.321,0.106 0.407,0.32 L 6.136,10.221 C 6.18,10.327 6.2,10.392 6.2,10.478 6.2,10.67 6.029,10.819 5.772,10.819 H 4.361 c -0.192,0 -0.32,-0.085 -0.406,-0.32 L 1.197,2.566 C 1.154,2.459 1.068,2.459 1.025,2.566 l -2.992,7.933 c -0.086,0.235 -0.215,0.32 -0.407,0.32 h -1.41 c -0.258,0 -0.429,-0.149 -0.429,-0.341 0,-0.086 0.023,-0.151 0.066,-0.257 z"
             style="fill:#1d1d1b;fill-opacity:1;fill-rule:nonzero;stroke:none"
             id="path44" />
        </g>
        <g
           id="g46"
           transform="translate(202.7354,100.8987)">
          <path
             d="m 0,0 h -9.835 c -0.235,0 -0.428,-0.192 -0.428,-0.428 v -1.175 c 0,-0.236 0.193,-0.429 0.428,-0.429 h 3.699 c 0.128,0 0.213,-0.085 0.213,-0.213 v -12.294 c 0,-0.236 0.194,-0.428 0.428,-0.428 h 1.176 c 0.235,0 0.427,0.192 0.427,0.428 v 12.294 c 0,0.128 0.086,0.213 0.214,0.213 H 0 c 0.234,0 0.428,0.193 0.428,0.429 v 1.175 C 0.428,-0.192 0.234,0 0,0"
             style="fill:#1d1d1b;fill-opacity:1;fill-rule:nonzero;stroke:none"
             id="path48" />
        </g>
        <g
           id="g50"
           transform="translate(111.3564,63.6551)">
          <path
             d="m 0,0 h 1.026 c 0.235,0 0.428,0.192 0.428,0.427 v 11.161 c 0,0.129 0.171,0.192 0.213,0.043 L 3.164,5.708 C 3.249,5.431 3.377,5.346 3.613,5.346 h 1.112 c 0.235,0 0.364,0.085 0.449,0.362 l 1.496,5.923 c 0.043,0.149 0.214,0.086 0.214,-0.043 V 0.427 C 6.884,0.192 7.077,0 7.312,0 h 1.026 c 0.236,0 0.429,0.192 0.429,0.427 v 14.112 c 0,0.234 -0.193,0.427 -0.429,0.427 H 6.222 c -0.236,0 -0.364,-0.064 -0.45,-0.363 L 4.276,8.445 C 4.233,8.317 4.084,8.36 4.062,8.445 L 2.566,14.603 C 2.479,14.902 2.352,14.966 2.117,14.966 H 0 c -0.234,0 -0.428,-0.193 -0.428,-0.427 V 0.427 C -0.428,0.192 -0.234,0 0,0"
             style="fill:#1d1d1b;fill-opacity:1;fill-rule:nonzero;stroke:none"
             id="path52" />
        </g>
        <g
           id="g54"
           transform="translate(125.186,76.5901)">
          <path
             d="m 0,0 h 5.516 c 0.235,0 0.428,0.192 0.428,0.428 v 1.176 c 0,0.235 -0.193,0.427 -0.428,0.427 h -7.334 c -0.235,0 -0.427,-0.192 -0.427,-0.427 v -14.111 c 0,-0.236 0.192,-0.428 0.427,-0.428 h 7.377 c 0.234,0 0.427,0.192 0.427,0.428 v 1.175 c 0,0.236 -0.193,0.428 -0.427,0.428 H 0 c -0.128,0 -0.214,0.085 -0.214,0.214 v 4.169 c 0,0.128 0.086,0.214 0.214,0.214 h 5.282 c 0.234,0 0.426,0.192 0.426,0.427 v 1.176 c 0,0.236 -0.192,0.429 -0.426,0.429 H 0 c -0.128,0 -0.214,0.084 -0.214,0.213 v 3.849 C -0.214,-0.085 -0.128,0 0,0"
             style="fill:#1d1d1b;fill-opacity:1;fill-rule:nonzero;stroke:none"
             id="path56" />
        </g>
        <g
           id="g58"
           transform="translate(137.3047,67.6531)">
          <path
             d="m 0,0 0.514,8.723 c 0,0.129 0.086,0.214 0.214,0.214 H 3.08 c 0.128,0 0.214,-0.085 0.214,-0.214 V -1.967 H -0.512 C -0.234,-1.411 -0.042,-0.749 0,0 m -3.89,-5.923 h 1.177 c 0.234,0 0.426,0.193 0.426,0.428 v 1.282 c 0,0.129 0.086,0.215 0.215,0.215 h 6.52 c 0.129,0 0.214,-0.086 0.214,-0.215 v -1.282 c 0,-0.235 0.192,-0.428 0.428,-0.428 h 1.176 c 0.235,0 0.427,0.193 0.427,0.428 v 3.1 c 0,0.236 -0.192,0.428 -0.427,0.428 H 5.325 v 12.508 c 0,0.235 -0.192,0.427 -0.429,0.427 h -5.921 c -0.236,0 -0.407,-0.192 -0.428,-0.427 L -2.03,0.427 C -2.094,-0.877 -2.5,-1.967 -3.185,-1.967 H -3.89 c -0.257,0 -0.428,-0.192 -0.428,-0.428 v -3.1 c 0,-0.235 0.193,-0.428 0.428,-0.428"
             style="fill:#1d1d1b;fill-opacity:1;fill-rule:nonzero;stroke:none"
             id="path60" />
        </g>
        <g
           id="g62"
           transform="translate(148.3994,63.6551)">
          <path
             d="m 0,0 c 0.235,0 0.343,0.085 0.448,0.363 l 4.32,10.455 c 0.064,0.172 0.107,0.214 0.17,0.214 0.065,0 0.108,-0.064 0.108,-0.15 V 0.427 C 5.046,0.192 5.238,0 5.474,0 H 6.563 C 6.8,0 6.992,0.192 6.992,0.427 v 14.112 c 0,0.234 -0.192,0.427 -0.429,0.427 H 4.788 c -0.234,0 -0.341,-0.085 -0.448,-0.363 L 0.021,4.233 C -0.043,4.062 -0.086,4.02 -0.15,4.02 c -0.064,0 -0.106,0.064 -0.106,0.149 v 10.37 c 0,0.234 -0.192,0.427 -0.429,0.427 h -1.089 c -0.236,0 -0.428,-0.193 -0.428,-0.427 V 0.427 C -2.202,0.192 -2.01,0 -1.774,0 Z"
             style="fill:#1d1d1b;fill-opacity:1;fill-rule:nonzero;stroke:none"
             id="path64" />
        </g>
        <g
           id="g66"
           transform="translate(158.3809,63.6551)">
          <path
             d="m 0,0 h 7.525 v -1.497 c 0,-0.234 0.193,-0.427 0.427,-0.427 h 1.177 c 0.235,0 0.428,0.193 0.428,0.427 v 3.1 c 0,0.236 -0.193,0.428 -0.428,0.428 H 8.766 v 12.508 c 0,0.234 -0.193,0.427 -0.428,0.427 H 7.161 c -0.234,0 -0.427,-0.193 -0.427,-0.427 V 2.244 C 6.734,2.116 6.649,2.031 6.521,2.031 H 1.816 c -0.129,0 -0.213,0.085 -0.213,0.213 v 12.295 c 0,0.234 -0.193,0.427 -0.427,0.427 H 0 c -0.235,0 -0.428,-0.193 -0.428,-0.427 V 0.427 C -0.428,0.192 -0.235,0 0,0"
             style="fill:#1d1d1b;fill-opacity:1;fill-rule:nonzero;stroke:none"
             id="path68" />
        </g>
        <g
           id="g70"
           transform="translate(177.3848,63.6551)">
          <path
             d="m 0,0 h 1.09 c 0.236,0 0.429,0.192 0.429,0.427 v 14.112 c 0,0.234 -0.193,0.427 -0.429,0.427 h -1.775 c -0.235,0 -0.34,-0.085 -0.448,-0.363 L -5.452,4.233 C -5.516,4.062 -5.56,4.02 -5.623,4.02 c -0.064,0 -0.106,0.064 -0.106,0.149 v 10.37 c 0,0.234 -0.193,0.427 -0.429,0.427 h -1.089 c -0.235,0 -0.428,-0.193 -0.428,-0.427 V 0.427 C -7.675,0.192 -7.482,0 -7.247,0 h 1.773 c 0.236,0 0.343,0.085 0.449,0.363 l 4.319,10.455 c 0.065,0.172 0.107,0.214 0.171,0.214 0.064,0 0.108,-0.064 0.108,-0.15 V 0.427 C -0.427,0.192 -0.234,0 0,0"
             style="fill:#1d1d1b;fill-opacity:1;fill-rule:nonzero;stroke:none"
             id="path72" />
        </g>
        <g
           id="g74"
           transform="translate(189.0547,63.6551)">
          <path
             d="m 0,0 h 1.176 c 0.236,0 0.428,0.192 0.428,0.427 v 14.112 c 0,0.234 -0.192,0.427 -0.428,0.427 H 0 c -0.235,0 -0.428,-0.193 -0.428,-0.427 V 8.873 c 0,-0.129 -0.085,-0.213 -0.214,-0.213 h -4.703 c -0.13,0 -0.215,0.084 -0.215,0.213 v 5.666 c 0,0.234 -0.192,0.427 -0.426,0.427 h -1.176 c -0.234,0 -0.428,-0.193 -0.428,-0.427 V 0.427 C -7.59,0.192 -7.396,0 -7.162,0 h 1.176 c 0.234,0 0.426,0.192 0.426,0.427 v 5.987 c 0,0.128 0.085,0.214 0.215,0.214 h 4.703 c 0.129,0 0.214,-0.086 0.214,-0.214 V 0.427 C -0.428,0.192 -0.235,0 0,0"
             style="fill:#1d1d1b;fill-opacity:1;fill-rule:nonzero;stroke:none"
             id="path76" />
        </g>
        <g
           id="g78"
           transform="translate(198.0527,76.8045)">
          <path
             d="m 0,0 c 1.689,0 2.759,-1.005 2.759,-2.759 0,-0.235 0.192,-0.428 0.428,-0.428 h 1.197 c 0.214,0 0.428,0.172 0.428,0.386 0,3.035 -1.904,4.832 -4.812,4.832 -2.138,0 -3.613,-1.091 -4.298,-2.523 -0.64,-1.347 -0.662,-3.186 -0.662,-5.175 0,-1.987 0.022,-3.827 0.662,-5.173 0.685,-1.432 2.16,-2.523 4.298,-2.523 2.908,0 4.812,1.796 4.812,4.832 0,0.213 -0.214,0.385 -0.428,0.385 H 3.187 c -0.236,0 -0.428,-0.193 -0.428,-0.428 0,-1.753 -1.07,-2.758 -2.759,-2.758 -1.111,0 -1.988,0.556 -2.416,1.453 -0.406,0.856 -0.448,2.63 -0.448,4.212 0,1.583 0.042,3.357 0.448,4.213 C -1.988,-0.556 -1.111,0 0,0"
             style="fill:#1d1d1b;fill-opacity:1;fill-rule:nonzero;stroke:none"
             id="path80" />
        </g>
        <g
           id="g82"
           transform="translate(206.0459,63.6551)">
          <path
             d="M 0,0 H 1.176 C 1.41,0 1.603,0.192 1.603,0.427 v 5.816 c 0,0.128 0.043,0.193 0.107,0.193 0.064,0 0.128,-0.043 0.257,-0.214 L 6.606,0.299 C 6.734,0.128 6.863,0 7.142,0 h 1.41 c 0.235,0 0.427,0.192 0.427,0.427 0,0.215 -0.084,0.343 -0.235,0.535 L 3.613,7.461 C 3.549,7.547 3.527,7.633 3.527,7.697 c 0,0.107 0.042,0.193 0.108,0.278 l 5.131,6.221 c 0.064,0.086 0.106,0.193 0.106,0.343 0,0.234 -0.192,0.427 -0.428,0.427 H 7.227 c -0.3,0 -0.407,-0.128 -0.47,-0.214 L 2.053,9.108 C 1.86,8.895 1.795,8.788 1.71,8.788 c -0.086,0 -0.107,0.064 -0.107,0.17 v 5.581 c 0,0.234 -0.193,0.427 -0.427,0.427 H 0 c -0.235,0 -0.428,-0.193 -0.428,-0.427 V 0.427 C -0.428,0.192 -0.235,0 0,0"
             style="fill:#1d1d1b;fill-opacity:1;fill-rule:nonzero;stroke:none"
             id="path84" />
        </g>
        <g
           id="g86"
           transform="translate(219.3838,64.0184)">
          <path
             d="m 0,0 4.319,10.455 c 0.065,0.171 0.108,0.214 0.171,0.214 0.065,0 0.108,-0.064 0.108,-0.15 V 0.063 c 0,-0.234 0.192,-0.426 0.426,-0.426 h 1.091 c 0.237,0 0.429,0.192 0.429,0.426 v 14.113 c 0,0.235 -0.192,0.427 -0.429,0.427 H 4.34 c -0.235,0 -0.341,-0.086 -0.448,-0.363 L -0.427,3.869 c -0.064,-0.17 -0.108,-0.213 -0.172,-0.213 -0.063,0 -0.105,0.065 -0.105,0.15 v 10.37 c 0,0.235 -0.192,0.427 -0.429,0.427 h -1.09 c -0.235,0 -0.426,-0.192 -0.426,-0.427 V 0.063 c 0,-0.234 0.191,-0.426 0.426,-0.426 h 1.775 c 0.235,0 0.342,0.085 0.448,0.363"
             style="fill:#1d1d1b;fill-opacity:1;fill-rule:nonzero;stroke:none"
             id="path88" />
        </g>
        <g
           id="g90"
           transform="translate(237.96,64.3816)">
          <path
             d="m 0,0 -3.592,6.949 c -0.064,0.128 -0.085,0.215 -0.085,0.235 0,0.043 0.021,0.107 0.064,0.192 l 3.27,6.137 c 0.066,0.129 0.109,0.235 0.109,0.363 0,0.192 -0.172,0.364 -0.386,0.364 h -1.367 c -0.193,0 -0.28,-0.064 -0.408,-0.321 L -4.746,9.365 c -0.042,-0.086 -0.108,-0.171 -0.15,-0.171 -0.042,0 -0.108,0.085 -0.15,0.171 l -2.351,4.554 c -0.128,0.257 -0.214,0.321 -0.407,0.321 h -1.368 c -0.214,0 -0.385,-0.172 -0.385,-0.364 0,-0.085 0.021,-0.192 0.107,-0.363 L -6.18,7.376 C -6.136,7.291 -6.114,7.227 -6.114,7.184 -6.114,7.141 -6.136,7.077 -6.2,6.949 L -9.771,0 c -0.084,-0.171 -0.108,-0.256 -0.108,-0.363 0,-0.193 0.172,-0.364 0.385,-0.364 h 1.455 c 0.192,0 0.278,0.065 0.406,0.321 l 2.566,5.174 c 0.086,0.171 0.129,0.213 0.171,0.213 0.042,0 0.084,-0.042 0.171,-0.213 l 2.587,-5.174 c 0.128,-0.256 0.214,-0.321 0.407,-0.321 h 1.454 c 0.214,0 0.384,0.15 0.384,0.385 C 0.107,-0.234 0.085,-0.171 0,0"
             style="fill:#1d1d1b;fill-opacity:1;fill-rule:nonzero;stroke:none"
             id="path92" />
        </g>
        <g
           id="g94"
           transform="translate(116.5303,47.0525)">
          <path
             d="M 0,0 1.497,5.924 C 1.539,6.073 1.71,6.009 1.71,5.881 V -5.281 c 0,-0.235 0.193,-0.427 0.428,-0.427 h 1.026 c 0.236,0 0.428,0.192 0.428,0.427 V 8.831 C 3.592,9.065 3.4,9.259 3.164,9.259 H 1.048 C 0.812,9.259 0.685,9.194 0.599,8.896 L -0.898,2.737 c -0.043,-0.128 -0.192,-0.085 -0.213,0 l -1.497,6.159 c -0.086,0.298 -0.214,0.363 -0.449,0.363 h -2.117 c -0.235,0 -0.427,-0.194 -0.427,-0.428 V -5.281 c 0,-0.235 0.192,-0.427 0.427,-0.427 h 1.027 c 0.234,0 0.426,0.192 0.426,0.427 V 5.881 c 0,0.128 0.172,0.192 0.215,0.043 L -2.01,0 c 0.086,-0.277 0.215,-0.363 0.449,-0.363 h 1.112 c 0.235,0 0.364,0.086 0.449,0.363"
             style="fill:#1d1d1b;fill-opacity:1;fill-rule:nonzero;stroke:none"
             id="path96" />
        </g>
        <g
           id="g98"
           transform="translate(128.6074,47.2244)">
          <path
             d="M 0,0 H -2.651 C -2.779,0 -2.865,0.064 -2.823,0.235 L -1.432,6.2 c 0.021,0.085 0.043,0.129 0.085,0.129 h 0.042 c 0.043,0 0.066,-0.044 0.087,-0.129 L 0.172,0.235 C 0.214,0.064 0.129,0 0,0 m 3.806,-5.58 c 0,0.128 -0.022,0.213 -0.064,0.363 L -0.171,8.767 c -0.042,0.192 -0.214,0.32 -0.406,0.32 h -1.497 c -0.193,0 -0.364,-0.128 -0.406,-0.32 L -6.393,-5.217 c -0.043,-0.15 -0.064,-0.235 -0.064,-0.363 0,-0.15 0.15,-0.3 0.364,-0.3 h 1.239 c 0.193,0 0.343,0.128 0.407,0.32 l 0.941,3.272 c 0.063,0.192 0.214,0.3 0.406,0.3 h 3.549 c 0.192,0 0.363,-0.108 0.406,-0.3 L 1.796,-5.56 C 1.86,-5.752 2.01,-5.88 2.202,-5.88 h 1.24 c 0.215,0 0.364,0.15 0.364,0.3"
             style="fill:#1d1d1b;fill-opacity:1;fill-rule:nonzero;stroke:none"
             id="path100" />
        </g>
        <g
           id="g102"
           transform="translate(138.0322,41.3445)">
          <path
             d="m 0,0 h 1.177 c 0.234,0 0.427,0.192 0.427,0.428 v 12.294 c 0,0.128 0.085,0.214 0.213,0.214 h 3.678 c 0.235,0 0.428,0.192 0.428,0.427 v 1.176 c 0,0.235 -0.193,0.428 -0.428,0.428 h -9.834 c -0.236,0 -0.428,-0.193 -0.428,-0.428 v -1.176 c 0,-0.235 0.192,-0.427 0.428,-0.427 h 3.698 c 0.128,0 0.213,-0.086 0.213,-0.214 V 0.428 C -0.428,0.192 -0.234,0 0,0"
             style="fill:#1d1d1b;fill-opacity:1;fill-rule:nonzero;stroke:none"
             id="path104" />
        </g>
        <g
           id="g106"
           transform="translate(154.2578,41.3445)">
          <path
             d="M 0,0 C 0.235,0 0.428,0.192 0.428,0.428 V 1.603 C 0.428,1.839 0.235,2.031 0,2.031 h -5.559 c -0.128,0 -0.214,0.085 -0.214,0.213 v 4.17 c 0,0.128 0.086,0.214 0.214,0.214 h 5.282 c 0.235,0 0.427,0.192 0.427,0.427 v 1.176 c 0,0.236 -0.192,0.428 -0.427,0.428 h -5.282 c -0.128,0 -0.214,0.086 -0.214,0.214 v 3.849 c 0,0.128 0.086,0.214 0.214,0.214 h 5.517 c 0.234,0 0.427,0.192 0.427,0.427 v 1.176 c 0,0.235 -0.193,0.428 -0.427,0.428 h -7.335 c -0.234,0 -0.427,-0.193 -0.427,-0.428 V 0.428 C -7.804,0.192 -7.611,0 -7.377,0 Z"
             style="fill:#1d1d1b;fill-opacity:1;fill-rule:nonzero;stroke:none"
             id="path108" />
        </g>
        <g
           id="g110"
           transform="translate(159.8564,54.0662)">
          <path
             d="m 0,0 c 0,0.128 0.085,0.214 0.213,0.214 h 2.031 c 1.411,0 2.395,-1.006 2.395,-2.459 0,-1.454 -0.984,-2.458 -2.395,-2.458 H 0.213 C 0.085,-4.703 0,-4.618 0,-4.49 Z m -1.604,-12.722 h 1.175 c 0.237,0 0.429,0.193 0.429,0.427 v 5.346 c 0,0.128 0.085,0.214 0.213,0.214 h 2.031 c 2.587,0 4.489,1.903 4.489,4.49 0,2.588 -1.902,4.49 -4.489,4.49 h -3.848 c -0.235,0 -0.427,-0.192 -0.427,-0.428 v -14.112 c 0,-0.234 0.192,-0.427 0.427,-0.427"
             style="fill:#1d1d1b;fill-opacity:1;fill-rule:nonzero;stroke:none"
             id="path112" />
        </g>
        <g
           id="g114"
           transform="translate(178.4766,41.7723)">
          <path
             d="m 0,0 v 14.112 c 0,0.235 -0.192,0.427 -0.428,0.427 h -1.775 c -0.235,0 -0.341,-0.086 -0.448,-0.364 L -6.971,3.806 C -7.034,3.635 -7.078,3.592 -7.142,3.592 c -0.063,0 -0.106,0.064 -0.106,0.149 v 10.371 c 0,0.235 -0.192,0.427 -0.429,0.427 h -1.09 c -0.234,0 -0.427,-0.192 -0.427,-0.427 V 0 c 0,-0.234 0.193,-0.428 0.427,-0.428 h 1.776 c 0.234,0 0.342,0.086 0.448,0.364 l 4.318,10.456 c 0.066,0.17 0.109,0.213 0.172,0.213 0.064,0 0.108,-0.064 0.108,-0.15 L -1.945,0 c 0,-0.234 0.192,-0.428 0.426,-0.428 h 1.091 C -0.192,-0.428 0,-0.234 0,0"
             style="fill:#1d1d1b;fill-opacity:1;fill-rule:nonzero;stroke:none"
             id="path116" />
        </g>
        <g
           id="g118"
           transform="translate(187.3896,47.2244)">
          <path
             d="m 0,0 h -2.652 c -0.127,0 -0.214,0.063 -0.171,0.235 l 1.39,5.965 c 0.022,0.085 0.042,0.129 0.085,0.129 h 0.042 c 0.043,0 0.066,-0.044 0.087,-0.129 L 0.171,0.235 C 0.213,0.063 0.128,0 0,0 m 2.201,-5.88 h 1.24 c 0.214,0 0.364,0.15 0.364,0.299 0,0.128 -0.021,0.214 -0.064,0.364 L -0.172,8.766 c -0.042,0.193 -0.214,0.321 -0.406,0.321 h -1.497 c -0.193,0 -0.363,-0.128 -0.405,-0.321 L -6.394,-5.217 c -0.043,-0.15 -0.064,-0.236 -0.064,-0.364 0,-0.149 0.15,-0.299 0.363,-0.299 h 1.241 c 0.192,0 0.342,0.128 0.406,0.32 l 0.941,3.273 c 0.064,0.192 0.214,0.299 0.406,0.299 h 3.549 c 0.193,0 0.364,-0.107 0.406,-0.299 L 1.795,-5.56 c 0.063,-0.192 0.214,-0.32 0.406,-0.32"
             style="fill:#1d1d1b;fill-opacity:1;fill-rule:nonzero;stroke:none"
             id="path120" />
        </g>
        <g
           id="g122"
           transform="translate(202.5352,56.3113)">
          <path
             d="m 0,0 h -6.8 c -0.234,0 -0.405,-0.192 -0.427,-0.428 l -0.556,-10.113 c -0.064,-1.304 -0.47,-2.395 -1.155,-2.395 H -9.13 c -0.235,0 -0.428,-0.192 -0.428,-0.427 v -1.176 c 0,-0.235 0.193,-0.428 0.428,-0.428 h 0.471 c 1.582,0 2.779,1.54 2.908,3.999 l 0.491,8.723 c 0,0.129 0.087,0.214 0.214,0.214 h 3.229 c 0.128,0 0.213,-0.085 0.213,-0.214 v -12.294 c 0,-0.235 0.193,-0.428 0.428,-0.428 H 0 c 0.234,0 0.427,0.193 0.427,0.428 V -0.428 C 0.427,-0.192 0.234,0 0,0"
             style="fill:#1d1d1b;fill-opacity:1;fill-rule:nonzero;stroke:none"
             id="path124" />
        </g>
        <g
           id="g126"
           transform="translate(212.6113,44.5945)">
          <path
             d="m 0,0 c -0.448,-0.855 -1.239,-1.432 -2.395,-1.432 -1.154,0 -1.945,0.577 -2.393,1.432 -0.448,0.854 -0.472,2.651 -0.472,4.233 0,1.582 0.024,3.378 0.472,4.234 0.448,0.855 1.239,1.432 2.393,1.432 C -1.239,9.899 -0.448,9.322 0,8.467 0.45,7.611 0.472,5.815 0.472,4.233 0.472,2.651 0.45,0.854 0,0 m -2.395,11.931 c -2.137,0 -3.59,-1.113 -4.275,-2.545 -0.642,-1.325 -0.684,-3.164 -0.684,-5.153 0,-1.989 0.042,-3.828 0.684,-5.152 0.685,-1.433 2.138,-2.545 4.275,-2.545 2.139,0 3.592,1.112 4.277,2.545 0.641,1.324 0.684,3.163 0.684,5.152 0,1.989 -0.043,3.828 -0.684,5.153 -0.685,1.432 -2.138,2.545 -4.277,2.545"
             style="fill:#1d1d1b;fill-opacity:1;fill-rule:nonzero;stroke:none"
             id="path128" />
        </g>
        <g
           id="g130"
           transform="translate(221.6533,43.3758)">
          <path
             d="M 0,0 H -2.182 C -2.311,0 -2.396,0.086 -2.396,0.214 V 4.64 c 0,0.149 0.085,0.214 0.214,0.214 L 0,4.854 C 1.347,4.854 2.395,3.763 2.395,2.33 2.395,0.855 1.303,0 0,0 m -2.396,10.69 c 0,0.128 0.085,0.213 0.214,0.213 H 0 c 1.218,0 2.095,-0.597 2.095,-1.945 C 2.095,7.633 1.26,6.777 0,6.777 h -2.182 c -0.129,0 -0.214,0.086 -0.214,0.214 z M 2.972,5.602 c -0.172,0.127 -0.172,0.32 0,0.47 0.727,0.641 1.217,1.796 1.217,2.886 0,2.459 -1.817,3.978 -4.189,3.978 h -3.957 c -0.235,0 -0.428,-0.193 -0.428,-0.428 V -1.604 c 0,-0.235 0.193,-0.427 0.428,-0.427 H 0 c 2.501,0 4.49,1.711 4.49,4.361 0,1.219 -0.621,2.588 -1.518,3.272"
             style="fill:#1d1d1b;fill-opacity:1;fill-rule:nonzero;stroke:none"
             id="path132" />
        </g>
        <g
           id="g134"
           transform="translate(114.7554,25.4607)">
          <path
             d="m 0,0 h -0.905 c -0.1,0 -0.155,-0.026 -0.192,-0.155 l -0.639,-2.633 c -0.019,-0.055 -0.082,-0.037 -0.092,0 l -0.64,2.633 C -2.504,-0.026 -2.56,0 -2.661,0 h -0.904 c -0.1,0 -0.184,-0.082 -0.184,-0.183 v -6.033 c 0,-0.1 0.084,-0.182 0.184,-0.182 h 0.439 c 0.101,0 0.183,0.082 0.183,0.182 v 4.772 c 0,0.054 0.073,0.083 0.091,0.018 l 0.641,-2.532 c 0.035,-0.119 0.09,-0.155 0.191,-0.155 h 0.476 c 0.1,0 0.154,0.036 0.191,0.155 l 0.641,2.532 c 0.018,0.065 0.09,0.036 0.09,-0.018 v -4.772 c 0,-0.1 0.082,-0.182 0.183,-0.182 H 0 c 0.101,0 0.183,0.082 0.183,0.182 v 6.033 C 0.183,-0.082 0.101,0 0,0"
             style="fill:#1d1d1b;fill-opacity:1;fill-rule:nonzero;stroke:none"
             id="path136" />
        </g>
        <g
           id="g138"
           transform="translate(119.9668,25.4607)">
          <path
             d="m 0,0 h -0.759 c -0.1,0 -0.146,-0.036 -0.192,-0.155 l -1.847,-4.434 c -0.026,-0.073 -0.045,-0.092 -0.074,-0.092 -0.026,0 -0.045,0.029 -0.045,0.065 v 4.433 C -2.917,-0.082 -2.999,0 -3.1,0 h -0.465 c -0.101,0 -0.184,-0.082 -0.184,-0.183 v -6.033 c 0,-0.1 0.083,-0.182 0.184,-0.182 h 0.759 c 0.1,0 0.145,0.036 0.191,0.154 l 1.847,4.472 c 0.027,0.072 0.046,0.09 0.073,0.09 0.028,0 0.047,-0.027 0.047,-0.064 v -4.47 c 0,-0.1 0.082,-0.182 0.182,-0.182 H 0 c 0.101,0 0.183,0.082 0.183,0.182 v 6.033 C 0.183,-0.082 0.101,0 0,0"
             style="fill:#1d1d1b;fill-opacity:1;fill-rule:nonzero;stroke:none"
             id="path140" />
        </g>
        <g
           id="g142"
           transform="translate(125.1777,25.4607)">
          <path
             d="m 0,0 h -0.503 c -0.101,0 -0.183,-0.082 -0.183,-0.183 v -2.422 c 0,-0.055 -0.037,-0.091 -0.091,-0.091 h -2.012 c -0.054,0 -0.091,0.036 -0.091,0.091 v 2.422 C -2.88,-0.082 -2.962,0 -3.063,0 h -0.503 c -0.1,0 -0.183,-0.082 -0.183,-0.183 v -6.033 c 0,-0.1 0.083,-0.182 0.183,-0.182 h 0.503 c 0.101,0 0.183,0.082 0.183,0.182 v 2.56 c 0,0.054 0.037,0.092 0.091,0.092 h 2.012 c 0.054,0 0.091,-0.038 0.091,-0.092 v -2.56 c 0,-0.1 0.082,-0.182 0.183,-0.182 H 0 c 0.1,0 0.183,0.082 0.183,0.182 v 6.033 C 0.183,-0.082 0.1,0 0,0"
             style="fill:#1d1d1b;fill-opacity:1;fill-rule:nonzero;stroke:none"
             id="path144" />
        </g>
        <g
           id="g146"
           transform="translate(130.3877,25.4607)">
          <path
             d="m 0,0 h -3.565 c -0.1,0 -0.183,-0.082 -0.183,-0.183 v -6.033 c 0,-0.1 0.083,-0.182 0.183,-0.182 h 0.502 c 0.101,0 0.184,0.082 0.184,0.182 v 5.256 c 0,0.055 0.036,0.091 0.091,0.091 h 2.012 c 0.054,0 0.09,-0.036 0.09,-0.091 v -5.256 c 0,-0.1 0.083,-0.182 0.183,-0.182 H 0 c 0.101,0 0.183,0.082 0.183,0.182 v 6.033 C 0.183,-0.082 0.101,0 0,0"
             style="fill:#1d1d1b;fill-opacity:1;fill-rule:nonzero;stroke:none"
             id="path148" />
        </g>
        <g
           id="g150"
           transform="translate(133.8076,22.49)">
          <path
             d="M 0,0 H -0.869 C -0.924,0 -0.96,0.036 -0.96,0.092 v 1.919 c 0,0.055 0.036,0.092 0.091,0.092 H 0 c 0.604,0 1.024,-0.43 1.024,-1.051 C 1.024,0.43 0.604,0 0,0 m 0,2.971 h -1.646 c -0.101,0 -0.183,-0.082 -0.183,-0.183 v -6.033 c 0,-0.101 0.082,-0.184 0.183,-0.184 h 0.503 c 0.101,0 0.183,0.083 0.183,0.184 v 2.285 c 0,0.055 0.036,0.092 0.091,0.092 H 0 c 1.106,0 1.92,0.813 1.92,1.92 0,1.105 -0.814,1.919 -1.92,1.919"
             style="fill:#1d1d1b;fill-opacity:1;fill-rule:nonzero;stroke:none"
             id="path152" />
        </g>
        <g
           id="g154"
           transform="translate(139.6865,20.451)">
          <path
             d="m 0,0 c -0.192,-0.365 -0.531,-0.612 -1.024,-0.612 -0.495,0 -0.832,0.247 -1.025,0.612 -0.191,0.366 -0.201,1.134 -0.201,1.811 0,0.676 0.01,1.444 0.201,1.81 0.193,0.365 0.53,0.611 1.025,0.611 C -0.531,4.232 -0.192,3.986 0,3.621 0.19,3.255 0.201,2.487 0.201,1.811 0.201,1.134 0.19,0.366 0,0 m -1.024,5.102 c -0.914,0 -1.536,-0.476 -1.83,-1.088 -0.273,-0.567 -0.292,-1.354 -0.292,-2.203 0,-0.851 0.019,-1.637 0.292,-2.204 0.294,-0.612 0.916,-1.087 1.83,-1.087 0.914,0 1.535,0.475 1.828,1.087 0.274,0.567 0.293,1.353 0.293,2.204 0,0.849 -0.019,1.636 -0.293,2.203 -0.293,0.612 -0.914,1.088 -1.828,1.088"
             style="fill:#1d1d1b;fill-opacity:1;fill-rule:nonzero;stroke:none"
             id="path156" />
        </g>
        <g
           id="g158"
           transform="translate(145.6562,25.4607)">
          <path
             d="m 0,0 h -0.906 c -0.1,0 -0.156,-0.026 -0.192,-0.155 l -0.639,-2.633 c -0.019,-0.055 -0.082,-0.037 -0.092,0 l -0.64,2.633 C -2.505,-0.026 -2.56,0 -2.661,0 h -0.905 c -0.101,0 -0.183,-0.082 -0.183,-0.183 v -6.033 c 0,-0.1 0.082,-0.182 0.183,-0.182 h 0.439 c 0.101,0 0.183,0.082 0.183,0.182 v 4.772 c 0,0.054 0.072,0.083 0.09,0.018 l 0.641,-2.532 c 0.037,-0.119 0.092,-0.155 0.192,-0.155 h 0.475 c 0.101,0 0.155,0.036 0.192,0.155 l 0.64,2.532 c 0.019,0.065 0.092,0.036 0.092,-0.018 v -4.772 c 0,-0.1 0.082,-0.182 0.183,-0.182 H 0 c 0.101,0 0.183,0.082 0.183,0.182 v 6.033 C 0.183,-0.082 0.101,0 0,0"
             style="fill:#1d1d1b;fill-opacity:1;fill-rule:nonzero;stroke:none"
             id="path160" />
        </g>
        <g
           id="g162"
           transform="translate(151.1865,25.4607)">
          <path
             d="m 0,0 h -4.205 c -0.101,0 -0.183,-0.082 -0.183,-0.183 v -0.503 c 0,-0.1 0.082,-0.183 0.183,-0.183 h 1.582 c 0.055,0 0.091,-0.036 0.091,-0.091 v -5.256 c 0,-0.1 0.083,-0.182 0.182,-0.182 h 0.504 c 0.1,0 0.183,0.082 0.183,0.182 v 5.256 c 0,0.055 0.035,0.091 0.091,0.091 H 0 c 0.101,0 0.183,0.083 0.183,0.183 v 0.503 C 0.183,-0.082 0.101,0 0,0"
             style="fill:#1d1d1b;fill-opacity:1;fill-rule:nonzero;stroke:none"
             id="path164" />
        </g>
        <g
           id="g166"
           transform="translate(154.9531,20.451)">
          <path
             d="m 0,0 c -0.192,-0.365 -0.53,-0.612 -1.024,-0.612 -0.494,0 -0.831,0.247 -1.024,0.612 -0.191,0.366 -0.202,1.134 -0.202,1.811 0,0.676 0.011,1.444 0.202,1.81 0.193,0.365 0.53,0.611 1.024,0.611 C -0.53,4.232 -0.192,3.986 0,3.621 0.191,3.255 0.201,2.487 0.201,1.811 0.201,1.134 0.191,0.366 0,0 m -1.024,5.102 c -0.914,0 -1.536,-0.476 -1.83,-1.088 -0.273,-0.567 -0.292,-1.354 -0.292,-2.203 0,-0.851 0.019,-1.637 0.292,-2.204 0.294,-0.612 0.916,-1.087 1.83,-1.087 0.914,0 1.536,0.475 1.828,1.087 0.274,0.567 0.293,1.353 0.293,2.204 0,0.849 -0.019,1.636 -0.293,2.203 -0.292,0.612 -0.914,1.088 -1.828,1.088"
             style="fill:#1d1d1b;fill-opacity:1;fill-rule:nonzero;stroke:none"
             id="path168" />
        </g>
        <g
           id="g170"
           transform="translate(158.9482,22.49)">
          <path
             d="M 0,0 H -0.869 C -0.924,0 -0.96,0.036 -0.96,0.092 v 1.919 c 0,0.055 0.036,0.092 0.091,0.092 H 0 c 0.604,0 1.023,-0.43 1.023,-1.051 C 1.023,0.43 0.604,0 0,0 m 0,2.971 h -1.646 c -0.101,0 -0.183,-0.082 -0.183,-0.183 v -6.033 c 0,-0.101 0.082,-0.184 0.183,-0.184 h 0.502 c 0.101,0 0.184,0.083 0.184,0.184 v 2.285 c 0,0.055 0.036,0.092 0.091,0.092 H 0 c 1.106,0 1.919,0.813 1.919,1.92 0,1.105 -0.813,1.919 -1.919,1.919"
             style="fill:#1d1d1b;fill-opacity:1;fill-rule:nonzero;stroke:none"
             id="path172" />
        </g>
        <g
           id="g174"
           transform="translate(165.5752,25.2781)">
          <path
             d="m 0,0 c 0,0.101 -0.082,0.183 -0.183,0.183 h -3.281 c -0.1,0 -0.182,-0.082 -0.182,-0.183 v -6.034 c 0,-0.101 0.082,-0.183 0.182,-0.183 h 0.503 c 0.101,0 0.183,0.082 0.183,0.183 v 5.257 c 0,0.055 0.035,0.091 0.09,0.091 h 2.505 c 0.101,0 0.183,0.082 0.183,0.183 z"
             style="fill:#1d1d1b;fill-opacity:1;fill-rule:nonzero;stroke:none"
             id="path176" />
        </g>
        <g
           id="g178"
           transform="translate(168.2998,21.576)">
          <path
             d="m 0,0 h -1.134 c -0.054,0 -0.091,0.027 -0.073,0.1 l 0.595,2.55 c 0.008,0.038 0.018,0.055 0.037,0.055 h 0.018 c 0.017,0 0.027,-0.017 0.036,-0.055 L 0.073,0.1 C 0.092,0.027 0.055,0 0,0 M -0.072,3.748 C -0.091,3.83 -0.165,3.885 -0.247,3.885 h -0.64 C -0.97,3.885 -1.041,3.83 -1.06,3.748 l -1.673,-5.979 c -0.019,-0.064 -0.028,-0.1 -0.028,-0.155 0,-0.064 0.065,-0.128 0.156,-0.128 h 0.531 c 0.082,0 0.145,0.054 0.173,0.137 l 0.402,1.398 c 0.026,0.083 0.092,0.128 0.174,0.128 h 1.517 c 0.082,0 0.155,-0.045 0.173,-0.128 L 0.768,-2.377 C 0.796,-2.46 0.859,-2.514 0.941,-2.514 h 0.53 c 0.092,0 0.156,0.064 0.156,0.128 0,0.055 -0.01,0.091 -0.026,0.155 z"
             style="fill:#1d1d1b;fill-opacity:1;fill-rule:nonzero;stroke:none"
             id="path180" />
        </g>
        <g
           id="g182"
           transform="translate(175.585,22.49)">
          <path
             d="m 0,0 h -0.868 c -0.055,0 -0.091,0.036 -0.091,0.092 v 1.919 c 0,0.055 0.036,0.092 0.091,0.092 H 0 c 0.604,0 1.024,-0.43 1.024,-1.051 C 1.024,0.43 0.604,0 0,0 m 0,2.971 h -1.645 c -0.1,0 -0.182,-0.082 -0.182,-0.183 v -6.033 c 0,-0.101 0.082,-0.184 0.182,-0.184 h 0.503 c 0.101,0 0.183,0.083 0.183,0.184 v 2.285 c 0,0.055 0.036,0.092 0.091,0.092 H 0 c 1.106,0 1.92,0.813 1.92,1.92 0,1.105 -0.814,1.919 -1.92,1.919"
             style="fill:#1d1d1b;fill-opacity:1;fill-rule:nonzero;stroke:none"
             id="path184" />
        </g>
        <g
           id="g186"
           transform="translate(181.4639,20.451)">
          <path
             d="m 0,0 c -0.191,-0.365 -0.53,-0.612 -1.022,-0.612 -0.496,0 -0.833,0.247 -1.025,0.612 -0.192,0.366 -0.201,1.134 -0.201,1.811 0,0.676 0.009,1.444 0.201,1.81 0.192,0.365 0.529,0.611 1.025,0.611 C -0.53,4.232 -0.191,3.986 0,3.621 0.192,3.255 0.201,2.487 0.201,1.811 0.201,1.134 0.192,0.366 0,0 m -1.022,5.102 c -0.916,0 -1.538,-0.476 -1.83,-1.088 -0.275,-0.567 -0.294,-1.354 -0.294,-2.203 0,-0.851 0.019,-1.637 0.294,-2.204 0.292,-0.612 0.914,-1.087 1.83,-1.087 0.913,0 1.535,0.475 1.827,1.087 0.274,0.567 0.293,1.353 0.293,2.204 0,0.849 -0.019,1.636 -0.293,2.203 -0.292,0.612 -0.914,1.088 -1.827,1.088"
             style="fill:#1d1d1b;fill-opacity:1;fill-rule:nonzero;stroke:none"
             id="path188" />
        </g>
        <g
           id="g190"
           transform="translate(185.5693,24.6834)">
          <path
             d="m 0,0 c 0.722,0 1.179,-0.429 1.179,-1.179 0,-0.1 0.082,-0.182 0.182,-0.182 h 0.512 c 0.092,0 0.184,0.073 0.184,0.164 0,1.298 -0.815,2.066 -2.057,2.066 -0.915,0 -1.546,-0.467 -1.837,-1.078 -0.275,-0.577 -0.285,-1.363 -0.285,-2.213 0,-0.849 0.01,-1.637 0.285,-2.213 0.291,-0.612 0.922,-1.078 1.837,-1.078 1.242,0 2.057,0.768 2.057,2.067 0,0.09 -0.092,0.164 -0.184,0.164 H 1.361 c -0.1,0 -0.182,-0.082 -0.182,-0.183 0,-0.749 -0.457,-1.18 -1.179,-1.18 -0.476,0 -0.852,0.239 -1.034,0.622 -0.173,0.366 -0.192,1.124 -0.192,1.801 0,0.676 0.019,1.436 0.192,1.801 C -0.852,-0.237 -0.476,0 0,0"
             style="fill:#1d1d1b;fill-opacity:1;fill-rule:nonzero;stroke:none"
             id="path192" />
        </g>
        <g
           id="g194"
           transform="translate(190.5967,24.6834)">
          <path
             d="m 0,0 c 0.722,0 1.179,-0.429 1.179,-1.179 0,-0.1 0.083,-0.182 0.183,-0.182 h 0.511 c 0.092,0 0.185,0.073 0.185,0.164 0,1.298 -0.815,2.066 -2.058,2.066 -0.915,0 -1.546,-0.467 -1.837,-1.078 -0.274,-0.577 -0.285,-1.363 -0.285,-2.213 0,-0.849 0.011,-1.637 0.285,-2.213 0.291,-0.612 0.922,-1.078 1.837,-1.078 1.243,0 2.058,0.768 2.058,2.067 0,0.09 -0.093,0.164 -0.185,0.164 H 1.362 c -0.1,0 -0.183,-0.082 -0.183,-0.183 0,-0.749 -0.457,-1.18 -1.179,-1.18 -0.476,0 -0.851,0.239 -1.033,0.622 -0.174,0.366 -0.193,1.124 -0.193,1.801 0,0.676 0.019,1.436 0.193,1.801 C -0.851,-0.237 -0.476,0 0,0"
             style="fill:#1d1d1b;fill-opacity:1;fill-rule:nonzero;stroke:none"
             id="path196" />
        </g>
        <g
           id="g198"
           transform="translate(197.4902,25.4607)">
          <path
             d="m 0,0 h -0.76 c -0.1,0 -0.145,-0.036 -0.191,-0.155 l -1.847,-4.434 c -0.027,-0.073 -0.045,-0.092 -0.072,-0.092 -0.028,0 -0.047,0.029 -0.047,0.065 v 4.433 C -2.917,-0.082 -2.999,0 -3.1,0 h -0.465 c -0.101,0 -0.184,-0.082 -0.184,-0.183 v -6.033 c 0,-0.1 0.083,-0.182 0.184,-0.182 h 0.758 c 0.101,0 0.146,0.036 0.192,0.154 l 1.847,4.472 c 0.027,0.072 0.045,0.09 0.074,0.09 0.027,0 0.046,-0.027 0.046,-0.064 v -4.47 c 0,-0.1 0.082,-0.182 0.181,-0.182 H 0 c 0.101,0 0.183,0.082 0.183,0.182 v 6.033 C 0.183,-0.082 0.101,0 0,0"
             style="fill:#1d1d1b;fill-opacity:1;fill-rule:nonzero;stroke:none"
             id="path200" />
        </g>
        <g
           id="g202"
           transform="translate(202.7002,25.4607)">
          <path
             d="m 0,0 h -0.759 c -0.1,0 -0.145,-0.036 -0.191,-0.155 l -1.848,-4.434 c -0.026,-0.073 -0.045,-0.092 -0.072,-0.092 -0.028,0 -0.047,0.029 -0.047,0.065 v 4.433 C -2.917,-0.082 -2.998,0 -3.1,0 h -0.465 c -0.101,0 -0.183,-0.082 -0.183,-0.183 v -6.033 c 0,-0.1 0.082,-0.182 0.183,-0.182 h 0.759 c 0.1,0 0.146,0.036 0.192,0.154 l 1.846,4.472 c 0.028,0.072 0.045,0.09 0.074,0.09 0.027,0 0.046,-0.027 0.046,-0.064 v -4.47 c 0,-0.1 0.082,-0.182 0.182,-0.182 H 0 c 0.101,0 0.184,0.082 0.184,0.182 v 6.033 C 0.184,-0.082 0.101,0 0,0"
             style="fill:#1d1d1b;fill-opacity:1;fill-rule:nonzero;stroke:none"
             id="path204" />
        </g>
        <g
           id="g206"
           transform="translate(18.2676,41.3787)">
          <path
             d="m 0,0 c -0.585,0 -1.064,0.479 -1.064,1.064 v 35.119 c 0,0.586 0.479,1.065 1.064,1.065 h 2.714 c 0.586,0 1.065,-0.479 1.065,-1.065 V 10.377 c 0,-0.214 0.105,-0.373 0.265,-0.373 0.16,0 0.266,0.106 0.426,0.532 l 10.748,25.807 c 0.267,0.692 0.532,0.905 1.118,0.905 h 4.416 c 0.585,0 1.064,-0.479 1.064,-1.065 V 1.064 C 21.816,0.479 21.337,0 20.752,0 h -2.714 c -0.584,0 -1.063,0.479 -1.063,1.064 v 26.021 c 0,0.213 -0.107,0.372 -0.267,0.372 -0.16,0 -0.265,-0.106 -0.425,-0.531 L 5.533,0.905 C 5.268,0.214 5.002,0 4.416,0 Z"
             style="fill:#1d1d1b;fill-opacity:1;fill-rule:nonzero;stroke:none"
             id="path208" />
        </g>
        <g
           id="g210"
           transform="translate(56.0737,62.3973)">
          <path
             d="m 0,0 c 0.053,-0.213 0.425,-0.319 0.532,0 l 3.724,15.325 c 0.213,0.745 0.532,0.904 1.119,0.904 h 5.266 c 0.587,0 1.066,-0.479 1.066,-1.064 v -35.119 c 0,-0.585 -0.479,-1.065 -1.066,-1.065 H 8.087 c -0.585,0 -1.064,0.48 -1.064,1.065 V 7.822 c 0,0.319 -0.425,0.479 -0.531,0.106 L 2.767,-6.811 C 2.553,-7.503 2.234,-7.715 1.649,-7.715 h -2.766 c -0.587,0 -0.906,0.212 -1.118,0.904 L -5.96,7.928 C -6.066,8.301 -6.492,8.141 -6.492,7.822 v -27.776 c 0,-0.585 -0.479,-1.065 -1.064,-1.065 h -2.555 c -0.584,0 -1.063,0.48 -1.063,1.065 v 35.119 c 0,0.585 0.479,1.064 1.063,1.064 h 5.269 c 0.584,0 0.904,-0.159 1.117,-0.904 z"
             style="fill:#1d1d1b;fill-opacity:1;fill-rule:nonzero;stroke:none"
             id="path212" />
        </g>
        <g
           id="g214"
           transform="translate(83.8569,62.3973)">
          <path
             d="m 0,0 c 0.052,-0.213 0.424,-0.319 0.531,0 l 3.725,15.325 c 0.213,0.745 0.532,0.904 1.118,0.904 h 5.267 c 0.586,0 1.065,-0.479 1.065,-1.064 v -35.119 c 0,-0.585 -0.479,-1.065 -1.065,-1.065 H 8.087 c -0.585,0 -1.064,0.48 -1.064,1.065 V 7.822 c 0,0.319 -0.426,0.479 -0.532,0.106 L 2.767,-6.811 C 2.553,-7.503 2.233,-7.715 1.649,-7.715 h -2.767 c -0.586,0 -0.905,0.212 -1.117,0.904 L -5.96,7.928 C -6.067,8.301 -6.492,8.141 -6.492,7.822 v -27.776 c 0,-0.585 -0.479,-1.065 -1.065,-1.065 h -2.554 c -0.584,0 -1.063,0.48 -1.063,1.065 v 35.119 c 0,0.585 0.479,1.064 1.063,1.064 h 5.269 c 0.584,0 0.904,-0.159 1.117,-0.904 z"
             style="fill:#1d1d1b;fill-opacity:1;fill-rule:nonzero;stroke:none"
             id="path216" />
        </g>
        <g
           id="g218"
           transform="translate(22.0464,85.9339)">
          <path
             d="m 0,0 v 7.5 c 0,1.575 1.232,2.808 2.806,2.808 h 63.219 c 1.575,0 2.807,-1.233 2.807,-2.808 V 0.001 h 4.684 V 14.982 H -4.852 L -4.852,0 Z"
             style="fill:#1d1d1b;fill-opacity:1;fill-rule:nonzero;stroke:none"
             id="path220" />
        </g>
        <g
           id="g222"
           transform="translate(22.0464,34.1141)">
          <path
             d="m 0,0 v -7.5 c 0,-1.575 1.232,-2.809 2.806,-2.809 h 63.219 c 1.575,0 2.807,1.234 2.807,2.809 v 7.499 h 4.684 V -14.982 H -4.852 l 0,14.982 z"
             style="fill:#1d1d1b;fill-opacity:1;fill-rule:nonzero;stroke:none"
             id="path224" />
        </g>
      </g>
    </g>
  </g>
</svg>
