<?xml version="1.0" encoding="utf-8"?>
<!-- Generator: Adobe Illustrator 21.0.0, SVG Export Plug-In . SVG Version: 6.00 Build 0)  -->
<svg version="1.1" id="Слой_1" xmlns="http://www.w3.org/2000/svg" xmlns:xlink="http://www.w3.org/1999/xlink" x="0px" y="0px"
	 viewBox="0 0 350 78.1" style="enable-background:new 0 0 350 78.1;" xml:space="preserve">
<style type="text/css">
	.st0{fill:#222F67;}
	.st1{fill:#A11214;}
	.st2{fill-rule:evenodd;clip-rule:evenodd;fill:#222F67;}
	.st3{fill-rule:evenodd;clip-rule:evenodd;fill:#A11214;}
</style>
<g>
	<g>
		<path class="st0" d="M73.4,74.5h4.2c-0.5,1.6-1.6,2.4-3.2,2.4c-1,0-1.9-0.3-2.5-1S71,74.4,71,73.3c0-0.9,0.3-1.7,1-2.4
			c0.7-0.7,1.5-1.1,2.4-1.1c1.2,0,2.1,0.4,2.5,1.2h1.5c-0.7-1.6-2-2.4-4-2.4c-1.3,0-2.4,0.5-3.4,1.4c-0.9,0.9-1.4,2-1.4,3.3
			c0,1.4,0.4,2.5,1.3,3.4s2,1.4,3.4,1.4s2.5-0.4,3.4-1.3c0.8-0.8,1.2-2,1.3-3.4h-5.6C73.4,73.4,73.4,74.5,73.4,74.5z"/>
		<path class="st0" d="M82.6,68.8h-2.5v9.1h1.2v-3.7h1.1c0.9,0,1.7-0.2,2.2-0.7c0.6-0.5,0.9-1.2,0.9-2.1
			C85.6,69.7,84.6,68.8,82.6,68.8z M82.4,73.1h-1v-3.2h1.1c1.3,0,2,0.5,2,1.6C84.4,72.6,83.7,73.1,82.4,73.1z"/>
		<path class="st1" d="M60.5,64.3h1.2c0,0.5,0.1,0.8,0.4,1.2c0.3,0.3,0.6,0.5,1.1,0.5s0.9-0.2,1.2-0.5s0.4-0.7,0.4-1.2
			c0-0.6-0.3-1.1-1-1.4c-0.6-0.3-1.3-0.6-1.9-0.8c-0.7-0.4-1-1-1-1.9c0-0.8,0.2-1.4,0.7-1.9s1.1-0.7,1.8-0.7c0.7,0,1.3,0.2,1.7,0.6
			c0.4,0.4,0.7,1,0.7,1.7h-1.1c0-0.4-0.1-0.7-0.4-0.9c-0.2-0.2-0.6-0.4-0.9-0.4c-0.4,0-0.7,0.1-1,0.4c-0.2,0.2-0.4,0.6-0.4,1
			c0,0.5,0.4,1,1.1,1.4c0.3,0.1,0.7,0.3,1.1,0.4c1.3,0.5,1.9,1.3,1.9,2.5c0,0.9-0.2,1.6-0.7,2.2c-0.5,0.5-1.2,0.8-2.1,0.8
			c-0.8,0-1.4-0.3-1.9-0.8C60.8,65.8,60.5,65.1,60.5,64.3z"/>
		<path class="st1" d="M69.1,57.6v9.3h-1.2v-9.3H69.1z"/>
		<g>
			<g>
				<path class="st1" d="M70.8,66.9v-9.3h3c1.4,0,2.5,0.4,3.4,1.3s1.3,2,1.3,3.4c0,1.5-0.5,2.6-1.4,3.5C76.2,66.6,75,67,73.5,67
					L70.8,66.9L70.8,66.9z M72,58.8v7h1.7c1.1,0,1.9-0.3,2.5-0.9s0.9-1.5,0.9-2.5c0-1.1-0.3-2-1-2.6s-1.6-0.9-2.7-0.9L72,58.8
					L72,58.8z"/>
			</g>
		</g>
		<path class="st1" d="M84.2,63.6h-0.8l-0.3,0.7l-1.1-1c0.7-0.4,1.1-0.9,1.1-1.5c0-0.4-0.1-0.7-0.4-1s-0.6-0.4-1-0.4
			s-0.8,0.1-1.1,0.4c-0.3,0.3-0.4,0.7-0.4,1.1c0,0.5,0.3,0.9,0.8,1.4c-0.8,0.5-1.3,1.1-1.3,1.9c0,0.5,0.2,1,0.6,1.3
			c0.4,0.4,0.8,0.6,1.3,0.6c0.8,0,1.4-0.5,1.9-1.4l1.3,1.2l0.5-0.6l-1.5-1.4L84.2,63.6z M81.1,61.3c0.1-0.1,0.3-0.2,0.5-0.2
			s0.4,0.1,0.5,0.2s0.2,0.3,0.2,0.5c0,0.4-0.3,0.7-0.8,1c-0.4-0.3-0.6-0.7-0.6-1C80.9,61.6,80.9,61.4,81.1,61.3z M81.4,66.1
			c-0.3,0-0.5-0.1-0.7-0.3c-0.2-0.2-0.3-0.5-0.3-0.8c0-0.5,0.3-1,1-1.3l1.4,1.3C82.4,65.7,82,66.1,81.4,66.1z"/>
	</g>
</g>
<g>
	<path d="M178.4,7.6c0-1.2,0.4-2.1,1.1-2.8c0.7-0.7,1.8-1,3.3-1c0.8,0,1.4,0,2,0.1s1.1,0.2,1.4,0.3v1.2h-3c-0.7,0-1.2,0.2-1.6,0.6
		c-0.4,0.4-0.6,0.9-0.6,1.6c0,0.6,0.1,1.1,0.4,1.5c0.3,0.4,0.7,0.7,1.1,0.9c0.5,0.3,0.9,0.5,1.5,0.7c0.5,0.2,1,0.5,1.5,0.9
		c0.5,0.3,0.8,0.8,1.1,1.3s0.4,1.2,0.4,2.1c0,1.3-0.4,2.3-1.2,3s-2.1,1.1-3.9,1.1c-0.8,0-1.4,0-2-0.1s-1.1-0.2-1.4-0.3v-1.2h3
		c1.1,0,1.8-0.2,2.3-0.6c0.5-0.4,0.7-1,0.7-1.8c0-0.6-0.1-1-0.4-1.4c-0.3-0.3-0.7-0.6-1.1-0.9c-0.5-0.2-0.9-0.5-1.5-0.7
		c-0.5-0.2-1-0.5-1.5-0.9s-0.8-0.8-1.1-1.4C178.5,9.2,178.4,8.5,178.4,7.6z"/>
	<path d="M192.5,10v5.4c0,0.4,0,0.8,0.1,1.1s0.2,0.5,0.3,0.6c0.1,0.2,0.3,0.3,0.4,0.3c0.2,0.1,0.3,0.1,0.5,0.1h1.9v1.1
		c-0.1,0.1-0.3,0.1-0.5,0.2c-0.2,0.1-0.4,0.1-0.7,0.1c-0.2,0-0.5,0.1-0.7,0.1s-0.5,0-0.7,0c-0.5,0-0.9,0-1.3-0.1
		c-0.4-0.1-0.7-0.3-1-0.5c-0.3-0.3-0.5-0.6-0.7-1.1s-0.3-1.1-0.3-1.8v-5.4h-1.2V8.5h1.2V5.9h2.6v2.6h2.9v1.2
		c-0.3,0.1-0.7,0.2-1.2,0.3s-1,0.1-1.5,0.1L192.5,10L192.5,10z"/>
	<path d="M200.9,19.1c-0.5,0-0.9,0-1.3-0.1c-0.4-0.1-0.7-0.3-1-0.5c-0.3-0.3-0.5-0.6-0.7-1s-0.3-1-0.3-1.7s0.1-1.3,0.3-1.7
		s0.4-0.8,0.7-1c0.3-0.3,0.7-0.4,1.1-0.5c0.4-0.1,0.9-0.1,1.4-0.1c0.3,0,0.6,0,0.9,0.1c0.3,0,0.6,0.1,0.9,0.1v-0.9
		c0-0.9-0.2-1.4-0.6-1.7c-0.4-0.3-0.9-0.4-1.6-0.4h-2.1V8.6c0.3-0.1,0.7-0.2,1.2-0.3s0.9-0.1,1.4-0.1c0.7,0,1.4,0,1.9,0.1
		s1,0.3,1.4,0.5c0.4,0.3,0.6,0.6,0.8,1.1s0.3,1.1,0.3,1.8v7.2h-1.8l-0.3-0.6h-0.1c-0.2,0.2-0.5,0.4-0.9,0.6
		C202,19,201.5,19.1,200.9,19.1z M202.9,13.8h-1.2c-0.2,0-0.4,0-0.6,0.1c-0.2,0.1-0.4,0.2-0.5,0.3s-0.3,0.3-0.4,0.6
		c-0.1,0.2-0.1,0.6-0.1,0.9c0,0.4,0,0.7,0.1,0.9s0.2,0.4,0.4,0.6c0.1,0.1,0.3,0.3,0.5,0.3c0.2,0.1,0.4,0.1,0.6,0.1
		c0.3,0,0.5,0,0.7-0.1s0.4-0.2,0.5-0.3V13.8z"/>
	<path d="M211.7,10v5.4c0,0.4,0,0.8,0.1,1.1s0.2,0.5,0.3,0.6c0.1,0.2,0.3,0.3,0.4,0.3c0.2,0.1,0.3,0.1,0.5,0.1h1.9v1.1
		c-0.1,0.1-0.3,0.1-0.5,0.2c-0.2,0.1-0.4,0.1-0.7,0.1c-0.2,0-0.5,0.1-0.7,0.1s-0.5,0-0.7,0c-0.5,0-0.9,0-1.3-0.1
		c-0.4-0.1-0.7-0.3-1-0.5c-0.3-0.3-0.5-0.6-0.7-1.1s-0.3-1.1-0.3-1.8v-5.4h-1.2V8.5h1.2V5.9h2.6v2.6h2.9v1.2
		c-0.3,0.1-0.7,0.2-1.2,0.3s-1,0.1-1.5,0.1L211.7,10L211.7,10z"/>
	<path d="M224.9,14.3h-5.5c0,1.2,0.2,2.1,0.6,2.6c0.4,0.5,1.1,0.7,2,0.7h2.3v1.1c-0.3,0.1-0.7,0.2-1.2,0.3s-1,0.1-1.5,0.1
		c-0.8,0-1.5-0.1-2.1-0.3s-1.1-0.5-1.5-1c-0.4-0.4-0.7-1-0.9-1.7s-0.3-1.6-0.3-2.6s0.1-1.9,0.3-2.6c0.2-0.7,0.4-1.3,0.8-1.7
		c0.3-0.4,0.8-0.8,1.3-1s1.1-0.3,1.7-0.3s1.2,0.1,1.7,0.3s0.9,0.5,1.3,1c0.3,0.4,0.6,1,0.8,1.7s0.3,1.6,0.3,2.6v0.8H224.9z
		 M222.3,12.8c0-0.7,0-1.3-0.1-1.7s-0.2-0.8-0.3-1c-0.1-0.3-0.3-0.4-0.5-0.5s-0.4-0.1-0.6-0.1c-0.2,0-0.4,0-0.6,0.1
		c-0.2,0.1-0.3,0.3-0.5,0.5c-0.1,0.3-0.2,0.6-0.3,1s-0.1,1-0.1,1.7H222.3z"/>
	<path d="M236.4,4v14.9h-2.6V4H236.4z"/>
	<path d="M244.6,8c0.5,0,0.9,0,1.3,0.1c0.4,0.1,0.7,0.3,1,0.5s0.5,0.6,0.7,1s0.3,1,0.3,1.7v7.5h-2.6v-7.5c0-0.4,0-0.7-0.1-0.9
		s-0.2-0.4-0.4-0.6c-0.2-0.1-0.3-0.3-0.5-0.3c-0.2-0.1-0.4-0.1-0.6-0.1c-0.3,0-0.5,0-0.7,0.1s-0.4,0.2-0.5,0.3v8.9h-2.6V8.2h1.8
		l0.3,0.6h0.1c0.2-0.2,0.5-0.4,0.9-0.6C243.5,8.1,244,8,244.6,8z"/>
	<path d="M253.2,10.8c0,0.4,0.1,0.7,0.4,0.9c0.2,0.2,0.6,0.4,0.9,0.6s0.8,0.4,1.2,0.5c0.4,0.2,0.8,0.4,1.2,0.6
		c0.4,0.2,0.7,0.6,0.9,1c0.2,0.4,0.4,0.9,0.4,1.5s-0.1,1.2-0.3,1.6c-0.2,0.4-0.5,0.7-0.9,1s-0.9,0.4-1.4,0.5c-0.6,0.1-1.2,0.1-2,0.1
		c-0.5,0-1.1,0-1.5-0.1c-0.5-0.1-0.9-0.2-1.2-0.3v-1.1h2.3c0.8,0,1.4-0.1,1.8-0.3c0.4-0.2,0.6-0.6,0.6-1.2c0-0.4-0.1-0.7-0.4-0.9
		c-0.2-0.2-0.6-0.4-0.9-0.6c-0.4-0.2-0.8-0.4-1.2-0.5c-0.4-0.2-0.8-0.4-1.2-0.6c-0.4-0.2-0.7-0.6-0.9-0.9s-0.4-0.9-0.4-1.5
		s0.1-1.1,0.3-1.4c0.2-0.4,0.5-0.7,0.8-0.9s0.8-0.4,1.3-0.5s1.1-0.1,1.8-0.1c0.5,0,1.1,0,1.5,0.1c0.5,0.1,0.9,0.2,1.2,0.3v1.1h-2.3
		c-0.6,0-1.1,0.1-1.5,0.3C253.4,10,253.2,10.4,253.2,10.8z"/>
	<path d="M263.6,10v5.4c0,0.4,0,0.8,0.1,1.1s0.2,0.5,0.3,0.6c0.1,0.2,0.3,0.3,0.4,0.3c0.2,0.1,0.3,0.1,0.5,0.1h1.9v1.1
		c-0.1,0.1-0.3,0.1-0.5,0.2c-0.2,0.1-0.4,0.1-0.7,0.1c-0.2,0-0.5,0.1-0.7,0.1s-0.5,0-0.7,0c-0.5,0-0.9,0-1.3-0.1s-0.7-0.3-1-0.5
		c-0.3-0.3-0.5-0.6-0.7-1.1s-0.3-1.1-0.3-1.8v-5.4h-1.2V8.5h1.2V5.9h2.6v2.6h2.9v1.2c-0.3,0.1-0.7,0.2-1.2,0.3S264.2,10.1,263.6,10
		L263.6,10L263.6,10z"/>
	<path d="M271.9,4.4V7h-2.6V4.4H271.9z M271.9,18.9h-2.6V8.2h2.6V18.9z"/>
	<path d="M278.2,10v5.4c0,0.4,0,0.8,0.1,1.1s0.2,0.5,0.3,0.6c0.1,0.2,0.3,0.3,0.4,0.3c0.2,0.1,0.3,0.1,0.5,0.1h1.9v1.1
		c-0.1,0.1-0.3,0.1-0.5,0.2c-0.2,0.1-0.4,0.1-0.7,0.1c-0.2,0-0.5,0.1-0.7,0.1s-0.5,0-0.7,0c-0.5,0-0.9,0-1.3-0.1s-0.7-0.3-1-0.5
		c-0.3-0.3-0.5-0.6-0.7-1.1s-0.3-1.1-0.3-1.8v-5.4h-1.2V8.5h1.2V5.9h2.6v2.6h2.9v1.2c-0.3,0.1-0.7,0.2-1.2,0.3S278.8,10.1,278.2,10
		L278.2,10L278.2,10z"/>
	<path d="M287.2,19.1c-0.5,0-0.9,0-1.3-0.1s-0.7-0.3-1-0.5c-0.3-0.3-0.5-0.6-0.7-1s-0.3-1-0.3-1.7V8.3h2.6v7.5c0,0.4,0,0.7,0.1,0.9
		s0.2,0.4,0.4,0.6c0.2,0.1,0.3,0.3,0.5,0.3s0.4,0.1,0.6,0.1c0.3,0,0.5,0,0.7-0.1s0.4-0.2,0.5-0.3V8.4h2.6V19h-1.8l-0.3-0.6h-0.1
		c-0.2,0.2-0.5,0.4-0.9,0.6C288.4,19,287.8,19.1,287.2,19.1z"/>
	<path d="M298.1,10v5.4c0,0.4,0,0.8,0.1,1.1s0.2,0.5,0.3,0.6c0.1,0.2,0.3,0.3,0.4,0.3c0.2,0.1,0.3,0.1,0.5,0.1h1.9v1.1
		c-0.1,0.1-0.3,0.1-0.5,0.2c-0.2,0.1-0.4,0.1-0.7,0.1c-0.2,0-0.5,0.1-0.7,0.1s-0.5,0-0.7,0c-0.5,0-0.9,0-1.3-0.1s-0.7-0.3-1-0.5
		c-0.3-0.3-0.5-0.6-0.7-1.1s-0.3-1.1-0.3-1.8v-5.4h-1.2V8.5h1.2V5.9h2.6v2.6h2.9v1.2c-0.3,0.1-0.7,0.2-1.2,0.3S298.7,10.1,298.1,10
		L298.1,10L298.1,10z"/>
	<path d="M311.3,14.3h-5.5c0,1.2,0.2,2.1,0.6,2.6s1.1,0.7,2,0.7h2.3v1.1c-0.3,0.1-0.7,0.2-1.2,0.3s-1,0.1-1.5,0.1
		c-0.8,0-1.5-0.1-2.1-0.3s-1.1-0.5-1.5-1c-0.4-0.4-0.7-1-0.9-1.7c-0.2-0.7-0.3-1.6-0.3-2.6s0.1-1.9,0.3-2.6c0.2-0.7,0.4-1.3,0.8-1.7
		c0.3-0.4,0.8-0.8,1.3-1s1.1-0.3,1.7-0.3s1.2,0.1,1.7,0.3s0.9,0.5,1.3,1c0.3,0.4,0.6,1,0.8,1.7c0.2,0.7,0.3,1.6,0.3,2.6L311.3,14.3
		L311.3,14.3z M308.7,12.8c0-0.7,0-1.3-0.1-1.7s-0.2-0.8-0.3-1c-0.1-0.3-0.3-0.4-0.5-0.5s-0.4-0.1-0.6-0.1s-0.4,0-0.6,0.1
		s-0.3,0.3-0.5,0.5c-0.1,0.3-0.2,0.6-0.3,1c-0.1,0.4-0.1,1-0.1,1.7H308.7z"/>
	<path d="M182.9,33.6c0.7,0,1.3,0.1,1.8,0.3c0.5,0.2,1,0.5,1.3,1c0.4,0.4,0.6,1,0.8,1.7s0.3,1.6,0.3,2.6s-0.1,1.9-0.3,2.6
		s-0.5,1.3-0.8,1.7c-0.4,0.4-0.8,0.8-1.3,1s-1.1,0.3-1.8,0.3s-1.3-0.1-1.8-0.3c-0.5-0.2-1-0.5-1.3-1c-0.4-0.4-0.6-1-0.8-1.7
		s-0.3-1.6-0.3-2.6s0.1-1.9,0.3-2.6s0.5-1.3,0.8-1.7c0.4-0.4,0.8-0.8,1.3-1C181.5,33.7,182.2,33.6,182.9,33.6z M182.9,35
		c-0.2,0-0.5,0.1-0.7,0.2s-0.4,0.3-0.5,0.6c-0.2,0.3-0.3,0.7-0.4,1.3c-0.1,0.5-0.1,1.2-0.1,2s0,1.5,0.1,2s0.2,1,0.4,1.3
		s0.3,0.5,0.5,0.6s0.4,0.2,0.7,0.2s0.5-0.1,0.7-0.2s0.4-0.3,0.5-0.6c0.2-0.3,0.3-0.7,0.4-1.3c0.1-0.5,0.1-1.2,0.1-2s0-1.5-0.1-2
		s-0.2-1-0.4-1.3s-0.3-0.5-0.5-0.6C183.3,35,183.1,35,182.9,35z"/>
	<path d="M190.2,33.1c0-0.7,0.1-1.3,0.3-1.8s0.4-0.8,0.7-1.1c0.3-0.3,0.6-0.4,1-0.5s0.8-0.1,1.3-0.1c0.2,0,0.4,0,0.7,0
		c0.2,0,0.5,0.1,0.7,0.1s0.5,0.1,0.7,0.1s0.4,0.1,0.5,0.2v1.1h-1.7c-0.2,0-0.4,0-0.6,0.1c-0.2,0.1-0.4,0.2-0.5,0.3
		c-0.1,0.2-0.3,0.4-0.4,0.6c-0.1,0.3-0.1,0.6-0.1,1.1v0.9h2.9v1.2c-0.3,0.1-0.7,0.2-1.2,0.3c-0.5,0.1-1,0.1-1.5,0.1h-0.1v8.8h-2.6
		v-8.8H189v-1.6h1.2V33.1z"/>
	<path d="M213.1,37c0,1.4-0.1,2.6-0.4,3.6c-0.2,1-0.6,1.8-1,2.4s-1,1-1.7,1.3s-1.5,0.4-2.3,0.4s-1.5,0-2.1-0.1s-1.1-0.2-1.7-0.3
		V29.7c0.5-0.2,1.1-0.3,1.7-0.3c0.6-0.1,1.3-0.1,2.1-0.1c0.9,0,1.7,0.1,2.3,0.4s1.2,0.7,1.7,1.3s0.8,1.4,1,2.4
		C213,34.3,213.1,35.5,213.1,37z M210.6,37c0-1.2-0.1-2.2-0.2-3c-0.1-0.8-0.3-1.4-0.6-1.9c-0.2-0.5-0.6-0.8-0.9-1
		c-0.4-0.2-0.7-0.3-1.2-0.3h-1.2v12.1h1.2c0.4,0,0.8-0.1,1.2-0.3s0.7-0.5,0.9-1s0.4-1.1,0.6-1.9C210.5,39.2,210.6,38.2,210.6,37z"/>
	<path d="M222.2,33.8v1.8h-2.3c-0.3,0-0.5,0-0.7,0.1s-0.4,0.2-0.5,0.3v8.4h-2.6V33.8h1.8l0.3,0.9h0.1c0.2-0.2,0.5-0.4,0.9-0.6
		s0.9-0.3,1.5-0.3H222.2z"/>
	<path d="M227.8,44.6c-0.5,0-0.9,0-1.3-0.1c-0.4-0.1-0.7-0.3-1-0.5c-0.3-0.3-0.5-0.6-0.7-1s-0.3-1-0.3-1.7v-7.5h2.6v7.5
		c0,0.4,0,0.7,0.1,0.9c0.1,0.2,0.2,0.4,0.4,0.6c0.2,0.1,0.3,0.3,0.5,0.3c0.2,0.1,0.4,0.1,0.6,0.1c0.3,0,0.5,0,0.7-0.1
		s0.4-0.2,0.5-0.3v-8.9h2.6v10.6h-1.8l-0.3-0.6h-0.1c-0.2,0.2-0.5,0.4-0.9,0.6C228.9,44.6,228.4,44.6,227.8,44.6z"/>
	<path d="M241,44.1c-0.2,0.2-0.5,0.3-0.8,0.4s-0.7,0.1-1,0.1c-0.6,0-1.1-0.1-1.6-0.3c-0.5-0.2-0.9-0.5-1.2-1c-0.3-0.4-0.6-1-0.8-1.7
		s-0.3-1.6-0.3-2.6s0.1-1.9,0.3-2.6s0.5-1.3,0.9-1.7c0.4-0.4,0.9-0.8,1.5-1s1.3-0.3,2.1-0.3s1.4,0.1,1.9,0.2s1.1,0.3,1.6,0.5v9.4
		c0,1.9-0.4,3.3-1.1,4.1c-0.8,0.8-1.9,1.2-3.4,1.2c-0.5,0-1.1,0-1.5-0.1c-0.5-0.1-0.9-0.2-1.2-0.3v-1.1h2.3c0.8,0,1.4-0.2,1.8-0.7
		C240.8,46.2,241,45.3,241,44.1z M241,35.1h-1c-0.3,0-0.6,0.1-0.9,0.2c-0.3,0.1-0.5,0.3-0.7,0.6c-0.2,0.3-0.3,0.7-0.4,1.2
		c-0.1,0.5-0.1,1.2-0.1,2s0,1.5,0.1,2s0.2,0.9,0.4,1.2c0.2,0.3,0.4,0.5,0.6,0.6c0.2,0.1,0.5,0.2,0.8,0.2s0.5,0,0.7-0.1
		s0.4-0.2,0.5-0.3L241,35.1L241,35.1z"/>
	<path d="M248.8,36.3c0,0.4,0.1,0.7,0.4,0.9c0.2,0.2,0.6,0.4,0.9,0.6s0.8,0.4,1.2,0.5c0.4,0.2,0.8,0.4,1.2,0.6s0.7,0.6,0.9,1
		s0.4,0.9,0.4,1.5s-0.1,1.2-0.3,1.6s-0.5,0.7-0.9,1c-0.4,0.2-0.9,0.4-1.4,0.5c-0.6,0.1-1.2,0.1-2,0.1c-0.5,0-1.1,0-1.5-0.1
		c-0.5-0.1-0.9-0.2-1.2-0.3v-1.1h2.3c0.8,0,1.4-0.1,1.8-0.3c0.4-0.2,0.6-0.6,0.6-1.2c0-0.4-0.1-0.7-0.4-0.9
		c-0.2-0.2-0.6-0.4-0.9-0.6c-0.4-0.2-0.8-0.4-1.2-0.5c-0.4-0.2-0.8-0.4-1.2-0.6s-0.7-0.6-0.9-0.9s-0.4-0.9-0.4-1.5s0.1-1.1,0.3-1.4
		c0.2-0.4,0.5-0.7,0.8-0.9c0.3-0.2,0.8-0.4,1.3-0.5s1.1-0.1,1.8-0.1c0.5,0,1.1,0,1.5,0.1c0.5,0.1,0.9,0.2,1.2,0.3v1h-2.3
		c-0.6,0-1.1,0.1-1.5,0.3C249,35.6,248.8,35.9,248.8,36.3z"/>
	<path d="M181.9,70.2c-0.5,0-0.9,0-1.3-0.1c-0.4-0.1-0.7-0.3-1-0.5c-0.3-0.3-0.5-0.6-0.7-1s-0.3-1-0.3-1.7s0.1-1.3,0.3-1.7
		c0.2-0.4,0.4-0.8,0.7-1c0.3-0.3,0.7-0.4,1.1-0.5c0.4-0.1,0.9-0.1,1.4-0.1c0.3,0,0.6,0,0.9,0.1c0.3,0,0.6,0.1,0.9,0.1v-0.9
		c0-0.9-0.2-1.4-0.6-1.7c-0.4-0.3-0.9-0.4-1.6-0.4h-2.1v-1.1c0.3-0.1,0.7-0.2,1.2-0.3c0.5-0.1,0.9-0.1,1.4-0.1c0.7,0,1.4,0,1.9,0.1
		s1,0.3,1.4,0.5c0.4,0.3,0.6,0.6,0.8,1.1s0.3,1.1,0.3,1.8V70h-1.8l-0.3-0.6h-0.1c-0.2,0.2-0.5,0.4-0.9,0.6
		C183,70.1,182.5,70.2,181.9,70.2z M183.9,64.9h-1.2c-0.2,0-0.4,0-0.6,0.1c-0.2,0.1-0.4,0.2-0.5,0.3c-0.1,0.1-0.3,0.3-0.4,0.6
		s-0.1,0.6-0.1,0.9c0,0.4,0,0.7,0.1,0.9c0.1,0.2,0.2,0.4,0.4,0.6c0.1,0.1,0.3,0.3,0.5,0.3c0.2,0.1,0.4,0.1,0.6,0.1
		c0.3,0,0.5,0,0.7-0.1s0.4-0.2,0.5-0.3V64.9z"/>
	<path d="M194.6,59.1c0.5,0,0.9,0,1.3,0.1c0.4,0.1,0.7,0.3,1,0.5c0.3,0.3,0.5,0.6,0.7,1s0.3,1,0.3,1.7v7.5h-2.6v-7.5
		c0-0.4,0-0.7-0.1-0.9c-0.1-0.2-0.2-0.4-0.4-0.6c-0.2-0.1-0.3-0.3-0.5-0.3c-0.2-0.1-0.4-0.1-0.6-0.1c-0.3,0-0.5,0-0.7,0.1
		s-0.4,0.2-0.5,0.3v8.9h-2.6V59.3h1.8l0.3,0.6h0.1c0.2-0.2,0.5-0.4,0.9-0.6C193.4,59.2,193.9,59.1,194.6,59.1z"/>
	<path d="M204.4,70.2c-0.5,0-1-0.1-1.5-0.3c-0.4-0.2-0.8-0.5-1.1-1c-0.3-0.4-0.6-1-0.7-1.7c-0.2-0.7-0.3-1.6-0.3-2.6
		s0.1-1.9,0.3-2.6s0.4-1.3,0.8-1.7c0.3-0.4,0.7-0.8,1.2-1s1-0.3,1.6-0.3c0.4,0,0.7,0,1,0.1s0.6,0.2,0.8,0.4v-4.4h2.6V70h-1.8
		l-0.3-0.6h-0.1c-0.2,0.2-0.5,0.4-0.9,0.6S205,70.2,204.4,70.2z M206.4,61c-0.1-0.1-0.3-0.2-0.5-0.3c-0.2-0.1-0.4-0.1-0.7-0.1
		s-0.5,0.1-0.8,0.2c-0.2,0.1-0.4,0.3-0.6,0.6c-0.2,0.3-0.3,0.7-0.4,1.2c-0.1,0.5-0.1,1.2-0.1,2s0,1.5,0.1,2s0.2,0.9,0.4,1.2
		s0.4,0.5,0.6,0.6c0.2,0.1,0.5,0.2,0.8,0.2s0.5,0,0.7-0.1s0.3-0.2,0.5-0.3V61z"/>
	<path d="M227,69.8c-0.3,0.1-0.8,0.2-1.4,0.3c-0.6,0.1-1.3,0.1-2.1,0.1c-0.9,0-1.7-0.1-2.4-0.4c-0.7-0.2-1.2-0.7-1.7-1.2
		c-0.4-0.6-0.8-1.4-1-2.4s-0.3-2.2-0.3-3.7s0.1-2.7,0.3-3.7s0.5-1.8,0.9-2.4s0.9-1,1.6-1.2c0.6-0.2,1.3-0.4,2.2-0.4
		c0.8,0,1.4,0,2,0.1s1.1,0.2,1.4,0.3v1.2h-2.8c-0.5,0-0.9,0.1-1.2,0.3c-0.4,0.2-0.7,0.5-1,1s-0.5,1.1-0.6,1.9s-0.2,1.8-0.2,3
		s0.1,2.2,0.2,3c0.2,0.8,0.4,1.4,0.7,1.9s0.6,0.8,1,1s0.9,0.3,1.4,0.3h0.5v-6.7h2.6L227,69.8L227,69.8z"/>
	<path d="M234,59.1c0.7,0,1.3,0.1,1.8,0.3c0.5,0.2,1,0.5,1.3,1c0.4,0.4,0.6,1,0.8,1.7s0.3,1.6,0.3,2.6s-0.1,1.9-0.3,2.6
		s-0.5,1.3-0.8,1.7c-0.4,0.4-0.8,0.8-1.3,1s-1.1,0.3-1.8,0.3s-1.3-0.1-1.8-0.3c-0.5-0.2-1-0.5-1.3-1c-0.4-0.4-0.6-1-0.8-1.7
		s-0.3-1.6-0.3-2.6s0.1-1.9,0.3-2.6s0.5-1.3,0.8-1.7c0.4-0.4,0.8-0.8,1.3-1C232.7,59.2,233.3,59.1,234,59.1z M234,60.5
		c-0.2,0-0.5,0.1-0.7,0.2s-0.4,0.3-0.5,0.6c-0.2,0.3-0.3,0.7-0.4,1.3s-0.1,1.2-0.1,2s0,1.5,0.1,2s0.2,1,0.4,1.3s0.3,0.5,0.5,0.6
		s0.4,0.2,0.7,0.2s0.5-0.1,0.7-0.2s0.4-0.3,0.5-0.6c0.2-0.3,0.3-0.7,0.4-1.3c0.1-0.5,0.1-1.2,0.1-2s0-1.5-0.1-2s-0.2-1-0.4-1.3
		s-0.3-0.5-0.5-0.6S234.3,60.5,234,60.5z"/>
	<path d="M244.9,59.1c0.7,0,1.3,0.1,1.8,0.3c0.5,0.2,1,0.5,1.3,1c0.4,0.4,0.6,1,0.8,1.7s0.3,1.6,0.3,2.6s-0.1,1.9-0.3,2.6
		s-0.5,1.3-0.8,1.7c-0.4,0.4-0.8,0.8-1.3,1s-1.1,0.3-1.8,0.3s-1.3-0.1-1.8-0.3c-0.5-0.2-1-0.5-1.3-1c-0.4-0.4-0.6-1-0.8-1.7
		s-0.3-1.6-0.3-2.6s0.1-1.9,0.3-2.6s0.5-1.3,0.8-1.7c0.4-0.4,0.8-0.8,1.3-1C243.6,59.2,244.2,59.1,244.9,59.1z M244.9,60.5
		c-0.2,0-0.5,0.1-0.7,0.2s-0.4,0.3-0.5,0.6c-0.2,0.3-0.3,0.7-0.4,1.3s-0.1,1.2-0.1,2s0,1.5,0.1,2s0.2,1,0.4,1.3s0.3,0.5,0.5,0.6
		s0.4,0.2,0.7,0.2c0.2,0,0.5-0.1,0.7-0.2s0.4-0.3,0.5-0.6c0.2-0.3,0.3-0.7,0.4-1.3c0.1-0.5,0.1-1.2,0.1-2s0-1.5-0.1-2
		s-0.2-1-0.4-1.3s-0.3-0.5-0.5-0.6S245.2,60.5,244.9,60.5z"/>
	<path d="M255.2,70.2c-0.5,0-1-0.1-1.5-0.3c-0.4-0.2-0.8-0.5-1.1-1c-0.3-0.4-0.6-1-0.7-1.7c-0.2-0.7-0.3-1.6-0.3-2.6
		s0.1-1.9,0.3-2.6s0.4-1.3,0.8-1.7c0.3-0.4,0.7-0.8,1.2-1s1-0.3,1.6-0.3c0.4,0,0.7,0,1,0.1s0.6,0.2,0.8,0.4v-4.4h2.6V70h-1.8
		l-0.3-0.6h-0.1c-0.2,0.2-0.5,0.4-0.9,0.6S255.8,70.2,255.2,70.2z M257.2,61c-0.1-0.1-0.3-0.2-0.5-0.3c-0.2-0.1-0.4-0.1-0.7-0.1
		s-0.5,0.1-0.8,0.2c-0.2,0.1-0.4,0.3-0.6,0.6c-0.2,0.3-0.3,0.7-0.4,1.2c-0.1,0.5-0.1,1.2-0.1,2s0,1.5,0.1,2s0.2,0.9,0.4,1.2
		s0.4,0.5,0.6,0.6c0.2,0.1,0.5,0.2,0.8,0.2c0.3,0,0.5,0,0.7-0.1s0.3-0.2,0.5-0.3V61z"/>
	<path d="M271.9,70h-2.6V55.3c0.5-0.2,1.1-0.3,1.7-0.3c0.6-0.1,1.3-0.1,2.1-0.1c0.9,0,1.6,0.1,2.3,0.3c0.6,0.2,1.1,0.5,1.6,0.9
		c0.4,0.4,0.7,1,0.9,1.7c0.2,0.7,0.3,1.5,0.3,2.4c0,1-0.1,1.9-0.3,2.6c-0.2,0.7-0.5,1.3-0.8,1.7c-0.4,0.4-0.8,0.8-1.4,1
		c-0.5,0.2-1.2,0.3-1.9,0.3c-0.1,0-0.2,0-0.4,0c-0.1,0-0.3,0-0.5-0.1c-0.2,0-0.3,0-0.5-0.1c-0.2,0-0.3,0-0.5-0.1L271.9,70L271.9,70z
		 M273.1,64c0.4,0,0.7-0.1,1.1-0.2c0.3-0.1,0.6-0.3,0.8-0.6c0.2-0.3,0.4-0.7,0.5-1.2s0.2-1.1,0.2-1.9c0-0.7-0.1-1.3-0.2-1.8
		s-0.3-0.9-0.5-1.1c-0.2-0.3-0.5-0.5-0.8-0.6s-0.7-0.2-1.1-0.2h-1.2V64C271.9,64,273.1,64,273.1,64z"/>
	<path d="M286.9,59.3v1.8h-2.3c-0.3,0-0.5,0-0.7,0.1s-0.4,0.2-0.5,0.3v8.4h-2.6V59.3h1.8l0.3,0.9h0.1c0.2-0.2,0.5-0.4,0.9-0.6
		s0.9-0.3,1.5-0.3H286.9z"/>
	<path d="M292,70.2c-0.5,0-0.9,0-1.3-0.1s-0.7-0.3-1-0.5c-0.3-0.3-0.5-0.6-0.7-1s-0.3-1-0.3-1.7s0.1-1.3,0.3-1.7
		c0.2-0.4,0.4-0.8,0.7-1c0.3-0.3,0.7-0.4,1.1-0.5s0.9-0.1,1.4-0.1c0.3,0,0.6,0,0.9,0.1c0.3,0,0.6,0.1,0.9,0.1v-0.9
		c0-0.9-0.2-1.4-0.6-1.7c-0.4-0.3-0.9-0.4-1.6-0.4h-2.1v-1.1c0.3-0.1,0.7-0.2,1.2-0.3c0.5-0.1,0.9-0.1,1.4-0.1c0.7,0,1.4,0,1.9,0.1
		s1,0.3,1.4,0.5c0.4,0.3,0.6,0.6,0.8,1.1c0.2,0.5,0.3,1.1,0.3,1.8V70h-1.8l-0.3-0.6h-0.1c-0.2,0.2-0.5,0.4-0.9,0.6
		C293,70.1,292.6,70.2,292,70.2z M294,64.9h-1.2c-0.2,0-0.4,0-0.6,0.1s-0.4,0.2-0.5,0.3c-0.1,0.1-0.3,0.3-0.4,0.6s-0.1,0.6-0.1,0.9
		c0,0.4,0,0.7,0.1,0.9c0.1,0.2,0.2,0.4,0.4,0.6c0.1,0.1,0.3,0.3,0.5,0.3c0.2,0.1,0.4,0.1,0.6,0.1c0.3,0,0.5,0,0.7-0.1
		s0.4-0.2,0.5-0.3V64.9z"/>
	<path d="M304.1,60.6c-0.3,0-0.6,0.1-0.9,0.2s-0.5,0.3-0.7,0.6c-0.2,0.3-0.3,0.7-0.4,1.2s-0.1,1.2-0.1,2s0.1,1.5,0.2,2
		s0.3,0.9,0.5,1.2s0.4,0.5,0.7,0.6c0.3,0.1,0.6,0.2,1,0.2h2.3v1.1c-0.3,0.1-0.7,0.2-1.2,0.3c-0.5,0.1-1,0.1-1.5,0.1
		c-0.8,0-1.4-0.1-2-0.3c-0.6-0.2-1-0.5-1.4-1c-0.4-0.4-0.7-1-0.8-1.7c-0.2-0.7-0.3-1.6-0.3-2.6s0.1-1.9,0.3-2.6
		c0.2-0.7,0.5-1.3,0.8-1.7c0.4-0.4,0.8-0.8,1.3-1s1.1-0.3,1.8-0.3c0.5,0,1.1,0,1.5,0.1s0.9,0.2,1.2,0.3v1.1h-2.3V60.6z"/>
	<path d="M311.8,61.1v5.4c0,0.4,0,0.8,0.1,1.1c0.1,0.3,0.2,0.5,0.3,0.6c0.1,0.2,0.3,0.3,0.4,0.3c0.2,0.1,0.3,0.1,0.5,0.1h1.9v1.1
		c-0.1,0.1-0.3,0.1-0.5,0.2s-0.4,0.1-0.7,0.1c-0.2,0-0.5,0.1-0.7,0.1s-0.5,0-0.7,0c-0.5,0-0.9,0-1.3-0.1s-0.7-0.3-1-0.5
		c-0.3-0.3-0.5-0.6-0.7-1.1s-0.3-1.1-0.3-1.8v-5.5h-1.2v-1.6h1.2v-2.6h2.6v2.6h2.9v1.2c-0.3,0.1-0.7,0.2-1.2,0.3
		C312.9,61.1,312.4,61.1,311.8,61.1L311.8,61.1z"/>
	<path d="M320.1,55.5v2.6h-2.6v-2.6H320.1z M320.1,70h-2.6V59.3h2.6V70z"/>
	<path d="M327.8,60.6c-0.3,0-0.6,0.1-0.9,0.2s-0.5,0.3-0.7,0.6c-0.2,0.3-0.3,0.7-0.4,1.2s-0.1,1.2-0.1,2s0.1,1.5,0.2,2
		s0.3,0.9,0.5,1.2s0.4,0.5,0.7,0.6s0.6,0.2,1,0.2h2.3v1.1c-0.3,0.1-0.7,0.2-1.2,0.3c-0.5,0.1-1,0.1-1.5,0.1c-0.8,0-1.4-0.1-2-0.3
		c-0.6-0.2-1-0.5-1.4-1c-0.4-0.4-0.7-1-0.8-1.7c-0.2-0.7-0.3-1.6-0.3-2.6s0.1-1.9,0.3-2.6c0.2-0.7,0.5-1.3,0.8-1.7
		c0.4-0.4,0.8-0.8,1.3-1s1.1-0.3,1.8-0.3c0.5,0,1.1,0,1.5,0.1s0.9,0.2,1.2,0.3v1.1h-2.3V60.6z"/>
	<path d="M340.3,65.4h-5.5c0,1.2,0.2,2.1,0.6,2.6s1.1,0.7,2,0.7h2.3v1.1c-0.3,0.1-0.7,0.2-1.2,0.3c-0.5,0.1-1,0.1-1.5,0.1
		c-0.8,0-1.5-0.1-2.1-0.3c-0.6-0.2-1.1-0.5-1.5-1c-0.4-0.4-0.7-1-0.9-1.7c-0.2-0.7-0.3-1.6-0.3-2.6s0.1-1.9,0.3-2.6
		c0.2-0.7,0.4-1.3,0.8-1.7c0.3-0.4,0.8-0.8,1.3-1s1.1-0.3,1.7-0.3s1.2,0.1,1.7,0.3c0.5,0.2,0.9,0.5,1.3,1c0.3,0.4,0.6,1,0.8,1.7
		c0.2,0.7,0.3,1.6,0.3,2.6L340.3,65.4L340.3,65.4z M337.7,63.9c0-0.7,0-1.3-0.1-1.7c-0.1-0.4-0.2-0.8-0.3-1
		c-0.1-0.3-0.3-0.4-0.5-0.5s-0.4-0.1-0.6-0.1s-0.4,0-0.6,0.1s-0.3,0.3-0.5,0.5c-0.1,0.3-0.2,0.6-0.3,1c-0.1,0.4-0.1,1-0.1,1.7H337.7
		z"/>
	<path d="M345,61.9c0,0.4,0.1,0.7,0.4,0.9c0.2,0.2,0.6,0.4,0.9,0.6c0.4,0.2,0.8,0.4,1.2,0.5c0.4,0.2,0.8,0.4,1.2,0.6
		c0.4,0.2,0.7,0.6,0.9,1c0.2,0.4,0.4,0.9,0.4,1.5s-0.1,1.2-0.3,1.6c-0.2,0.4-0.5,0.7-0.9,1s-0.9,0.4-1.4,0.5c-0.6,0.1-1.2,0.1-2,0.1
		c-0.5,0-1.1,0-1.5-0.1c-0.5-0.1-0.9-0.2-1.2-0.3v-1.1h2.3c0.8,0,1.4-0.1,1.8-0.3c0.4-0.2,0.6-0.6,0.6-1.2c0-0.4-0.1-0.7-0.4-0.9
		c-0.2-0.2-0.6-0.4-0.9-0.6c-0.4-0.2-0.8-0.4-1.2-0.5c-0.4-0.2-0.8-0.4-1.2-0.6c-0.4-0.2-0.7-0.6-0.9-0.9s-0.4-0.9-0.4-1.5
		s0.1-1.1,0.3-1.4c0.2-0.4,0.5-0.7,0.8-0.9c0.3-0.2,0.8-0.4,1.3-0.5s1.1-0.1,1.8-0.1c0.5,0,1.1,0,1.5,0.1c0.5,0.1,0.9,0.2,1.2,0.3
		v1.1H347c-0.6,0-1.1,0.1-1.5,0.3C345.2,61.1,345,61.5,345,61.9z"/>
</g>
<path class="st2" d="M31,1.5c7.9,0,15.1,2.9,20.5,7.7l-4.6,4.4C42.6,10,37.1,7.8,31,7.8C17.3,7.8,6.2,18.9,6.2,32.6
	c0,13.7,11.1,24.8,24.8,24.8c3.7,0,7.2-0.8,10.3-2.2l-9-9l4.3-4.3L51,56.4c-0.8,0.9-1.8,1.6-2.8,2.3c-4.9,3.2-10.8,5.1-17.1,5.1
	c-17.2,0-31.2-14-31.2-31.2C-0.2,15.4,13.8,1.5,31,1.5L31,1.5z"/>
<polygon class="st3" points="65.9,32 50.2,16.3 54.9,11.8 70.5,27.4 87,10.9 91.7,15.4 75,32 91.4,48.4 86.7,52.8 70.5,36.6 
	55,52.1 50.4,47.5 65.9,32 "/>
<path class="st2" d="M109.1,1.5c17.2,0,31.2,14,31.2,31.2c0,17.2-14,31.2-31.2,31.2c-4.1,0-8.1-0.8-11.7-2.3v16.5h-6.3l0-20.6
	l4.3-4.1c3.9,2.6,8.6,4.1,13.6,4.1c13.7,0,24.8-11.1,24.8-24.8c0-13.7-11.1-24.8-24.8-24.8c-5.4,0-10.4,1.7-14.4,4.6L90,8
	C95.2,3.9,101.9,1.5,109.1,1.5L109.1,1.5z"/>
</svg>
