<?xml version="1.0" encoding="UTF-8" standalone="no"?>
<!-- Created with Inkscape (http://www.inkscape.org/) -->

<svg
   version="1.1"
   id="svg2"
   width="155.72"
   height="155.10667"
   viewBox="0 0 155.72 155.10667"
   sodipodi:docname="LOGO_ROSATOM_rus_VERT_COLOR-01.eps"
   xmlns:inkscape="http://www.inkscape.org/namespaces/inkscape"
   xmlns:sodipodi="http://sodipodi.sourceforge.net/DTD/sodipodi-0.dtd"
   xmlns="http://www.w3.org/2000/svg"
   xmlns:svg="http://www.w3.org/2000/svg">
  <defs
     id="defs6">
    <clipPath
       clipPathUnits="userSpaceOnUse"
       id="clipPath18">
      <path
         d="m 641.676,816.871 c -35.356,31.887 -89.903,29.137 -121.809,-6.219 -31.859,-35.359 -29.027,-89.898 6.34,-121.797 35.356,-31.898 89.863,-29.113 121.785,6.239 31.86,35.355 29.039,89.879 -6.316,121.777 z"
         id="path16" />
    </clipPath>
    <radialGradient
       fx="0"
       fy="0"
       cx="0"
       cy="0"
       r="1"
       gradientUnits="userSpaceOnUse"
       gradientTransform="matrix(121.347,-5.08e-5,-5.08e-5,-121.347,556.308,800.89)"
       spreadMethod="pad"
       id="radialGradient24">
      <stop
         style="stop-opacity:1;stop-color:#5594d6"
         offset="0"
         id="stop20" />
      <stop
         style="stop-opacity:1;stop-color:#1b2765"
         offset="1"
         id="stop22" />
    </radialGradient>
    <clipPath
       clipPathUnits="userSpaceOnUse"
       id="clipPath34">
      <path
         d="m 337.051,1080.79 c -56.414,-42.56 -101.5,-99.333 -129.922,-165.005 34.105,-8.406 136.226,-41.64 183.078,-168.14 14.094,4.593 44.469,22.296 65.547,90.648 28.262,91.512 81.875,179.527 151.406,209.087 -69.336,68.59 -160.687,84.75 -270.109,33.41 z"
         id="path32" />
    </clipPath>
    <linearGradient
       x1="0"
       y1="0"
       x2="1"
       y2="0"
       gradientUnits="userSpaceOnUse"
       gradientTransform="matrix(204.085,314.264,314.264,-204.085,292.863,810.861)"
       spreadMethod="pad"
       id="linearGradient40">
      <stop
         style="stop-opacity:1;stop-color:#5594d6"
         offset="0"
         id="stop36" />
      <stop
         style="stop-opacity:1;stop-color:#1b2765"
         offset="1"
         id="stop38" />
    </linearGradient>
    <clipPath
       clipPathUnits="userSpaceOnUse"
       id="clipPath50">
      <path
         d="M 0,0 H 1168 V 1163 H 0 Z"
         id="path48" />
    </clipPath>
    <clipPath
       clipPathUnits="userSpaceOnUse"
       id="clipPath56">
      <path
         d="m 900.039,1014.62 c 0.008,0.01 0.016,0.01 0.02,0.02 -75.278,90.83 -188.946,148.69 -316.125,148.69 -92.68,0 -178.184,-30.72 -246.883,-82.54 151.902,71.27 268.976,12.47 340.672,-136.138 114.199,-20.48 191.754,36.34 222.316,69.968 z"
         id="path54" />
    </clipPath>
    <linearGradient
       x1="0"
       y1="0"
       x2="1"
       y2="0"
       gradientUnits="userSpaceOnUse"
       gradientTransform="matrix(506.977,-204.832,-204.832,-506.977,374.325,1173.04)"
       spreadMethod="pad"
       id="linearGradient62">
      <stop
         style="stop-opacity:1;stop-color:#5594d6"
         offset="0"
         id="stop58" />
      <stop
         style="stop-opacity:1;stop-color:#1b2765"
         offset="1"
         id="stop60" />
    </linearGradient>
    <clipPath
       clipPathUnits="userSpaceOnUse"
       id="clipPath72">
      <path
         d="m 423.438,375.133 c 65.058,-27.586 136.769,-38.246 207.847,-30.028 -9.773,33.747 -32.055,138.809 54.063,242.637 -11.024,9.906 -41.543,27.367 -111.27,11.446 -93.375,-21.282 -196.402,-18.852 -256.762,26.589 -24.734,-94.351 6.957,-181.543 106.122,-250.644 z"
         id="path70" />
    </clipPath>
    <linearGradient
       x1="0"
       y1="0"
       x2="1"
       y2="0"
       gradientUnits="userSpaceOnUse"
       gradientTransform="matrix(-374.18,19.6052,19.6052,374.18,679.274,471.837)"
       spreadMethod="pad"
       id="linearGradient78">
      <stop
         style="stop-opacity:1;stop-color:#5594d6"
         offset="0"
         id="stop74" />
      <stop
         style="stop-opacity:1;stop-color:#1b2765"
         offset="1"
         id="stop76" />
    </linearGradient>
    <clipPath
       clipPathUnits="userSpaceOnUse"
       id="clipPath88">
      <path
         d="m 199.242,895.82 c -0.008,0 -0.019,0.004 -0.027,0.004 C 158.195,785.211 164.93,657.836 228.52,547.684 274.859,467.414 344.219,408.723 423.441,375.133 285.77,471.059 278.148,601.855 370.992,738.254 331.629,847.402 243.645,886.16 199.242,895.82 Z"
         id="path86" />
    </clipPath>
    <linearGradient
       x1="0"
       y1="0"
       x2="1"
       y2="0"
       gradientUnits="userSpaceOnUse"
       gradientTransform="matrix(-76.1116,541.512,541.512,76.1116,324.911,361.282)"
       spreadMethod="pad"
       id="linearGradient94">
      <stop
         style="stop-opacity:1;stop-color:#5594d6"
         offset="0"
         id="stop90" />
      <stop
         style="stop-opacity:1;stop-color:#1b2765"
         offset="1"
         id="stop92" />
    </linearGradient>
    <clipPath
       clipPathUnits="userSpaceOnUse"
       id="clipPath104">
      <path
         d="m 991.309,802.777 c -8.637,70.141 -35.262,137.578 -77.922,195.032 -24.332,-25.336 -104.172,-97.168 -237.141,-74.496 -3.07,-14.5 -2.926,-49.665 45.723,-102.094 65.117,-70.235 114.527,-160.68 105.355,-235.672 94.071,25.75 153.731,96.793 163.985,217.23 z"
         id="path102" />
    </clipPath>
    <linearGradient
       x1="0"
       y1="0"
       x2="1"
       y2="0"
       gradientUnits="userSpaceOnUse"
       gradientTransform="matrix(170.114,-333.877,-333.877,-170.114,779.652,975.999)"
       spreadMethod="pad"
       id="linearGradient110">
      <stop
         style="stop-opacity:1;stop-color:#5594d6"
         offset="0"
         id="stop106" />
      <stop
         style="stop-opacity:1;stop-color:#1b2765"
         offset="1"
         id="stop108" />
    </linearGradient>
    <clipPath
       clipPathUnits="userSpaceOnUse"
       id="clipPath120">
      <path
         d="m 652.516,348.262 c 0.004,-0.012 0.007,-0.02 0.011,-0.028 116.293,19.782 223.231,89.297 286.821,199.45 46.34,80.269 62.482,169.687 51.961,255.097 C 977.074,635.582 867.625,563.582 703.086,575.793 628.254,487.129 638.68,391.543 652.516,348.262 Z"
         id="path118" />
    </clipPath>
    <linearGradient
       x1="0"
       y1="0"
       x2="1"
       y2="0"
       gradientUnits="userSpaceOnUse"
       gradientTransform="matrix(-430.897,-336.645,-336.645,430.897,1052.58,724.361)"
       spreadMethod="pad"
       id="linearGradient126">
      <stop
         style="stop-opacity:1;stop-color:#5594d6"
         offset="0"
         id="stop122" />
      <stop
         style="stop-opacity:1;stop-color:#1b2765"
         offset="1"
         id="stop124" />
    </linearGradient>
  </defs>
  <sodipodi:namedview
     id="namedview4"
     pagecolor="#ffffff"
     bordercolor="#000000"
     borderopacity="0.25"
     inkscape:showpageshadow="2"
     inkscape:pageopacity="0.0"
     inkscape:pagecheckerboard="0"
     inkscape:deskcolor="#d1d1d1" />
  <g
     id="g8"
     inkscape:groupmode="layer"
     inkscape:label="ink_ext_XXXXXX"
     transform="matrix(1.3333333,0,0,-1.3333333,0,155.10667)">
    <g
       id="g10"
       transform="scale(0.1)">
      <g
         id="g12">
        <g
           id="g14"
           clip-path="url(#clipPath18)">
          <path
             d="m 641.676,816.871 c -35.356,31.887 -89.903,29.137 -121.809,-6.219 -31.859,-35.359 -29.027,-89.898 6.34,-121.797 35.356,-31.898 89.863,-29.113 121.785,6.239 31.86,35.355 29.039,89.879 -6.316,121.777"
             style="fill:url(#radialGradient24);fill-opacity:1;fill-rule:nonzero;stroke:none"
             id="path26" />
        </g>
      </g>
      <g
         id="g28">
        <g
           id="g30"
           clip-path="url(#clipPath34)">
          <path
             d="m 337.051,1080.79 c -56.414,-42.56 -101.5,-99.333 -129.922,-165.005 34.105,-8.406 136.226,-41.64 183.078,-168.14 14.094,4.593 44.469,22.296 65.547,90.648 28.262,91.512 81.875,179.527 151.406,209.087 -69.336,68.59 -160.687,84.75 -270.109,33.41"
             style="fill:url(#linearGradient40);fill-opacity:1;fill-rule:nonzero;stroke:none"
             id="path42" />
        </g>
      </g>
      <g
         id="g44">
        <g
           id="g46"
           clip-path="url(#clipPath50)">
          <g
             id="g52"
             clip-path="url(#clipPath56)">
            <path
               d="m 709,940 v 1 h -13 v 1 h -8 v 1 h -7 v 1 h -4 v 2 h -1 v 2 h -1 v 2 h -1 v 2 h -1 v 2 h -1 v 2 h -1 v 1 h -1 v 2 h -1 v 2 h -1 v 2 h -1 v 2 h -1 v 2 h -1 v 2 h -1 v 1 h -1 v 2 h -1 v 2 h -1 v 1 h -1 v 2 h -1 v 2 h -1 v 1 h -1 v 2 h -1 v 2 h -1 v 1 h -1 v 2 h -1 v 2 h -1 v 1 h -1 v 2 h -1 v 2 h -1 v 1 h -1 v 2 h -1 v 1 h -1 v 1 h -1 v 2 h -1 v 1 h -1 v 2 h -1 v 1 h -1 v 1 h -1 v 2 h -1 v 1 h -1 v 2 h -1 v 1 h -1 v 1 h -1 v 2 h -1 v 1 h -1 v 2 h -1 v 1 h -1 v 1 h -1 v 1 h -1 v 1 h -1 v 2 h -1 v 1 h -1 v 1 h -1 v 1 h -1 v 1 h -1 v 1 h -1 v 2 h -1 v 1 h -1 v 1 h -1 v 1 h -1 v 1 h -1 v 1 h -1 v 2 h -1 v 1 h -1 v 1 h -1 v 1 h -1 v 1 h -1 v 1 h -1 v 1 h -1 v 1 h -1 v 1 h -1 v 1 h -1 v 1 h -1 v 1 h -1 v 1 h -1 v 1 h -1 v 1 h -1 v 1 h -1 v 1 h -2 v 1 h -1 v 1 h -1 v 1 h -1 v 1 h -1 v 1 h -1 v 1 h -2 v 1 h -1 v 1 h -1 v 1 h -1 v 1 h -2 v 1 h -1 v 1 h -1 v 1 h -1 v 1 h -2 v 1 h -1 v 1 h -1 v 1 h -1 v 1 h -2 v 1 h -1 v 1 h -2 v 1 h -1 v 1 h -2 v 1 h -2 v 1 h -1 v 1 h -2 v 1 h -1 v 1 h -2 v 1 h -1 v 1 h -2 v 1 h -2 v 1 h -2 v 1 h -2 v 1 h -2 v 1 h -2 v 1 h -2 v 1 h -2 v 1 h -2 v 1 h -2 v 1 h -2 v 1 h -2 v 1 h -2 v 1 h -3 v 1 h -3 v 1 h -3 v 1 h -3 v 1 h -2 v 1 h -3 v 1 h -3 v 1 h -4 v 1 h -5 v 1 h -4 v 1 h -4 v 1 h -5 v 1 h -8 v 1 h -10 v 1 h -34 v -1 h -9 v -1 h -8 v -1 h -7 v -1 h -4 v -1 h -5 v -1 h -4 v -1 h -4 v -1 h -5 v -1 h -4 v -1 h -3 v -1 h -3 v -1 h -3 v -1 h -3 v -1 h -3 v -1 h -3 v -1 h -3 v -1 h -3 v -1 h -3 v -1 h -2 v -1 h -3 v -1 h -2 v -1 h -3 v -1 h -2 v -1 h -3 v -1 h -2 v -1 h -3 v -1 h -2 v -1 h -2 v -1 h -2 v -1 h -1 v 2 h 1 v 1 h 1 v 1 h 2 v 1 h 1 v 1 h 2 v 1 h 1 v 1 h 1 v 1 h 2 v 1 h 1 v 1 h 2 v 1 h 1 v 1 h 2 v 1 h 1 v 1 h 2 v 1 h 1 v 1 h 2 v 1 h 1 v 1 h 2 v 1 h 1 v 1 h 2 v 1 h 2 v 1 h 2 v 1 h 1 v 1 h 2 v 1 h 2 v 1 h 1 v 1 h 2 v 1 h 2 v 1 h 2 v 1 h 1 v 1 h 2 v 1 h 2 v 1 h 1 v 1 h 2 v 1 h 2 v 1 h 2 v 1 h 2 v 1 h 2 v 1 h 2 v 1 h 2 v 1 h 2 v 1 h 3 v 1 h 2 v 1 h 2 v 1 h 2 v 1 h 2 v 1 h 2 v 1 h 2 v 1 h 2 v 1 h 3 v 1 h 2 v 1 h 3 v 1 h 3 v 1 h 2 v 1 h 3 v 1 h 2 v 1 h 3 v 1 h 3 v 1 h 2 v 1 h 3 v 1 h 3 v 1 h 3 v 1 h 3 v 1 h 4 v 1 h 3 v 1 h 4 v 1 h 3 v 1 h 3 v 1 h 4 v 1 h 3 v 1 h 5 v 1 h 5 v 1 h 5 v 1 h 4 v 1 h 5 v 1 h 5 v 1 h 6 v 1 h 8 v 1 h 8 v 1 h 8 v 1 h 9 v 1 h 65 v -1 h 11 v -1 h 9 v -1 h 7 v -1 h 7 v -1 h 6 v -1 h 5 v -1 h 5 v -1 h 5 v -1 h 5 v -1 h 4 v -1 h 4 v -1 h 4 v -1 h 4 v -1 h 4 v -1 h 3 v -1 h 3 v -1 h 4 v -1 h 3 v -1 h 3 v -1 h 3 v -1 h 3 v -1 h 3 v -1 h 3 v -1 h 2 v -1 h 3 v -1 h 3 v -1 h 2 v -1 h 3 v -1 h 2 v -1 h 3 v -1 h 2 v -1 h 2 v -1 h 3 v -1 h 2 v -1 h 2 v -1 h 2 v -1 h 3 v -1 h 2 v -1 h 2 v -1 h 2 v -1 h 2 v -1 h 2 v -1 h 2 v -1 h 2 v -1 h 2 v -1 h 2 v -1 h 2 v -1 h 2 v -1 h 1 v -1 h 2 v -1 h 2 v -1 h 2 v -1 h 1 v -1 h 2 v -1 h 2 v -1 h 1 v -1 h 2 v -1 h 2 v -1 h 2 v -1 h 1 v -1 h 2 v -1 h 1 v -1 h 2 v -1 h 1 v -1 h 2 v -1 h 1 v -1 h 2 v -1 h 1 v -1 h 2 v -1 h 2 v -1 h 1 v -1 h 2 v -1 h 1 v -1 h 1 v -1 h 2 v -1 h 1 v -1 h 1 v -1 h 2 v -1 h 1 v -1 h 1 v -1 h 2 v -1 h 1 v -1 h 1 v -1 h 2 v -1 h 1 v -1 h 2 v -1 h 1 v -1 h 1 v -1 h 1 v -1 h 1 v -1 h 2 v -1 h 1 v -1 h 1 v -1 h 1 v -1 h 1 v -1 h 2 v -1 h 1 v -1 h 1 v -1 h 1 v -1 h 1 v -1 h 2 v -1 h 1 v -1 h 1 v -1 h 1 v -1 h 1 v -1 h 1 v -1 h 1 v -1 h 1 v -1 h 1 v -1 h 1 v -1 h 1 v -1 h 1 v -1 h 2 v -1 h 1 v -1 h 1 v -1 h 1 v -1 h 1 v -1 h 1 v -1 h 1 v -1 h 1 v -1 h 1 v -1 h 1 v -2 h 1 v -1 h 1 v -1 h 1 v -1 h 1 v -1 h 1 v -1 h 1 v -1 h 1 v -1 h 1 v -1 h 1 v -1 h 1 v -1 h 1 v -1 h 1 v -1 h 1 v -1 h 1 v -2 h 1 v -1 h 1 v -1 h 1 v -1 h 1 v -1 h 1 v -1 h 1 v -1 h 1 v -2 h 1 v -1 h 1 v -1 h -1 v -1 h -1 v -1 h -1 v -1 h -1 v -1 h -1 v -1 h -1 v -1 h -1 v -1 h -1 v -1 h -1 v -1 h -1 v -1 h -1 v -1 h -1 v -1 h -1 v -1 h -1 v -1 h -1 v -1 h -2 v -1 h -1 v -1 h -1 v -1 h -1 v -1 h -1 v -1 h -1 v -1 h -2 v -1 h -1 v -1 h -1 v -1 h -2 v -1 h -1 v -1 h -1 v -1 h -2 v -1 h -1 v -1 h -1 v -1 h -2 v -1 h -1 v -1 h -2 v -1 h -1 v -1 h -2 v -1 h -1 v -1 h -2 v -1 h -1 v -1 h -2 v -1 h -2 v -1 h -1 v -1 h -2 v -1 h -2 v -1 h -2 v -1 h -1 v -1 h -2 v -1 h -2 v -1 h -2 v -1 h -2 v -1 h -2 v -1 h -2 v -1 h -2 v -1 h -2 v -1 h -3 v -1 h -2 v -1 h -2 v -1 h -3 v -1 h -2 v -1 h -3 v -1 h -3 v -1 h -2 v -1 h -3 v -1 h -3 v -1 h -4 v -1 h -3 v -1 h -3 v -1 h -4 v -1 h -4 v -1 h -5 v -1 h -4 v -1 h -6 v -1 h -6 v -1 h -8 v -1 h -11 v -1"
               style="fill:url(#linearGradient62);fill-opacity:1;fill-rule:nonzero;stroke:none"
               id="path64" />
          </g>
        </g>
      </g>
      <g
         id="g66">
        <g
           id="g68"
           clip-path="url(#clipPath72)">
          <path
             d="m 423.438,375.133 c 65.058,-27.586 136.769,-38.246 207.847,-30.028 -9.773,33.747 -32.055,138.809 54.063,242.637 -11.024,9.906 -41.543,27.367 -111.27,11.446 -93.375,-21.282 -196.402,-18.852 -256.762,26.589 -24.734,-94.351 6.957,-181.543 106.122,-250.644"
             style="fill:url(#linearGradient78);fill-opacity:1;fill-rule:nonzero;stroke:none"
             id="path80" />
        </g>
      </g>
      <g
         id="g82">
        <g
           id="g84"
           clip-path="url(#clipPath88)">
          <path
             d="m 199.242,895.82 c -0.008,0 -0.019,0.004 -0.027,0.004 C 158.195,785.211 164.93,657.836 228.52,547.684 274.859,467.414 344.219,408.723 423.441,375.133 285.77,471.059 278.148,601.855 370.992,738.254 331.629,847.402 243.645,886.16 199.242,895.82"
             style="fill:url(#linearGradient94);fill-opacity:1;fill-rule:nonzero;stroke:none"
             id="path96" />
        </g>
      </g>
      <g
         id="g98">
        <g
           id="g100"
           clip-path="url(#clipPath104)">
          <path
             d="m 991.309,802.777 c -8.637,70.141 -35.262,137.578 -77.922,195.032 -24.332,-25.336 -104.172,-97.168 -237.141,-74.496 -3.07,-14.5 -2.926,-49.665 45.723,-102.094 65.117,-70.235 114.527,-160.68 105.355,-235.672 94.071,25.75 153.731,96.793 163.985,217.23"
             style="fill:url(#linearGradient110);fill-opacity:1;fill-rule:nonzero;stroke:none"
             id="path112" />
        </g>
      </g>
      <g
         id="g114">
        <g
           id="g116"
           clip-path="url(#clipPath120)">
          <path
             d="m 652.516,348.262 c 0.004,-0.012 0.007,-0.02 0.011,-0.028 116.293,19.782 223.231,89.297 286.821,199.45 46.34,80.269 62.482,169.687 51.961,255.097 C 977.074,635.582 867.625,563.582 703.086,575.793 628.254,487.129 638.68,391.543 652.516,348.262"
             style="fill:url(#linearGradient126);fill-opacity:1;fill-rule:nonzero;stroke:none"
             id="path128" />
        </g>
      </g>
      <path
         d="m 34.4336,85.0195 h 19.207 c 10.6172,0 18.8907,2.0703 24.8282,6.211 5.9296,4.1289 8.8984,10.5785 8.8984,19.3205 0,9.219 -2.8906,15.73 -8.668,19.558 -5.7773,3.832 -14.0508,5.743 -24.8281,5.743 H 34.4336 Z M 35.1367,2.80859 H 0 V 166.77 h 56.4492 c 10.3086,0 19.5938,-1.094 27.875,-3.282 8.2735,-2.187 15.3399,-5.5 21.1958,-9.957 5.855,-4.441 10.343,-10.152 13.468,-17.101 3.121,-6.942 4.688,-15.102 4.688,-24.469 0,-9.223 -1.606,-17.4102 -4.805,-24.6016 C 115.672,80.1797 111.027,74.1289 104.934,69.2109 98.8438,64.2891 91.4297,60.5508 82.6836,57.9688 73.9375,55.3906 64.1016,54.1016 53.1719,54.1016 H 35.1367 V 2.80859"
         style="fill:#393536;fill-opacity:1;fill-rule:nonzero;stroke:none"
         id="path130" />
      <path
         d="m 231.184,30.9219 c 5.929,0 11.394,1.0898 16.394,3.2773 4.996,2.1797 9.285,5.5 12.883,9.9492 3.59,4.4532 6.359,10.0313 8.316,16.75 1.95,6.711 2.926,14.6719 2.926,23.8907 0,18.5819 -3.906,32.1989 -11.711,40.8709 -7.808,8.668 -18.113,13 -30.918,13 -5.781,0 -11.207,-1.09 -16.281,-3.281 -5.074,-2.188 -9.484,-5.5 -13.23,-9.949 -3.747,-4.45 -6.676,-10.078 -8.786,-16.871 -2.105,-6.789 -3.164,-14.7192 -3.164,-23.7699 0,-9.2188 1.133,-17.1797 3.399,-23.8907 2.265,-6.7187 5.347,-12.2968 9.25,-16.75 3.902,-4.4492 8.511,-7.7695 13.82,-9.9492 5.309,-2.1875 11.012,-3.2773 17.102,-3.2773 z M 230.012,0 c -11.871,0 -22.684,1.83984 -32.442,5.5 -9.761,3.67188 -18.152,9.1016 -25.179,16.2813 -7.028,7.1796 -12.457,16.039 -16.282,26.5898 -3.828,10.5391 -5.734,22.6797 -5.734,36.418 0,13.7422 1.988,25.8829 5.973,36.4219 3.98,10.539 9.484,19.398 16.511,26.578 7.028,7.191 15.344,12.621 24.95,16.285 9.597,3.668 20.019,5.504 31.265,5.504 12.649,0 23.93,-1.953 33.848,-5.855 9.914,-3.903 18.269,-9.485 25.058,-16.743 6.797,-7.269 11.985,-16.171 15.583,-26.71 3.585,-10.54 5.382,-22.3598 5.382,-35.4809 0,-14.5196 -1.988,-27.1289 -5.972,-37.8282 C 298.992,36.2617 293.445,27.4414 286.344,20.4883 279.238,13.5391 270.887,8.39063 261.281,5.03125 251.676,1.67969 241.254,0 230.012,0"
         style="fill:#393536;fill-opacity:1;fill-rule:nonzero;stroke:none"
         id="path132" />
      <path
         d="m 466.348,9.30078 c -2.192,-1.08984 -4.567,-2.17187 -7.145,-3.25 C 456.629,4.96094 453.578,3.94922 450.066,3.01953 446.555,2.08984 442.492,1.35156 437.891,0.808594 433.281,0.269531 428.012,0 422.074,0 c -12.492,0 -23.851,1.78906 -34.078,5.37891 -10.223,3.60156 -18.969,8.85939 -26.23,15.82029 -7.266,6.9414 -12.883,15.5703 -16.864,25.8789 -3.984,10.3008 -5.976,22.1719 -5.976,35.6016 0,14.0508 1.992,26.5003 5.976,37.3593 3.981,10.852 9.719,19.949 17.215,27.289 7.496,7.344 16.59,12.883 27.285,16.629 10.7,3.746 22.762,5.621 36.192,5.621 8.898,0 16.898,-0.785 24.008,-2.34 7.105,-1.562 12.839,-3.359 17.214,-5.386 l -7.73,-29.512 c -5,1.711 -10.074,2.961 -15.227,3.75 -5.152,0.769 -9.601,1.16 -13.351,1.16 -8.121,0 -15.496,-1.012 -22.129,-3.051 -6.641,-2.027 -12.344,-5.199 -17.102,-9.5 -4.769,-4.308 -8.472,-9.789 -11.129,-16.437 -2.656,-6.653 -3.976,-14.512 -3.976,-23.5901 0,-17.3711 4.871,-30.4414 14.641,-39.2031 9.753,-8.7696 22.91,-13.1485 39.46,-13.1485 3.754,0 8.274,0.5 13.586,1.5195 5.313,1.0196 10.465,2.6211 15.465,4.8008 l 7.024,-29.33982"
         style="fill:#393536;fill-opacity:1;fill-rule:nonzero;stroke:none"
         id="path134" />
      <path
         d="M 546.449,69.5586 H 590.25 L 568.469,138.43 Z m 53.403,-30.918 H 536.844 L 525.133,2.80859 H 490.469 L 546.449,166.77 h 45.672 L 647.402,2.80859 H 611.563 L 599.852,38.6406"
         style="fill:#393536;fill-opacity:1;fill-rule:nonzero;stroke:none"
         id="path136" />
      <path
         d="M 727.281,2.80859 H 692.145 V 134.449 H 645.527 V 166.77 H 773.656 V 134.449 H 727.281 V 2.80859"
         style="fill:#393536;fill-opacity:1;fill-rule:nonzero;stroke:none"
         id="path138" />
      <path
         d="m 870.859,30.9219 c 5.934,0 11.395,1.0898 16.395,3.2773 5,2.1797 9.289,5.5 12.879,9.9492 3.594,4.4532 6.363,10.0313 8.32,16.75 1.953,6.711 2.93,14.6719 2.93,23.8907 0,18.5819 -3.906,32.1989 -11.711,40.8709 -7.813,8.668 -18.121,13 -30.922,13 -5.777,0 -11.207,-1.09 -16.281,-3.281 -5.071,-2.188 -9.485,-5.5 -13.231,-9.949 -3.75,-4.45 -6.679,-10.078 -8.785,-16.871 -2.109,-6.789 -3.16,-14.7192 -3.16,-23.7699 0,-9.2188 1.129,-17.1797 3.395,-23.8907 2.261,-6.7187 5.351,-12.2968 9.253,-16.75 3.899,-4.4492 8.504,-7.7695 13.817,-9.9492 5.305,-2.1875 11.008,-3.2773 17.101,-3.2773 z M 869.688,0 c -11.868,0 -22.68,1.83984 -32.442,5.5 -9.758,3.67188 -18.152,9.1016 -25.176,16.2813 -7.031,7.1796 -12.457,16.039 -16.277,26.5898 -3.832,10.5391 -5.746,22.6797 -5.746,36.418 0,13.7422 1.992,25.8829 5.976,36.4219 3.985,10.539 9.489,19.398 16.512,26.578 7.024,7.191 15.344,12.621 24.945,16.285 9.606,3.668 20.028,5.504 31.27,5.504 12.648,0 23.93,-1.953 33.848,-5.855 9.914,-3.903 18.269,-9.485 25.062,-16.743 6.793,-7.269 11.977,-16.171 15.578,-26.71 3.59,-10.54 5.383,-22.3598 5.383,-35.4809 0,-14.5196 -1.992,-27.1289 -5.969,-37.8282 C 938.668,36.2617 933.125,27.4414 926.02,20.4883 918.91,13.5391 910.559,8.39063 900.957,5.03125 891.352,1.67969 880.934,0 869.688,0"
         style="fill:#393536;fill-opacity:1;fill-rule:nonzero;stroke:none"
         id="path140" />
      <path
         d="M 1167.87,2.80859 H 1132.5 L 1123.59,111.73 1089.87,2.80859 h -33.5 L 1023.11,111.25 1014.21,2.80859 H 978.844 L 995.234,166.77 h 41.926 l 37.01,-123.6684 36.54,123.6684 h 40.52 L 1167.87,2.80859"
         style="fill:#393536;fill-opacity:1;fill-rule:nonzero;stroke:none"
         id="path142" />
    </g>
  </g>
</svg>
