<?xml version="1.0" encoding="utf-8"?>
<!-- Generator: Adobe Illustrator 28.1.0, SVG Export Plug-In . SVG Version: 6.00 Build 0)  -->
<svg version="1.1"
	 id="svg2" xmlns:svg="http://www.w3.org/2000/svg" xmlns:inkscape="http://www.inkscape.org/namespaces/inkscape" xmlns:sodipodi="http://sodipodi.sourceforge.net/DTD/sodipodi-0.dtd"
	 xmlns="http://www.w3.org/2000/svg" xmlns:xlink="http://www.w3.org/1999/xlink" x="0px" y="0px" viewBox="0 0 737.4 283.9"
	 style="enable-background:new 0 0 737.4 283.9;" xml:space="preserve">
<style type="text/css">
	.st0{clip-path:url(#SVGID_00000011752007828844606310000006411961300524717750_);}
	.st1{fill:#191817;}
	.st2{fill:#01A09F;}
</style>
<sodipodi:namedview  bordercolor="#000000" borderopacity="0.25" id="namedview4" inkscape:deskcolor="#d1d1d1" inkscape:pagecheckerboard="0" inkscape:pageopacity="0.0" inkscape:showpageshadow="2" pagecolor="#ffffff">
	</sodipodi:namedview>
<g id="g8" transform="matrix(1.3333333,0,0,-1.3333333,0,1096.0627)" inkscape:groupmode="layer" inkscape:label="–°–Ґ–Ґ –Ы–Ю–У–Ю (1)">
	<g id="g10">
		<g>
			<defs>
				<rect id="SVGID_1_" x="-108.5" y="167.3" width="774.8" height="1096.1"/>
			</defs>
			<clipPath id="SVGID_00000003827937265265428420000007085243076832486286_">
				<use xlink:href="#SVGID_1_"  style="overflow:visible;"/>
			</clipPath>
			<g id="g12" style="clip-path:url(#SVGID_00000003827937265265428420000007085243076832486286_);">
				<g id="g18" transform="translate(157.646,375.3879)">
					<path id="path20" class="st1" d="M-11.7,304.3l-29.5-40c-39.7,2.4-71.2,35.4-71.2,75.7c0,9.6,1.8,18.7,5,27.1h-12
						c-2.8-8.5-4.4-17.6-4.4-27.1c0-43.8,32.5-80.2,74.7-86.2c4.1-0.6,8.2-0.9,12.5-0.9c6.3,0,12.5,0.7,18.4,2l36.5,49.4H-11.7z
						 M18.4,312.9h-30l-40,54.2l20,27.1h30l-20-27.1L18.4,312.9z"/>
				</g>
				<g id="g22" transform="translate(107.9319,446.8653)">
					<path id="path24" class="st2" d="M-11.7,304.3l29.5,40c39.7-2.4,71.2-35.4,71.2-75.7c0-9.6-1.8-18.7-5-27.1h12
						c2.8,8.5,4.4,17.6,4.4,27.1c0,43.8-32.5,80.2-74.7,86.2c-4.1,0.6-8.2,0.9-12.5,0.9c-6.3,0-12.5-0.7-18.4-2l-36.5-49.4H-11.7z
						 M-41.7,295.6h30l40-54.2l-20-27.1h-30l20,27.1L-41.7,295.6z"/>
				</g>
				<g id="g26" transform="translate(267.1625,458.6769)">
					<path id="path28" class="st1" d="M-11.7,304.3c0,4.2,0.9,7.4,2.8,9.4c1.8,2,4.3,3.1,7.4,3.1c3,0,5.2-0.8,6.9-2.4
						s2.5-3.8,2.5-6.7v-3.3h-6v3.7c0,1.3-0.3,2.2-0.8,2.9c-0.5,0.7-1.4,1-2.5,1c-1.2,0-2.2-0.5-2.8-1.5c-0.7-1-1-2.5-1-4.6v-10.4
						c0-2.2,0.3-3.7,1-4.7c0.7-1,1.6-1.5,2.8-1.5c1.1,0,1.9,0.3,2.5,1c0.5,0.7,0.8,1.7,0.8,3.1l0,3.4h5.9v-3c0-2.9-0.9-5.1-2.5-6.8
						c-1.6-1.6-3.9-2.4-6.9-2.4c-3.1,0-5.6,1-7.4,3.1c-1.8,2-2.7,5.2-2.7,9.4V304.3z"/>
				</g>
				<g id="g30" transform="translate(297.0264,445.1411)">
					<path id="path32" class="st1" d="M-11.7,304.3c0.7-1,1.6-1.5,2.9-1.5c1.2,0,2.2,0.5,2.9,1.5c0.7,1,1.1,2.6,1.1,4.9v10
						c0,2.2-0.4,3.9-1.1,4.8c-0.7,1-1.7,1.5-2.9,1.5c-1.2,0-2.2-0.5-2.9-1.5c-0.7-1-1-2.6-1-4.8v-10
						C-12.7,306.9-12.4,305.2-11.7,304.3 M-19,317.9c0,4.3,0.9,7.4,2.8,9.4s4.3,3,7.4,3c3.1,0,5.6-1,7.5-3c1.9-2,2.8-5.1,2.8-9.4
						v-7.2c0-4.2-0.9-7.4-2.8-9.5c-1.9-2.1-4.4-3.1-7.4-3.1c-3.1,0-5.5,1-7.4,3.1c-1.9,2.1-2.8,5.2-2.8,9.5V317.9z"/>
				</g>
				<g id="g34" transform="translate(323.0453,443.8952)">
					<path id="path36" class="st1" d="M-11.7,304.3c1.1,0,1.9,0.4,2.4,1.1c0.5,0.7,0.7,2,0.7,3.8c0,1.7-0.3,2.9-0.8,3.7
						c-0.5,0.7-1.3,1.1-2.3,1.1h-2.9v-9.6H-11.7z M-12.1,317.7c1.1,0,1.8,0.3,2.3,1c0.5,0.6,0.7,1.8,0.7,3.4c0,1.7-0.2,2.9-0.7,3.5
						c-0.4,0.6-1.2,0.9-2.2,0.9h-2.6v-8.7H-12.1z M-20.5,331.1h9.3c2.6,0,4.5-0.7,5.9-2c1.4-1.3,2-3.3,2-6c0-2.1-0.3-3.6-1-4.7
						c-0.6-1-1.5-1.8-2.5-2.1v-0.1c1.3-0.3,2.3-1.1,3.1-2.3c0.8-1.2,1.2-2.9,1.2-5.2c0-3-0.8-5.2-2.3-6.7c-1.5-1.5-3.6-2.2-6.3-2.2
						h-9.5L-20.5,331.1z"/>
				</g>
				<g id="g38" transform="translate(344.6587,454.5306)">
					<path id="path40" class="st1" d="M-11.7,304.3c1.2,0,2,0.4,2.5,1.2c0.5,0.8,0.7,2.3,0.7,4.5c0,2.1-0.2,3.5-0.7,4.4
						c-0.5,0.9-1.3,1.3-2.5,1.3h-2.7v-11.3H-11.7z M-20.4,320.4h9.6c2.8,0,4.9-0.9,6.3-2.6c1.4-1.7,2.1-4.3,2.1-7.8
						c0-3.5-0.7-6.1-2.2-7.8c-1.5-1.7-3.5-2.6-6.3-2.6h-3.5v-10.5h-6.1V320.4z"/>
				</g>
				<g id="g42" transform="translate(357.2902,470.6878)">
					<path id="path44" class="st1" d="M-11.7,304.3H3.8v-5.1h-9.6v-7.7h8.3v-5h-8.3v-8.4h9.9V273h-15.7V304.3z"/>
				</g>
				<g id="g46" transform="translate(376.6262,470.6878)">
					<path id="path48" class="st1" d="M-11.7,304.3h7.7l4.7-19.6c0.1-0.4,0.2-0.7,0.3-1.1c0.1-0.4,0.1-0.7,0.2-1.1h0.1
						c0.1,0.4,0.2,0.7,0.2,1.1c0.1,0.4,0.2,0.7,0.3,1.1l4.8,19.6h7.8l0.4-31.3h-6l0,17.7c0,0.4,0,0.9,0,1.6c0,0.7,0,1.3,0,1.7H8.7
						c-0.1-0.4-0.2-1-0.3-1.7c-0.1-0.7-0.2-1.2-0.3-1.6L3.9,273h-5.4l-4.2,17.7c-0.1,0.4-0.2,0.9-0.3,1.6c-0.1,0.7-0.2,1.3-0.2,1.6
						h-0.1c0-0.3,0-0.8,0-1.6c0-0.7,0-1.3,0-1.7L-6.4,273H-12L-11.7,304.3z"/>
				</g>
				<g id="g50" transform="translate(407.6925,470.6878)">
					<path id="path52" class="st1" d="M-11.7,304.3H3.8v-5.1h-9.6v-7.7h8.3v-5h-8.3v-8.4h9.9V273h-15.7V304.3z"/>
				</g>
				<g id="g54" transform="translate(426.6844,470.6878)">
					<path id="path56" class="st1" d="M-11.7,304.3h6.1v-12.4h6.9v12.4h6.1V273H1.3v13.5h-6.9V273h-6.1V304.3z"/>
				</g>
				<g id="g58" transform="translate(450.3823,470.6878)">
					<path id="path60" class="st1" d="M-11.7,304.3h6.1v-12.4h6.9v12.4h6.1V273H1.3v13.5h-6.9V273h-6.1V304.3z"/>
				</g>
				<path id="path62" class="st1" d="M482.2,743.7h6.1V775h-6.1V743.7z M468.5,759.1v-10.7h2.5c1.2,0,2,0.4,2.5,1.2
					c0.5,0.8,0.7,2.2,0.7,4.2c0,2-0.2,3.5-0.7,4.2c-0.5,0.8-1.3,1.1-2.5,1.1H468.5z M462.4,775h6.1v-11.2h3.4c2.9,0,5-0.8,6.4-2.5
					c1.4-1.7,2.1-4.2,2.1-7.5c0-3.4-0.7-5.9-2.1-7.6c-1.4-1.7-3.5-2.5-6.4-2.5h-9.5V775z"/>
				<g id="g64" transform="translate(504.6742,470.6878)">
					<path id="path66" class="st1" d="M-11.7,304.3H3.8v-5.1h-9.6v-7.7h8.3v-5h-8.3v-8.4h9.9V273h-15.7V304.3z"/>
				</g>
				<g id="g68" transform="translate(266.132,418.1051)">
					<path id="path70" class="st1" d="M-11.7,304.3H7v-5.1H0.7V273h-6.2v26.1h-6.2V304.3z"/>
				</g>
				<g id="g72" transform="translate(296.468,401.9478)">
					<path id="path74" class="st1" d="M-11.7,304.3c1.2,0,2,0.4,2.5,1.2c0.5,0.8,0.7,2.3,0.7,4.5c0,2.1-0.2,3.5-0.7,4.4
						c-0.5,0.9-1.3,1.3-2.5,1.3h-2.7v-11.3H-11.7z M-20.4,320.4h9.6c2.8,0,4.9-0.9,6.3-2.6c1.4-1.7,2.1-4.3,2.1-7.8
						c0-3.5-0.7-6.1-2.2-7.8c-1.5-1.7-3.5-2.6-6.3-2.6h-3.5v-10.5h-6.1V320.4z"/>
				</g>
				<g id="g76" transform="translate(312.324,398.0603)">
					<path id="path78" class="st1" d="M-11.7,304.3h10.9l0.8-4.4h-12.5L-11.7,304.3z M-9.7,324.4h7.1L4.7,293h-6.1l-4.3,19.7
						c-0.1,0.6-0.2,1.3-0.3,2.1c-0.1,0.8-0.2,1.4-0.3,1.8h-0.1c-0.1-0.4-0.2-1-0.2-1.8c-0.1-0.8-0.2-1.5-0.3-2.1l-4.1-19.7h-5.9
						L-9.7,324.4z"/>
				</g>
				<g id="g80" transform="translate(331.1654,418.1051)">
					<path id="path82" class="st1" d="M-11.7,304.3h6.1v-12.4h6.9v12.4h6.1V273H1.3v13.5h-6.9V273h-6.1V304.3z"/>
				</g>
				<g id="g84" transform="translate(354.2167,406.0944)">
					<path id="path86" class="st1" d="M-11.7,304.3c0,4.2,0.9,7.4,2.8,9.4c1.8,2,4.3,3,7.4,3c3,0,5.2-0.8,6.9-2.4s2.5-3.8,2.5-6.7
						v-3.3h-6v3.7c0,1.3-0.3,2.2-0.8,2.9c-0.5,0.7-1.4,1-2.5,1c-1.2,0-2.2-0.5-2.8-1.5c-0.7-1-1-2.5-1-4.6v-10.4
						c0-2.2,0.3-3.7,1-4.7c0.7-1,1.6-1.5,2.8-1.5c1.1,0,1.9,0.3,2.5,1c0.5,0.7,0.8,1.7,0.8,3.1l0,3.4h5.9v-3c0-2.9-0.9-5.1-2.5-6.8
						c-1.6-1.6-3.9-2.4-6.9-2.4c-3.1,0-5.6,1-7.4,3c-1.8,2-2.7,5.2-2.7,9.4V304.3z"/>
				</g>
				<g id="g88" transform="translate(377.3775,418.1051)">
					<path id="path90" class="st1" d="M-11.7,304.3H7.2V273h-6v26.1h-6.7V273h-6.1V304.3z"/>
				</g>
				<g id="g92" transform="translate(407.6278,392.5586)">
					<path id="path94" class="st1" d="M-11.7,304.3c0.7-1,1.6-1.5,2.9-1.5c1.2,0,2.2,0.5,2.9,1.5c0.7,1,1.1,2.6,1.1,4.9v10
						c0,2.2-0.4,3.9-1.1,4.8c-0.7,1-1.7,1.5-2.9,1.5c-1.2,0-2.2-0.5-2.9-1.5c-0.7-1-1-2.6-1-4.8v-10
						C-12.7,306.9-12.4,305.2-11.7,304.3 M-19,317.9c0,4.3,0.9,7.4,2.8,9.4s4.3,3,7.4,3c3.1,0,5.6-1,7.5-3c1.9-2,2.8-5.1,2.8-9.4
						v-7.2c0-4.2-0.9-7.4-2.8-9.5c-1.9-2.1-4.4-3.1-7.4-3.1c-3.1,0-5.5,1-7.4,3.1c-1.9,2.1-2.8,5.2-2.8,9.5V317.9z"/>
				</g>
				<g id="g96" transform="translate(433.5608,401.9478)">
					<path id="path98" class="st1" d="M-11.7,304.3c1.2,0,2,0.4,2.5,1.2c0.5,0.8,0.7,2.3,0.7,4.5c0,2.1-0.2,3.5-0.7,4.4
						c-0.5,0.9-1.3,1.3-2.5,1.3h-2.7v-11.3H-11.7z M-20.4,320.4h9.6c2.8,0,4.9-0.9,6.3-2.6c1.4-1.7,2.1-4.3,2.1-7.8
						c0-3.5-0.7-6.1-2.2-7.8c-1.5-1.7-3.5-2.6-6.3-2.6h-3.5v-10.5h-6.1V320.4z"/>
				</g>
				<g id="g100" transform="translate(444.5165,418.1051)">
					<path id="path102" class="st1" d="M-11.7,304.3H7v-5.1H0.7V273h-6.2v26.1h-6.2V304.3z"/>
				</g>
				<g id="g104" transform="translate(466.1074,418.1051)">
					<path id="path106" class="st1" d="M-11.7,304.3h6.1v-12.4h6.9v12.4h6.1V273H1.3v13.5h-6.9V273h-6.1V304.3z"/>
				</g>
				<path id="path108" class="st1" d="M497.9,691.1h6.1v31.3h-6.1L497.9,691.1z M484.2,706.5v-10.7h2.5c1.2,0,2,0.4,2.5,1.2
					c0.5,0.8,0.7,2.2,0.7,4.2c0,2-0.2,3.5-0.7,4.2c-0.5,0.8-1.3,1.1-2.5,1.1H484.2z M478.1,722.4h6.1v-11.2h3.4c2.9,0,5-0.8,6.4-2.5
					c1.4-1.7,2.1-4.2,2.1-7.5c0-3.4-0.7-5.9-2.1-7.6c-1.4-1.7-3.5-2.5-6.4-2.5h-9.5L478.1,722.4z"/>
				<g id="g110" transform="translate(520.3995,418.1051)">
					<path id="path112" class="st1" d="M-11.7,304.3H3.8v-5.1h-9.6v-7.7h8.3v-5h-8.3v-8.4h9.9V273h-15.7V304.3z"/>
				</g>
				<g id="g114" transform="translate(266.132,365.5224)">
					<path id="path116" class="st1" d="M-11.7,304.3H7v-5.1H0.7V273h-6.2v26.1h-6.2V304.3z"/>
				</g>
				<g id="g118" transform="translate(287.7229,365.5224)">
					<path id="path120" class="st1" d="M-11.7,304.3H3.8v-5.1h-9.6v-7.7h8.3v-5h-8.3v-8.4h9.9V273h-15.7V304.3z"/>
				</g>
				<g id="g122" transform="translate(311.5491,365.5448)">
					<path id="path124" class="st1" d="M-11.7,304.3l5.4-12.8h0.3L2,273h-6.6l-5.7,13.9h-0.3l-7.6,17.4L-11.7,304.3z M-10.3,291.5h1
						l5.3,12.7h5.7l-7.8-17.7h-1l-5.7-13.6h-5.8L-10.3,291.5z"/>
				</g>
				<g id="g126" transform="translate(327.9421,365.5224)">
					<path id="path128" class="st1" d="M-11.7,304.3h6.1v-12.4h6.9v12.4h6.1V273H1.3v13.5h-6.9V273h-6.1V304.3z"/>
				</g>
				<g id="g130" transform="translate(358.342,339.9758)">
					<path id="path132" class="st1" d="M-11.7,304.3c0.7-1,1.6-1.5,2.9-1.5c1.2,0,2.2,0.5,2.9,1.5c0.7,1,1.1,2.6,1.1,4.9v10
						c0,2.2-0.4,3.9-1.1,4.8c-0.7,1-1.7,1.5-2.9,1.5c-1.2,0-2.2-0.5-2.9-1.5c-0.7-1-1-2.6-1-4.8v-10
						C-12.7,306.9-12.4,305.2-11.7,304.3 M-19,317.9c0,4.3,0.9,7.4,2.8,9.4c1.9,2,4.3,3,7.4,3c3.1,0,5.6-1,7.5-3
						c1.9-2,2.8-5.1,2.8-9.4v-7.2c0-4.2-0.9-7.4-2.8-9.5c-1.9-2.1-4.4-3.1-7.4-3.1c-3.1,0-5.5,1-7.4,3.1c-1.9,2.1-2.8,5.2-2.8,9.5
						V317.9z"/>
				</g>
				<g id="g134" transform="translate(394.8244,365.5224)">
					<path id="path136" class="st1" d="M-11.7,304.3V273h-6.1v26.1h-5.1l-0.6-15c-0.2-3.9-0.7-6.8-1.6-8.7s-2.7-2.8-5.3-2.8
						c-0.5,0-0.9,0-1.3,0.1c-0.4,0.1-0.8,0.1-1.1,0.2v5.9c0.2-0.1,0.4-0.1,0.5-0.1c0.2,0,0.3,0,0.5,0c1.1,0,1.8,0.5,2.2,1.4
						c0.4,1,0.6,2.6,0.7,4.8l0.8,19.3H-11.7z"/>
				</g>
				<g id="g138" transform="translate(406.1887,339.9758)">
					<path id="path140" class="st1" d="M-11.7,304.3c0.7-1,1.6-1.5,2.9-1.5c1.2,0,2.2,0.5,2.9,1.5c0.7,1,1.1,2.6,1.1,4.9v10
						c0,2.2-0.4,3.9-1.1,4.8c-0.7,1-1.7,1.5-2.9,1.5c-1.2,0-2.2-0.5-2.9-1.5c-0.7-1-1-2.6-1-4.8v-10
						C-12.7,306.9-12.4,305.2-11.7,304.3 M-19,317.9c0,4.3,0.9,7.4,2.8,9.4c1.9,2,4.3,3,7.4,3c3.1,0,5.6-1,7.5-3
						c1.9-2,2.8-5.1,2.8-9.4v-7.2c0-4.2-0.9-7.4-2.8-9.5c-1.9-2.1-4.4-3.1-7.4-3.1c-3.1,0-5.5,1-7.4,3.1c-1.9,2.1-2.8,5.2-2.8,9.5
						V317.9z"/>
				</g>
				<g id="g142" transform="translate(423.3754,365.5224)">
					<path id="path144" class="st1" d="M-11.7,304.3H3v-5.2h-8.6V273h-6.1V304.3z"/>
				</g>
				<g id="g146" transform="translate(454.5501,334.2394)">
					<path id="path148" class="st1" d="M-11.7,304.3l0,17.7c0,0.5,0,1,0,1.6c0,0.6,0,1.1,0.1,1.5h-0.1c-0.1-0.4-0.2-0.9-0.4-1.4
						c-0.1-0.5-0.3-1-0.5-1.5l-5.8-17.9h-6.7v31.3h6l0-17.7c0-0.4,0-0.9,0-1.6c0-0.6,0-1.1,0-1.5h0.1c0.1,0.5,0.2,1,0.4,1.5
						c0.2,0.5,0.3,1,0.5,1.4l5.8,17.9h6.7v-31.3H-11.7z"/>
				</g>
				<g id="g150" transform="translate(478.5917,334.2394)">
					<path id="path152" class="st1" d="M-11.7,304.3l0,17.7c0,0.5,0,1,0,1.6c0,0.6,0,1.1,0.1,1.5h-0.1c-0.1-0.4-0.2-0.9-0.4-1.4
						c-0.1-0.5-0.3-1-0.5-1.5l-5.8-17.9h-6.7v31.3h6l0-17.7c0-0.4,0-0.9,0-1.6c0-0.6,0-1.1,0-1.5h0.1c0.1,0.5,0.2,1,0.4,1.5
						c0.2,0.5,0.3,1,0.5,1.4l5.8,17.9h6.7v-31.3H-11.7z"/>
				</g>
			</g>
		</g>
	</g>
</g>
</svg>
