<svg width="200" height="60" viewBox="0 0 200 60" fill="none" xmlns="http://www.w3.org/2000/svg">
<path d="M159.333 18.3828L160.841 16.8778L159.333 15.3727V13.2439H157.2L155.692 11.7388L154.183 13.2439H152.051V15.3727L150.543 16.8778L152.051 18.3828V20.5116H154.183L155.692 22.0167L157.2 20.5116H159.333V18.3828Z" fill="white"/>
<path d="M152.047 10.9864V8.16943L154.078 10.1999L153.556 11.0033L152.047 10.9864Z" fill="white"/>
<path d="M159.331 10.9864V8.16943L157.297 10.1999L157.82 11.0033L159.328 10.9864" fill="white"/>
<path d="M152.047 22.6913V25.5082L154.078 23.4777L153.556 22.6743L152.047 22.6913Z" fill="white"/>
<path d="M159.331 22.6913V25.5082L157.297 23.4777L157.82 22.6743L159.328 22.6913" fill="white"/>
<path d="M161.468 20.6335H164.292L162.258 18.603L161.452 19.1251L161.468 20.6335Z" fill="white"/>
<path d="M161.468 13.3628H164.292L162.258 15.3933L161.452 14.8713L161.468 13.3628Z" fill="white"/>
<path d="M149.844 20.6335H147.02L149.054 18.603L149.861 19.1251L149.844 20.6335Z" fill="white"/>
<path d="M149.844 13.3628H147.02L149.054 15.3933L149.861 14.8713L149.844 13.3628Z" fill="white"/>
<path d="M161.452 6.04401L161.513 11.1254L166.584 11.2033L169.679 8.1152L169.452 7.67791C168.299 5.97282 166.835 4.49486 165.146 3.31859L164.509 2.99316L161.455 6.04401" fill="white"/>
<path d="M152.048 5.09477L155.688 8.64731L159.329 5.12189V0.752398L159.312 0.745619C158.136 0.481212 156.912 0.335449 155.654 0.335449C154.556 0.335449 153.485 0.443924 152.444 0.647314L152.044 0.776127V5.09477" fill="white"/>
<path d="M144.692 11.2068H149.861V6.08472L146.766 2.99658L146.244 3.26438C144.553 4.43048 143.085 5.89828 141.922 7.59319L141.634 8.1559L144.692 11.2068Z" fill="white"/>
<path d="M143.793 20.5456L147.349 16.9083L143.82 13.271H139.444L139.437 13.2879C139.172 14.4642 139.027 15.6846 139.027 16.9388C139.027 18.0371 139.138 19.1049 139.342 20.1456L139.471 20.5456H143.789" fill="white"/>
<path d="M149.861 27.8371L149.8 22.7557L144.729 22.6777L141.634 25.7659L141.861 26.2032C143.014 27.9082 144.478 29.3896 146.166 30.5659L146.804 30.8913L149.858 27.8404" fill="white"/>
<path d="M159.265 28.7864L155.624 25.2339L151.984 28.7559V33.1254L152.001 33.1322C153.177 33.3966 154.401 33.5424 155.658 33.5424C156.757 33.5424 157.828 33.4339 158.869 33.2305L159.265 33.1017V28.7864Z" fill="white"/>
<path d="M166.621 22.6743L161.53 22.7319L161.452 27.7964L164.546 30.8845L165.068 30.6167C166.76 29.4506 168.228 27.9828 169.391 26.2879L169.675 25.7252L166.621 22.6777" fill="white"/>
<path d="M171.97 13.7354L171.838 13.3354H167.519L163.963 16.9727L167.492 20.6066H171.868L171.875 20.5897C172.139 19.4134 172.285 18.1931 172.285 16.9388C172.285 15.8439 172.177 14.7727 171.973 13.7321" fill="white"/>
<path d="M115.19 39.9692C116.566 39.9692 117.691 40.5523 117.691 41.9421C117.691 42.7014 117.261 43.2743 116.624 43.5625C117.437 43.793 118.057 44.3896 118.057 45.4811C118.057 47.0133 116.878 47.8167 115.403 47.8167H111.481V39.9726H115.193L115.19 39.9692ZM113.152 43.1421H114.718C115.346 43.1421 116.017 43.0201 116.017 42.2269C116.017 41.4336 115.38 41.3014 114.718 41.3014H113.152V43.1421ZM113.152 46.4472H114.881C115.62 46.4472 116.335 46.3048 116.335 45.3794C116.335 44.454 115.563 44.3116 114.793 44.3116H113.152V46.4506V46.4472Z" fill="white"/>
<path d="M120.972 47.8133H119.244V39.9692H120.972V47.8133Z" fill="white"/>
<path d="M129.478 47.8134H128.386L128.22 46.9219C127.613 47.6608 126.878 47.9998 125.861 47.9998C123.681 47.9998 122.169 46.3354 122.169 43.9253C122.169 41.5151 123.756 39.8032 126.027 39.8032C127.81 39.8032 129.166 40.8947 129.376 42.5456H127.711C127.545 41.7185 126.918 41.2473 126.003 41.2473C124.691 41.2473 123.898 42.2507 123.898 43.9253C123.898 45.5998 124.691 46.6236 126.057 46.6236C127.135 46.6236 127.884 45.9083 127.928 44.8507H126.176V43.5727H129.471V47.8134H129.478Z" fill="white"/>
<path d="M135.645 47.8133H133.916V39.9692H135.645V47.8133Z" fill="white"/>
<path d="M137.166 39.9692H138.919L142.146 45.2235V39.9692H143.8V47.8133H142.081L138.83 42.5455V47.8133H137.166V39.9692Z" fill="white"/>
<path d="M145.339 39.9692H148.512C150.946 39.9692 152.312 41.3557 152.312 43.8913C152.312 46.4269 150.946 47.8133 148.512 47.8133H145.339V39.9692ZM148.302 46.3828C149.878 46.3828 150.583 45.4675 150.583 43.8947C150.583 42.3218 149.854 41.4031 148.302 41.4031H147.044V46.3828H148.302Z" fill="white"/>
<path d="M160.167 44.6845C160.167 46.9218 159.119 47.9658 156.828 47.9658C154.536 47.9658 153.445 46.8981 153.445 44.6608V39.9692H155.163V44.6608C155.163 45.8608 155.506 46.5455 156.848 46.5455C158.19 46.5455 158.445 45.8167 158.445 44.6608V39.9692H160.163V44.6845H160.167Z" fill="white"/>
<path d="M165.83 42.3049C165.762 41.5456 165.257 41.1388 164.342 41.1388C163.549 41.1388 163.074 41.471 163.074 42.0304C163.074 42.7117 163.911 42.7694 165.474 43.21C166.874 43.6066 167.766 44.1456 167.766 45.4575C167.766 47.3083 166.135 47.9897 164.539 47.9897C162.413 47.9897 161.155 46.966 161.135 45.1931H162.844C162.878 46.2507 163.572 46.671 164.616 46.671C165.518 46.671 166.071 46.2744 166.071 45.6236C166.071 45.0066 165.542 44.8948 163.922 44.4338C162.644 44.071 161.42 43.7524 161.42 42.1524C161.42 40.7321 162.61 39.8066 164.437 39.8066C166.091 39.8066 167.423 40.5558 167.454 42.3083H165.823L165.83 42.3049Z" fill="white"/>
<path d="M174.63 41.4336H172.271V47.8133H170.542V41.4336H168.183V39.9692H174.627V41.4336H174.63Z" fill="white"/>
<path d="M179.498 39.9692C180.942 39.9692 182.142 40.6201 182.142 42.1964C182.142 43.1116 181.681 43.8269 180.898 44.1252C181.769 44.3014 181.989 45.1828 182.054 45.9523C182.098 46.4472 182.122 47.5286 182.427 47.8133H180.644C180.447 47.4167 180.447 46.6336 180.4 46.2065C180.291 45.1252 179.959 44.7421 178.837 44.7421H177.305V47.8167H175.596V39.9726H179.498V39.9692ZM177.305 43.4947H178.935C179.739 43.4947 180.457 43.3523 180.457 42.3828C180.457 41.4811 179.742 41.3252 179.013 41.3252H177.305V43.4947Z" fill="white"/>
<path d="M185.217 47.8133H183.488V39.9692H185.217V47.8133Z" fill="white"/>
<path d="M193.621 47.8132H191.814L191.197 46.0607H188.278L187.641 47.8132H185.878L188.865 39.959H190.637L193.624 47.8132H193.621ZM189.743 41.8844L188.695 44.8031H190.776L189.739 41.8844H189.743Z" fill="white"/>
<path d="M199.834 47.8133H194.281V39.9692H196V46.3387H199.834V47.8167V47.8133Z" fill="white"/>
<path d="M141.053 50.8169L142.308 56.1491L143.684 50.8169H145.304L146.66 56.2135L147.958 50.8169H149.657L147.542 58.661H145.823L144.481 53.3084L143.158 58.661H141.406L139.325 50.8169H141.053Z" fill="white"/>
<path d="M156.332 52.2271H152.155V53.9356H155.989V55.2915H152.155V57.2203H156.406V58.6644H150.447V50.8203H156.332V52.2305V52.2271Z" fill="white"/>
<path d="M163.47 52.2271H159.294V53.9356H163.128V55.2915H159.294V57.2203H163.548V58.6644H157.589V50.8203H163.473V52.2305L163.47 52.2271Z" fill="white"/>
<path d="M168.627 53.9152L171.986 58.6644H169.827L167.447 55.139L166.444 56.1322V58.6644H164.749V50.8203H166.444V54.0813L169.528 50.8203H171.698L168.623 53.9152H168.627Z" fill="white"/>
<path d="M30.6951 24.5454C30.7697 22.8031 29.4138 21.3285 27.668 21.2539C25.9223 21.1793 24.4511 22.5353 24.3765 24.2776C24.2985 26.0234 25.6545 27.498 27.3968 27.5759C29.1426 27.6471 30.6206 26.2946 30.6917 24.5454" fill="white"/>
<path d="M30.9691 19.864C31.5318 18.6606 31.0063 17.2301 29.8029 16.6708C28.5962 16.1081 27.1657 16.6335 26.6063 17.8335C26.047 19.0369 26.5691 20.4708 27.7758 21.0267C28.9792 21.5895 30.4131 21.0708 30.9724 19.8606" fill="white"/>
<path d="M33.7216 18.986C32.9318 19.2741 32.5284 20.1453 32.8165 20.9385C33.1047 21.7283 33.9792 22.1351 34.7657 21.847C35.5555 21.5588 35.9623 20.6843 35.6708 19.8978C35.386 19.108 34.508 18.6944 33.7182 18.9894M33.9386 19.586C34.3996 19.4165 34.908 19.6538 35.0775 20.1114C35.2436 20.5758 35.0064 21.0843 34.5453 21.2504C34.0843 21.4199 33.5792 21.1826 33.4097 20.7216C33.2403 20.2639 33.4775 19.7487 33.9386 19.586Z" fill="white"/>
<path d="M37.3493 20.6875C37.1121 21.2062 37.3324 21.8163 37.8544 22.057C38.3697 22.3011 38.9832 22.0774 39.2239 21.5587C39.4612 21.0401 39.2409 20.4265 38.7222 20.1892C38.2036 19.9452 37.59 20.1689 37.3493 20.6841M37.7426 20.8672C37.8815 20.5655 38.2409 20.4333 38.5426 20.5723C38.8443 20.7146 38.9697 21.0706 38.8341 21.3723C38.6951 21.674 38.3358 21.8028 38.0341 21.6638C37.7358 21.5214 37.6002 21.1689 37.7426 20.8672Z" fill="white"/>
<path d="M46.3428 25.4708C44.6038 25.6436 43.3293 27.186 43.5022 28.9284C43.6716 30.664 45.2208 31.9318 46.9598 31.7657C48.6954 31.5962 49.9666 30.047 49.7971 28.3114C49.6242 26.5691 48.0818 25.3013 46.3428 25.4708Z" fill="white"/>
<path d="M41.6985 25.0704C40.4239 24.6873 39.0781 25.3992 38.6917 26.6704C38.3053 27.9449 39.0239 29.2873 40.2917 29.6738C41.5629 30.0636 42.9086 29.3449 43.2951 28.0704C43.6815 26.7992 42.9663 25.4568 41.6985 25.0704Z" fill="white"/>
<path d="M41.9759 20.8094C41.1861 21.0976 40.7793 21.9688 41.0674 22.7586C41.3556 23.545 42.2302 23.9586 43.0166 23.6671C43.8064 23.3789 44.2132 22.5043 43.9251 21.7145C43.6369 20.9281 42.7658 20.5213 41.9759 20.8094ZM42.1929 21.4026C42.6505 21.2365 43.1624 21.4704 43.3285 21.9349C43.498 22.3925 43.2607 22.9043 42.7997 23.0671C42.3386 23.2399 41.8302 23.0026 41.6607 22.5382C41.4946 22.0772 41.7319 21.5721 42.1929 21.4026Z" fill="white"/>
<path d="M42.1831 17.6028C41.9424 18.1215 42.1662 18.735 42.6814 18.9757C43.1967 19.2164 43.8102 18.9927 44.0543 18.4774C44.295 17.9588 44.0712 17.3452 43.5526 17.1045C43.0339 16.8639 42.4204 17.0876 42.1831 17.6062M42.5695 17.7893C42.7153 17.4842 43.0678 17.3554 43.3729 17.4944C43.6746 17.6334 43.8034 17.9927 43.6645 18.2944C43.5255 18.5961 43.1662 18.7283 42.8678 18.5859C42.5695 18.4469 42.4339 18.0876 42.5729 17.7893" fill="white"/>
<path d="M34.7561 5.53835C34.8341 3.79259 33.4782 2.3214 31.729 2.24344C29.9833 2.16547 28.5121 3.5214 28.4375 5.27055C28.3629 7.01632 29.7189 8.49089 31.4612 8.56208C33.2036 8.64004 34.6816 7.28411 34.7561 5.53835ZM33.4375 5.48411C33.3968 6.50106 32.5358 7.29089 31.5155 7.25021C30.4985 7.20615 29.7087 6.34513 29.7528 5.32818C29.8002 4.30784 30.6545 3.5214 31.6714 3.56208C32.6917 3.60615 33.4816 4.46716 33.4375 5.48411Z" fill="white"/>
<path d="M39.3565 7.69437C39.9192 6.48759 39.3972 5.06047 38.1938 4.49776C36.987 3.94182 35.5565 4.46386 34.9972 5.66725C34.4344 6.87403 34.9599 8.30454 36.1633 8.86386C37.37 9.42318 38.7972 8.90454 39.3565 7.69776M38.448 7.27403C38.1226 7.97572 37.2887 8.28081 36.587 7.95199C35.8853 7.62657 35.5836 6.79267 35.9056 6.08759C36.2344 5.38589 37.0683 5.0842 37.77 5.40962C38.4683 5.73843 38.7768 6.57233 38.448 7.27403Z" fill="white"/>
<path d="M35.2242 10.8909C34.4344 11.1791 34.0276 12.0503 34.3157 12.8435C34.6039 13.6299 35.4751 14.0401 36.2683 13.752C37.0581 13.4604 37.4649 12.5892 37.1734 11.7994C36.8886 11.0096 36.0107 10.6028 35.2242 10.8909ZM35.4412 11.4842C35.9022 11.3181 36.4107 11.5553 36.5801 12.0164C36.7496 12.4808 36.509 12.9859 36.0513 13.1553C35.5903 13.3214 35.0818 13.0842 34.909 12.6231C34.7429 12.1621 34.9801 11.6536 35.4412 11.4842Z" fill="white"/>
<path d="M34.1863 16.0878C33.9457 16.6031 34.1728 17.22 34.6846 17.4573C35.2033 17.6946 35.8135 17.4743 36.0575 16.9556C36.2982 16.437 36.0745 15.8234 35.5558 15.5861C35.0406 15.3421 34.427 15.5658 34.1863 16.0844M34.5762 16.2641C34.7152 15.9624 35.0745 15.8336 35.3728 15.9726C35.6745 16.1115 35.8033 16.4709 35.6677 16.7726C35.5253 17.0709 35.166 17.2031 34.8643 17.0641C34.5626 16.9251 34.4372 16.5658 34.5728 16.2641" fill="white"/>
<path d="M50.7424 6.30786C48.9967 6.23668 47.5221 7.58922 47.4475 9.33498C47.3729 11.0774 48.7289 12.5553 50.4746 12.6265C52.217 12.7011 53.6916 11.3485 53.7662 9.60278C53.8407 7.85701 52.4848 6.38244 50.7424 6.30786Z" fill="white"/>
<path d="M50.366 12.8906C49.1593 12.3279 47.7321 12.8499 47.1728 14.0533C46.6135 15.2601 47.1321 16.6906 48.3355 17.2499C49.5423 17.8092 50.9694 17.2906 51.5321 16.0838C52.0949 14.8804 51.5728 13.4465 50.3694 12.8906" fill="white"/>
<path d="M43.4749 12.7149C42.6851 13.0064 42.2783 13.8776 42.5665 14.6674C42.8512 15.4572 43.7292 15.8606 44.519 15.5759C45.3088 15.2877 45.7122 14.4166 45.4275 13.6267C45.136 12.8369 44.2648 12.4301 43.4749 12.7149ZM43.6919 13.3149C44.1529 13.1454 44.6614 13.3827 44.8309 13.8437C45.0038 14.3047 44.7597 14.8132 44.3021 14.9827C43.8411 15.1488 43.3326 14.9115 43.1665 14.4538C43.0004 13.9962 43.2377 13.4843 43.6919 13.3182" fill="white"/>
<path d="M39.017 13.006C38.7797 13.5212 39.0034 14.1314 39.5187 14.3755C40.0339 14.6162 40.6475 14.3924 40.8915 13.8738C41.1322 13.3585 40.9085 12.7416 40.3898 12.5009C39.8746 12.2602 39.261 12.4873 39.017 13.006ZM39.4068 13.189C39.5458 12.8839 39.9051 12.7551 40.2068 12.8941C40.5085 13.0331 40.6373 13.389 40.4983 13.6907C40.3593 13.9958 40 14.1246 39.6983 13.9856C39.3966 13.8433 39.2678 13.4839 39.4068 13.189Z" fill="white"/>
<path d="M27.9593 11.9283C26.7797 10.6401 24.7763 10.5554 23.4915 11.7384C22.2034 12.9181 22.1186 14.9181 23.2983 16.2062C24.4847 17.491 26.4813 17.5757 27.7695 16.3961C29.0576 15.2198 29.1424 13.2164 27.9593 11.9283Z" fill="white"/>
<path d="M38.5264 28.2402C37.3468 26.9554 35.3468 26.8707 34.0586 28.0504C32.7705 29.2334 32.6858 31.23 33.8688 32.5182C35.0519 33.8063 37.0485 33.891 38.3366 32.7114C39.6247 31.5317 39.7095 29.5283 38.5264 28.2402ZM37.5536 29.1317C38.2417 29.8843 38.1942 31.0504 37.4451 31.7385C36.6959 32.43 35.5264 32.3792 34.8383 31.63C34.1468 30.8775 34.1976 29.7114 34.9502 29.0232C35.6993 28.3351 36.8688 28.386 37.5536 29.1317Z" fill="white"/>
<path d="M39.8069 1.16902C38.5188 2.35207 38.4341 4.34868 39.6171 5.64021C40.7968 6.92495 42.7968 7.01309 44.0849 5.83004C45.373 4.64699 45.4544 2.64698 44.2747 1.35885C43.0951 0.0741027 41.0917 -0.010643 39.8069 1.16902Z" fill="white"/>
<path d="M50.3734 17.484C49.0852 18.667 48.9971 20.6636 50.1801 21.9518C51.3598 23.2331 53.3598 23.3246 54.6479 22.1416C55.9361 20.9619 56.0208 18.9619 54.8411 17.6738C53.6547 16.389 51.6581 16.3043 50.3734 17.484Z" fill="white"/>
<path d="M32.7225 10.2026C32.2683 8.95518 30.8852 8.3145 29.6344 8.76535C28.3869 9.21959 27.7429 10.6026 28.2005 11.8501C28.6581 13.0976 30.0378 13.7416 31.2852 13.284C32.5327 12.8298 33.1768 11.4467 32.7225 10.1993M31.7801 10.5416C32.0445 11.2704 31.6717 12.0772 30.9429 12.3382C30.2174 12.606 29.4073 12.2298 29.1429 11.5009C28.8751 10.7755 29.2479 9.96535 29.9768 9.70433C30.709 9.43993 31.5123 9.81281 31.7768 10.5416" fill="white"/>
<path d="M35.3963 24.7453C34.9421 23.4911 33.559 22.8504 32.3115 23.3046C31.0607 23.7657 30.42 25.1453 30.8743 26.3928C31.3285 27.6402 32.7115 28.2809 33.959 27.8267C35.2099 27.3724 35.8539 25.9928 35.3963 24.7453Z" fill="white"/>
<path d="M44.176 6.09408C42.9286 6.5517 42.2845 7.93137 42.7421 9.17882C43.1963 10.4263 44.5794 11.0703 45.8269 10.6161C47.0743 10.1585 47.7184 8.77882 47.2608 7.53137C46.8065 6.28052 45.4269 5.63984 44.176 6.09747" fill="white"/>
<path d="M46.8538 20.6332C45.6029 21.0875 44.9623 22.4705 45.4165 23.718C45.8741 24.962 47.2538 25.6095 48.5046 25.1519C49.7521 24.6976 50.3962 23.318 49.9419 22.0671C49.4843 20.8197 48.1046 20.1756 46.8572 20.6332" fill="white"/>
<path d="M2.55593 39.9351H0V49.2707H2.55593V39.9351Z" fill="white"/>
<path d="M23.763 39.935V49.2706H21.4782L17.007 42.9655C17.0138 43.1215 17.0172 43.2299 17.0206 43.2774C17.0443 43.4401 17.0579 43.5723 17.0579 43.6808V49.2672H14.9731V39.9316H17.8579L21.746 45.4401C21.7121 45.1621 21.6986 44.9588 21.6986 44.8164V39.935H23.7664H23.763Z" fill="white"/>
<path d="M13.1224 39.935V49.2706H10.8377L6.36312 42.9655C6.3699 43.1215 6.37329 43.2299 6.38007 43.2774C6.4038 43.4401 6.41397 43.5723 6.41397 43.6808V49.2672H4.32922V39.9316H7.21397L11.1055 45.4401C11.0682 45.1621 11.0546 44.9588 11.0546 44.8164V39.935H13.1224Z" fill="white"/>
<path d="M48.0164 45.569V49.2707H45.5249V39.9351H50.1656C51.0164 39.9351 51.708 40.0232 52.2266 40.1995C52.7419 40.3757 53.1758 40.6978 53.5181 41.169C53.8571 41.6368 54.0266 42.1588 54.0266 42.7317C54.0266 43.8537 53.413 44.6571 52.1961 45.1486L54.1419 49.274H51.4096L49.7927 45.5723H48.0232L48.0164 45.569ZM48.0164 41.5961V43.9791H49.5283C50.0232 43.9791 50.3825 43.9486 50.6096 43.8842C50.8334 43.8232 51.03 43.6876 51.2096 43.474C51.3825 43.2639 51.4707 43.0198 51.4707 42.7486C51.4707 42.4774 51.3825 42.2537 51.2096 42.0503C51.0334 41.8469 50.8435 41.7181 50.6368 41.6707C50.43 41.6266 50.0435 41.5995 49.4741 41.5995H48.0164V41.5961Z" fill="white"/>
<path d="M39.9155 39.9013C40.8986 39.9013 42.0138 39.9251 42.9663 40.4369C43.6104 40.7759 44.4341 41.4607 44.4341 42.7488C44.4341 43.3793 44.2409 43.9963 43.7053 44.5725C42.6274 45.7251 41.2375 45.7115 40.2579 45.7115H38.4036V49.3013H35.824V39.8979H39.9189L39.9155 39.9013ZM40.0274 44.0674C40.4138 44.0674 40.9799 44.0505 41.4002 43.7251C41.6918 43.4946 41.8511 43.1352 41.8511 42.7963C41.8511 42.4573 41.7053 42.1081 41.4308 41.8912C41.0409 41.5929 40.4952 41.5488 40.0714 41.5488H38.3969V44.0708H40.024L40.0274 44.0674Z" fill="white"/>
<path d="M72.1624 45.9014H72.1963L74.4878 39.9014H78.003V49.3048H75.5183V41.9861H75.4878L72.8064 49.3048H71.1285L68.3895 41.9861H68.359V49.3048H66.3251V39.9014H69.8369L72.1624 45.9014Z" fill="white"/>
<path d="M62.5227 40.1995C60.0888 38.8233 57.004 39.6775 55.6244 42.108C54.2481 44.5419 55.1057 47.63 57.5362 49.0097C59.9735 50.386 63.0583 49.5283 64.4345 47.0944C65.8108 44.6605 64.9566 41.5758 62.5227 40.1995ZM61.482 42.0334C62.9023 42.8402 63.4006 44.6402 62.5972 46.0572C61.7972 47.4707 59.9938 47.9758 58.5769 47.1724C57.1566 46.369 56.6549 44.5656 57.4616 43.1521C58.265 41.7317 60.0684 41.2334 61.482 42.0334Z" fill="white"/>
<path d="M32.2781 40.1995C29.8408 38.8233 26.756 39.6775 25.373 42.108C24.0001 44.5419 24.8577 47.63 27.2882 49.0097C29.7221 50.386 32.8069 49.5283 34.1865 47.0944C35.5628 44.6605 34.7086 41.5758 32.2781 40.1995ZM31.2374 42.0334C32.6543 42.8402 33.1527 44.6402 32.3493 46.0572C31.5493 47.4707 29.7493 47.9758 28.3289 47.1724C26.912 46.369 26.4137 44.5656 27.2171 43.1521C28.0204 41.7317 29.8204 41.2334 31.2374 42.0334Z" fill="white"/>
<path d="M95.1288 0.338867H94.4678V58.6609H95.1288V0.338867Z" fill="white"/>
<path d="M15.3726 58.6271C13.8913 58.6271 12.9116 57.5627 12.9116 55.9525C12.9116 54.4712 13.854 53.2915 15.4133 53.2915C16.637 53.2915 17.5286 54.0644 17.6167 55.1152H16.5218C16.4065 54.5593 15.993 54.2271 15.393 54.2271C14.4133 54.2271 14.0337 55.1085 14.0337 55.9593C14.0337 57.0101 14.5557 57.6813 15.3794 57.6813C16.0506 57.6813 16.454 57.2813 16.5455 56.5356H17.654C17.5387 57.7796 16.7659 58.6237 15.3726 58.6237V58.6271Z" fill="white"/>
<path d="M22.2209 54.3288H19.509V55.4373H21.9971V56.3152H19.509V57.5661H22.2683V58.5017H18.4005V53.4102H22.2209V54.3254V54.3288Z" fill="white"/>
<path d="M23.0346 53.4136H24.1702L26.2651 56.8237V53.4136H27.3363V58.5051H26.2211L24.1126 55.0848V58.5051H23.0312V53.4136H23.0346Z" fill="white"/>
<path d="M32.112 54.3627H30.5832V58.5051H29.4612V54.3627H27.9324V53.4102H32.1154V54.3627H32.112Z" fill="white"/>
<path d="M35.2723 53.4136C36.2079 53.4136 36.9876 53.8373 36.9876 54.8576C36.9876 55.4509 36.6859 55.9153 36.1808 56.1085C36.7469 56.2237 36.8893 56.7966 36.9299 57.2949C36.9605 57.617 36.974 58.3187 37.174 58.5051H36.0147C35.8859 58.2475 35.8859 57.739 35.8588 57.461C35.7876 56.7593 35.574 56.5085 34.8418 56.5085H33.8486V58.5051H32.7401V53.4136H35.2723ZM33.8486 55.7017H34.9062C35.4282 55.7017 35.8927 55.6068 35.8927 54.9797C35.8927 54.3932 35.4282 54.2915 34.9571 54.2915H33.8486V55.7017Z" fill="white"/>
<path d="M42.329 58.505H41.1561L40.7561 57.3695H38.8612L38.4476 58.505H37.3019L39.2409 53.4067H40.3934L42.3324 58.505H42.329ZM39.8104 54.6576L39.1324 56.5525H40.4849L39.8137 54.6576H39.8104Z" fill="white"/>
<path d="M46.36 58.5051H42.7566V53.4136H43.8718V57.5458H46.36V58.5051Z" fill="white"/>
<path d="M53.4484 58.505H52.2755L51.8755 57.3695H49.9806L49.567 58.505H48.4213L50.3602 53.4067H51.5128L53.4518 58.505H53.4484ZM50.9297 54.6576L50.2518 56.5525H51.6043L50.9331 54.6576H50.9297Z" fill="white"/>
<path d="M56.5865 54.9284C56.5424 54.4335 56.2136 54.1691 55.6204 54.1691C55.1052 54.1691 54.7967 54.3827 54.7967 54.7488C54.7967 55.1928 55.3391 55.2267 56.356 55.5149C57.2645 55.7725 57.8441 56.1216 57.8441 56.9725C57.8441 58.1759 56.7865 58.6166 55.7492 58.6166C54.3696 58.6166 53.5526 57.9521 53.5391 56.7996H54.6475C54.6679 57.4877 55.1187 57.7589 55.8001 57.7589C56.3865 57.7589 56.7425 57.5013 56.7425 57.081C56.7425 56.6606 56.4001 56.6098 55.3492 56.3081C54.5187 56.0708 53.7255 55.864 53.7255 54.8267C53.7255 53.9047 54.4984 53.3047 55.6848 53.3047C56.7594 53.3047 57.6238 53.7894 57.6441 54.9284H56.5865Z" fill="white"/>
<path d="M59.6373 58.5051H58.5153V53.4136H59.6373V58.5051Z" fill="white"/>
<path d="M65.0914 58.505H63.9186L63.5186 57.3695H61.6236L61.2101 58.505H60.0643L62.0033 53.4067H63.1559L65.0948 58.505H65.0914ZM62.5728 54.6576L61.8948 56.5525H63.2474L62.5762 54.6576H62.5728Z" fill="white"/>
</svg>
