<svg width="152" height="20" viewBox="0 0 152 20" fill="none" xmlns="http://www.w3.org/2000/svg">
<path d="M20.1641 15.0709H10.5399C10.2667 15.1167 10.0028 15.2066 9.75856 15.3373C9.49095 15.492 9.2558 15.697 9.06604 15.941L7.15717 19.2172H22.6324L20.1641 15.0709Z" fill="white"/>
<path d="M14.7657 13.7658C15.0369 13.9251 15.3402 14.0222 15.6536 14.0499H19.5867L11.7825 0.998535L9.30544 5.16254L14.0288 13.0999C14.2188 13.3766 14.4712 13.6047 14.7657 13.7658Z" fill="white"/>
<path d="M10.8414 10.3387C10.8396 10.0313 10.7698 9.72817 10.6372 9.45088L8.7017 6.18359L0.941902 19.2172H5.90497L10.5928 11.342C10.7571 11.0332 10.8425 10.6885 10.8414 10.3387Z" fill="white"/>
<path d="M34.4667 8.79387H33.0816L33.2237 2.57893L31.5901 8.79387H30.3116L28.6779 2.57893C28.7667 6.55649 28.8111 8.62814 28.8111 8.79387H27.4349V1.23828H29.4859L30.9686 6.84948L32.4246 1.23828H34.4667V8.79387Z" fill="white"/>
<path d="M38.0092 8.79387H36.6153V1.23828H38.0092V8.79387Z" fill="white"/>
<path d="M46.0535 8.79387H44.8194L41.5077 3.46678C41.561 6.91163 41.5965 8.67845 41.5965 8.79387H40.2114V1.23828H41.4899L44.8371 6.56537C44.7306 3.1294 44.6684 1.3537 44.6684 1.23828H46.0535V8.79387Z" fill="white"/>
<path d="M49.6137 8.79387H48.2198V1.23828H49.6137V8.79387Z" fill="white"/>
<path d="M57.631 2.57895L56.459 3.4668C56.2651 3.1172 55.9785 2.82783 55.6307 2.63048C55.283 2.43313 54.8876 2.33543 54.488 2.34811C54.367 2.33662 54.2451 2.33662 54.124 2.34811C53.9702 2.37405 53.8187 2.41265 53.6712 2.46353C53.5032 2.51674 53.3549 2.61873 53.245 2.75652C53.1308 2.88963 53.0707 3.06068 53.0763 3.23596C53.0756 3.3419 53.1032 3.44612 53.1563 3.53783C53.1981 3.62168 53.2589 3.69463 53.3338 3.75091C53.4246 3.81884 53.5269 3.86996 53.6357 3.90185C53.7542 3.95112 53.8758 3.99264 53.9997 4.02615L54.4614 4.13269L55.2516 4.30138C55.5533 4.36183 55.8501 4.44493 56.1394 4.54998C56.4084 4.6498 56.6647 4.78092 56.903 4.94063C57.1532 5.09981 57.3557 5.32377 57.489 5.58876C57.629 5.88558 57.6988 6.21062 57.6932 6.53876C57.6985 6.87354 57.6255 7.20494 57.4801 7.50651C57.3611 7.7795 57.1784 8.02001 56.9474 8.20791C56.7182 8.3934 56.4642 8.54582 56.1927 8.66072C55.9071 8.77683 55.6092 8.86023 55.3048 8.90931C55.0113 8.95686 54.7144 8.98061 54.417 8.98034C53.7509 8.98514 53.0913 8.84898 52.4815 8.58081C51.903 8.33899 51.4217 7.9109 51.1142 7.36446L52.3039 6.53876C52.5646 6.91302 52.9171 7.21407 53.3275 7.41306C53.7379 7.61205 54.1925 7.70232 54.6478 7.6752C55.0155 7.69025 55.3796 7.59768 55.6955 7.40885C55.8221 7.33473 55.9267 7.2282 55.9985 7.10024C56.0703 6.97228 56.1067 6.82751 56.1039 6.68081C56.1128 6.55909 56.0876 6.4373 56.0311 6.32909C55.9747 6.22089 55.8892 6.13055 55.7843 6.0682C55.423 5.89774 55.0409 5.77535 54.6478 5.70418L53.6801 5.4911L53.0852 5.33128C52.8864 5.26803 52.6933 5.18783 52.5081 5.09157C52.317 4.99299 52.143 4.86406 51.9932 4.70979C51.8507 4.54648 51.7366 4.36041 51.6558 4.15932C51.5633 3.91559 51.5181 3.65644 51.5226 3.39577C51.525 3.06698 51.6041 2.74327 51.7536 2.45042C51.9031 2.15757 52.1189 1.90365 52.3838 1.70886C53.0126 1.23367 53.79 0.997642 54.5768 1.04298C55.1734 1.02542 55.7649 1.15663 56.2981 1.42478C56.8313 1.69293 57.2894 2.08958 57.631 2.57895Z" fill="white"/>
<path d="M63.8637 2.51678H61.7773V8.79387H60.3656V2.51678H58.3147V1.23828H63.8637V2.51678Z" fill="white"/>
<path d="M64.9558 1.23827H68.0543C68.7108 1.21784 69.3489 1.45711 69.83 1.90415C70.0662 2.13307 70.2503 2.41015 70.3698 2.71656C70.4893 3.02296 70.5414 3.35151 70.5226 3.67985C70.5184 4.09824 70.4051 4.50831 70.1941 4.86957C69.9253 5.28231 69.5147 5.58235 69.0399 5.71302L70.7179 8.79386H69.1198L67.6371 5.98826H66.3586V8.79386H64.9558V1.23827ZM66.3586 2.4635V4.8163H67.4506C68.5604 4.8163 69.1109 4.41677 69.1109 3.62658C69.1109 2.8364 68.6226 2.4635 67.6459 2.4635H66.3586Z" fill="white"/>
<path d="M77.3768 1.23828L74.8286 5.8107V8.79387H73.4258V5.8107L70.8955 1.23828H72.5025L74.145 4.36351L75.7875 1.23828H77.3768Z" fill="white"/>
<path d="M81.0791 5.02933C81.047 3.98867 81.4084 2.97417 82.0912 2.18822C82.414 1.81549 82.8157 1.51932 83.2672 1.32121C83.7187 1.1231 84.2087 1.02803 84.7015 1.04289C85.378 1.03307 86.0433 1.2167 86.619 1.57217C87.1946 1.92765 87.6568 2.44017 87.951 3.04943C88.2231 3.65513 88.3624 4.31206 88.3594 4.97606C88.3606 5.34025 88.3219 5.70347 88.244 6.05923C88.1654 6.43122 88.0338 6.79001 87.8534 7.12465C87.6697 7.48795 87.4266 7.81803 87.1342 8.10129C86.838 8.39301 86.4842 8.61979 86.0954 8.76717C85.6426 8.94256 85.1605 9.02995 84.6749 9.02465C84.1808 9.04228 83.6892 8.94756 83.237 8.74763C82.7849 8.5477 82.384 8.24778 82.0646 7.87044C81.3952 7.07837 81.0439 6.06581 81.0791 5.02933ZM82.5352 4.97606C82.5366 5.27566 82.5754 5.5739 82.6506 5.86391C82.7321 6.17466 82.8545 6.47321 83.0146 6.75176C83.1824 7.02576 83.4178 7.25201 83.6982 7.40876C84.0096 7.58395 84.3621 7.67284 84.7193 7.66624C85.0092 7.66784 85.296 7.6077 85.5609 7.48982C85.8257 7.37195 86.0624 7.19904 86.2552 6.9826C86.7108 6.45804 86.9434 5.77622 86.9034 5.0826C86.9057 4.63431 86.8275 4.18925 86.6725 3.76859C86.5139 3.37833 86.257 3.03577 85.9267 2.7742C85.5767 2.49536 85.1401 2.34774 84.6926 2.35691C84.3968 2.34985 84.1032 2.41013 83.834 2.53317C83.5648 2.65622 83.3272 2.83882 83.1389 3.06719C82.712 3.60876 82.4973 4.28749 82.5352 4.97606Z" fill="white"/>
<path d="M94.6814 2.49903H91.13V4.39014H94.2907V5.59762H91.13V8.79387H89.7272V1.23828H94.7257L94.6814 2.49903Z" fill="white"/>
<path d="M100.159 8.79387H98.765V1.23828H100.159V8.79387Z" fill="white"/>
<path d="M108.212 8.79387H106.969L103.657 3.46678C103.723 6.91163 103.752 8.68733 103.746 8.79387H102.37V1.23828H103.64L106.987 6.56537C106.88 3.13236 106.824 1.35666 106.818 1.23828H108.212V8.79387Z" fill="white"/>
<path d="M110.272 1.23829H113.219C113.661 1.23745 114.099 1.31253 114.515 1.46025C114.922 1.61377 115.295 1.84271 115.616 2.13502C115.957 2.47252 116.213 2.88645 116.362 3.34249C116.568 3.91122 116.664 4.51368 116.646 5.11819C116.727 6.11702 116.407 7.10691 115.758 7.87052C115.413 8.20163 115.003 8.45773 114.554 8.62274C114.104 8.78775 113.626 8.85811 113.148 8.82939H110.289L110.272 1.23829ZM111.692 2.51679V7.52426H112.58C112.877 7.52725 113.173 7.50945 113.468 7.47098C113.716 7.4416 113.958 7.37578 114.187 7.27566C114.404 7.18814 114.594 7.04407 114.737 6.85837C114.887 6.64346 114.995 6.40261 115.057 6.14809C115.142 5.7996 115.181 5.44135 115.172 5.08267C115.172 3.36912 114.4 2.51679 112.855 2.51679H111.692Z" fill="white"/>
<path d="M124.042 1.23828V5.91724C124.061 6.36817 124.016 6.81953 123.909 7.25789C123.725 7.75184 123.39 8.17468 122.95 8.46537C122.351 8.84193 121.65 9.02483 120.943 8.9892C120.326 8.99467 119.716 8.84833 119.168 8.56303C118.911 8.43225 118.683 8.25073 118.499 8.02945C118.314 7.80817 118.176 7.55173 118.093 7.27565C117.993 6.76728 117.954 6.24852 117.978 5.73079V1.23828H119.399V5.88173C119.384 6.16233 119.411 6.44349 119.479 6.71631C119.656 7.32004 120.18 7.60416 121.023 7.60416C121.342 7.6476 121.665 7.58394 121.943 7.4232C122.221 7.26245 122.438 7.01377 122.559 6.71631C122.637 6.40598 122.67 6.08602 122.657 5.76631V1.23828H124.042Z" fill="white"/>
<path d="M131.589 2.57895L130.417 3.4668C130.223 3.1172 129.936 2.82783 129.589 2.63048C129.241 2.43313 128.845 2.33543 128.446 2.34811C128.325 2.33662 128.203 2.33662 128.082 2.34811C127.928 2.37405 127.776 2.41265 127.629 2.46353C127.461 2.51674 127.313 2.61873 127.203 2.75652C127.089 2.88963 127.028 3.06068 127.034 3.23596C127.033 3.3419 127.061 3.44612 127.114 3.53783C127.156 3.62168 127.217 3.69463 127.292 3.75091C127.382 3.81884 127.485 3.86996 127.593 3.90185C127.712 3.95112 127.834 3.99264 127.957 4.02615L128.419 4.13269L129.209 4.30138C129.511 4.36069 129.808 4.44382 130.097 4.54998C130.366 4.6498 130.622 4.78092 130.861 4.94063C131.111 5.09981 131.313 5.32377 131.447 5.58876C131.587 5.88558 131.657 6.21062 131.651 6.53876C131.663 6.87511 131.596 7.20964 131.456 7.51539C131.337 7.78838 131.154 8.02889 130.923 8.21679C130.694 8.40228 130.44 8.5547 130.168 8.66959C129.883 8.78571 129.585 8.8691 129.28 8.91819C128.987 8.96573 128.69 8.98949 128.393 8.98922C127.726 8.99402 127.067 8.85786 126.457 8.58969C125.878 8.34787 125.397 7.91978 125.09 7.37334L126.279 6.54764C126.54 6.9219 126.893 7.22295 127.303 7.42194C127.713 7.62093 128.168 7.7112 128.623 7.68408C128.991 7.69912 129.355 7.60656 129.671 7.41773C129.798 7.34361 129.902 7.23708 129.974 7.10912C130.046 6.98116 130.082 6.83639 130.079 6.68969C130.088 6.56797 130.063 6.44618 130.007 6.33797C129.95 6.22977 129.865 6.13943 129.76 6.07708C129.399 5.90514 129.017 5.7827 128.623 5.71306L127.656 5.49998L127.061 5.34016C126.862 5.27691 126.669 5.1967 126.484 5.10044C126.292 5.00187 126.119 4.87294 125.969 4.71867C125.826 4.55536 125.712 4.36929 125.631 4.1682C125.539 3.92446 125.494 3.66532 125.498 3.40465C125.497 3.07586 125.573 2.75136 125.719 2.45697C125.866 2.16258 126.079 1.90641 126.342 1.70886C126.97 1.23367 127.748 0.997642 128.535 1.04298C129.131 1.02542 129.723 1.15663 130.256 1.42478C130.789 1.69293 131.247 2.08958 131.589 2.57895Z" fill="white"/>
<path d="M137.821 2.51678H135.735V8.79387H134.323V2.51678H132.272V1.23828H137.821V2.51678Z" fill="white"/>
<path d="M138.914 1.23827H142.012C142.669 1.21784 143.307 1.45711 143.788 1.90415C144.024 2.13307 144.208 2.41015 144.328 2.71656C144.447 3.02296 144.499 3.35151 144.48 3.67985C144.481 4.11413 144.365 4.54058 144.143 4.91396C143.874 5.3267 143.464 5.62674 142.989 5.75742L144.667 8.83825H143.051L141.568 6.03265H140.334V8.79386H138.914V1.23827ZM140.334 2.4635V4.8163H141.426C142.536 4.8163 143.086 4.41677 143.086 3.62658C143.086 2.8364 142.598 2.4635 141.621 2.4635H140.334Z" fill="white"/>
<path d="M151.335 1.23828L148.787 5.8107V8.79387H147.384V5.8107L144.853 1.23828H146.46L148.103 4.36351L149.746 1.23828H151.335Z" fill="white"/>
<path d="M34.2189 19.2971H32.7096L32.2745 17.8677H29.4334L28.9984 19.3415H27.4801L30.0372 11.7859H31.6442L34.2189 19.2971ZM31.9016 16.5803L30.8629 13.0999L29.8152 16.5803H31.9016Z" fill="white"/>
<path d="M41.0456 19.297H39.8114L36.4998 13.97C36.553 17.4148 36.5886 19.1816 36.5886 19.297H35.2035V11.7415H36.4554L39.8026 17.0685C39.696 13.6326 39.6339 11.8569 39.6339 11.7415H41.0189L41.0456 19.297Z" fill="white"/>
<path d="M43.1147 11.7415H46.0535C46.4984 11.7357 46.9406 11.8109 47.3586 11.9635C47.7637 12.1192 48.1369 12.3479 48.4595 12.6382C48.8102 12.9729 49.0752 13.3871 49.232 13.8457C49.4332 14.4156 49.5295 15.0172 49.5161 15.6214C49.5498 16.119 49.4848 16.6183 49.3248 17.0907C49.1648 17.563 48.913 17.9991 48.5838 18.3738C48.2383 18.7049 47.8281 18.961 47.3789 19.126C46.9297 19.291 46.4512 19.3613 45.9736 19.3326H43.1147V11.7415ZM44.5264 13.0111V18.0275H45.4142C45.711 18.0299 46.0077 18.0121 46.3021 17.9742C46.5498 17.9431 46.7918 17.8774 47.0212 17.7789C47.2372 17.6889 47.4267 17.5452 47.5717 17.3616C47.7213 17.1467 47.8297 16.9058 47.8913 16.6513C47.9761 16.3027 48.0149 15.9446 48.0067 15.5859C48.0067 13.8724 47.2343 13.0111 45.6895 13.0111H44.5264Z" fill="white"/>
<path d="M58.8026 13.0111H56.7161V19.297H55.3045V13.0111H53.2535V11.7415H58.8026V13.0111Z" fill="white"/>
<path d="M59.8955 11.7416H62.9941C63.6505 11.7211 64.2886 11.9604 64.7698 12.4075C65.0043 12.6372 65.1867 12.9146 65.3047 13.221C65.4226 13.5273 65.4733 13.8555 65.4534 14.1831C65.4571 14.6166 65.3436 15.043 65.1249 15.4173C64.8561 15.83 64.4456 16.13 63.9707 16.2607L65.6487 19.3415H64.0595L62.5768 16.5359H61.316V19.3415H59.8955V11.7416ZM61.316 12.9579V15.3196H62.4081C63.5179 15.3196 64.0684 14.9201 64.0684 14.1299C64.0684 13.3397 63.58 12.9579 62.6034 12.9579H61.316Z" fill="white"/>
<path d="M72.7511 19.297H71.2417L70.8067 17.8676H67.9656L67.5305 19.297H66.0123L68.5693 11.7415H70.1941L72.7511 19.297ZM70.4249 16.5802L69.3861 13.0999L68.3385 16.5802H70.4249Z" fill="white"/>
<path d="M73.6208 11.7415H76.5595C77.0043 11.7371 77.4463 11.8122 77.8647 11.9635C78.2672 12.1191 78.6374 12.3479 78.9567 12.6382C79.3075 12.9745 79.575 13.388 79.738 13.8457C79.9393 14.4156 80.0356 15.0172 80.0221 15.6214C80.1025 16.6202 79.7832 17.6101 79.1343 18.3737C78.7888 18.7049 78.3786 18.961 77.9294 19.126C77.4802 19.291 77.0017 19.3613 76.524 19.3326H73.6208V11.7415ZM75.0324 13.0111V18.0275H75.9203C76.2171 18.0299 76.5137 18.0121 76.8081 17.9742C77.0531 17.9436 77.2923 17.8778 77.5184 17.7789C77.7358 17.6914 77.9259 17.5473 78.0689 17.3616C78.2252 17.1494 78.3369 16.9078 78.3974 16.6513C78.4777 16.302 78.5165 15.9444 78.5128 15.5859C78.5128 13.8724 77.7404 13.0111 76.1866 13.0111H75.0324Z" fill="white"/>
<path d="M86.9122 19.297H81.2744V11.7415H86.6015V13.0022H82.6239V14.7779H86.273V16.0031H82.6239V18.0274H86.8767L86.9122 19.297Z" fill="white"/>
<path d="M90.7211 15.5326C90.689 14.492 91.0504 13.4775 91.7332 12.6915C92.0574 12.3181 92.4606 12.0216 92.9136 11.8235C93.3667 11.6254 93.8582 11.5306 94.3524 11.5462C95.0463 11.5313 95.7281 11.7296 96.3057 12.1144C96.8484 12.4683 97.2819 12.9664 97.5575 13.5527C97.8337 14.1571 97.9731 14.8149 97.9659 15.4794C97.9657 15.843 97.93 16.2058 97.8594 16.5625C97.7727 16.9322 97.6415 17.2899 97.4687 17.628C97.2894 17.9765 97.0557 18.2942 96.7762 18.5691C96.4815 18.8627 96.1273 19.0898 95.7374 19.235C95.2846 19.4104 94.8025 19.4978 94.3169 19.4924C93.8244 19.5081 93.3347 19.4124 92.8843 19.2126C92.4339 19.0127 92.0344 18.7139 91.7155 18.3382C91.0474 17.5588 90.693 16.5588 90.7211 15.5326ZM92.1772 15.4794C92.1774 15.7791 92.2161 16.0775 92.2926 16.3672C92.3707 16.6791 92.4933 16.9781 92.6566 17.2551C92.8238 17.5318 93.0592 17.7611 93.3403 17.921C93.6519 18.0953 94.0042 18.1842 94.3613 18.1784C94.6523 18.179 94.9402 18.1185 95.2063 18.0007C95.4725 17.883 95.7109 17.7106 95.9061 17.4948C96.3585 16.9689 96.5879 16.2872 96.5454 15.5948C96.5477 15.1465 96.4695 14.7014 96.3145 14.2808C96.1662 13.8774 95.9079 13.5237 95.5688 13.2598C95.2218 12.9815 94.7882 12.8339 94.3435 12.8425C94.0464 12.8354 93.7514 12.8956 93.4808 13.0186C93.2102 13.1416 92.971 13.3242 92.7809 13.5527C92.3535 14.1009 92.139 14.7853 92.1772 15.4794Z" fill="white"/>
<path d="M104.323 13.0022H100.772V14.8844H103.932V16.0919H100.772V19.2882H99.3688V11.7415H104.367L104.323 13.0022Z" fill="white"/>
<path d="M108.425 11.7415H111.515C111.84 11.73 112.164 11.7829 112.469 11.8971C112.774 12.0114 113.053 12.1848 113.291 12.4074C113.527 12.6364 113.711 12.9134 113.83 13.2198C113.95 13.5262 114.002 13.8548 113.983 14.1831C113.988 14.618 113.871 15.0455 113.646 15.4172C113.383 15.8317 112.974 16.1327 112.5 16.2607L114.178 19.3415H112.563L111.071 16.5359H109.801V19.3415H108.399L108.425 11.7415ZM109.828 12.9579V15.3196H110.92C112.021 15.3196 112.58 14.92 112.58 14.1299C112.58 13.3397 112.092 12.9579 111.115 12.9579H109.828Z" fill="white"/>
<path d="M121.867 11.7415V16.4204C121.884 16.8679 121.842 17.3156 121.743 17.7522C121.568 18.2484 121.238 18.6751 120.802 18.9685C120.206 19.346 119.508 19.5291 118.804 19.4924C118.186 19.4997 117.576 19.3532 117.029 19.0662C116.771 18.9347 116.543 18.7531 116.357 18.532C116.171 18.3109 116.031 18.0548 115.945 17.7788C115.849 17.2698 115.81 16.7516 115.83 16.234V11.7415H117.25V16.3849C117.235 16.6651 117.259 16.946 117.321 17.2195C117.508 17.8232 118.023 18.1073 118.875 18.1073C119.192 18.1518 119.515 18.0885 119.792 17.9275C120.069 17.7665 120.284 17.5172 120.402 17.2195C120.48 16.9092 120.513 16.5892 120.5 16.2695V11.7415H121.867Z" fill="white"/>
<path d="M129.413 13.0822L128.25 13.97C128.054 13.6218 127.768 13.3335 127.42 13.1363C127.073 12.9392 126.678 12.8406 126.279 12.8514H125.915C125.758 12.8794 125.603 12.921 125.453 12.9756C125.288 13.0351 125.142 13.136 125.027 13.2686C124.921 13.4023 124.864 13.5686 124.867 13.7392C124.862 13.8473 124.887 13.9548 124.938 14.0499C124.983 14.132 125.043 14.2044 125.116 14.263C125.208 14.3292 125.31 14.3802 125.418 14.414L125.782 14.5383L126.243 14.6448L127.034 14.8135C127.336 14.8728 127.633 14.9559 127.922 15.0621C128.191 15.1601 128.448 15.2913 128.685 15.4527C128.935 15.6119 129.138 15.8359 129.271 16.1009C129.416 16.3959 129.486 16.7222 129.475 17.0509C129.483 17.3849 129.413 17.7163 129.271 18.0186C129.146 18.288 128.964 18.5272 128.738 18.72C128.506 18.9056 128.249 19.0579 127.975 19.1728C127.689 19.2883 127.391 19.3717 127.087 19.4214C126.793 19.469 126.496 19.4927 126.199 19.4925C125.533 19.4983 124.873 19.3621 124.264 19.0929C123.713 18.8322 123.259 18.4031 122.967 17.8677L124.157 17.042C124.418 17.4163 124.77 17.7173 125.181 17.9163C125.591 18.1153 126.046 18.2056 126.501 18.1784C126.869 18.1945 127.233 18.1019 127.549 17.9121C127.677 17.8394 127.782 17.7332 127.854 17.6049C127.926 17.4766 127.962 17.3311 127.957 17.1841C127.967 17.0622 127.942 16.94 127.886 16.8316C127.829 16.7232 127.743 16.633 127.637 16.5714C127.277 16.3982 126.895 16.2756 126.501 16.2074L125.542 15.9943L124.938 15.8345C124.742 15.7712 124.552 15.691 124.37 15.5948C124.179 15.4962 124.005 15.3673 123.855 15.213C123.71 15.0517 123.596 14.8651 123.518 14.6626C123.418 14.4175 123.37 14.1546 123.376 13.8901C123.369 13.565 123.438 13.2429 123.577 12.9488C123.716 12.6547 123.92 12.3965 124.175 12.1943C124.804 11.7271 125.576 11.4946 126.359 11.5373C126.957 11.5167 127.55 11.6475 128.084 11.9176C128.618 12.1876 129.075 12.5882 129.413 13.0822Z" fill="white"/>
<path d="M136.783 13.0821L135.62 13.97C135.426 13.6204 135.139 13.331 134.791 13.1336C134.444 12.9363 134.048 12.8386 133.649 12.8513H133.285C133.128 12.8816 132.974 12.9231 132.823 12.9756C132.659 13.033 132.515 13.1344 132.406 13.2686C132.316 13.3757 132.259 13.5064 132.242 13.6449C132.225 13.7834 132.248 13.924 132.308 14.0499C132.356 14.1298 132.415 14.2017 132.485 14.263C132.58 14.3307 132.685 14.3818 132.796 14.4139L133.16 14.5382L133.622 14.6447L134.412 14.8134C134.714 14.8722 135.011 14.9553 135.3 15.062C135.572 15.1603 135.832 15.2914 136.072 15.4527C136.323 15.6118 136.525 15.8358 136.658 16.1008C136.799 16.3973 136.869 16.7226 136.863 17.0508C136.868 17.3856 136.795 17.717 136.649 18.0186C136.53 18.2915 136.348 18.5321 136.117 18.72C135.884 18.9055 135.627 19.0579 135.353 19.1728C135.068 19.2908 134.77 19.3742 134.465 19.4214C134.172 19.4689 133.875 19.4927 133.578 19.4924C132.911 19.4983 132.251 19.3621 131.642 19.0929C131.085 18.8374 130.627 18.4072 130.337 17.8676L131.518 17.0419C131.778 17.4162 132.131 17.7172 132.541 17.9162C132.952 18.1152 133.406 18.2055 133.862 18.1784C134.232 18.1946 134.6 18.102 134.918 17.912C135.044 17.8375 135.147 17.7306 135.217 17.6026C135.288 17.4745 135.322 17.33 135.318 17.184C135.33 17.0629 135.307 16.9409 135.252 16.8324C135.197 16.7239 135.112 16.6333 135.007 16.5714C134.643 16.3999 134.258 16.2775 133.862 16.2073L132.903 15.9943L132.299 15.8344C132.104 15.7694 131.914 15.6893 131.731 15.5947C131.54 15.4962 131.366 15.3672 131.216 15.213C131.073 15.0496 130.959 14.8636 130.878 14.6625C130.716 14.234 130.693 13.7655 130.811 13.3229C130.928 12.8802 131.182 12.4855 131.535 12.1943C132.167 11.7257 132.943 11.4932 133.728 11.5373C134.326 11.5166 134.92 11.6474 135.454 11.9175C135.988 12.1876 136.445 12.5882 136.783 13.0821Z" fill="white"/>
<path d="M139.926 19.297H138.558V11.7415H139.952L139.926 19.297Z" fill="white"/>
<path d="M147.606 19.2971H146.096L145.661 17.8677H142.82L142.385 19.3415H140.867L143.424 11.7859H145.031L147.606 19.2971ZM145.288 16.5803L144.249 13.0999L143.202 16.5803H145.288Z" fill="white"/>
</svg>
