<svg width="142" height="24" viewBox="0 0 142 24" fill="none" xmlns="http://www.w3.org/2000/svg">
<g clip-path="url(#clip0_1_304)">
<mask id="mask0_1_304" style="mask-type:luminance" maskUnits="userSpaceOnUse" x="0" y="0" width="142" height="24">
<path d="M0.997223 0.171822H142V23.6021H0.997223V0.171822Z" fill="white"/>
</mask>
<g mask="url(#mask0_1_304)">
<path d="M7.16579 23.3506L12.7464 13.7579C12.9481 13.3802 13.0639 12.9471 13.0639 12.4884C13.0639 12.0735 12.9689 11.6801 12.8014 11.3289L10.4007 7.20317L0.996826 23.3506H7.16579Z" fill="white"/>
<path d="M24.8925 18.0656L13.7245 18.0689C13.2954 18.0862 12.8587 18.2011 12.4587 18.43C12.0954 18.6383 11.8004 18.916 11.5762 19.2359L9.17383 23.3616L27.9774 23.3649L24.8925 18.0656Z" fill="white"/>
<path d="M11.3979 5.47343L16.9844 15.0646C17.2144 15.4265 17.5336 15.7431 17.9344 15.972C18.2961 16.1803 18.6869 16.2952 19.0794 16.3274H23.8817L14.4837 0.174963L11.3979 5.47343Z" fill="white"/>
<path d="M41.8097 11.0637C41.8097 10.8256 41.9921 2.96926 41.9921 2.96926L39.8389 11.0637H38.1648L36.0115 2.96926C36.0115 2.96926 36.1948 10.7422 36.1948 11.0637H34.3799V1.21055H37.0798L39.0222 8.52393L40.9363 1.21055H43.6246V11.0637H41.8097Z" fill="white"/>
<path d="M54.0255 11.0635H52.1672V4.61546L47.7207 9.89161V11.0635H45.8641V1.21043H47.7207V7.60313L52.1672 2.32698V1.21043H54.0255V11.0635Z" fill="white"/>
<path d="M62.4124 11.0637V6.58339H58.1484V11.0637H56.2768V1.21055H58.1484V4.92303H62.4124V1.21055H64.284V11.0637H62.4124Z" fill="white"/>
<path d="M74.4169 1.2103V11.0634H72.5586V2.88472H68.3929V11.0634H66.5363V1.2103H74.4169Z" fill="white"/>
<path d="M78.5552 6.20628H80.1885C81.5101 6.20628 82.1726 5.59222 82.1726 4.43434C82.1726 2.84422 80.8768 2.7872 79.9768 2.7872H78.5552V6.20628ZM80.5535 1.2103C82.6076 1.2103 84.0867 2.46653 84.0867 4.49054C84.0867 6.27653 83.0451 7.71458 80.4552 7.71458H78.5552V11.0634H76.6978V1.2103H80.5535Z" fill="white"/>
<path d="M89.7989 9.59801C91.2756 9.59801 92.6688 8.46823 92.6688 6.2343C92.6688 4.4764 91.7414 2.64744 89.7706 2.64744C88.1382 2.64744 86.9282 3.91772 86.9282 6.0814C86.9282 7.61697 87.674 9.59801 89.7989 9.59801ZM89.7839 0.958971C92.8097 0.958971 94.5413 3.41522 94.5413 6.0814C94.5413 8.31368 93.3155 11.3146 89.7431 11.3146C86.8157 11.3146 85.0149 8.91535 85.0149 6.15082C85.0149 3.2615 86.9132 0.958971 89.7839 0.958971Z" fill="white"/>
<path d="M103.687 11.0638C103.687 10.8258 103.87 2.96939 103.87 2.96939L101.718 11.0638H100.043L97.8898 2.96939C97.8898 2.96939 98.0731 10.7423 98.0731 11.0638H96.2573V1.21067H98.9597L100.901 8.52406L102.816 1.21067H105.503V11.0638H103.687Z" fill="white"/>
<path d="M111.485 2.87128V11.064H109.628V2.87128H106.926V1.21008H114.229V2.87128H111.485Z" fill="white"/>
<path d="M119.984 9.59801C121.46 9.59801 122.854 8.46823 122.854 6.2343C122.854 4.4764 121.925 2.64744 119.955 2.64744C118.324 2.64744 117.114 3.91772 117.114 6.0814C117.114 7.61697 117.858 9.59801 119.984 9.59801ZM119.97 0.958971C122.995 0.958971 124.725 3.41522 124.725 6.0814C124.725 8.31368 123.502 11.3146 119.928 11.3146C117.001 11.3146 115.2 8.91535 115.2 6.15082C115.2 3.2615 117.099 0.958971 119.97 0.958971Z" fill="white"/>
<path d="M128.387 6.20628H130.019C131.342 6.20628 132.002 5.59222 132.002 4.43434C132.002 2.84422 130.708 2.7872 129.808 2.7872H128.387V6.20628ZM130.385 1.2103C132.439 1.2103 133.917 2.46653 133.917 4.49054C133.917 6.27653 132.876 7.71458 130.287 7.71458H128.387V11.0634H126.529V1.2103H130.385Z" fill="white"/>
<path d="M141.234 1.2103V2.88472H137.153V11.0634H135.297V1.2103H141.234Z" fill="white"/>
<path d="M36.2373 18.4936H37.8706C39.1922 18.4936 39.8547 17.8804 39.8547 16.7209C39.8547 15.1316 38.5589 15.0746 37.659 15.0746H36.2373V18.4936ZM38.2356 13.4977C40.2897 13.4977 41.768 14.7539 41.768 16.7779C41.768 18.5647 40.7272 20.0011 38.1373 20.0011H36.2373V23.3508H34.3799V13.4977H38.2356Z" fill="white"/>
<path d="M47.6221 21.8847C49.0995 21.8847 50.4928 20.7549 50.4928 18.5226C50.4928 16.7631 49.5645 14.9341 47.5946 14.9341C45.9621 14.9341 44.7522 16.206 44.7522 18.3689C44.7522 19.9028 45.4971 21.8847 47.6221 21.8847ZM47.6079 13.2456C50.6336 13.2456 52.3652 15.7027 52.3652 18.3689C52.3652 20.6012 51.1411 23.6021 47.5662 23.6021C44.6397 23.6021 42.8372 21.202 42.8372 18.4383C42.8372 15.549 44.738 13.2456 47.6079 13.2456Z" fill="white"/>
<path d="M62.6099 20.6013C62.2857 21.4393 61.1749 23.6022 58.3184 23.6022C55.9684 23.6022 53.6752 22.0104 53.6752 18.3268C53.6752 16.1351 54.9277 13.2457 58.3884 13.2457C60.9491 13.2457 62.0049 14.8788 62.4274 16.288L60.5833 16.7623C60.4708 15.6896 59.5567 14.9342 58.4592 14.9342C56.8409 14.9342 55.6868 16.164 55.6868 18.3541C55.6868 19.6938 56.2359 21.8575 58.4442 21.8575C59.7258 21.8575 60.5558 20.8806 60.8516 19.8765L62.6099 20.6013Z" fill="white"/>
<path d="M72.7296 20.6013C72.4054 21.4393 71.293 23.6022 68.4372 23.6022C66.0865 23.6022 63.7924 22.0104 63.7924 18.3268C63.7924 16.1351 65.0449 13.2457 68.5081 13.2457C71.068 13.2457 72.1238 14.8788 72.5454 16.288L70.7013 16.7623C70.5905 15.6896 69.6755 14.9342 68.5781 14.9342C66.959 14.9342 65.8057 16.164 65.8057 18.3541C65.8057 19.6938 66.3548 21.8575 68.5639 21.8575C69.8439 21.8575 70.6747 20.8806 70.9697 19.8765L72.7296 20.6013Z" fill="white"/>
<path d="M82.3834 23.3508H80.5259V16.9035L76.0794 22.1788V23.3508H74.2228V13.4977H76.0794V19.8904L80.5259 14.615V13.4977H82.3834V23.3508Z" fill="white"/>
<path d="M92.7987 23.3506H90.9412V16.9033L86.4947 22.1787V23.3506H84.6381V13.4975H86.4947V19.8902L90.9412 14.6149V13.4975H92.7987V23.3506Z" fill="white"/>
</g>
</g>
<defs>
<clipPath id="clip0_1_304">
<rect width="142" height="24" fill="white"/>
</clipPath>
</defs>
</svg>
