<svg width="260" height="57" viewBox="0 0 260 57" fill="none" xmlns="http://www.w3.org/2000/svg">
<path d="M107.519 0.0803833H106.781V55.7832H107.519V0.0803833Z" fill="#2B2523"/>
<path d="M2.88597 55.3375H0V44.7946H2.88597V47.6659V55.3375Z" fill="#1D1D1B"/>
<path d="M26.8358 44.7946V55.3375H24.2567L19.2081 48.2139C19.2154 48.3893 19.2227 48.5135 19.2227 48.5646C19.2519 48.7473 19.2666 48.9007 19.2666 49.0249V55.3375H16.9139V44.7946H20.1725L24.5636 51.0122C24.527 50.698 24.5124 50.4715 24.5124 50.3108V44.7946H26.8504H26.8358Z" fill="#1D1D1B"/>
<path d="M14.8244 44.7946V55.3375H12.2453L7.18935 48.2139C7.19665 48.3893 7.20396 48.5135 7.20396 48.5646C7.23318 48.7473 7.24049 48.9007 7.24049 49.0249V55.3375H4.88788V44.7946H8.14646L12.5375 51.0122C12.501 50.698 12.4791 50.4715 12.4791 50.3108V44.7946H14.8171H14.8244Z" fill="#1D1D1B"/>
<path d="M54.227 51.1583V55.3375H51.4141V44.7946H56.6526C57.6171 44.7946 58.3988 44.8896 58.9833 45.0941C59.5678 45.2914 60.0574 45.6567 60.4446 46.1901C60.8245 46.7161 61.0145 47.3079 61.0145 47.9582C61.0145 49.2222 60.3204 50.1355 58.9468 50.6834L61.146 55.3448H58.0554L56.2289 51.1656H54.227V51.1583ZM54.227 46.6723V49.361H55.9366C56.4992 49.361 56.9011 49.3245 57.1568 49.2514C57.4125 49.1856 57.6317 49.0249 57.8363 48.7838C58.0335 48.55 58.1285 48.2724 58.1285 47.9655C58.1285 47.6732 58.0335 47.4102 57.8363 47.1764C57.6317 46.9426 57.4198 46.7965 57.1933 46.7454C56.9595 46.6942 56.5211 46.665 55.8782 46.665H54.227V46.6723Z" fill="#1D1D1B"/>
<path d="M45.0795 44.7581C46.1901 44.7581 47.4467 44.7873 48.5207 45.3645C49.2514 45.7444 50.1793 46.5189 50.1793 47.9728C50.1793 48.6888 49.9601 49.3829 49.3537 50.0332C48.1408 51.3337 46.57 51.3191 45.4594 51.3191H43.3698V55.374H40.4547V44.7508H45.0795V44.7581ZM45.211 49.4633C45.6494 49.4633 46.285 49.4487 46.7599 49.0761C47.0887 48.813 47.2714 48.4112 47.2714 48.024C47.2714 47.6367 47.1106 47.2495 46.7965 47.0011C46.3581 46.665 45.7371 46.6139 45.2622 46.6139H43.3698V49.4633H45.2037H45.211Z" fill="#1D1D1B"/>
<path d="M81.5012 51.5309H81.5377L84.1241 44.7581H88.0987V55.374H85.2931V47.1107H85.2566L82.2318 55.374H80.3322L77.2416 47.1107H77.2051V55.374H74.9109V44.7581H78.8782L81.5012 51.5309Z" fill="#1D1D1B"/>
<path d="M70.6149 45.0942C67.8677 43.5379 64.3826 44.5023 62.8191 47.2495C61.2629 49.9966 62.2346 53.489 64.9817 55.0453C67.7362 56.5942 71.2213 55.6298 72.7702 52.8826C74.3191 50.1355 73.3547 46.6504 70.6075 45.0942M69.4312 47.1691C71.0313 48.0824 71.6012 50.1135 70.6952 51.7136C69.7892 53.3137 67.7581 53.8763 66.158 52.9703C64.5507 52.0643 63.9881 50.0259 64.8941 48.4331C65.8 46.8257 67.8385 46.2631 69.4385 47.1691" fill="#E60060"/>
<path d="M36.4509 45.0942C33.7037 43.5379 30.2186 44.5023 28.6551 47.2495C27.0989 49.9966 28.0706 53.489 30.8177 55.0453C33.5649 56.5942 37.05 55.6298 38.6062 52.8826C40.1624 50.1355 39.198 46.6504 36.4509 45.0942ZM35.2745 47.1691C36.8746 48.0824 37.4372 50.1135 36.5312 51.7136C35.6252 53.3137 33.5941 53.8763 31.9867 52.9703C30.3867 52.0643 29.8241 50.0259 30.7301 48.4331C31.636 46.8257 33.6745 46.2631 35.2745 47.1691Z" fill="#8B8788"/>
<path d="M34.6901 27.413C34.7704 25.4477 33.2434 23.7818 31.2708 23.6942C29.2981 23.6138 27.6395 25.1408 27.5519 27.1135C27.4642 29.0862 28.9912 30.752 30.9639 30.8324C32.9366 30.9127 34.6024 29.3857 34.6901 27.413Z" fill="#FFDB35"/>
<path d="M34.9969 22.1306C35.6326 20.7717 35.0408 19.157 33.6818 18.5286C32.3155 17.893 30.7009 18.4848 30.0725 19.8438C29.4442 21.2027 30.0287 22.8174 31.3949 23.4458C32.7539 24.0814 34.3686 23.4969 35.0042 22.1306" fill="#FFDB35"/>
<path d="M38.1094 21.137C37.218 21.4658 36.7577 22.4448 37.0865 23.3435C37.4153 24.2348 38.3943 24.6951 39.2857 24.3663C40.1771 24.0375 40.6374 23.0512 40.3086 22.1598C39.9871 21.2685 39.0008 20.8009 38.1094 21.137ZM38.3578 21.8091C38.8839 21.6192 39.4537 21.8895 39.6437 22.401C39.8337 22.927 39.5633 23.5042 39.0446 23.6868C38.5259 23.8768 37.9487 23.6138 37.7587 23.0877C37.5687 22.569 37.8391 21.9918 38.3578 21.8091Z" fill="#FFDB35"/>
<path d="M42.2009 23.0585C41.9306 23.643 42.1863 24.3298 42.7708 24.6074C43.348 24.8851 44.0494 24.6294 44.3197 24.0449C44.59 23.4604 44.3416 22.7663 43.7571 22.5032C43.1726 22.2329 42.4785 22.4813 42.2082 23.0658M42.6539 23.2704C42.8073 22.927 43.2165 22.7809 43.5598 22.9416C43.9032 23.1024 44.0494 23.5042 43.8886 23.8476C43.7279 24.191 43.326 24.3371 42.9827 24.1764C42.6466 24.0156 42.4931 23.6211 42.6539 23.2777" fill="#FFDB35"/>
<path d="M52.3566 28.4578C50.3912 28.6551 48.9519 30.394 49.1491 32.3667C49.3391 34.3247 51.0926 35.7568 53.058 35.5741C55.016 35.3768 56.4554 33.6306 56.2654 31.6726C56.0681 29.7072 54.3293 28.2752 52.3639 28.4651" fill="#13A538"/>
<path d="M47.1107 28.0122C45.6713 27.5738 44.1516 28.3848 43.7206 29.8168C43.2822 31.2561 44.1005 32.7685 45.5252 33.2069C46.9645 33.6453 48.4842 32.8343 48.9153 31.4023C49.3537 29.9629 48.5427 28.4505 47.1107 28.0122Z" fill="#13A538"/>
<path d="M47.4321 23.1973C46.5408 23.5188 46.0805 24.5125 46.4093 25.3965C46.7307 26.2879 47.7244 26.7482 48.6085 26.4267C49.4998 26.0979 49.9601 25.1116 49.6313 24.2202C49.3025 23.3288 48.3235 22.8685 47.4321 23.1973ZM47.6806 23.8695C48.1993 23.6795 48.7765 23.9499 48.9592 24.4686C49.1491 24.9874 48.8788 25.5646 48.36 25.7472C47.8413 25.9372 47.2641 25.6741 47.0741 25.1481C46.8842 24.6294 47.1545 24.0595 47.6733 23.8622" fill="#13A538"/>
<path d="M47.666 19.5734C47.3956 20.1579 47.644 20.852 48.2285 21.1223C48.813 21.3927 49.5071 21.137 49.7775 20.5598C50.0478 19.9753 49.7994 19.2812 49.2149 19.0108C48.6304 18.7405 47.9363 18.9889 47.666 19.5734ZM48.1043 19.7853C48.2651 19.4419 48.6669 19.2958 49.0103 19.4492C49.3537 19.6099 49.4998 20.0118 49.3391 20.3552C49.1784 20.6986 48.7765 20.8447 48.4331 20.684C48.097 20.5305 47.9436 20.1214 48.1043 19.7853Z" fill="#13A538"/>
<path d="M39.2784 5.94728C39.3661 3.97459 37.8317 2.30877 35.8591 2.2284C33.8864 2.14073 32.2279 3.67504 32.1402 5.64772C32.0598 7.62041 33.5868 9.28623 35.5595 9.3666C37.5249 9.45428 39.198 7.91997 39.2784 5.94728ZM37.7879 5.88883C37.7368 7.03591 36.7723 7.92727 35.6179 7.88344C34.4709 7.83229 33.5795 6.86056 33.6306 5.71348C33.6818 4.55909 34.6462 3.67504 35.8006 3.71888C36.9477 3.77002 37.8464 4.74175 37.7952 5.88883" fill="#38A8E0"/>
<path d="M44.4731 8.38756C45.1088 7.0213 44.517 5.41392 43.158 4.77828C41.7991 4.14994 40.1771 4.74175 39.5487 6.10071C38.9131 7.45967 39.5049 9.07435 40.8639 9.71C42.2228 10.3456 43.8375 9.75383 44.4731 8.39487M43.4503 7.91997C43.085 8.71635 42.1424 9.05974 41.3461 8.68712C40.5497 8.32181 40.2136 7.3793 40.5789 6.58292C40.9515 5.79385 41.8867 5.45045 42.6831 5.81577C43.4722 6.18839 43.8229 7.13089 43.4503 7.91997Z" fill="#38A8E0"/>
<path d="M39.8044 11.9969C38.913 12.3256 38.4527 13.312 38.7815 14.2033C39.1103 15.0874 40.0966 15.555 40.988 15.2262C41.8794 14.8974 42.3397 13.9111 42.0109 13.0197C41.6894 12.1284 40.6958 11.6681 39.8117 11.9969M40.0601 12.669C40.5789 12.4864 41.1561 12.7494 41.346 13.2681C41.536 13.7942 41.2657 14.3641 40.7469 14.554C40.2282 14.744 39.651 14.4737 39.461 13.9549C39.271 13.4362 39.5414 12.859 40.0601 12.669Z" fill="#38A8E0"/>
<path d="M38.6354 17.8638C38.3651 18.4483 38.6208 19.1424 39.198 19.4127C39.7825 19.683 40.4693 19.4346 40.7469 18.8501C41.0173 18.2656 40.7688 17.5715 40.177 17.3012C39.5925 17.0236 38.8984 17.2793 38.6281 17.8638M39.0665 18.0684C39.2272 17.725 39.6291 17.5788 39.9725 17.7396C40.3159 17.9003 40.462 18.3022 40.3012 18.6456C40.1405 18.9816 39.7314 19.1351 39.3953 18.9743C39.0592 18.8136 38.9131 18.4118 39.0665 18.0757" fill="#38A8E0"/>
<path d="M57.3321 6.81672C55.3594 6.73635 53.6936 8.26336 53.6059 10.236C53.5256 12.2014 55.0526 13.8746 57.0253 13.9549C58.9906 14.0426 60.6565 12.5083 60.7441 10.5356C60.8245 8.56292 59.2975 6.89709 57.3248 6.81672" fill="#E60060"/>
<path d="M56.9011 14.2545C55.5348 13.6188 53.9274 14.2106 53.2918 15.5696C52.6561 16.9286 53.2479 18.5432 54.6069 19.1789C55.9732 19.8145 57.5805 19.2227 58.2162 17.8638C58.8518 16.5048 58.26 14.8828 56.9011 14.2545Z" fill="#E60060"/>
<path d="M49.1199 14.0499C48.2285 14.3787 47.7682 15.365 48.097 16.2564C48.4185 17.1478 49.4121 17.608 50.3035 17.2793C51.1949 16.9578 51.6552 15.9714 51.3264 15.0801C50.9976 14.1887 50.0186 13.7284 49.1199 14.0499ZM49.361 14.7294C49.8797 14.5394 50.4569 14.8098 50.6469 15.3285C50.8369 15.8472 50.5665 16.4244 50.0478 16.6144C49.529 16.8044 48.9518 16.534 48.7619 16.0153C48.5719 15.4965 48.8423 14.9193 49.3537 14.7294" fill="#E60060"/>
<path d="M44.0859 14.3787C43.8156 14.9632 44.0713 15.65 44.6558 15.9276C45.2403 16.1979 45.9344 15.9422 46.2047 15.3577C46.475 14.7732 46.2193 14.0791 45.6348 13.8088C45.0503 13.5385 44.3562 13.7942 44.0859 14.3787ZM44.5316 14.5833C44.685 14.2399 45.0942 14.0937 45.4302 14.2545C45.7736 14.4079 45.9198 14.8171 45.7663 15.1531C45.6056 15.4965 45.2037 15.6427 44.8604 15.4819C44.517 15.3212 44.3708 14.9193 44.5316 14.5833Z" fill="#E60060"/>
<path d="M31.5995 13.1659C30.2698 11.7119 28.0048 11.6169 26.5509 12.954C25.097 14.291 25.002 16.5486 26.3317 18.0026C27.6688 19.4565 29.9264 19.5515 31.3803 18.2145C32.8343 16.8847 32.9293 14.6198 31.5995 13.1659Z" fill="#8B8788"/>
<path d="M43.5306 31.5849C42.2009 30.1383 39.936 30.036 38.482 31.373C37.0281 32.7101 36.9331 34.9677 38.2701 36.4143C39.6072 37.8683 41.8648 37.9633 43.3187 36.6335C44.7727 35.3038 44.8677 33.0388 43.5306 31.5849ZM42.4347 32.5932C43.2165 33.448 43.158 34.7558 42.3105 35.5376C41.463 36.3194 40.1478 36.2609 39.3661 35.4134C38.5843 34.5659 38.6428 33.2507 39.4903 32.469C40.3378 31.6945 41.6602 31.7456 42.4347 32.5932Z" fill="#8B8788"/>
<path d="M44.9773 1.01557C43.5233 2.35261 43.4283 4.60294 44.7654 6.06419C46.0951 7.51813 48.36 7.61311 49.8067 6.27607C51.2606 4.93903 51.3556 2.6814 50.0186 1.22745C48.6888 -0.219184 46.4239 -0.321471 44.9699 1.01557" fill="#8B8788"/>
<path d="M56.9157 19.4419C55.4617 20.779 55.3594 23.0366 56.6965 24.4905C58.0335 25.9372 60.2912 26.0395 61.7451 24.7024C63.199 23.3727 63.294 21.1077 61.9643 19.6538C60.6272 18.1999 58.3696 18.1049 56.9157 19.4419Z" fill="#8B8788"/>
<path d="M36.9769 11.2151C36.4655 9.80498 34.902 9.08166 33.4919 9.5931C32.0817 10.1118 31.3584 11.6681 31.8699 13.0782C32.3886 14.4883 33.9448 15.2116 35.3476 14.7002C36.7577 14.1887 37.4884 12.6252 36.9696 11.2151M35.9029 11.6023C36.2025 12.4279 35.7787 13.3339 34.9604 13.6335C34.1421 13.933 33.2288 13.5092 32.9293 12.6909C32.6224 11.8727 33.0462 10.9594 33.8718 10.6598C34.6974 10.3603 35.6034 10.784 35.9029 11.6023Z" fill="#8B8788"/>
<path d="M40.0017 27.6395C39.4903 26.2221 37.9267 25.4988 36.5166 26.0102C35.1065 26.529 34.3759 28.0925 34.8946 29.4953C35.4134 30.9054 36.9696 31.6287 38.3797 31.1173C39.7898 30.6059 40.5204 29.0496 40.0017 27.6395Z" fill="#8B8788"/>
<path d="M49.9163 6.57561C48.5062 7.08705 47.7756 8.65059 48.2943 10.0607C48.813 11.4708 50.3693 12.1941 51.7794 11.6827C53.1895 11.1712 53.9128 9.60771 53.3941 8.1976C52.8826 6.7875 51.3264 6.06418 49.909 6.57561" fill="#8B8788"/>
<path d="M52.9337 22.9928C51.5236 23.5042 50.8003 25.0677 51.3118 26.4778C51.8305 27.8806 53.3867 28.6113 54.7968 28.0998C56.2069 27.5884 56.9303 26.0322 56.4188 24.6147C55.9001 23.2046 54.3438 22.4813 52.9337 22.9928Z" fill="#8B8788"/>
<path d="M152.342 23.2996L154.293 21.3562L152.342 19.4127V16.6582H149.588L147.637 14.7148L145.694 16.6582H142.939V19.4127L140.989 21.3562L142.939 23.2996V26.0541H145.694L147.637 27.9975L149.588 26.0541H152.342V23.2996Z" fill="#E31118"/>
<path d="M142.939 13.7504V10.1118L145.562 12.7348L144.883 13.7723L142.939 13.7504Z" fill="#43AC51"/>
<path d="M152.342 13.7504V10.1118L149.72 12.7348L150.392 13.7723L152.342 13.7504Z" fill="#6A391A"/>
<path d="M142.939 28.867V32.5055L145.562 29.8826L144.883 28.8451L142.939 28.867Z" fill="#6A391A"/>
<path d="M152.342 28.867V32.5055L149.72 29.8826L150.392 28.8451L152.342 28.867Z" fill="#6A391A"/>
<path d="M155.104 26.2075H158.75L156.12 23.5846L155.075 24.264L155.104 26.2075Z" fill="#73C3C2"/>
<path d="M155.104 16.819H158.75L156.12 19.4419L155.075 18.7624L155.104 16.819Z" fill="#43AC51"/>
<path d="M140.09 26.2075H136.444L139.067 23.5846L140.112 24.264L140.09 26.2075Z" fill="#73C3C2"/>
<path d="M140.09 16.819H136.444L139.067 19.4419L140.112 18.7624L140.09 16.819Z" fill="#D2AC3B"/>
<path d="M155.075 7.3647L155.155 13.9257L161.702 14.028L165.698 10.0388L165.406 9.47621C163.916 7.26972 162.031 5.36279 159.846 3.84309L159.02 3.42664L155.075 7.3647Z" fill="#D2AC3B"/>
<path d="M142.939 6.14455L147.645 10.7329L152.35 6.18108V0.533356H152.328C150.808 0.182656 149.23 0 147.608 0C146.191 0 144.802 0.138819 143.458 0.401843L142.947 0.569887V6.13725" fill="#43AC51"/>
<path d="M133.441 14.0353H140.119V7.42314L136.123 3.43393L135.45 3.78463C133.266 5.28972 131.366 7.18934 129.868 9.37391L129.496 10.1045L133.441 14.0426" fill="#73C3C2"/>
<path d="M132.272 26.0906L136.868 21.3927L132.309 16.6948H126.654V16.7167C126.303 18.2364 126.113 19.8145 126.113 21.4292C126.113 22.8466 126.259 24.2275 126.522 25.5719L126.69 26.0833H132.265" fill="#73C3C2"/>
<path d="M140.112 35.5084L140.039 28.9473L133.492 28.8451L129.496 32.8343L129.788 33.3969C131.279 35.596 133.164 37.5103 135.348 39.03L136.174 39.4537L140.119 35.5157" fill="#43AC51"/>
<path d="M152.255 36.7358L147.55 32.1475L142.844 36.6993V42.3397H142.866C144.386 42.6904 145.964 42.8731 147.586 42.8731C149.004 42.8731 150.392 42.7342 151.736 42.4712L152.248 42.3032V36.7358" fill="#76C5BE"/>
<path d="M161.753 28.8451L155.177 28.9254L155.075 35.4645L159.072 39.4537L159.744 39.103C161.928 37.5979 163.828 35.6983 165.326 33.5138L165.698 32.7831L161.753 28.8451Z" fill="#C13C1B"/>
<path d="M168.665 17.3012L168.497 16.7898H162.922L158.326 21.4877L162.885 26.1783H168.533V26.1564C168.884 24.6367 169.066 23.0585 169.066 21.4438C169.066 20.0264 168.928 18.6456 168.665 17.3012Z" fill="#6A391A"/>
<path d="M185.228 7.92729C185.169 7.89806 185.089 7.89076 185.023 7.86884C185.389 7.67887 185.695 7.43777 185.907 7.13821C186.148 6.79482 186.273 6.39298 186.273 5.93268C186.273 5.23859 185.988 4.67601 185.411 4.24494C184.833 3.81387 183.957 3.60199 182.788 3.60199H178.229V12.5083H183.036C184.234 12.5083 185.14 12.2964 185.769 11.8654C186.39 11.4343 186.704 10.8352 186.704 10.068C186.704 9.54927 186.572 9.1109 186.317 8.75289C186.053 8.39489 185.695 8.11725 185.228 7.92729ZM182.452 5.42855C182.875 5.42855 183.197 5.50161 183.409 5.64043C183.621 5.77925 183.723 5.99113 183.723 6.28338C183.723 6.57563 183.621 6.78751 183.409 6.93364C183.197 7.07976 182.875 7.15282 182.452 7.15282H180.72V5.43586H182.452V5.42855ZM183.818 10.4772C183.591 10.6233 183.263 10.6964 182.831 10.6964H180.72V8.89171H182.831C183.263 8.89171 183.591 8.96477 183.818 9.1109C184.044 9.25702 184.154 9.48352 184.154 9.79038C184.154 10.0972 184.044 10.3237 183.818 10.4699" fill="#1D1D1B"/>
<path d="M188.012 12.5156H190.532V6.28337V3.60928H188.012V7.14551V12.5156Z" fill="#1D1D1B"/>
<path d="M195.113 6.21032C195.332 5.98382 195.603 5.81578 195.917 5.69157C196.231 5.57467 196.574 5.51622 196.962 5.51622C197.393 5.51622 197.787 5.59659 198.138 5.76463C198.489 5.93268 198.818 6.18109 199.124 6.50987L200.724 5.05593C200.293 4.52988 199.745 4.12804 199.081 3.8504C198.416 3.57276 197.67 3.42664 196.83 3.42664C196.107 3.42664 195.442 3.53623 194.836 3.76272C194.229 3.98922 193.703 4.31069 193.265 4.72715C192.826 5.1436 192.483 5.63312 192.235 6.1957C191.986 6.75828 191.862 7.37931 191.862 8.05879C191.862 8.73828 191.986 9.35931 192.235 9.92189C192.483 10.4845 192.819 10.974 193.257 11.3904C193.696 11.8069 194.215 12.1284 194.814 12.3476C195.413 12.5741 196.07 12.6836 196.772 12.6836C197.415 12.6836 198.072 12.5887 198.744 12.3914C199.417 12.1941 200.008 11.9165 200.513 11.5512V7.86153H198.284V10.2872C198.196 10.331 198.101 10.3822 198.014 10.4114C197.656 10.5356 197.29 10.5941 196.918 10.5941C196.545 10.5941 196.202 10.5356 195.895 10.4114C195.588 10.2872 195.318 10.1119 195.099 9.89266C194.879 9.66617 194.704 9.39584 194.587 9.08167C194.463 8.7675 194.405 8.42411 194.405 8.05149C194.405 7.67887 194.463 7.31356 194.587 6.99939C194.711 6.69253 194.879 6.4222 195.099 6.1957" fill="#1D1D1B"/>
<path d="M188.618 36.2828L186.821 30.5401H184.505L182.612 36.2244L180.822 30.5401H178.229L181.114 39.4464H183.818L185.593 34.0252L187.303 39.4464H189.999L192.885 30.5401H190.481L188.618 36.2828Z" fill="#1D1D1B"/>
<path d="M196.282 35.8737H200.242V33.9886H196.282V32.4909H200.776V30.5401H193.791V39.4464H200.944V37.503H196.282V35.8737Z" fill="#1D1D1B"/>
<path d="M204.838 35.8737H208.798V33.9886H204.838V32.4909H209.331V30.5401H202.339V39.4464H209.492V37.503H204.838V35.8737Z" fill="#1D1D1B"/>
<path d="M219.611 30.5401H216.835L213.386 34.2444V30.5401H210.895V39.4464H213.386V37.218L214.321 36.2171L216.871 39.4464H219.801L215.973 34.4782L219.611 30.5401Z" fill="#1D1D1B"/>
<path d="M178.229 25.8933H180.749V20.2748V16.987H178.229V20.8813V25.8933Z" fill="#1D1D1B"/>
<path d="M185.009 21.1443L188.939 25.8933H191.014V16.987H188.545V21.7288L184.614 16.987H182.539V25.8933H185.009V21.1443Z" fill="#1D1D1B"/>
<path d="M201.353 23.8038C201.777 23.1389 201.981 22.3498 201.981 21.4438C201.981 20.5379 201.769 19.7415 201.353 19.0766C200.936 18.4117 200.352 17.9003 199.607 17.535C198.861 17.1697 197.992 16.987 197.013 16.987H192.797V25.8933H197.013C197.999 25.8933 198.861 25.7107 199.607 25.3454C200.352 24.9801 200.936 24.4686 201.353 23.7964M199.117 22.7517C198.905 23.1243 198.613 23.4019 198.233 23.5919C197.853 23.7818 197.415 23.8768 196.903 23.8768H195.311V18.9889H196.903C197.415 18.9889 197.853 19.0839 198.233 19.2739C198.613 19.4638 198.905 19.7415 199.117 20.1068C199.329 20.4721 199.431 20.9105 199.431 21.4292C199.431 21.948 199.329 22.379 199.117 22.7443" fill="#1D1D1B"/>
<path d="M211.603 21.9261V16.987H209.119V21.8457C209.119 22.6128 208.973 23.1535 208.674 23.4896C208.374 23.8184 207.965 23.9864 207.439 23.9864C206.913 23.9864 206.496 23.8184 206.197 23.4896C205.897 23.1608 205.744 22.6128 205.744 21.8457V16.987H203.223V21.9261C203.223 23.2485 203.596 24.2714 204.326 24.9947C205.064 25.718 206.095 26.076 207.402 26.076C208.71 26.076 209.748 25.718 210.478 24.9947C211.216 24.2714 211.589 23.2485 211.589 21.9261" fill="#1D1D1B"/>
<path d="M219.947 24.6293C220.239 24.191 220.386 23.7161 220.386 23.1973C220.386 22.7297 220.298 22.3425 220.115 22.0356C219.933 21.7288 219.692 21.473 219.399 21.2831C219.1 21.0931 218.771 20.9397 218.413 20.8228C218.055 20.7059 217.69 20.6109 217.332 20.5378C216.974 20.4575 216.637 20.3844 216.338 20.3113C216.038 20.2383 215.797 20.1433 215.615 20.0337C215.432 19.9168 215.337 19.7634 215.337 19.5661C215.337 19.4127 215.381 19.2812 215.476 19.157C215.571 19.0401 215.724 18.9451 215.936 18.872C216.148 18.799 216.426 18.7624 216.776 18.7624C217.164 18.7624 217.573 18.8209 217.982 18.9305C218.398 19.0474 218.815 19.2154 219.246 19.4492L220.02 17.5788C219.582 17.3231 219.078 17.1331 218.515 17.0016C217.953 16.8701 217.375 16.8044 216.791 16.8044C215.914 16.8044 215.184 16.9359 214.599 17.1989C214.015 17.4619 213.576 17.8053 213.284 18.2437C212.992 18.6747 212.846 19.157 212.846 19.6976C212.846 20.1725 212.941 20.5671 213.123 20.8739C213.313 21.1808 213.554 21.4365 213.847 21.6265C214.146 21.8164 214.475 21.9699 214.833 22.0868C215.191 22.2037 215.556 22.306 215.914 22.379C216.272 22.4521 216.601 22.5324 216.901 22.6055C217.2 22.6786 217.441 22.7809 217.624 22.8978C217.814 23.0147 217.901 23.1754 217.901 23.38C217.901 23.5261 217.85 23.6503 217.755 23.7526C217.66 23.8549 217.5 23.9426 217.288 24.0083C217.076 24.0741 216.798 24.1033 216.448 24.1033C215.929 24.1033 215.41 24.0229 214.891 23.8549C214.373 23.6868 213.912 23.4823 213.51 23.2265L212.685 25.0823C213.109 25.3746 213.657 25.6084 214.336 25.791C215.008 25.9737 215.71 26.0614 216.44 26.0614C217.324 26.0614 218.055 25.9299 218.639 25.6668C219.224 25.4038 219.655 25.0531 219.947 24.6147" fill="#1D1D1B"/>
<path d="M220.576 18.9816H223.315V25.8933H225.836V18.9816H228.554V16.987H220.576V18.9816Z" fill="#1D1D1B"/>
<path d="M237.044 22.021C237.365 21.5315 237.526 20.9543 237.526 20.2821C237.526 19.61 237.365 19.0182 237.044 18.5213C236.722 18.0245 236.262 17.6446 235.678 17.3816C235.086 17.1185 234.384 16.987 233.573 16.987H229.504V25.8933H232.024V23.5261H233.398L235.013 25.8933H237.709L235.78 23.0877C236.321 22.832 236.744 22.4813 237.044 22.021ZM234.596 19.3177C234.852 19.5442 234.983 19.873 234.983 20.2821C234.983 20.6913 234.852 21.0055 234.596 21.2393C234.333 21.4658 233.946 21.5827 233.42 21.5827H232.017V18.9743H233.42C233.946 18.9743 234.341 19.0912 234.596 19.3177Z" fill="#1D1D1B"/>
<path d="M238.914 25.8933H241.435V19.4565V16.987H238.914V21.1443V25.8933Z" fill="#1D1D1B"/>
<path d="M246.089 16.987L242.158 25.8933H244.73L245.424 24.1618H249.201L249.895 25.8933H252.518L248.573 16.987H246.089ZM246.169 22.306L247.309 19.4565L248.456 22.306H246.169Z" fill="#1D1D1B"/>
<path d="M255.748 23.8987V16.987H253.234V25.8933H260V23.8987H255.748Z" fill="#1D1D1B"/>
<path d="M182.24 55.7028C181.662 55.7028 181.129 55.6078 180.64 55.4252C180.15 55.2425 179.726 54.9795 179.368 54.6361C179.01 54.2927 178.733 53.8982 178.528 53.4306C178.323 52.9703 178.229 52.4588 178.229 51.9036C178.229 51.3483 178.331 50.8368 178.528 50.3766C178.733 49.9163 179.01 49.5144 179.368 49.171C179.726 48.8276 180.15 48.5646 180.64 48.3819C181.129 48.1993 181.662 48.1043 182.24 48.1043C182.912 48.1043 183.518 48.2212 184.044 48.455C184.578 48.6888 185.016 49.0322 185.374 49.4779L184.059 50.6688C183.825 50.3912 183.562 50.1793 183.284 50.0332C182.999 49.887 182.685 49.814 182.342 49.814C182.042 49.814 181.772 49.8651 181.516 49.9601C181.268 50.0551 181.056 50.2012 180.873 50.3839C180.698 50.5665 180.559 50.793 180.457 51.0487C180.355 51.3044 180.303 51.5894 180.303 51.9036C180.303 52.2177 180.355 52.5027 180.457 52.7584C180.559 53.0141 180.698 53.2333 180.873 53.416C181.049 53.5986 181.261 53.7447 181.516 53.8397C181.765 53.9347 182.042 53.9858 182.342 53.9858C182.693 53.9858 182.999 53.9128 183.284 53.7666C183.562 53.6205 183.825 53.4086 184.059 53.131L185.374 54.3146C185.023 54.753 184.578 55.0891 184.044 55.3302C183.511 55.5713 182.912 55.6882 182.24 55.6882" fill="#159A34"/>
<path d="M188.333 53.9639H192.147V55.5567H186.295V48.265H192.015V49.8578H188.34V53.9639H188.333ZM188.187 51.0853H191.57V52.6269H188.187V51.0853Z" fill="#159A34"/>
<path d="M193.294 55.5567V48.265H194.989L199.007 53.1237H198.211V48.265H200.228V55.5567H198.533L194.507 50.7053H195.311V55.5567H193.294Z" fill="#159A34"/>
<path d="M203.238 55.5567V49.9016H201.002V48.265H207.534V49.9016H205.298V55.5567H203.238Z" fill="#159A34"/>
<path d="M208.301 55.5567V48.265H211.633C212.298 48.265 212.875 48.3746 213.357 48.5865C213.839 48.8057 214.212 49.1126 214.475 49.5217C214.738 49.9309 214.869 50.4058 214.869 50.9684C214.869 51.5309 214.738 51.9912 214.475 52.3931C214.212 52.7949 213.839 53.0945 213.357 53.3137C212.875 53.5255 212.298 53.6351 211.633 53.6351H209.448L210.369 52.773V55.5713H208.308L208.301 55.5567ZM210.361 52.9703L209.441 52.0205H211.501C211.932 52.0205 212.254 51.9255 212.466 51.7428C212.677 51.5529 212.78 51.2971 212.78 50.9611C212.78 50.625 212.677 50.3546 212.466 50.172C212.254 49.982 211.932 49.887 211.501 49.887H209.441L210.361 48.9372V52.9703ZM212.809 55.5567L210.997 52.8972H213.196L215.015 55.5567H212.809Z" fill="#159A34"/>
<path d="M215.132 55.5567L218.354 48.265H220.386L223.615 55.5567H221.467L218.946 49.2733H219.757L217.237 55.5567H215.132ZM216.893 54.1393L217.427 52.6196H220.992L221.525 54.1393H216.9H216.893Z" fill="#159A34"/>
<path d="M224.199 55.5567V48.265H226.26V53.9274H229.738V55.5567H224.199Z" fill="#159A34"/>
<path d="M232.711 55.5567L235.933 48.265H237.964L241.194 55.5567H239.046L236.525 49.2733H237.336L234.815 55.5567H232.711ZM234.472 54.1393L235.005 52.6196H238.571L239.104 54.1393H234.479H234.472Z" fill="#159A34"/>
<path d="M244.335 55.7028C243.736 55.7028 243.166 55.6298 242.611 55.4763C242.056 55.3302 241.61 55.1329 241.259 54.8991L241.939 53.3794C242.268 53.584 242.64 53.7594 243.071 53.8909C243.503 54.0224 243.926 54.0954 244.35 54.0954C244.635 54.0954 244.861 54.0735 245.037 54.0151C245.212 53.9639 245.336 53.8909 245.417 53.8032C245.497 53.7155 245.534 53.6132 245.534 53.4963C245.534 53.3283 245.453 53.1968 245.307 53.1018C245.154 53.0068 244.956 52.9264 244.715 52.8607C244.474 52.7949 244.204 52.7365 243.904 52.6707C243.612 52.605 243.313 52.5319 243.02 52.4296C242.728 52.3346 242.458 52.2031 242.209 52.0497C241.961 51.8963 241.771 51.6917 241.618 51.436C241.464 51.1803 241.391 50.8588 241.391 50.4716C241.391 50.0332 241.508 49.6386 241.749 49.2879C241.99 48.9372 242.348 48.645 242.83 48.4331C243.313 48.2212 243.904 48.1116 244.62 48.1116C245.103 48.1116 245.57 48.1628 246.03 48.2724C246.491 48.382 246.907 48.5354 247.265 48.7473L246.63 50.2816C246.279 50.0916 245.935 49.9528 245.599 49.8578C245.263 49.7628 244.927 49.719 244.613 49.719C244.328 49.719 244.102 49.7482 243.926 49.8067C243.751 49.8651 243.627 49.9455 243.554 50.0405C243.481 50.1355 243.437 50.2524 243.437 50.3766C243.437 50.5373 243.51 50.6615 243.663 50.7565C243.809 50.8515 244.007 50.9245 244.255 50.983C244.503 51.0414 244.774 51.0999 245.066 51.1656C245.358 51.2241 245.658 51.3045 245.95 51.3994C246.242 51.4944 246.513 51.6186 246.761 51.7721C247.002 51.9255 247.199 52.1301 247.353 52.3858C247.499 52.6415 247.579 52.9557 247.579 53.3429C247.579 53.7667 247.462 54.1539 247.221 54.5119C246.98 54.8699 246.622 55.1549 246.147 55.374C245.672 55.5859 245.073 55.6955 244.35 55.6955" fill="#159A34"/>
<path d="M248.515 55.5567V48.265H250.575V50.3912V55.5567H248.515Z" fill="#159A34"/>
<path d="M251.167 55.5567L254.389 48.265H256.42L259.649 55.5567H257.501L254.981 49.2733H255.792L253.271 55.5567H251.167ZM252.928 54.1393L253.461 52.6196H257.026L257.56 54.1393H252.935H252.928Z" fill="#159A34"/>
</svg>
