<svg width="200" height="44" viewBox="0 0 200 44" fill="none" xmlns="http://www.w3.org/2000/svg">
<path d="M82.7068 0.0620117H82.1392V42.9103H82.7068V0.0620117Z" fill="white"/>
<path d="M2.21997 42.5674H0V34.4575H2.21997V36.6663V42.5674Z" fill="white"/>
<path d="M20.643 34.4575V42.5674H18.659L14.7755 37.0878C14.7811 37.2227 14.7867 37.3182 14.7867 37.3575C14.8092 37.498 14.8204 37.6161 14.8204 37.7116V42.5674H13.0107V34.4575H15.5173L18.8951 39.2403C18.867 38.9986 18.8557 38.8244 18.8557 38.7008V34.4575H20.6542H20.643Z" fill="white"/>
<path d="M11.4035 34.4575V42.5674H9.41954L5.53037 37.0878C5.53599 37.2227 5.54161 37.3182 5.54161 37.3575C5.56409 37.498 5.56971 37.6161 5.56971 37.7116V42.5674H3.76001V34.4575H6.26661L9.64435 39.2403C9.61624 38.9986 9.59938 38.8244 9.59938 38.7008V34.4575H11.3978H11.4035Z" fill="white"/>
<path d="M41.7131 39.3527V42.5674H39.5493V34.4575H43.579C44.3209 34.4575 44.9222 34.5306 45.3718 34.6879C45.8214 34.8397 46.198 35.1207 46.4959 35.531C46.7881 35.9356 46.9342 36.3909 46.9342 36.8911C46.9342 37.8634 46.4003 38.5659 45.3437 38.9874L47.0354 42.5731H44.6581L43.253 39.3583H41.7131V39.3527ZM41.7131 35.9019V37.9701H43.0282C43.461 37.9701 43.7701 37.942 43.9668 37.8858C44.1635 37.8353 44.3321 37.7116 44.4895 37.5261C44.6412 37.3463 44.7143 37.1327 44.7143 36.8967C44.7143 36.6719 44.6412 36.4695 44.4895 36.2897C44.3321 36.1099 44.1691 35.9974 43.9949 35.9581C43.815 35.9188 43.4778 35.8963 42.9833 35.8963H41.7131V35.9019Z" fill="white"/>
<path d="M34.6765 34.4294C35.5307 34.4294 36.4974 34.4519 37.3236 34.8959C37.8856 35.1882 38.5994 35.7839 38.5994 36.9023C38.5994 37.4531 38.4308 37.987 37.9643 38.4872C37.0313 39.4876 35.823 39.4764 34.9687 39.4764H33.3614V42.5956H31.1189V34.4238H34.6765V34.4294ZM34.7776 38.0488C35.1149 38.0488 35.6038 38.0376 35.9691 37.751C36.222 37.5487 36.3625 37.2395 36.3625 36.9417C36.3625 36.6438 36.2389 36.3459 35.9972 36.1548C35.66 35.8963 35.1823 35.857 34.817 35.857H33.3614V38.0488H34.772H34.7776Z" fill="white"/>
<path d="M62.6932 39.6391H62.7213L64.7108 34.4292H67.7682V42.5953H65.6101V36.2389H65.582L63.2552 42.5953H61.794L59.4166 36.2389H59.3885V42.5953H57.6238V34.4292H60.6755L62.6932 39.6391Z" fill="white"/>
<path d="M54.3191 34.688C52.2059 33.4909 49.5251 34.2327 48.3223 36.3459C47.1252 38.4591 47.8727 41.1456 49.9859 42.3427C52.1047 43.5342 54.7855 42.7923 55.977 40.6791C57.1685 38.5659 56.4266 35.8851 54.3135 34.688M53.4086 36.2841C54.6394 36.9866 55.0778 38.549 54.3809 39.7799C53.684 41.0107 52.1216 41.4434 50.8908 40.7465C49.6543 40.0496 49.2216 38.4816 49.9185 37.2564C50.6154 36.02 52.1834 35.5872 53.4142 36.2841" fill="white"/>
<path d="M28.039 34.688C25.9259 33.4909 23.245 34.2327 22.0423 36.3459C20.8452 38.4591 21.5927 41.1456 23.7059 42.3427C25.8191 43.5342 28.4999 42.7923 29.697 40.6791C30.8941 38.5659 30.1522 35.8851 28.039 34.688ZM27.1342 36.2841C28.365 36.9866 28.7978 38.549 28.1009 39.7799C27.404 41.0107 25.8415 41.4434 24.6051 40.7465C23.3743 40.0496 22.9415 38.4816 23.6384 37.2564C24.3353 36.02 25.9034 35.5872 27.1342 36.2841Z" fill="white"/>
<path d="M26.6846 21.0871C26.7464 19.5753 25.5718 18.2939 24.0544 18.2265C22.5369 18.1646 21.2611 19.3393 21.1937 20.8567C21.1262 22.3742 22.3009 23.6556 23.8183 23.7174C25.3358 23.7792 26.6172 22.6046 26.6846 21.0871Z" fill="white"/>
<path d="M26.9207 17.0235C27.4097 15.9781 26.9545 14.736 25.9091 14.2527C24.8581 13.7637 23.6161 14.219 23.1327 15.2643C22.6494 16.3097 23.099 17.5518 24.15 18.0351C25.1953 18.524 26.4374 18.0744 26.9264 17.0235" fill="white"/>
<path d="M29.3148 16.2593C28.6292 16.5122 28.2751 17.2653 28.528 17.9566C28.7809 18.6422 29.534 18.9963 30.2197 18.7434C30.9053 18.4905 31.2594 17.7318 31.0065 17.0461C30.7592 16.3604 30.0005 16.0007 29.3148 16.2593ZM29.5059 16.7763C29.9106 16.6302 30.3489 16.8381 30.4951 17.2316C30.6412 17.6362 30.4333 18.0802 30.0342 18.2207C29.6352 18.3668 29.1912 18.1645 29.0451 17.7599C28.8989 17.3608 29.1069 16.9168 29.5059 16.7763Z" fill="white"/>
<path d="M32.4623 17.7372C32.2544 18.1868 32.4511 18.7151 32.9007 18.9286C33.3447 19.1422 33.8842 18.9455 34.0922 18.4959C34.3001 18.0463 34.109 17.5124 33.6594 17.31C33.2098 17.1021 32.6759 17.2932 32.4679 17.7428M32.8108 17.9001C32.9288 17.636 33.2435 17.5236 33.5077 17.6472C33.7718 17.7709 33.8842 18.08 33.7606 18.3441C33.6369 18.6083 33.3278 18.7207 33.0637 18.597C32.8052 18.4734 32.6871 18.1699 32.8108 17.9058" fill="white"/>
<path d="M40.2741 21.8907C38.7623 22.0424 37.6551 23.38 37.8069 24.8975C37.953 26.4037 39.3019 27.5053 40.8137 27.3648C42.3199 27.213 43.4271 25.8698 43.2809 24.3636C43.1292 22.8517 41.7916 21.7502 40.2798 21.8963" fill="white"/>
<path d="M36.2389 21.5476C35.1317 21.2104 33.9627 21.8342 33.6311 22.9358C33.2939 24.043 33.9234 25.2063 35.0193 25.5435C36.1265 25.8808 37.2955 25.2569 37.6271 24.1554C37.9643 23.0482 37.3404 21.8848 36.2389 21.5476Z" fill="white"/>
<path d="M36.4862 17.8439C35.8006 18.0912 35.4465 18.8556 35.6994 19.5356C35.9467 20.2213 36.711 20.5753 37.3911 20.328C38.0767 20.0751 38.4308 19.3164 38.1779 18.6308C37.925 17.9451 37.1719 17.591 36.4862 17.8439ZM36.6773 18.361C37.0763 18.2149 37.5203 18.4228 37.6608 18.8218C37.807 19.2209 37.599 19.6649 37.2 19.8054C36.801 19.9515 36.357 19.7492 36.2108 19.3445C36.0647 18.9455 36.2727 18.5071 36.6717 18.3554" fill="white"/>
<path d="M36.6662 15.0563C36.4583 15.5059 36.6494 16.0398 37.099 16.2477C37.5486 16.4557 38.0825 16.259 38.2905 15.815C38.4984 15.3654 38.3073 14.8314 37.8577 14.6235C37.4081 14.4156 36.8742 14.6066 36.6662 15.0563ZM37.0034 15.2192C37.1271 14.9551 37.4362 14.8427 37.7003 14.9607C37.9645 15.0844 38.0769 15.3935 37.9532 15.6576C37.8296 15.9218 37.5205 16.0342 37.2563 15.9105C36.9978 15.7925 36.8798 15.4778 37.0034 15.2192Z" fill="white"/>
<path d="M30.2142 4.57485C30.2816 3.0574 29.1014 1.776 27.584 1.71418C26.0665 1.64674 24.7907 2.82698 24.7233 4.34443C24.6615 5.86188 25.8361 7.14328 27.3535 7.2051C28.8654 7.27254 30.1524 6.09231 30.2142 4.57485ZM29.0677 4.52989C29.0283 5.41226 28.2865 6.09793 27.3985 6.0642C26.5161 6.02486 25.8305 5.27738 25.8698 4.39501C25.9091 3.50702 26.651 2.82698 27.539 2.8607C28.4214 2.90004 29.1126 3.64752 29.0733 4.52989" fill="white"/>
<path d="M34.2101 6.45189C34.6991 5.40092 34.2439 4.16448 33.1985 3.67552C32.1532 3.19218 30.9055 3.64742 30.4221 4.69277C29.9332 5.73813 30.3884 6.98019 31.4338 7.46915C32.4791 7.9581 33.7212 7.50287 34.2101 6.45751M33.4233 6.0922C33.1423 6.7048 32.4173 6.96895 31.8047 6.68232C31.1921 6.40131 30.9336 5.67631 31.2146 5.06371C31.5012 4.45673 32.2206 4.19258 32.8332 4.47359C33.4402 4.76022 33.7099 5.48522 33.4233 6.0922Z" fill="white"/>
<path d="M30.6188 9.2282C29.9331 9.48111 29.5791 10.2398 29.832 10.9255C30.0849 11.6055 30.8436 11.9652 31.5293 11.7123C32.2149 11.4594 32.569 10.7007 32.3161 10.015C32.0688 9.32937 31.3045 8.9753 30.6244 9.2282M30.8155 9.74526C31.2145 9.60476 31.6585 9.80708 31.8046 10.2061C31.9508 10.6108 31.7428 11.0491 31.3438 11.1953C30.9448 11.3414 30.5008 11.1334 30.3546 10.7344C30.2085 10.3354 30.4165 9.89139 30.8155 9.74526Z" fill="white"/>
<path d="M29.7195 13.7413C29.5116 14.1909 29.7083 14.7248 30.1523 14.9328C30.6019 15.1407 31.1302 14.9496 31.3437 14.5C31.5517 14.0504 31.3606 13.5165 30.9054 13.3086C30.4558 13.095 29.9218 13.2917 29.7139 13.7413M30.0511 13.8987C30.1747 13.6345 30.4839 13.5221 30.748 13.6458C31.0122 13.7694 31.1246 14.0785 31.0009 14.3427C30.8773 14.6012 30.5625 14.7192 30.304 14.5956C30.0455 14.4719 29.9331 14.1628 30.0511 13.9043" fill="white"/>
<path d="M44.1015 5.24354C42.5841 5.18172 41.3027 6.35634 41.2352 7.87379C41.1734 9.38562 42.348 10.6726 43.8655 10.7345C45.3773 10.8019 46.6587 9.62167 46.7262 8.10422C46.788 6.58677 45.6134 5.30537 44.0959 5.24354" fill="white"/>
<path d="M43.77 10.9651C42.7191 10.4761 41.4826 10.9314 40.9937 11.9767C40.5047 13.0221 40.9599 14.2642 42.0053 14.7531C43.0563 15.2421 44.2927 14.7868 44.7817 13.7415C45.2706 12.6961 44.8154 11.4484 43.77 10.9651Z" fill="white"/>
<path d="M37.7846 10.8078C37.0989 11.0607 36.7448 11.8194 36.9977 12.5051C37.245 13.1908 38.0094 13.5448 38.695 13.2919C39.3807 13.0446 39.7348 12.2859 39.4819 11.6002C39.2289 10.9146 38.4758 10.5605 37.7846 10.8078ZM37.97 11.3305C38.3691 11.1843 38.8131 11.3923 38.9592 11.7913C39.1053 12.1904 38.8974 12.6344 38.4983 12.7805C38.0993 12.9266 37.6553 12.7187 37.5092 12.3196C37.363 11.9206 37.571 11.4766 37.9644 11.3305" fill="white"/>
<path d="M33.9123 11.0604C33.7043 11.51 33.901 12.0383 34.3506 12.2518C34.8003 12.4598 35.3342 12.2631 35.5421 11.8135C35.7501 11.3639 35.5534 10.8299 35.1038 10.622C34.6541 10.414 34.1202 10.6107 33.9123 11.0604ZM34.2551 11.2177C34.3731 10.9536 34.6879 10.8412 34.9464 10.9648C35.2105 11.0828 35.3229 11.3976 35.2049 11.6561C35.0813 11.9203 34.7722 12.0327 34.508 11.909C34.2439 11.7854 34.1315 11.4763 34.2551 11.2177Z" fill="white"/>
<path d="M24.3073 10.1278C23.2845 9.00937 21.5422 8.93631 20.4238 9.9648C19.3054 10.9933 19.2323 12.7299 20.2552 13.8484C21.2837 14.9668 23.0203 15.0398 24.1387 14.0113C25.2571 12.9885 25.3302 11.2462 24.3073 10.1278Z" fill="white"/>
<path d="M33.485 24.2962C32.4621 23.1834 30.7198 23.1047 29.6014 24.1332C28.483 25.1617 28.4099 26.8984 29.4384 28.0112C30.4669 29.1296 32.2036 29.2026 33.322 28.1798C34.4404 27.1569 34.5135 25.4146 33.485 24.2962ZM32.6419 25.0718C33.2433 25.7294 33.1983 26.7354 32.5464 27.3367C31.8945 27.9381 30.8828 27.8931 30.2815 27.2412C29.6801 26.5893 29.7251 25.5776 30.377 24.9763C31.0289 24.3805 32.0462 24.4199 32.6419 25.0718Z" fill="white"/>
<path d="M34.5978 0.781176C33.4793 1.80967 33.4063 3.54069 34.4348 4.66473C35.4576 5.78314 37.1999 5.85621 38.3127 4.82771C39.4311 3.79922 39.5042 2.06258 38.4757 0.944162C37.4528 -0.168636 35.7106 -0.247319 34.5921 0.781176" fill="white"/>
<path d="M43.7812 14.9555C42.6628 15.984 42.5841 17.7207 43.6126 18.8391C44.6411 19.9519 46.3778 20.0306 47.4962 19.0021C48.6146 17.9792 48.6876 16.2369 47.6648 15.1185C46.6363 14.0001 44.8996 13.927 43.7812 14.9555Z" fill="white"/>
<path d="M28.4437 8.62685C28.0503 7.54216 26.8475 6.98576 25.7628 7.37917C24.6781 7.77821 24.1217 8.97531 24.5152 10.06C24.9142 11.1447 26.1113 11.7011 27.1904 11.3077C28.2751 10.9143 28.8371 9.71155 28.4381 8.62685M27.6175 8.92472C27.8479 9.55981 27.522 10.2567 26.8925 10.4871C26.263 10.7176 25.5605 10.3916 25.3301 9.76213C25.094 9.13267 25.42 8.43015 26.0551 8.19972C26.6902 7.96929 27.3871 8.29526 27.6175 8.92472Z" fill="white"/>
<path d="M30.7706 21.2613C30.3772 20.171 29.1745 19.6146 28.0898 20.008C27.0051 20.4071 26.4431 21.6098 26.8421 22.6889C27.2411 23.7735 28.4382 24.3299 29.5229 23.9365C30.6076 23.5431 31.1697 22.346 30.7706 21.2613Z" fill="white"/>
<path d="M38.3972 5.05837C37.3125 5.45179 36.7505 6.65451 37.1495 7.7392C37.5485 8.8239 38.7456 9.3803 39.8303 8.98688C40.915 8.59347 41.4714 7.39075 41.0724 6.30605C40.679 5.22136 39.4819 4.66496 38.3915 5.05837" fill="white"/>
<path d="M40.7182 17.6868C39.6335 18.0802 39.0771 19.2829 39.4705 20.3676C39.8695 21.4467 41.0666 22.0087 42.1513 21.6153C43.236 21.2219 43.7924 20.0248 43.399 18.9345C43 17.8498 41.8029 17.2934 40.7182 17.6868Z" fill="white"/>
<path d="M117.187 17.9226L118.687 16.4276L117.187 14.9326V12.8138H115.068L113.567 11.3188L112.072 12.8138H109.953V14.9326L108.453 16.4276L109.953 17.9226V20.0414H112.072L113.567 21.5364L115.068 20.0414H117.187V17.9226Z" fill="white"/>
<path d="M109.953 10.5772V7.77832L111.971 9.79597L111.448 10.594L109.953 10.5772Z" fill="white"/>
<path d="M117.187 10.5772V7.77832L115.169 9.79597L115.686 10.594L117.187 10.5772Z" fill="white"/>
<path d="M109.953 22.2053V25.0042L111.971 22.9865L111.448 22.1885L109.953 22.2053Z" fill="white"/>
<path d="M117.187 22.2053V25.0042L115.169 22.9865L115.686 22.1885L117.187 22.2053Z" fill="white"/>
<path d="M119.311 20.1597H122.116L120.092 18.1421L119.289 18.6648L119.311 20.1597Z" fill="white"/>
<path d="M119.311 12.9375H122.116L120.092 14.9551L119.289 14.4325L119.311 12.9375Z" fill="white"/>
<path d="M107.762 20.1597H104.957L106.975 18.1421L107.778 18.6648L107.762 20.1597Z" fill="white"/>
<path d="M107.762 12.9375H104.957L106.975 14.9551L107.778 14.4325L107.762 12.9375Z" fill="white"/>
<path d="M119.289 5.66502L119.35 10.712L124.386 10.7906L127.46 7.72201L127.236 7.28926C126.089 5.59196 124.639 4.12509 122.959 2.95609L122.323 2.63574L119.289 5.66502Z" fill="white"/>
<path d="M109.953 4.72658L113.573 8.25606L117.192 4.75468V0.410274H117.175C116.006 0.140505 114.792 0 113.545 0C112.454 0 111.387 0.106784 110.352 0.30911L109.959 0.438375V4.72096" fill="white"/>
<path d="M102.647 10.7965H107.784V5.71022L104.71 2.6416L104.193 2.91137C102.512 4.06913 101.051 5.53038 99.8989 7.21081L99.6123 7.77283L102.647 10.8021" fill="white"/>
<path d="M101.748 20.0698L105.283 16.4561L101.776 12.8423H97.4259V12.8591C97.1561 14.0281 97.01 15.2421 97.01 16.4842C97.01 17.5745 97.1224 18.6367 97.3247 19.6708L97.454 20.0642H101.742" fill="white"/>
<path d="M107.778 27.3141L107.722 22.2672L102.687 22.1885L99.6123 25.2571L99.8371 25.6899C100.984 27.3815 102.434 28.854 104.114 30.023L104.749 30.349L107.784 27.3197" fill="white"/>
<path d="M117.119 28.2585L113.5 24.729L109.88 28.2304V32.5692H109.897C111.066 32.8389 112.28 32.9794 113.528 32.9794C114.618 32.9794 115.686 32.8727 116.72 32.6703L117.114 32.5411V28.2585" fill="white"/>
<path d="M124.425 22.1885L119.367 22.2503L119.289 27.2804L122.363 30.349L122.88 30.0792C124.56 28.9215 126.022 27.4602 127.174 25.7798L127.46 25.2178L124.425 22.1885Z" fill="white"/>
<path d="M129.742 13.3085L129.613 12.915H125.325L121.79 16.5288L125.297 20.137H129.641V20.1201C129.911 18.9511 130.051 17.7372 130.051 16.4951C130.051 15.4048 129.944 14.3426 129.742 13.3085Z" fill="white"/>
<path d="M142.483 6.09815C142.438 6.07567 142.376 6.07005 142.326 6.05319C142.607 5.90706 142.843 5.7216 143.006 5.49117C143.191 5.22702 143.287 4.91791 143.287 4.56384C143.287 4.02992 143.068 3.59716 142.624 3.26557C142.18 2.93398 141.505 2.771 140.606 2.771H137.099V9.62201H140.797C141.719 9.62201 142.416 9.45902 142.899 9.12743C143.377 8.79584 143.618 8.33498 143.618 7.74486C143.618 7.34583 143.517 7.00862 143.32 6.73323C143.118 6.45784 142.843 6.24427 142.483 6.09815ZM140.347 4.17604C140.673 4.17604 140.921 4.23224 141.084 4.33903C141.247 4.44581 141.325 4.6088 141.325 4.83361C141.325 5.05841 141.247 5.2214 141.084 5.3338C140.921 5.44621 140.673 5.50241 140.347 5.50241H139.015V4.18166H140.347V4.17604ZM141.398 8.05959C141.224 8.172 140.971 8.2282 140.64 8.2282H139.015V6.84001H140.64C140.971 6.84001 141.224 6.89621 141.398 7.00862C141.573 7.12102 141.657 7.29525 141.657 7.53129C141.657 7.76734 141.573 7.94157 141.398 8.05397" fill="white"/>
<path d="M144.624 9.62738H146.563V4.83336V2.77637H144.624V5.49654V9.62738Z" fill="white"/>
<path d="M150.087 4.77703C150.256 4.60281 150.464 4.47354 150.705 4.378C150.947 4.28808 151.211 4.24312 151.509 4.24312C151.841 4.24312 152.144 4.30494 152.414 4.4342C152.684 4.56347 152.937 4.75455 153.173 5.00746L154.403 3.88904C154.072 3.48439 153.65 3.17528 153.139 2.96171C152.627 2.74815 152.054 2.63574 151.408 2.63574C150.852 2.63574 150.34 2.72005 149.874 2.89427C149.407 3.0685 149.002 3.31578 148.665 3.63614C148.328 3.95649 148.064 4.33304 147.873 4.76579C147.682 5.19855 147.586 5.67626 147.586 6.19894C147.586 6.72162 147.682 7.19934 147.873 7.63209C148.064 8.06484 148.322 8.4414 148.66 8.76175C148.997 9.0821 149.396 9.32939 149.857 9.49799C150.318 9.67222 150.823 9.75652 151.363 9.75652C151.858 9.75652 152.363 9.68346 152.88 9.53171C153.397 9.37997 153.853 9.1664 154.24 8.88539V6.0472H152.526V7.9131C152.459 7.94682 152.386 7.98616 152.318 8.00864C152.043 8.10419 151.762 8.14915 151.475 8.14915C151.189 8.14915 150.925 8.10419 150.689 8.00864C150.452 7.9131 150.245 7.77821 150.076 7.60961C149.907 7.43538 149.772 7.22744 149.683 6.98577C149.587 6.7441 149.542 6.47995 149.542 6.19332C149.542 5.90669 149.587 5.62568 149.683 5.38401C149.778 5.14797 149.907 4.94002 150.076 4.76579" fill="white"/>
<path d="M145.091 27.9097L143.708 23.4922H141.927L140.471 27.8647L139.094 23.4922H137.099L139.319 30.3432H141.398L142.764 26.173L144.079 30.3432H146.153L148.373 23.4922H146.524L145.091 27.9097Z" fill="white"/>
<path d="M150.986 27.5949H154.032V26.1449H150.986V24.9928H154.443V23.4922H149.07V30.3432H154.572V28.8482H150.986V27.5949Z" fill="white"/>
<path d="M157.568 27.5949H160.614V26.1449H157.568V24.9928H161.024V23.4922H155.646V30.3432H161.148V28.8482H157.568V27.5949Z" fill="white"/>
<path d="M168.932 23.4922H166.796L164.143 26.3416V23.4922H162.227V30.3432H164.143V28.629L164.863 27.8591L166.824 30.3432H169.078L166.133 26.5215L168.932 23.4922Z" fill="white"/>
<path d="M137.099 19.9179H139.038V15.596V13.0669H137.099V16.0625V19.9179Z" fill="white"/>
<path d="M142.314 16.2648L145.338 19.9179H146.934V13.0669H145.035V16.7144L142.011 13.0669H140.415V19.9179H142.314V16.2648Z" fill="white"/>
<path d="M154.887 18.3105C155.213 17.7991 155.37 17.1921 155.37 16.4952C155.37 15.7983 155.207 15.1857 154.887 14.6743C154.566 14.1628 154.117 13.7694 153.543 13.4884C152.97 13.2074 152.301 13.0669 151.548 13.0669H148.305V19.9179H151.548C152.307 19.9179 152.97 19.7774 153.543 19.4964C154.117 19.2154 154.566 18.822 154.887 18.3049M153.167 17.5012C153.004 17.7879 152.779 18.0014 152.487 18.1475C152.195 18.2937 151.857 18.3667 151.464 18.3667H150.239V14.6068H151.464C151.857 14.6068 152.195 14.6799 152.487 14.826C152.779 14.9721 153.004 15.1857 153.167 15.4667C153.33 15.7477 153.409 16.0849 153.409 16.484C153.409 16.883 153.33 17.2146 153.167 17.4956" fill="white"/>
<path d="M162.772 16.8661V13.0669H160.861V16.8043C160.861 17.3944 160.749 17.8103 160.518 18.0689C160.288 18.3218 159.973 18.451 159.568 18.451C159.164 18.451 158.843 18.3218 158.613 18.0689C158.382 17.816 158.264 17.3944 158.264 16.8043V13.0669H156.325V16.8661C156.325 17.8834 156.612 18.6702 157.174 19.2266C157.742 19.783 158.534 20.0584 159.54 20.0584C160.546 20.0584 161.344 19.783 161.906 19.2266C162.474 18.6702 162.761 17.8834 162.761 16.8661" fill="white"/>
<path d="M169.19 18.9455C169.415 18.6083 169.527 18.243 169.527 17.8439C169.527 17.4842 169.46 17.1864 169.319 16.9503C169.179 16.7143 168.994 16.5176 168.769 16.3714C168.538 16.2253 168.285 16.1073 168.01 16.0174C167.735 15.9275 167.454 15.8544 167.178 15.7982C166.903 15.7364 166.644 15.6802 166.414 15.624C166.183 15.5678 165.998 15.4947 165.857 15.4104C165.717 15.3205 165.644 15.2024 165.644 15.0507C165.644 14.9327 165.678 14.8315 165.751 14.736C165.824 14.646 165.942 14.573 166.105 14.5168C166.268 14.4606 166.481 14.4325 166.751 14.4325C167.049 14.4325 167.364 14.4774 167.678 14.5617C167.999 14.6517 168.319 14.7809 168.651 14.9608L169.246 13.522C168.909 13.3253 168.521 13.1792 168.089 13.078C167.656 12.9769 167.212 12.9263 166.762 12.9263C166.088 12.9263 165.526 13.0274 165.076 13.2298C164.627 13.4321 164.289 13.6962 164.065 14.0334C163.84 14.365 163.727 14.736 163.727 15.1519C163.727 15.5172 163.8 15.8207 163.941 16.0567C164.087 16.2928 164.273 16.4895 164.497 16.6356C164.728 16.7817 164.981 16.8997 165.256 16.9897C165.531 17.0796 165.812 17.1583 166.088 17.2145C166.363 17.2707 166.616 17.3325 166.847 17.3887C167.077 17.4449 167.262 17.5236 167.403 17.6135C167.549 17.7034 167.617 17.8271 167.617 17.9844C167.617 18.0968 167.577 18.1924 167.504 18.2711C167.431 18.3498 167.307 18.4172 167.144 18.4678C166.981 18.5184 166.768 18.5408 166.498 18.5408C166.099 18.5408 165.7 18.479 165.301 18.3498C164.902 18.2205 164.548 18.0631 164.239 17.8664L163.604 19.2939C163.93 19.5188 164.351 19.6986 164.874 19.8391C165.391 19.9796 165.931 20.047 166.493 20.047C167.173 20.047 167.735 19.9459 168.184 19.7436C168.634 19.5412 168.965 19.2715 169.19 18.9343" fill="white"/>
<path d="M169.673 14.6012H171.781V19.9179H173.72V14.6012H175.811V13.0669H169.673V14.6012Z" fill="white"/>
<path d="M182.341 16.9392C182.589 16.5627 182.712 16.1187 182.712 15.6016C182.712 15.0845 182.589 14.6293 182.341 14.2471C182.094 13.865 181.74 13.5727 181.29 13.3704C180.835 13.1681 180.296 13.0669 179.672 13.0669H176.541V19.9179H178.48V18.097H179.537L180.779 19.9179H182.853L181.369 17.7598C181.785 17.563 182.111 17.2933 182.341 16.9392ZM180.459 14.8597C180.655 15.034 180.756 15.2869 180.756 15.6016C180.756 15.9163 180.655 16.158 180.459 16.3378C180.256 16.5121 179.958 16.602 179.554 16.602H178.475V14.5956H179.554C179.958 14.5956 180.262 14.6855 180.459 14.8597Z" fill="white"/>
<path d="M183.78 19.9179H185.719V14.9665V13.0669H183.78V16.2648V19.9179Z" fill="white"/>
<path d="M189.299 13.0669L186.275 19.9179H188.254L188.788 18.5859H191.693L192.227 19.9179H194.245L191.21 13.0669H189.299ZM189.361 17.1584L190.238 14.9665L191.12 17.1584H189.361Z" fill="white"/>
<path d="M196.729 18.3836V13.0669H194.796V19.9179H200V18.3836H196.729Z" fill="white"/>
<path d="M140.184 42.8484C139.74 42.8484 139.33 42.7754 138.954 42.6348C138.577 42.4943 138.251 42.292 137.976 42.0279C137.7 41.7637 137.487 41.4602 137.329 41.1005C137.172 40.7465 137.099 40.3531 137.099 39.9259C137.099 39.4988 137.178 39.1054 137.329 38.7513C137.487 38.3972 137.7 38.0881 137.976 37.824C138.251 37.5598 138.577 37.3575 138.954 37.217C139.33 37.0765 139.74 37.0034 140.184 37.0034C140.701 37.0034 141.168 37.0933 141.573 37.2732C141.983 37.453 142.32 37.7172 142.595 38.06L141.584 38.9761C141.404 38.7625 141.202 38.5996 140.988 38.4872C140.769 38.3747 140.527 38.3185 140.263 38.3185C140.033 38.3185 139.825 38.3579 139.628 38.4309C139.437 38.504 139.274 38.6164 139.133 38.7569C138.998 38.8974 138.892 39.0717 138.813 39.2684C138.734 39.4651 138.695 39.6843 138.695 39.9259C138.695 40.1676 138.734 40.3868 138.813 40.5835C138.892 40.7802 138.998 40.9488 139.133 41.0893C139.268 41.2298 139.431 41.3422 139.628 41.4153C139.819 41.4883 140.033 41.5277 140.263 41.5277C140.533 41.5277 140.769 41.4715 140.988 41.3591C141.202 41.2467 141.404 41.0837 141.584 40.8701L142.595 41.7806C142.326 42.1178 141.983 42.3763 141.573 42.5618C141.162 42.7473 140.701 42.8372 140.184 42.8372" fill="white"/>
<path d="M144.871 41.5107H147.805V42.7359H143.303V37.127H147.704V38.3522H144.877V41.5107H144.871ZM144.759 39.2963H147.361V40.4822H144.759V39.2963Z" fill="white"/>
<path d="M148.688 42.7359V37.127H149.992L153.083 40.8644H152.47V37.127H154.021V42.7359H152.717L149.621 39.0041H150.239V42.7359H148.688Z" fill="white"/>
<path d="M156.337 42.7359V38.3859H154.617V37.127H159.641V38.3859H157.922V42.7359H156.337Z" fill="white"/>
<path d="M160.231 42.7359V37.127H162.794C163.306 37.127 163.75 37.2113 164.121 37.3742C164.492 37.5428 164.778 37.7789 164.98 38.0936C165.183 38.4084 165.284 38.7737 165.284 39.2064C165.284 39.6392 165.183 39.9932 164.98 40.3024C164.778 40.6115 164.492 40.8419 164.121 41.0105C163.75 41.1735 163.306 41.2578 162.794 41.2578H161.114L161.822 40.5946V42.7471H160.237L160.231 42.7359ZM161.816 40.7464L161.108 40.0157H162.693C163.025 40.0157 163.272 39.9427 163.435 39.8022C163.598 39.656 163.677 39.4593 163.677 39.2008C163.677 38.9423 163.598 38.7343 163.435 38.5938C163.272 38.4477 163.025 38.3746 162.693 38.3746H161.108L161.816 37.644V40.7464ZM163.699 42.7359L162.305 40.6902H163.997L165.396 42.7359H163.699Z" fill="white"/>
<path d="M165.486 42.7359L167.965 37.127H169.527L172.011 42.7359H170.359L168.42 37.9025H169.044L167.105 42.7359H165.486ZM166.841 41.6456L167.251 40.4766H169.994L170.404 41.6456H166.846H166.841Z" fill="white"/>
<path d="M172.461 42.7359V37.127H174.046V41.4826H176.721V42.7359H172.461Z" fill="white"/>
<path d="M179.009 42.7359L181.487 37.127H183.049L185.534 42.7359H183.881L181.942 37.9025H182.566L180.627 42.7359H179.009ZM180.363 41.6456L180.773 40.4766H183.516L183.926 41.6456H180.369H180.363Z" fill="white"/>
<path d="M187.95 42.8482C187.489 42.8482 187.051 42.792 186.624 42.6739C186.197 42.5615 185.854 42.4098 185.584 42.2299L186.107 41.0609C186.36 41.2183 186.646 41.3532 186.978 41.4544C187.31 41.5555 187.636 41.6117 187.962 41.6117C188.181 41.6117 188.355 41.5949 188.49 41.5499C188.625 41.5106 188.72 41.4544 188.782 41.3869C188.844 41.3195 188.872 41.2408 188.872 41.1509C188.872 41.0216 188.81 40.9204 188.698 40.8474C188.58 40.7743 188.428 40.7125 188.243 40.6619C188.057 40.6113 187.849 40.5664 187.619 40.5158C187.394 40.4652 187.164 40.409 186.939 40.3303C186.714 40.2573 186.506 40.1561 186.315 40.0381C186.124 39.92 185.978 39.7627 185.86 39.566C185.742 39.3693 185.685 39.122 185.685 38.8241C185.685 38.4869 185.775 38.1834 185.961 37.9136C186.146 37.6439 186.422 37.4191 186.793 37.2561C187.163 37.0931 187.619 37.0088 188.17 37.0088C188.54 37.0088 188.9 37.0481 189.254 37.1324C189.608 37.2167 189.929 37.3348 190.204 37.4977L189.715 38.678C189.445 38.5319 189.181 38.4251 188.923 38.352C188.664 38.279 188.406 38.2452 188.164 38.2452C187.945 38.2452 187.77 38.2677 187.636 38.3127C187.501 38.3576 187.405 38.4195 187.349 38.4925C187.293 38.5656 187.259 38.6555 187.259 38.751C187.259 38.8747 187.315 38.9702 187.433 39.0433C187.546 39.1164 187.697 39.1726 187.889 39.2175C188.08 39.2625 188.288 39.3074 188.512 39.358C188.737 39.403 188.968 39.4648 189.192 39.5379C189.417 39.6109 189.625 39.7065 189.816 39.8245C190.002 39.9425 190.153 40.0999 190.271 40.2966C190.384 40.4933 190.446 40.735 190.446 41.0328C190.446 41.3588 190.356 41.6567 190.17 41.9321C189.985 42.2075 189.709 42.4267 189.344 42.5953C188.979 42.7582 188.518 42.8425 187.962 42.8425" fill="white"/>
<path d="M191.165 42.7359V37.127H192.75V38.7624V42.7359H191.165Z" fill="white"/>
<path d="M193.205 42.7359L195.684 37.127H197.246L199.73 42.7359H198.078L196.139 37.9025H196.763L194.824 42.7359H193.205ZM194.56 41.6456L194.97 40.4766H197.712L198.123 41.6456H194.565H194.56Z" fill="white"/>
</svg>
