<svg width="131" height="26" viewBox="0 0 131 26" fill="none" xmlns="http://www.w3.org/2000/svg">
<g clip-path="url(#clip0_2856_1014)">
<path d="M21.2854 17H26.4168L17.0363 0.745605H13.8151L11.4322 4.87242L17.0143 14.5333C17.8952 16.0587 19.5237 16.9986 21.2854 16.9986V17Z" fill="white"/>
<path d="M10.3204 6.7041L0.934448 22.9557L2.54505 25.7454H7.31088L12.8848 16.0846C13.7643 14.5592 13.7656 12.682 12.8848 11.1566L10.3191 6.7041H10.3204Z" fill="white"/>
<path d="M27.4667 18.8291H16.3121C14.5489 18.8291 12.9205 19.7691 12.0396 21.2958L9.47253 25.7429L28.239 25.7456L29.8496 22.9559L27.4667 18.8291Z" fill="white"/>
<path d="M46.5341 5.80811V11.3064H45.1943V5.80811H46.5341Z" fill="white"/>
<path d="M55.0489 5.80811V11.3064H53.709V5.80811H55.0489Z" fill="white"/>
<path d="M57.0855 11.1665C56.7667 11.036 56.5125 10.8422 56.3215 10.5866C56.1304 10.331 56.0301 10.0232 56.0205 9.66174H57.4456C57.4662 9.86513 57.5363 10.0204 57.6572 10.1276C57.7768 10.2348 57.9334 10.2884 58.1272 10.2884C58.321 10.2884 58.4818 10.243 58.5972 10.151C58.7126 10.0589 58.769 9.93247 58.769 9.77168C58.769 9.63563 58.7236 9.52432 58.6315 9.435C58.5395 9.34567 58.4282 9.27284 58.2949 9.21512C58.1616 9.1574 57.9719 9.09281 57.7273 9.01998C57.3727 8.91004 57.0828 8.8001 56.8574 8.69154C56.6334 8.5816 56.4396 8.41944 56.2775 8.20643C56.1153 7.99205 56.0343 7.71309 56.0343 7.36815C56.0343 6.85694 56.2198 6.45566 56.5908 6.1657C56.9619 5.87574 57.4442 5.73145 58.0393 5.73145C58.6343 5.73145 59.1331 5.87574 59.5042 6.1657C59.8752 6.45566 60.0731 6.85831 60.0992 7.3764H58.6508C58.6398 7.19912 58.5752 7.05895 58.4556 6.95726C58.3361 6.85557 58.1808 6.80472 57.9939 6.80472C57.8317 6.80472 57.7012 6.84732 57.6022 6.9339C57.5033 7.02047 57.4538 7.14415 57.4538 7.30631C57.4538 7.48359 57.5377 7.62239 57.7039 7.72133C57.8716 7.82028 58.1327 7.92747 58.4872 8.0429C58.8418 8.16246 59.1304 8.27789 59.353 8.38783C59.5743 8.49777 59.7667 8.65718 59.9288 8.86607C60.091 9.07495 60.1721 9.3443 60.1721 9.67274C60.1721 10.0012 60.0924 10.2705 59.9329 10.5261C59.7735 10.7817 59.5427 10.9851 59.2403 11.1377C58.938 11.2888 58.5793 11.3644 58.1671 11.3644C57.7548 11.3644 57.4044 11.2985 57.0855 11.1679V11.1665Z" fill="white"/>
<path d="M64.9695 5.80811V6.88138H63.5128V11.3078H62.1729V6.88138H60.7162V5.80811H64.9695Z" fill="white"/>
<path d="M68.603 11.3064L67.4596 9.22994H67.138V11.3064H65.7982V5.80811H68.0464C68.4793 5.80811 68.8489 5.88369 69.1554 6.03485C69.4605 6.18602 69.6886 6.39353 69.8411 6.65738C69.9923 6.92123 70.0679 7.21532 70.0679 7.53826C70.0679 7.90381 69.9648 8.23087 69.7587 8.51671C69.5526 8.80393 69.2488 9.00731 68.8462 9.12825L70.1146 11.3064H68.603ZM67.138 8.28309H67.9681C68.2141 8.28309 68.3968 8.22263 68.5205 8.10307C68.6428 7.98351 68.7047 7.81311 68.7047 7.5946C68.7047 7.3761 68.6428 7.22081 68.5205 7.10126C68.3982 6.9817 68.2141 6.92123 67.9681 6.92123H67.138V8.28447V8.28309Z" fill="white"/>
<path d="M79.3343 11.0015C78.9042 10.761 78.562 10.4257 78.3078 9.99422C78.0549 9.56408 77.9285 9.07898 77.9285 8.54166C77.9285 8.00433 78.0549 7.5206 78.3078 7.09322C78.5606 6.66446 78.9028 6.33052 79.3343 6.09003C79.7658 5.84954 80.2385 5.72998 80.7566 5.72998C81.2747 5.72998 81.7475 5.85091 82.179 6.09003C82.6091 6.33052 82.9485 6.66446 83.1973 7.09322C83.4446 7.52198 83.5697 8.00433 83.5697 8.54166C83.5697 9.07898 83.4446 9.56408 83.1931 9.99422C82.943 10.4257 82.6036 10.761 82.1748 11.0015C81.7461 11.242 81.2747 11.3616 80.7566 11.3616C80.2385 11.3616 79.7658 11.242 79.3343 11.0015ZM81.8093 9.70151C82.0731 9.40879 82.2051 9.02264 82.2051 8.54166C82.2051 8.06067 82.0731 7.66765 81.8093 7.37906C81.5454 7.08909 81.195 6.9448 80.7553 6.9448C80.3155 6.9448 79.9568 7.08909 79.6943 7.37493C79.4305 7.66215 79.2986 8.05106 79.2986 8.54166C79.2986 9.03226 79.4305 9.41567 79.6943 9.70425C79.9582 9.99422 80.3114 10.1385 80.7553 10.1385C81.1991 10.1385 81.5454 9.99284 81.8093 9.70013V9.70151Z" fill="white"/>
<path d="M88.0483 5.80811V6.88138H85.8083V8.04123H87.4849V9.0829H85.8083V11.3078H84.4684V5.80948H88.0483V5.80811Z" fill="white"/>
<path d="M92.0666 5.80811V11.3064H90.7267V5.80811H92.0666Z" fill="white"/>
<path d="M102.821 6.15313C103.254 6.38262 103.589 6.70557 103.827 7.12059C104.065 7.5356 104.183 8.01521 104.183 8.55803C104.183 9.10085 104.065 9.57359 103.827 9.99135C103.589 10.4091 103.253 10.7334 102.817 10.9629C102.382 11.1924 101.876 11.3079 101.301 11.3079H99.2414V5.80957H101.301C101.881 5.80957 102.387 5.92501 102.821 6.1545V6.15313ZM102.398 9.73162C102.68 9.4554 102.821 9.06375 102.821 8.55666C102.821 8.04957 102.68 7.65654 102.398 7.37344C102.116 7.09173 101.722 6.95018 101.215 6.95018H100.58V10.1466H101.215C101.722 10.1466 102.116 10.0078 102.398 9.73162Z" fill="white"/>
<path d="M106.409 5.80811V9.09801C106.409 9.42645 106.49 9.68069 106.653 9.85796C106.815 10.0352 107.053 10.1246 107.366 10.1246C107.679 10.1246 107.92 10.0352 108.086 9.85796C108.254 9.68069 108.336 9.42783 108.336 9.09801V5.80811H109.676V9.08977C109.676 9.58037 109.571 9.99538 109.363 10.3348C109.154 10.6743 108.873 10.9299 108.52 11.103C108.168 11.2748 107.775 11.3614 107.341 11.3614C106.907 11.3614 106.519 11.2762 106.179 11.1071C105.836 10.9381 105.566 10.6811 105.368 10.3389C105.17 9.99676 105.07 9.58037 105.07 9.08977V5.80811H106.409Z" fill="white"/>
<path d="M111.681 11.1665C111.362 11.036 111.108 10.8422 110.917 10.5866C110.726 10.331 110.626 10.0232 110.616 9.66174H112.041C112.062 9.86513 112.132 10.0204 112.253 10.1276C112.372 10.2348 112.529 10.2884 112.723 10.2884C112.916 10.2884 113.077 10.243 113.193 10.151C113.308 10.0589 113.364 9.93247 113.364 9.77168C113.364 9.63563 113.319 9.52432 113.227 9.435C113.135 9.34567 113.024 9.27284 112.89 9.21512C112.757 9.1574 112.567 9.09281 112.323 9.01998C111.968 8.91004 111.678 8.8001 111.453 8.69154C111.229 8.5816 111.035 8.41944 110.873 8.20643C110.711 7.99205 110.63 7.71309 110.63 7.36815C110.63 6.85694 110.815 6.45566 111.186 6.1657C111.557 5.87574 112.04 5.73145 112.635 5.73145C113.23 5.73145 113.729 5.87574 114.1 6.1657C114.471 6.45566 114.669 6.85831 114.695 7.3764H113.246C113.235 7.19912 113.171 7.05895 113.051 6.95726C112.931 6.85557 112.776 6.80472 112.589 6.80472C112.427 6.80472 112.297 6.84732 112.198 6.9339C112.099 7.02047 112.049 7.14415 112.049 7.30631C112.049 7.48359 112.133 7.62239 112.299 7.72133C112.467 7.82028 112.728 7.92747 113.083 8.0429C113.437 8.16246 113.726 8.27789 113.948 8.38783C114.17 8.49777 114.362 8.65718 114.524 8.86607C114.686 9.07495 114.767 9.3443 114.767 9.67274C114.767 10.0012 114.688 10.2705 114.528 10.5261C114.369 10.7817 114.138 10.9851 113.836 11.1377C113.533 11.2888 113.175 11.3644 112.762 11.3644C112.35 11.3644 112 11.2985 111.681 11.1679V11.1665Z" fill="white"/>
<path d="M119.565 5.80811V6.88138H118.108V11.3078H116.768V6.88138H115.312V5.80811H119.565Z" fill="white"/>
<path d="M123.198 11.3064L122.055 9.22994H121.733V11.3064H120.394V5.80811H122.642C123.075 5.80811 123.444 5.88369 123.751 6.03485C124.056 6.18602 124.284 6.39353 124.437 6.65738C124.588 6.92123 124.663 7.21532 124.663 7.53826C124.663 7.90381 124.56 8.23087 124.354 8.51671C124.148 8.80393 123.844 9.00731 123.442 9.12825L124.71 11.3064H123.198ZM121.733 8.28309H122.563C122.809 8.28309 122.992 8.22263 123.116 8.10307C123.238 7.98351 123.3 7.81311 123.3 7.5946C123.3 7.3761 123.238 7.22081 123.116 7.10126C122.994 6.9817 122.809 6.92123 122.563 6.92123H121.733V8.28447V8.28309Z" fill="white"/>
<path d="M41.3121 19.7347H39.1724L38.8893 20.7063H37.4876L39.2027 15.208H41.3038L43.0189 20.7063H41.6007L41.3135 19.7347H41.3121ZM41.007 18.7013L40.3749 16.552H40.1275L39.4816 18.7013H41.007Z" fill="white"/>
<path d="M71.0023 19.7347H68.8627L68.5796 20.7063H67.1779L68.8929 15.208H70.9941L72.7091 20.7063H71.2909L71.0037 19.7347H71.0023ZM70.6986 18.7013L70.0665 16.552H69.8191L69.1732 18.7013H70.6986Z" fill="white"/>
<path d="M124.924 19.7347H122.785L122.502 20.7063H121.1L122.815 15.208H124.916L126.631 20.7063H125.213L124.926 19.7347H124.924ZM124.621 18.7013L123.989 16.552H123.741L123.095 18.7013H124.621Z" fill="white"/>
<path d="M53.404 15.553C53.8368 15.7825 54.1722 16.1055 54.4099 16.5205C54.6476 16.9355 54.7658 17.4151 54.7658 17.9579C54.7658 18.5008 54.6476 18.9735 54.4099 19.3913C54.1722 19.809 53.8355 20.1333 53.3998 20.3628C52.9642 20.5923 52.4585 20.7078 51.8841 20.7078H49.8241V15.2095H51.8841C52.464 15.2095 52.9697 15.3249 53.404 15.5544V15.553ZM52.9807 19.1329C53.2624 18.8567 53.404 18.465 53.404 17.9579C53.404 17.4508 53.2624 17.0578 52.9807 16.7747C52.699 16.493 52.3046 16.3515 51.7975 16.3515H51.1626V19.5479H51.7975C52.3046 19.5479 52.699 19.4091 52.9807 19.1329Z" fill="white"/>
<path d="M61.4487 15.208V16.2813H59.992V20.7077H58.6521V16.2813H57.1954V15.208H61.4487Z" fill="white"/>
<path d="M65.0821 20.7063L63.9388 18.6298H63.6172V20.7063H62.2773V15.208H64.5256C64.9585 15.208 65.3281 15.2836 65.6346 15.4348C65.9397 15.5859 66.1678 15.7934 66.3203 16.0573C66.4715 16.3211 66.5471 16.6152 66.5471 16.9382C66.5471 17.3037 66.444 17.6308 66.2379 17.9166C66.0317 18.2038 65.728 18.4072 65.3254 18.5281L66.5938 20.7063H65.0821ZM63.6172 17.683H64.4473C64.6932 17.683 64.876 17.6225 64.9997 17.503C65.122 17.3834 65.1838 17.213 65.1838 16.9945C65.1838 16.776 65.122 16.6207 64.9997 16.5012C64.8774 16.3816 64.6932 16.3211 64.4473 16.3211H63.6172V17.6844V17.683Z" fill="white"/>
<path d="M77.0517 15.553C77.4846 15.7825 77.8199 16.1055 78.0577 16.5205C78.2954 16.9355 78.4136 17.4151 78.4136 17.9579C78.4136 18.5008 78.2954 18.9735 78.0577 19.3913C77.8199 19.809 77.4832 20.1333 77.0476 20.3628C76.612 20.5923 76.1063 20.7078 75.5318 20.7078H73.4719V15.2095H75.5318C76.1118 15.2095 76.6175 15.3249 77.0517 15.5544V15.553ZM76.6285 19.1329C76.9102 18.8567 77.0517 18.465 77.0517 17.9579C77.0517 17.4508 76.9102 17.0578 76.6285 16.7747C76.3467 16.493 75.9523 16.3515 75.4453 16.3515H74.8104V19.5479H75.4453C75.9523 19.5479 76.3467 19.4091 76.6285 19.1329Z" fill="white"/>
<path d="M80.6632 16.2813V17.393H82.4565V18.4265H80.6632V19.633H82.6915V20.7063H79.3233V15.208H82.6915V16.2813H80.6632Z" fill="white"/>
<path d="M86.7139 20.4014C86.2838 20.1609 85.9416 19.8256 85.6874 19.3941C85.4345 18.964 85.3081 18.4789 85.3081 17.9416C85.3081 17.4042 85.4345 16.9205 85.6874 16.4931C85.9403 16.0644 86.2824 15.7304 86.7139 15.4899C87.1455 15.2494 87.6182 15.1299 88.1363 15.1299C88.6544 15.1299 89.1271 15.2508 89.5586 15.4899C89.9887 15.7304 90.3282 16.0644 90.5769 16.4931C90.8243 16.9219 90.9493 17.4042 90.9493 17.9416C90.9493 18.4789 90.8243 18.964 90.5728 19.3941C90.3227 19.8256 89.9832 20.1609 89.5545 20.4014C89.1257 20.6419 88.6544 20.7615 88.1363 20.7615C87.6182 20.7615 87.1455 20.6419 86.7139 20.4014ZM89.1889 19.1014C89.4528 18.8087 89.5847 18.4225 89.5847 17.9416C89.5847 17.4606 89.4528 17.0675 89.1889 16.779C88.9251 16.489 88.5747 16.3447 88.1349 16.3447C87.6951 16.3447 87.3365 16.489 87.074 16.7748C86.8101 17.0621 86.6782 17.451 86.6782 17.9416C86.6782 18.4322 86.8101 18.8156 87.074 19.1042C87.3378 19.3941 87.691 19.5384 88.1349 19.5384C88.5788 19.5384 88.9251 19.3927 89.1889 19.1V19.1014Z" fill="white"/>
<path d="M95.4279 15.208V16.2813H93.1879V17.4411H94.8645V18.4828H93.1879V20.7077H91.848V15.2094H95.4279V15.208Z" fill="white"/>
<path d="M100.911 20.7063L99.7677 18.6298H99.4461V20.7063H98.1063V15.208H100.355C100.787 15.208 101.157 15.2836 101.464 15.4348C101.769 15.5859 101.997 15.7934 102.149 16.0573C102.3 16.3211 102.376 16.6152 102.376 16.9382C102.376 17.3037 102.273 17.6308 102.067 17.9166C101.861 18.2038 101.557 18.4072 101.154 18.5281L102.423 20.7063H100.911ZM99.4461 17.683H100.276C100.522 17.683 100.705 17.6225 100.829 17.503C100.951 17.3834 101.013 17.213 101.013 16.9945C101.013 16.776 100.951 16.6207 100.829 16.5012C100.706 16.3816 100.522 16.3211 100.276 16.3211H99.4461V17.6844V17.683Z" fill="white"/>
<path d="M104.686 15.208V18.4979C104.686 18.8264 104.767 19.0806 104.929 19.2579C105.092 19.4351 105.329 19.5245 105.643 19.5245C105.956 19.5245 106.196 19.4351 106.363 19.2579C106.53 19.0806 106.613 18.8277 106.613 18.4979V15.208H107.953V18.4897C107.953 18.9803 107.848 19.3953 107.639 19.7347C107.43 20.0742 107.15 20.3298 106.797 20.5029C106.445 20.6747 106.052 20.7613 105.618 20.7613C105.184 20.7613 104.796 20.6761 104.455 20.507C104.113 20.338 103.842 20.081 103.644 19.7388C103.447 19.3967 103.346 18.9803 103.346 18.4897V15.208H104.686Z" fill="white"/>
<path d="M109.958 20.5659C109.639 20.4354 109.385 20.2416 109.194 19.986C109.003 19.7304 108.902 19.4226 108.893 19.0612H110.318C110.338 19.2645 110.408 19.4198 110.529 19.527C110.649 19.6342 110.806 19.6878 110.999 19.6878C111.193 19.6878 111.354 19.6425 111.469 19.5504C111.585 19.4583 111.641 19.3319 111.641 19.1711C111.641 19.035 111.596 18.9237 111.504 18.8344C111.412 18.7451 111.3 18.6723 111.167 18.6145C111.034 18.5568 110.844 18.4922 110.599 18.4194C110.245 18.3095 109.955 18.1995 109.73 18.091C109.506 17.981 109.312 17.8189 109.15 17.6058C108.987 17.3915 108.906 17.1125 108.906 16.7676C108.906 16.2564 109.092 15.8551 109.463 15.5651C109.834 15.2752 110.316 15.1309 110.911 15.1309C111.506 15.1309 112.005 15.2752 112.376 15.5651C112.747 15.8551 112.945 16.2577 112.971 16.7758H111.523C111.512 16.5985 111.447 16.4584 111.328 16.3567C111.208 16.255 111.053 16.2041 110.866 16.2041C110.704 16.2041 110.573 16.2467 110.474 16.3333C110.375 16.4199 110.326 16.5436 110.326 16.7057C110.326 16.883 110.41 17.0218 110.576 17.1207C110.744 17.2197 111.005 17.3269 111.359 17.4423C111.714 17.5619 112.003 17.6773 112.225 17.7872C112.446 17.8972 112.639 18.0566 112.801 18.2655C112.963 18.4744 113.044 18.7437 113.044 19.0722C113.044 19.4006 112.964 19.6699 112.805 19.9255C112.646 20.1812 112.415 20.3845 112.112 20.5371C111.81 20.6882 111.451 20.7638 111.039 20.7638C110.627 20.7638 110.276 20.6979 109.958 20.5673V20.5659Z" fill="white"/>
<path d="M114.932 20.5659C114.614 20.4354 114.359 20.2416 114.168 19.986C113.977 19.7304 113.877 19.4226 113.867 19.0612H115.292C115.313 19.2645 115.383 19.4198 115.504 19.527C115.624 19.6342 115.78 19.6878 115.974 19.6878C116.168 19.6878 116.329 19.6425 116.444 19.5504C116.559 19.4583 116.616 19.3319 116.616 19.1711C116.616 19.035 116.57 18.9237 116.478 18.8344C116.386 18.7451 116.275 18.6723 116.142 18.6145C116.008 18.5568 115.819 18.4922 115.574 18.4194C115.22 18.3095 114.93 18.1995 114.704 18.091C114.48 17.981 114.286 17.8189 114.124 17.6058C113.962 17.3915 113.881 17.1125 113.881 16.7676C113.881 16.2564 114.067 15.8551 114.438 15.5651C114.809 15.2752 115.291 15.1309 115.886 15.1309C116.481 15.1309 116.98 15.2752 117.351 15.5651C117.722 15.8551 117.92 16.2577 117.946 16.7758H116.498C116.487 16.5985 116.422 16.4584 116.302 16.3567C116.183 16.255 116.028 16.2041 115.841 16.2041C115.679 16.2041 115.548 16.2467 115.449 16.3333C115.35 16.4199 115.301 16.5436 115.301 16.7057C115.301 16.883 115.384 17.0218 115.551 17.1207C115.718 17.2197 115.98 17.3269 116.334 17.4423C116.689 17.5619 116.977 17.6773 117.2 17.7872C117.421 17.8972 117.613 18.0566 117.776 18.2655C117.938 18.4744 118.019 18.7437 118.019 19.0722C118.019 19.4006 117.939 19.6699 117.78 19.9255C117.62 20.1812 117.389 20.3845 117.087 20.5371C116.785 20.6882 116.426 20.7638 116.014 20.7638C115.602 20.7638 115.251 20.6979 114.932 20.5673V20.5659Z" fill="white"/>
<path d="M120.337 15.208V20.7063H118.997V15.208H120.337Z" fill="white"/>
<path d="M37.8765 11.3064V5.80811H39.8856L40.8847 7.89419H41.0977L42.0583 5.80811H44.0674L44.0757 11.3064H42.8815L42.8732 7.27853H42.6231L41.4949 9.52815H40.4505L39.2824 7.27853H39.0707V11.3064H37.8765Z" fill="white"/>
<path d="M52.5808 11.3064H50.5538L49.0009 7.09026V11.3064H47.661V5.80811H49.688L51.2409 10.0394V5.80811H52.5808V11.3064Z" fill="white"/>
<path d="M49.2496 7.01074H49.0023V7.76382H49.2496V7.01074Z" fill="white"/>
<path d="M51.2409 9.36328H50.9935V10.1095H51.2409V9.36328Z" fill="white"/>
<path d="M98.1145 11.3064H96.0875L94.5346 7.09026V11.3064H93.1948V5.80811H95.2218L96.7746 10.0394V5.80811H98.1145V11.3064Z" fill="white"/>
<path d="M94.782 7.01074H94.5347V7.76382H94.782V7.01074Z" fill="white"/>
<path d="M96.7746 9.36328H96.5273V10.1095H96.7746V9.36328Z" fill="white"/>
<path d="M48.6958 20.7063H46.6688L45.1159 16.4902V20.7063H43.7761V15.208H45.8031L47.3559 19.4393V15.208H48.6958V20.7063Z" fill="white"/>
<path d="M45.3633 16.4106H45.116V17.1637H45.3633V16.4106Z" fill="white"/>
<path d="M47.3559 18.7632H47.1086V19.5094H47.3559V18.7632Z" fill="white"/>
<path d="M75.6417 5.80811L73.7384 9.90194V11.3064H72.3986V9.90194L70.4952 5.80811H72.0151L73.0802 8.38616L74.1369 5.80811H75.6404H75.6417Z" fill="white"/>
<path d="M73.2024 8.08398H72.9551V8.75323H73.2024V8.08398Z" fill="white"/>
<path d="M130.236 5.80811L128.332 9.90194V11.3064H126.993V9.90194L125.089 5.80811H126.609L127.674 8.38616L128.731 5.80811H130.234H130.236Z" fill="white"/>
<path d="M127.798 8.08398H127.551V8.75323H127.798V8.08398Z" fill="white"/>
</g>
<defs>
<clipPath id="clip0_2856_1014">
<rect width="129.301" height="25" fill="white" transform="translate(0.934448 0.745605)"/>
</clipPath>
</defs>
</svg>
