<svg width="116" height="32" viewBox="0 0 116 32" fill="none" xmlns="http://www.w3.org/2000/svg">
<mask id="mask0_0_420" style="mask-type:luminance" maskUnits="userSpaceOnUse" x="4" y="1" width="107" height="29">
<path d="M110.633 1.52319H4.88431V29.9721H110.633V1.52319Z" fill="white"/>
</mask>
<g mask="url(#mask0_0_420)">
<path d="M24.5252 15.1457C24.0817 15.1457 23.7015 15.0823 23.3213 14.9556C23.0045 14.8289 22.6877 14.6388 22.4343 14.322C22.1808 14.0685 21.9908 13.7517 21.864 13.3716C21.7373 12.9914 21.674 12.6112 21.674 12.1677V7.66909C21.674 7.60573 21.674 7.60573 21.7373 7.60573H22.8145C22.8778 7.60573 22.8778 7.60573 22.8778 7.66909V11.9143C22.8778 12.2311 22.9412 12.5479 23.0045 12.8013C23.0679 13.0548 23.1946 13.3082 23.3847 13.4983C23.5748 13.6884 23.7649 13.8151 24.0183 13.9418C24.2717 14.0052 24.5252 14.0685 24.842 14.0685C25.1588 14.0685 25.4122 14.0052 25.6657 13.9418C25.9191 13.8151 26.1726 13.6884 26.3626 13.4983C26.5527 13.3082 26.7428 13.0548 26.8062 12.8013C26.9329 12.5479 26.9329 12.2311 26.9329 11.9143V7.66909C26.9329 7.60573 26.9329 7.60573 26.9962 7.60573H28.0734C28.1367 7.60573 28.1367 7.60573 28.1367 7.66909V14.8922C28.1367 14.9556 28.1367 14.9556 28.0734 14.9556H26.9962C26.9329 14.9556 26.9329 14.9556 26.9329 14.8922V13.8151C26.6794 14.1953 26.3626 14.5121 25.9825 14.7021C25.539 15.0189 25.0321 15.1457 24.5252 15.1457ZM108.098 14.9556V8.68289H106.894C106.83 8.68289 106.83 8.68289 106.83 8.61953V7.66909C106.83 7.60573 106.83 7.60573 106.894 7.60573H108.098V5.51484C108.098 5.45148 108.098 5.45148 108.161 5.45148H109.238C109.302 5.45148 109.302 5.45148 109.302 5.51484V7.60573H110.569C110.632 7.60573 110.632 7.60573 110.632 7.66909V8.61953C110.632 8.68289 110.632 8.68289 110.569 8.68289H109.302V14.9556C109.302 15.0189 109.302 15.0189 109.238 15.0189H108.161C108.161 15.0189 108.098 15.0189 108.098 14.9556ZM99.1005 14.8922V7.66909C99.1005 7.60573 99.1005 7.60573 99.1638 7.60573H100.241C100.304 7.60573 100.304 7.60573 100.304 7.66909V8.68289C100.558 8.30273 100.875 7.98593 101.255 7.79581C101.698 7.54237 102.142 7.41565 102.712 7.41565C103.156 7.41565 103.536 7.47901 103.916 7.60573C104.233 7.73245 104.549 7.92257 104.803 8.23937C105.056 8.49281 105.246 8.80961 105.373 9.18978C105.5 9.56994 105.563 9.9501 105.563 10.3936V14.8922C105.563 14.9556 105.563 14.9556 105.5 14.9556H104.423C104.359 14.9556 104.359 14.9556 104.359 14.8922V10.6471C104.359 10.0135 104.169 9.44322 103.853 9.06306C103.662 8.87297 103.472 8.74625 103.219 8.61953C102.965 8.55617 102.712 8.49281 102.395 8.49281C102.078 8.49281 101.825 8.55617 101.572 8.61953C101.318 8.74625 101.065 8.87297 100.875 9.06306C100.685 9.25314 100.558 9.50658 100.431 9.76002C100.304 10.0135 100.304 10.3303 100.304 10.6471V14.7655C100.304 14.8289 100.304 14.8289 100.241 14.8289H99.1638C99.1638 14.9556 99.1005 14.9556 99.1005 14.8922ZM92.0041 11.7876C92.0675 12.1044 92.1308 12.4212 92.2576 12.6746C92.3843 12.9914 92.5744 13.1815 92.8278 13.4349C93.0812 13.625 93.3347 13.8151 93.5881 13.9418C93.8416 14.0685 94.1584 14.1319 94.4752 14.1319C95.2989 14.1319 96.0592 13.8151 96.6928 13.1181H96.7561L97.4531 13.6884V13.7517C97.0096 14.1953 96.5661 14.5754 96.0592 14.7655C95.5523 15.0189 94.9821 15.0823 94.4118 15.0823C93.9049 15.0823 93.398 15.0189 92.9545 14.8289C92.511 14.6388 92.1308 14.3853 91.7507 14.0052C91.3705 13.625 91.1171 13.2448 90.927 12.8013C90.7369 12.3578 90.6735 11.8509 90.6735 11.2807C90.6735 10.7738 90.7369 10.2669 90.927 9.82338C91.1171 9.37986 91.3705 8.93633 91.6873 8.55617C92.0041 8.17601 92.3843 7.92257 92.8278 7.73245C93.2713 7.54237 93.7148 7.47901 94.2217 7.47901C94.7286 7.47901 95.2355 7.54237 95.6157 7.73245C96.0592 7.92257 96.376 8.17601 96.6928 8.55617C97.0096 8.93633 97.263 9.3165 97.3898 9.82338C97.5165 10.2669 97.6432 10.7738 97.6432 11.344V11.5341C97.6432 11.5975 97.6432 11.6608 97.6432 11.7242C97.6432 11.7876 97.6432 11.7876 97.5798 11.7876H92.0041ZM92.0041 10.7738H96.5027C96.4394 10.457 96.376 10.1402 96.3126 9.88674C96.1859 9.6333 96.0592 9.37986 95.8691 9.12642C95.679 8.87297 95.4256 8.74625 95.1721 8.61953C94.9187 8.49281 94.6019 8.42945 94.2851 8.42945C93.9683 8.42945 93.7149 8.49281 93.4614 8.61953C93.208 8.74625 92.9545 8.87297 92.7644 9.12642C92.5744 9.37986 92.3843 9.6333 92.2576 9.88674C92.0675 10.2035 92.0041 10.457 92.0041 10.7738ZM86.1116 15.0189L83.0069 7.73245C83.0069 7.66909 83.0069 7.66909 83.0703 7.66909H84.2741C84.2741 7.66909 84.3375 7.66909 84.3375 7.73245L86.7452 13.5617L89.1529 7.66909L89.2163 7.60573H90.3567C90.4201 7.60573 90.4201 7.60573 90.4201 7.66909L87.2521 14.9556L87.1887 15.0189H86.1116ZM76.7976 11.7876C76.861 12.1044 76.9243 12.4212 77.051 12.6746C77.1778 12.9914 77.3678 13.1815 77.6213 13.4349C77.8747 13.625 78.1282 13.8151 78.3816 13.9418C78.6351 14.0685 78.9519 14.1319 79.2687 14.1319C80.0923 14.1319 80.8527 13.8151 81.4863 13.1181H81.5496L82.2466 13.6884V13.7517C81.8031 14.1953 81.3596 14.5754 80.8527 14.7655C80.3458 15.0189 79.7755 15.0823 79.2053 15.0823C78.6984 15.0823 78.1915 15.0189 77.748 14.8289C77.3045 14.6388 76.9243 14.3853 76.5442 14.0052C76.164 13.625 75.9105 13.2448 75.7205 12.8013C75.5304 12.3578 75.467 11.8509 75.467 11.2807C75.467 10.2035 75.7838 9.3165 76.4808 8.55617C76.7976 8.17601 77.1778 7.92257 77.6213 7.73245C78.0648 7.54237 78.5083 7.47901 79.0152 7.47901C79.5221 7.47901 80.029 7.54237 80.4091 7.73245C80.8527 7.92257 81.1695 8.17601 81.4863 8.55617C81.8031 8.93633 82.0565 9.3165 82.1832 9.82338C82.31 10.2669 82.4367 10.7738 82.4367 11.344V11.5341C82.4367 11.5975 82.4367 11.6608 82.4367 11.7242C82.4367 11.7876 82.4367 11.7876 82.3733 11.7876H76.7976ZM76.7976 10.7738H81.2962C81.2328 10.457 81.1695 10.1402 81.1061 9.88674C80.9794 9.6333 80.8527 9.37986 80.6626 9.12642C80.4725 8.87297 80.2191 8.74625 79.9656 8.61953C79.7122 8.49281 79.3954 8.42945 79.0786 8.42945C78.7618 8.42945 78.5083 8.49281 78.2549 8.61953C78.0014 8.74625 77.748 8.87297 77.5579 9.12642C77.3678 9.37986 77.1778 9.6333 77.051 9.88674C76.9243 10.2035 76.7976 10.457 76.7976 10.7738ZM66.85 15.1457C66.5966 15.1457 66.3431 15.1457 66.0263 15.0823C65.7729 15.0189 65.4561 14.9556 65.2026 14.8922C64.9492 14.7655 64.6957 14.7021 64.4423 14.5754C64.1889 14.4487 63.9988 14.322 63.8087 14.1319V14.0685L64.3789 13.3082C64.3789 13.3082 64.4423 13.2448 64.4423 13.3082C64.8225 13.625 65.266 13.8151 65.6461 14.0052C66.0263 14.1319 66.4698 14.2586 66.9134 14.2586C67.1034 14.2586 67.2935 14.2586 67.4836 14.1953C67.6737 14.1319 67.8004 14.0685 67.9271 13.9418C68.0538 13.8151 68.1806 13.7517 68.2439 13.5617C68.3073 13.4349 68.3706 13.3082 68.3706 13.1181C68.3706 12.9914 68.3073 12.8013 68.2439 12.738C68.1806 12.6112 68.0538 12.5479 67.9271 12.4212C67.8004 12.3578 67.6103 12.2311 67.3569 12.1677C67.1034 12.1044 66.85 11.9776 66.5966 11.9143C66.4065 11.8509 66.2798 11.7876 66.0897 11.7876C65.963 11.7242 65.8362 11.7242 65.7095 11.6608C65.5828 11.5975 65.4561 11.5975 65.3927 11.5341C65.266 11.4708 65.1393 11.4074 65.0125 11.344C64.8858 11.2807 64.7591 11.154 64.6324 11.0906C64.5057 10.9639 64.4423 10.9005 64.3789 10.7738C64.3156 10.6471 64.2522 10.5203 64.2522 10.3936C64.1889 10.2669 64.1889 10.0768 64.1889 9.9501C64.1889 9.6333 64.2522 9.3165 64.3789 9.06306C64.5057 8.80961 64.6957 8.55617 64.8858 8.36609C65.1393 8.17601 65.3927 8.04929 65.7095 7.92257C66.0263 7.79581 66.3431 7.79581 66.7233 7.79581C67.1668 7.79581 67.6737 7.85917 68.1172 7.98593C68.5607 8.11265 69.0043 8.30273 69.3844 8.61953C69.3844 8.61953 69.4478 8.68289 69.3844 8.68289L68.8775 9.50658C68.8775 9.50658 68.8142 9.56994 68.8142 9.50658C68.434 9.25314 68.1172 9.12642 67.737 8.99969C67.2935 8.55617 66.9767 8.49281 66.5966 8.49281C66.4065 8.49281 66.2164 8.49281 66.0263 8.55617C65.8362 8.61953 65.7095 8.68289 65.5828 8.74625C65.4561 8.80961 65.3927 8.93633 65.3293 9.06306C65.266 9.18978 65.266 9.3165 65.266 9.44322C65.266 9.50658 65.266 9.56994 65.266 9.6333C65.266 9.69666 65.3293 9.76002 65.3293 9.76002C65.3927 9.82338 65.3927 9.88674 65.4561 9.88674C65.5194 9.9501 65.5194 9.9501 65.5828 10.0135C65.6461 10.0768 65.7095 10.0768 65.7729 10.1402C65.8362 10.2035 65.8996 10.2035 66.0263 10.2669C66.153 10.3303 66.2164 10.3303 66.2798 10.3936C66.3431 10.3936 66.4065 10.457 66.4698 10.457L67.0401 10.6471C67.2302 10.7104 67.3569 10.7738 67.547 10.7738C67.6737 10.8371 67.8004 10.9005 67.9271 10.9005C68.0538 10.9639 68.1806 11.0272 68.3073 11.0906C68.434 11.154 68.5607 11.2173 68.6875 11.2807C68.8142 11.344 68.9409 11.4708 69.0043 11.5341C69.131 11.6608 69.1943 11.7242 69.2577 11.8509C69.3211 11.9776 69.3844 12.1044 69.3844 12.2311C69.4478 12.3578 69.4478 12.5479 69.4478 12.6746C69.4478 12.9914 69.3844 13.3082 69.2577 13.625C69.131 13.8785 68.9409 14.1319 68.6875 14.322C68.434 14.5121 68.1806 14.6388 67.8638 14.7655C67.547 15.0823 67.2302 15.1457 66.85 15.1457ZM60.0071 15.1457C59.7536 15.1457 59.5002 15.1457 59.1834 15.0823C58.9299 15.0189 58.6131 14.9556 58.3597 14.8922C58.1063 14.7655 57.8528 14.7021 57.5994 14.5754C57.3459 14.4487 57.1558 14.322 56.9658 14.1319V14.0685L57.536 13.3082C57.536 13.3082 57.5994 13.2448 57.5994 13.3082C57.9795 13.625 58.423 13.8151 58.8032 14.0052C59.1834 14.1319 59.6269 14.2586 60.0704 14.2586C60.2605 14.2586 60.4506 14.2586 60.6407 14.1953C60.8307 14.1319 60.9575 14.0685 61.0842 13.9418C61.2109 13.8151 61.3376 13.7517 61.401 13.5617C61.4644 13.4349 61.5277 13.3082 61.5277 13.1181C61.5277 12.9914 61.4644 12.8013 61.401 12.738C61.3376 12.6112 61.2109 12.5479 61.0842 12.4212C60.9575 12.3578 60.7674 12.2311 60.514 12.1677C60.2605 12.1044 60.0071 11.9776 59.7536 11.9143C59.5635 11.8509 59.4368 11.7876 59.2467 11.7876C59.12 11.7242 58.9933 11.7242 58.8666 11.6608C58.7399 11.5975 58.6131 11.5975 58.5498 11.5341C58.423 11.4708 58.2963 11.4074 58.1696 11.344C58.0429 11.2807 57.9162 11.154 57.7894 11.0906C57.6627 10.9639 57.5994 10.9005 57.536 10.7738C57.4726 10.6471 57.4093 10.5203 57.4093 10.3936C57.3459 10.2669 57.3459 10.0768 57.3459 9.9501C57.3459 9.6333 57.4093 9.3165 57.536 9.06306C57.6627 8.80961 57.8528 8.55617 58.0429 8.36609C58.2963 8.17601 58.5498 8.04929 58.8666 7.92257C59.1834 7.79581 59.5002 7.79581 59.8803 7.79581C60.3239 7.79581 60.8307 7.85917 61.2743 7.98593C61.7178 8.11265 62.1613 8.30273 62.5415 8.61953C62.5415 8.61953 62.6048 8.68289 62.5415 8.68289L62.0346 9.50658C62.0346 9.50658 61.9712 9.56994 61.9712 9.50658C61.5911 9.25314 61.2743 9.12642 60.8941 8.99969C60.514 8.87297 60.1971 8.80961 59.817 8.80961C59.6269 8.80961 59.4368 8.80961 59.2467 8.87297C59.0567 8.93633 58.9299 8.99969 58.8032 9.06306C58.6765 9.12642 58.6131 9.25314 58.5498 9.37986C58.4864 9.50658 58.4864 9.6333 58.4864 9.76002C58.4864 9.82338 58.4864 9.88674 58.4864 9.9501C58.4864 10.0135 58.5498 10.0768 58.5498 10.0768C58.6131 10.1402 58.6131 10.2035 58.6765 10.2035C58.7399 10.2669 58.7399 10.2669 58.8032 10.3303C58.8666 10.3936 58.9299 10.3936 58.9933 10.457C59.0567 10.5203 59.12 10.5203 59.2467 10.5837C59.3735 10.6471 59.4368 10.6471 59.5002 10.7104C59.5635 10.7104 59.6269 10.7738 59.6903 10.7738L60.2605 10.9639C60.4506 11.0272 60.5773 11.0906 60.704 11.0906C60.8307 11.154 60.9575 11.2173 61.0842 11.2173C61.2109 11.2807 61.3376 11.344 61.4644 11.4074C61.5911 11.4708 61.7178 11.5341 61.8445 11.5975C61.9712 11.6608 62.098 11.7876 62.1613 11.8509C62.288 11.9776 62.3514 12.041 62.4148 12.1677C62.4781 12.2944 62.5415 12.4212 62.5415 12.5479C62.6048 12.6746 62.6048 12.8647 62.6048 12.9914C62.6048 13.3082 62.5415 13.625 62.4148 13.9418C62.288 14.1953 62.098 14.4487 61.8445 14.6388C61.5911 14.8289 61.3376 14.9556 61.0208 15.0823C60.704 15.0823 60.3872 15.1457 60.0071 15.1457ZM49.9961 11.7876C50.0595 12.1044 50.1228 12.4212 50.2495 12.6746C50.3763 12.9914 50.5664 13.1815 50.8198 13.4349C51.0732 13.625 51.3267 13.8151 51.5801 13.9418C51.8336 14.0685 52.1504 14.1319 52.4672 14.1319C53.2909 14.1319 54.0512 13.8151 54.6848 13.1181H54.7481L55.4451 13.6884V13.7517C55.0016 14.1953 54.5581 14.5754 54.0512 14.7655C53.5443 15.0189 52.9741 15.0823 52.4038 15.0823C51.8969 15.0823 51.39 15.0189 50.9465 14.8289C50.503 14.6388 50.1228 14.3853 49.7427 14.0052C49.3625 13.625 49.1091 13.2448 48.919 12.8013C48.7289 12.3578 48.6655 11.8509 48.6655 11.2807C48.6655 10.7738 48.7289 10.2669 48.919 9.82338C49.1091 9.37986 49.3625 8.93633 49.6793 8.55617C49.9961 8.17601 50.3763 7.92257 50.8198 7.73245C51.2633 7.54237 51.7068 7.47901 52.2137 7.47901C52.7206 7.47901 53.2275 7.54237 53.6077 7.73245C54.0512 7.92257 54.368 8.17601 54.6848 8.55617C55.0016 8.93633 55.255 9.3165 55.3817 9.82338C55.5085 10.2669 55.6352 10.7738 55.6352 11.344V11.5341C55.6352 11.5975 55.6352 11.6608 55.6352 11.7242C55.6352 11.7876 55.6352 11.7876 55.5718 11.7876H49.9961ZM49.9961 10.7738H54.4947C54.4313 10.457 54.368 10.1402 54.3046 9.88674C54.1779 9.6333 54.0512 9.3165 53.8611 9.12642C53.671 8.87297 53.4176 8.74625 53.1641 8.61953C52.9107 8.49281 52.5939 8.42945 52.2771 8.42945C51.9603 8.42945 51.7068 8.49281 51.4534 8.61953C51.2 8.74625 50.9465 8.87297 50.7564 9.12642C50.5664 9.37986 50.3763 9.6333 50.2495 9.88674C50.1228 10.2035 50.0595 10.457 49.9961 10.7738ZM41.0623 14.8922V7.66909C41.0623 7.60573 41.0623 7.60573 41.1256 7.60573H42.2028C42.2661 7.60573 42.2661 7.60573 42.2661 7.66909V8.68289C42.5196 8.30273 42.8364 7.98593 43.2165 7.79581C43.6601 7.54237 44.1036 7.41565 44.6738 7.41565C45.1173 7.41565 45.4975 7.47901 45.8777 7.60573C46.1945 7.73245 46.5113 7.92257 46.7647 8.23937C47.0182 8.49281 47.2082 8.80961 47.335 9.18978C47.4617 9.56994 47.525 9.9501 47.525 10.3936V14.8922C47.525 14.9556 47.525 14.9556 47.4617 14.9556H46.3846C46.3212 14.9556 46.3212 14.9556 46.3212 14.8922V10.6471C46.3212 10.3303 46.2578 10.0135 46.1945 9.76002C46.1311 9.50658 46.0044 9.25314 45.8143 9.06306C45.6242 8.87297 45.4342 8.74625 45.1807 8.61953C44.9273 8.55617 44.6738 8.49281 44.357 8.49281C44.0402 8.49281 43.7868 8.55617 43.5333 8.61953C43.2799 8.74625 43.0265 8.87297 42.8364 9.06306C42.6463 9.25314 42.5196 9.50658 42.3928 9.76002C42.2661 10.0135 42.2661 10.3303 42.2661 10.6471V14.7655C42.2661 14.8289 42.2661 14.8289 42.2028 14.8289H41.1256C41.0623 14.9556 41.0623 14.9556 41.0623 14.8922ZM37.3874 6.08508V4.88123C37.3874 4.81787 37.3874 4.81787 37.4507 4.81787H38.6546C38.7179 4.81787 38.7179 4.81787 38.7179 4.88123V6.08508C38.7179 6.14844 38.7179 6.14844 38.6546 6.14844H37.4507C37.4507 6.14844 37.3874 6.14844 37.3874 6.08508ZM37.4507 14.8922V7.66909C37.4507 7.60573 37.4507 7.60573 37.5141 7.60573H38.5912C38.6546 7.60573 38.6546 7.60573 38.6546 7.66909V14.8922C38.6546 14.9556 38.6546 14.9556 38.5912 14.9556H37.5141C37.5141 14.9556 37.4507 14.9556 37.4507 14.8922ZM32.8888 15.0189C32.3819 15.0189 31.8116 14.8922 31.3048 14.7021C30.7979 14.5121 30.291 14.2586 29.9108 13.9418L30.4811 13.1815C31.3048 13.8151 32.1284 14.1319 33.0155 14.1319C33.459 14.1319 33.8392 14.0052 34.0926 13.8151C34.3461 13.625 34.5361 13.3082 34.5361 12.9914C34.5361 12.6746 34.4094 12.4212 34.0926 12.2311C33.7758 12.041 33.3323 11.8509 32.7621 11.7242C32.3819 11.5975 32.1284 11.5341 31.875 11.4708C31.6849 11.4074 31.4315 11.2807 31.178 11.0906C30.9246 10.9639 30.7345 10.7104 30.5444 10.5203C30.4177 10.2669 30.3544 10.0135 30.3544 9.69666C30.3544 9.06306 30.6078 8.55617 31.0513 8.17601C31.4948 7.79581 32.1284 7.60573 32.8254 7.60573C33.7758 7.60573 34.5995 7.85917 35.4232 8.42945L34.7896 9.12642C34.0926 8.68289 33.3323 8.42945 32.6353 8.42945C32.1918 8.42945 31.875 8.55617 31.6216 8.74625C31.3681 8.93633 31.2414 9.18978 31.2414 9.50658C31.2414 9.6333 31.3048 9.76002 31.3681 9.88674C31.4315 10.0135 31.5582 10.0768 31.6216 10.1402C31.6849 10.2035 31.875 10.2669 32.0651 10.3936C32.2552 10.457 32.4452 10.5203 32.572 10.5837C32.6987 10.6471 32.8888 10.7104 33.1422 10.7738C33.459 10.9005 33.7758 10.9639 33.9659 11.0906C34.2193 11.154 34.4094 11.2807 34.6629 11.4708C34.9163 11.6608 35.1064 11.8509 35.2331 12.041C35.3598 12.2944 35.4232 12.5479 35.4232 12.8647C35.4232 13.5617 35.1698 14.0685 34.6629 14.4487C34.2193 14.8289 33.5857 15.0189 32.8888 15.0189Z" fill="white"/>
<path fill-rule="evenodd" clip-rule="evenodd" d="M12.741 1.52319C17.0495 1.52319 20.5977 5.00802 20.5977 9.37989C20.5977 13.6884 17.1129 17.2366 12.741 17.2366C8.36913 17.2366 4.88431 13.6884 4.88431 9.37989C4.88431 5.00802 8.36913 1.52319 12.741 1.52319Z" fill="#A2C62C"/>
<path fill-rule="evenodd" clip-rule="evenodd" d="M14.8322 7.22556C17.1132 7.22556 18.8872 9.06299 18.8872 11.2806C18.8872 13.5616 17.0498 15.3357 14.8322 15.3357C12.5512 15.3357 10.7771 13.4982 10.7771 11.2806V4.88123H12.1077V8.30266C12.8046 7.66909 13.755 7.22556 14.8322 7.22556ZM14.8322 8.68282C16.2895 8.68282 17.43 9.88667 17.43 11.2806C17.43 12.7379 16.2261 13.8784 14.8322 13.8784C13.3749 13.8784 12.2344 12.6745 12.2344 11.2806C12.171 9.88667 13.3749 8.68282 14.8322 8.68282Z" fill="white"/>
<path d="M14.8315 7.09886C15.972 7.09886 17.0492 7.54238 17.8095 8.36608C18.5698 9.1264 19.0133 10.2035 19.0133 11.344C19.0133 12.4845 18.5698 13.5616 17.7461 14.322C16.9858 15.0823 15.9087 15.5892 14.7682 15.5892C13.6277 15.5892 12.5506 15.1457 11.7902 14.322C11.0933 13.4983 10.5864 12.4845 10.5864 11.2807V4.88124C10.5864 4.81788 10.6497 4.75452 10.7131 4.75452H12.0437C12.107 4.75452 12.1704 4.81788 12.1704 4.88124V7.98591C12.9307 7.41566 13.8178 7.09886 14.8315 7.09886ZM10.9032 9.76001C11.0933 9.18976 11.4734 8.74624 11.8536 8.30272L11.917 8.23936V5.00796H10.9032V9.76001ZM10.9032 11.1539H11.917V8.68288C11.2833 9.31649 10.9032 10.2035 10.9032 11.1539ZM12.0437 11.4074H10.9032C10.9665 12.4212 11.3467 13.3716 12.0437 14.0685C12.7406 14.7655 13.7544 15.209 14.8315 15.209C15.9087 15.209 16.9224 14.7655 17.6194 14.0685C18.3164 13.3716 18.7599 12.3578 18.7599 11.2807C18.7599 10.2035 18.3164 9.18976 17.6194 8.4928C16.9224 7.79582 15.9087 7.3523 14.8315 7.3523C13.8178 7.3523 12.9307 7.73246 12.2338 8.36608V11.2807C12.1704 11.344 12.107 11.4074 12.0437 11.4074Z" fill="white"/>
<path fill-rule="evenodd" clip-rule="evenodd" d="M91.7514 21.9886L89.0903 25.727L86.4291 21.9886H84.8451V29.6553H86.3024V24.143L89.0903 28.0713L91.8781 24.143V29.6553H93.3988V21.9886H91.7514Z" fill="white"/>
<path fill-rule="evenodd" clip-rule="evenodd" d="M94.7943 21.9886H96.3149V29.6553H94.7943V21.9886Z" fill="white"/>
<path fill-rule="evenodd" clip-rule="evenodd" d="M97.7065 21.9885H99.1637V25.1565L102.015 21.9885H103.789L100.431 25.7269L103.789 29.6552H101.952L99.1637 26.3605V29.6552H97.7065V21.9885Z" fill="white"/>
<path fill-rule="evenodd" clip-rule="evenodd" d="M83.8311 24.3963C83.8311 23.0657 82.6272 21.9253 81.1066 21.9253H78.6989V23.3192H79.9027H80.9165C81.6768 23.3192 82.2471 23.826 82.2471 24.523C82.2471 25.1566 81.6768 25.6635 80.9165 25.6635H79.9027V26.8674L82.3104 29.7186H84.2112L81.6135 26.8674C83.1341 26.5506 83.8311 25.5368 83.8311 24.3963Z" fill="white"/>
<path fill-rule="evenodd" clip-rule="evenodd" d="M69.8284 21.9886H65.9634V23.3193H69.8284V21.9886Z" fill="white"/>
<path fill-rule="evenodd" clip-rule="evenodd" d="M65.9634 29.6552H67.4207V26.3605H69.765V24.9666H65.9634V29.6552Z" fill="white"/>
<path fill-rule="evenodd" clip-rule="evenodd" d="M110.633 29.7185L107.212 21.9252L103.727 29.7185H105.374L107.212 25.6634L108.986 29.7185H110.633Z" fill="white"/>
<path fill-rule="evenodd" clip-rule="evenodd" d="M107.783 29.7186L107.213 28.3881L106.643 29.7186H107.783Z" fill="#76B82A"/>
<path fill-rule="evenodd" clip-rule="evenodd" d="M74.6441 28.4513C73.1868 28.4513 71.983 27.2475 71.983 25.7902C71.983 24.3329 73.1868 23.129 74.6441 23.129C76.1014 23.129 77.3053 24.3329 77.3053 25.7902C77.3053 27.3108 76.1014 28.4513 74.6441 28.4513ZM74.6441 21.6718C72.3632 21.6718 70.4623 23.5093 70.4623 25.8536C70.4623 28.1346 72.2998 30.0353 74.6441 30.0353C76.9251 30.0353 78.8259 28.1979 78.8259 25.8536C78.7626 23.5093 76.9251 21.6718 74.6441 21.6718Z" fill="white"/>
<path fill-rule="evenodd" clip-rule="evenodd" d="M75.9745 25.7901C75.9745 26.5504 75.3409 27.1207 74.6439 27.1207C73.8836 27.1207 73.3134 26.4871 73.3134 25.7901C73.3134 25.0298 73.947 24.4596 74.6439 24.4596C75.3409 24.4596 75.9745 25.0931 75.9745 25.7901Z" fill="#76B82A"/>
<path d="M60.0713 22.2422H4.88431V21.9886H60.0713V22.2422Z" fill="white"/>
<path d="M7.73553 29.1483C7.35537 29.4651 6.9752 29.6552 6.46832 29.6552C5.96144 29.6552 5.58127 29.5285 5.32783 29.2117C5.01103 28.8949 4.88431 28.4513 4.88431 28.0078C4.88431 27.5643 5.01103 27.1842 5.32783 26.8674C5.64463 26.5506 6.0248 26.3605 6.46832 26.3605C6.72176 26.3605 6.91184 26.4238 7.10192 26.4872C7.29201 26.5506 7.48209 26.6773 7.60881 26.804L7.41873 27.0574C7.10192 26.8673 6.78512 26.7406 6.46832 26.7406C6.15152 26.7406 5.83472 26.8674 5.64463 27.1208C5.39119 27.3742 5.32783 27.691 5.32783 28.0078C5.32783 28.3879 5.45455 28.7047 5.64463 28.9582C5.89808 29.2116 6.15152 29.3384 6.53168 29.3384C6.84848 29.3384 7.16529 29.2117 7.41873 29.0216V28.2613H6.46832V27.9445H7.73553V29.1483ZM8.68594 29.5918V26.4872H10.0165C10.3967 26.4872 10.7135 26.6139 10.9036 26.804C11.0936 26.9941 11.157 27.1842 11.157 27.4376C11.157 27.691 11.0936 27.8811 10.9036 28.0712C10.7768 28.1979 10.5234 28.3246 10.2699 28.388L11.2204 29.6552H10.8402L9.95315 28.388H9.00274V29.5918H8.68594ZM9.00274 28.0712H9.95315C10.2066 28.0712 10.3967 28.0078 10.5234 27.8811C10.6501 27.7543 10.7768 27.6276 10.7768 27.3742C10.7768 27.1841 10.7135 27.0574 10.5868 26.9307C10.46 26.8039 10.2699 26.7406 10.0165 26.7406H9.00274V28.0712ZM14.6418 29.1483C14.325 29.4651 13.9449 29.6552 13.5013 29.6552C13.0578 29.6552 12.6776 29.5285 12.3608 29.2117C12.044 28.8949 11.9173 28.5147 11.9173 28.0712C11.9173 27.6277 12.044 27.2475 12.3608 26.9307C12.6776 26.6139 13.0578 26.4238 13.5013 26.4238C13.9449 26.4238 14.325 26.5506 14.6418 26.8674C14.9586 27.1842 15.0853 27.5643 15.0853 28.0078C15.0853 28.4513 14.9586 28.8315 14.6418 29.1483ZM12.6143 28.9582C12.8677 29.2116 13.1212 29.3384 13.5013 29.3384C13.8815 29.3384 14.1349 29.2116 14.3884 28.9582C14.6418 28.7047 14.7052 28.3879 14.7052 28.0078C14.7052 27.6276 14.5785 27.3109 14.325 27.1208C14.0716 26.8674 13.8181 26.7406 13.438 26.7406C13.0578 26.7406 12.8044 26.8674 12.5509 27.1208C12.2975 27.3742 12.2341 27.691 12.2341 28.0712C12.2975 28.388 12.4242 28.7047 12.6143 28.9582ZM17.2396 29.6552C16.8594 29.6552 16.5426 29.5284 16.2892 29.275C16.0358 29.0216 15.909 28.7048 15.909 28.2613V26.4238H16.2892V28.1979C16.2892 28.5147 16.3526 28.7681 16.5426 28.9582C16.7327 29.1483 16.9228 29.2117 17.2396 29.2117C17.5564 29.2117 17.7465 29.1483 17.9366 28.9582C18.1266 28.7681 18.19 28.5147 18.19 28.1979V26.3605H18.5702V28.1346C18.5702 28.5781 18.4434 28.8948 18.19 29.1483C17.9999 29.5284 17.6831 29.6552 17.2396 29.6552ZM19.5206 29.5918V26.4872H20.7244C21.1046 26.4872 21.358 26.5505 21.5481 26.7406C21.7382 26.9307 21.8649 27.1842 21.8649 27.501C21.8649 27.8178 21.7382 28.0712 21.4848 28.2613C21.2313 28.4514 20.9779 28.5147 20.5977 28.5147H19.8374V29.5918H19.5206ZM19.9007 28.1346H20.6611C20.9145 28.1346 21.1046 28.0712 21.2947 27.9445C21.4214 27.8178 21.5481 27.6277 21.5481 27.4376C21.5481 27.2475 21.4848 27.0574 21.2947 26.9307C21.1679 26.8039 20.9145 26.7406 20.6611 26.7406H19.8374V28.1346H19.9007ZM26.617 29.1483C26.3001 29.4651 25.92 29.6552 25.4765 29.6552C25.0329 29.6552 24.6528 29.5285 24.336 29.2117C24.0192 28.8949 23.8925 28.5147 23.8925 28.0712C23.8925 27.6277 24.0192 27.2475 24.336 26.9307C24.6528 26.6139 25.0329 26.4238 25.4765 26.4238C25.92 26.4238 26.3001 26.5506 26.617 26.8674C26.9338 27.1842 27.0605 27.5643 27.0605 28.0078C27.0605 28.4513 26.9338 28.8315 26.617 29.1483ZM24.5894 28.9582C24.8429 29.2116 25.0963 29.3384 25.4765 29.3384C25.8566 29.3384 26.1101 29.2116 26.3635 28.9582C26.617 28.7047 26.6803 28.3879 26.6803 28.0078C26.6803 27.6276 26.5536 27.3109 26.3001 27.1208C26.0467 26.8674 25.7933 26.7406 25.4131 26.7406C25.0329 26.7406 24.7795 26.8674 24.5261 27.1208C24.2726 27.3742 24.2093 27.691 24.2093 28.0712C24.2726 28.388 24.336 28.7047 24.5894 28.9582ZM27.9475 29.5918V26.4872H30.2285V26.804H28.3277V27.9445H30.0384V28.2613H28.3277V29.6552H27.9475V29.5918ZM33.84 29.6552C33.3965 29.6552 33.0164 29.5285 32.6996 29.2117C32.3828 28.8949 32.256 28.5147 32.256 28.0712C32.256 27.6277 32.3828 27.2475 32.6996 26.9307C33.0164 26.6139 33.3965 26.4872 33.84 26.4872C34.0935 26.4872 34.3469 26.5505 34.537 26.6139C34.7271 26.6772 34.9172 26.804 35.1073 26.9941L34.8538 27.2475C34.537 26.9307 34.2202 26.804 33.84 26.804C33.5232 26.804 33.2064 26.9307 32.953 27.1842C32.6996 27.4376 32.6362 27.7544 32.6362 28.1346C32.6362 28.5147 32.7629 28.8315 33.0164 29.085C33.2698 29.3384 33.5232 29.4651 33.9034 29.4651C34.0935 29.4651 34.2836 29.4018 34.4103 29.3384C34.537 29.2751 34.7271 29.1483 34.8538 29.0216L35.1073 29.275C34.9172 29.4651 34.7271 29.5919 34.537 29.6552C34.3469 29.5919 34.0935 29.6552 33.84 29.6552ZM38.3386 29.1483C38.0218 29.4651 37.6417 29.6552 37.1982 29.6552C36.7546 29.6552 36.3745 29.5285 36.0577 29.2117C35.7409 28.8949 35.6141 28.5147 35.6141 28.0712C35.6141 27.6277 35.7409 27.2475 36.0577 26.9307C36.3745 26.6139 36.7546 26.4238 37.1982 26.4238C37.6417 26.4238 38.0218 26.5506 38.3386 26.8674C38.6554 27.1842 38.7822 27.5643 38.7822 28.0078C38.7822 28.4513 38.6554 28.8315 38.3386 29.1483ZM36.3111 28.9582C36.5645 29.2116 36.818 29.3384 37.1982 29.3384C37.5783 29.3384 37.8318 29.2116 38.0852 28.9582C38.3386 28.7047 38.402 28.3879 38.402 28.0078C38.402 27.6276 38.2753 27.3109 38.0218 27.1208C37.8318 26.8674 37.5783 26.7406 37.1982 26.7406C36.818 26.7406 36.5645 26.8674 36.3111 27.1208C36.0577 27.3742 35.9943 27.691 35.9943 28.0712C35.9943 28.388 36.121 28.7047 36.3111 28.9582ZM39.6692 29.5918V26.4872H40.0494L41.1899 28.1979L42.3303 26.4872H42.7105V29.5918H42.3303V27.0574L41.1899 28.7048L40.0494 27.0574V29.5918H39.6692ZM43.7243 29.5918V26.4872H44.9281C45.3083 26.4872 45.5617 26.5505 45.7518 26.7406C45.9419 26.9307 46.0686 27.1842 46.0686 27.501C46.0686 27.8178 45.9419 28.0712 45.6885 28.2613C45.435 28.4514 45.1816 28.5147 44.8014 28.5147H44.0411V29.5918H43.7243ZM44.1044 28.1346H44.8648C45.1182 28.1346 45.3083 28.0712 45.4984 27.9445C45.6251 27.8178 45.7518 27.6277 45.7518 27.4376C45.7518 27.2475 45.6885 27.0574 45.4984 26.9307C45.3717 26.8039 45.1182 26.7406 44.8648 26.7406H44.0411V28.1346H44.1044ZM46.2587 29.5918L47.716 26.4238H48.0328L49.4901 29.5918H49.1099L48.7298 28.7682H47.019L46.6389 29.5918H46.2587ZM47.1457 28.4514H48.603L47.8427 26.8674L47.1457 28.4514ZM50.2504 29.5918V26.4872H50.5672L52.5314 29.0216V26.4872H52.8482V29.5918H52.5947L50.5672 26.9941V29.5918H50.2504ZM53.9253 29.5918V26.4872H54.3055V29.5918H53.9253ZM55.3192 29.5918V26.4872H57.6002V26.804H55.6994V27.8811H57.4101V28.1979H55.6994V29.275H57.6636V29.5918H55.3192ZM59.5644 29.6552C59.0575 29.6552 58.6774 29.4651 58.2972 29.1483L58.4873 28.8949C58.6774 29.0216 58.8041 29.1483 58.9942 29.2117C59.1842 29.2751 59.3743 29.3384 59.5644 29.3384C59.7545 29.3384 59.9446 29.2751 60.0713 29.2117C60.198 29.085 60.2614 28.9582 60.2614 28.8315C60.2614 28.7047 60.198 28.5781 60.0713 28.4514C59.9446 28.388 59.7545 28.2612 59.4377 28.1979C59.0575 28.1345 58.8041 28.0078 58.614 27.8811C58.4239 27.7543 58.3605 27.5643 58.3605 27.3109C58.3605 27.0574 58.4873 26.8674 58.6774 26.6773C58.8674 26.4872 59.1209 26.4238 59.4377 26.4238C59.8812 26.4238 60.198 26.5506 60.5148 26.804L60.3247 27.0574C60.0713 26.8039 59.7545 26.7406 59.4377 26.7406C59.2476 26.7406 59.0575 26.804 58.9308 26.8674C58.8041 26.9941 58.7407 27.0574 58.7407 27.2475C58.7407 27.3742 58.8041 27.501 58.9308 27.6277C59.0575 27.691 59.2476 27.8177 59.6278 27.8811C60.0079 27.9444 60.2614 28.0711 60.3881 28.1979C60.5782 28.3246 60.6415 28.5147 60.6415 28.7682C60.6415 29.0216 60.5148 29.2751 60.3247 29.4018C60.1346 29.5285 59.8812 29.6552 59.5644 29.6552Z" fill="white"/>
</g>
</svg>
