<svg width="115" height="32" viewBox="0 0 115 32" fill="none" xmlns="http://www.w3.org/2000/svg">
<g clip-path="url(#clip0_343_1219)">
<path d="M22.0308 15.6922C21.5656 15.6922 21.1453 15.6198 20.7767 15.4751C20.4046 15.3304 20.0842 15.1134 19.8154 14.824C19.5432 14.5346 19.34 14.2004 19.2056 13.8145C19.0712 13.4321 19.0023 13.0014 19.0023 12.526V7.73007C19.0023 7.69217 19.0333 7.66116 19.0712 7.66116H20.222C20.2599 7.66116 20.2909 7.69217 20.2909 7.73007V12.2434C20.2909 12.5983 20.3357 12.9187 20.4287 13.1943C20.5183 13.47 20.6561 13.7077 20.8352 13.9075C21.0144 14.1074 21.2314 14.2555 21.483 14.3554C21.7379 14.4553 22.0308 14.507 22.3615 14.507C22.6923 14.507 22.9817 14.4519 23.2504 14.3451C23.5191 14.2383 23.7569 14.0729 23.9705 13.8558C24.1841 13.6388 24.3426 13.3873 24.4494 13.1048C24.5562 12.8222 24.6079 12.5053 24.6079 12.1539V7.73007C24.6079 7.69217 24.6389 7.66116 24.6768 7.66116H25.8137C25.8516 7.66116 25.8826 7.69217 25.8826 7.73007V15.4545C25.8826 15.4924 25.8516 15.5234 25.8137 15.5234H24.6768C24.6389 15.5234 24.6079 15.4924 24.6079 15.4545V14.3382C24.315 14.7551 23.9705 15.0755 23.5777 15.2994C23.1264 15.5578 22.6096 15.6853 22.0308 15.6853V15.6922ZM111.21 15.5199V8.82223H109.942C109.904 8.82223 109.873 8.79123 109.873 8.75333V7.73696C109.873 7.69906 109.904 7.66805 109.942 7.66805H111.21V5.40792C111.21 5.37002 111.241 5.33902 111.278 5.33902H112.429C112.467 5.33902 112.498 5.37002 112.498 5.40792V7.66805H113.835C113.873 7.66805 113.904 7.69906 113.904 7.73696V8.75333C113.904 8.79123 113.873 8.82223 113.835 8.82223H112.498V15.5234C112.498 15.5613 112.467 15.5923 112.429 15.5923H111.278C111.241 15.5923 111.21 15.5613 111.21 15.5234V15.5199ZM101.632 15.4579V7.73696C101.632 7.69906 101.663 7.66805 101.7 7.66805H102.851C102.889 7.66805 102.92 7.69906 102.92 7.73696V8.84635C103.206 8.43291 103.544 8.1125 103.933 7.88855C104.384 7.63015 104.905 7.50268 105.494 7.50268C105.959 7.50268 106.379 7.57503 106.748 7.71973C107.12 7.86444 107.44 8.08149 107.713 8.3709C107.985 8.6603 108.188 8.9945 108.322 9.38038C108.457 9.76281 108.526 10.1935 108.526 10.6689V15.4648C108.526 15.5027 108.495 15.5337 108.457 15.5337H107.306C107.268 15.5337 107.237 15.5027 107.237 15.4648V10.9514C107.237 10.2417 107.058 9.68701 106.696 9.28735C106.517 9.08752 106.3 8.93937 106.048 8.83946C105.793 8.73955 105.501 8.68787 105.17 8.68787C104.839 8.68787 104.55 8.74299 104.281 8.8498C104.012 8.9566 103.775 9.12198 103.561 9.33903C103.347 9.55609 103.189 9.80759 103.082 10.0901C102.975 10.3726 102.924 10.6896 102.924 11.041V15.4648C102.924 15.5027 102.893 15.5337 102.855 15.5337H101.704C101.666 15.5337 101.635 15.5027 101.635 15.4648L101.632 15.4579ZM94.007 12.1366C94.0484 12.4915 94.138 12.8119 94.2758 13.0979C94.4205 13.4011 94.6169 13.6664 94.8649 13.8937C95.1164 14.1177 95.3886 14.29 95.6849 14.4002C95.9812 14.5139 96.3016 14.569 96.6496 14.569C97.5557 14.569 98.3516 14.2142 99.0338 13.501C99.0613 13.4734 99.1027 13.4734 99.1302 13.501L99.8469 14.1418C99.8744 14.1659 99.8779 14.2107 99.8538 14.2383C99.4127 14.7275 98.9235 15.0962 98.386 15.3408C97.8451 15.5854 97.256 15.7094 96.622 15.7094C96.0708 15.7094 95.5609 15.613 95.0958 15.4235C94.6306 15.2305 94.2069 14.9446 93.8313 14.5621C93.4523 14.1797 93.1698 13.7421 92.9803 13.2495C92.7908 12.7568 92.6978 12.209 92.6978 11.6095C92.6978 11.01 92.7874 10.5104 92.9666 10.0246C93.1457 9.53886 93.4144 9.09786 93.7762 8.70165C94.138 8.30199 94.5411 8.00569 94.9924 7.80586C95.4403 7.60604 95.9364 7.50612 96.4739 7.50612C97.0114 7.50612 97.5419 7.60604 97.9864 7.80242C98.4343 8.00225 98.8236 8.29855 99.1544 8.69476C99.4851 9.09097 99.7297 9.53541 99.8951 10.0315C100.06 10.5277 100.143 11.072 100.143 11.6681V11.8851C100.136 11.954 100.133 12.0195 100.129 12.0746C100.129 12.1125 100.095 12.1366 100.06 12.1366H94.0105H94.007ZM94.007 11.072H98.8271C98.7892 10.7344 98.7133 10.4243 98.6031 10.1418C98.4825 9.8386 98.3206 9.56642 98.1139 9.32525C97.9106 9.08752 97.6694 8.90837 97.3903 8.78778C97.1113 8.66719 96.7943 8.60862 96.4394 8.60862C96.119 8.60862 95.8227 8.66719 95.5505 8.78434C95.2784 8.90148 95.0269 9.08063 94.7995 9.31836C94.5721 9.55609 94.3895 9.82827 94.2551 10.1315C94.1311 10.414 94.0449 10.7275 94.0036 11.0686L94.007 11.072ZM87.7297 15.544L84.3842 7.76452C84.3705 7.73007 84.3842 7.68872 84.4221 7.67494C84.4325 7.6715 84.4394 7.66805 84.4497 7.66805H85.7176C85.7486 7.66805 85.7727 7.68872 85.783 7.71284L88.3188 13.9626L90.8683 7.7094C90.8787 7.68183 90.9062 7.66805 90.9338 7.66805H92.1741C92.212 7.66805 92.243 7.69906 92.243 7.73696C92.243 7.74729 92.243 7.75763 92.2361 7.76797L88.8769 15.5475C88.8666 15.5751 88.8391 15.5888 88.8149 15.5888H87.7986C87.7676 15.5888 87.7434 15.5682 87.7331 15.544H87.7297ZM77.7933 12.1366C77.8381 12.4915 77.9243 12.8119 78.0621 13.0979C78.2068 13.4011 78.4032 13.6664 78.6512 13.8937C78.9027 14.1177 79.1749 14.29 79.4712 14.4002C79.7675 14.5139 80.0914 14.569 80.4359 14.569C81.342 14.569 82.1379 14.2142 82.8235 13.501C82.8511 13.4734 82.8924 13.4734 82.92 13.501L83.6366 14.1418C83.6642 14.1659 83.6676 14.2107 83.6435 14.2383C83.2025 14.7275 82.7133 15.0962 82.1758 15.3408C81.6349 15.5854 81.0457 15.7094 80.4118 15.7094C79.8605 15.7094 79.3506 15.613 78.8855 15.4235C78.4204 15.2305 77.9966 14.9446 77.6211 14.5621C77.2421 14.1797 76.9596 13.7421 76.7701 13.2495C76.5806 12.7568 76.4876 12.209 76.4876 11.6095C76.4876 10.4657 76.8459 9.49752 77.5659 8.70165C77.9243 8.30199 78.3308 8.00569 78.7821 7.80586C79.23 7.60604 79.7262 7.50612 80.2636 7.50612C80.8011 7.50612 81.3317 7.60604 81.7796 7.80242C82.2275 8.00225 82.6168 8.29855 82.9475 8.69476C83.2783 9.09097 83.5229 9.53541 83.6883 10.0315C83.8537 10.5277 83.9364 11.072 83.9364 11.6681V11.8851C83.9295 11.954 83.926 12.0195 83.9226 12.0746C83.9226 12.1125 83.8881 12.1366 83.8537 12.1366H77.8037H77.7933ZM77.7933 11.072H82.6133C82.5755 10.7344 82.4997 10.4243 82.3894 10.1418C82.2688 9.8386 82.1069 9.56642 81.9002 9.32525C81.6969 9.08752 81.4557 8.90837 81.1766 8.78778C80.8976 8.66719 80.5806 8.60862 80.2257 8.60862C79.9053 8.60862 79.609 8.66719 79.3368 8.78434C79.0647 8.90148 78.8132 9.08063 78.5858 9.31836C78.3584 9.55609 78.1758 9.82827 78.0414 10.1315C77.9174 10.414 77.8312 10.7275 77.7899 11.0686L77.7933 11.072ZM67.1749 15.6784C66.8923 15.6784 66.6064 15.6509 66.3204 15.5992C66.0344 15.5475 65.745 15.4683 65.4556 15.3683C65.1662 15.265 64.894 15.1444 64.6425 15.0031C64.3876 14.8619 64.1533 14.7034 63.9362 14.5277C63.9087 14.5036 63.9018 14.4622 63.9259 14.4312L64.5082 13.6112C64.5288 13.5802 64.5736 13.5733 64.6046 13.594H64.6081C65.0388 13.9213 65.4763 14.1625 65.9139 14.3244C66.3514 14.4863 66.7924 14.5656 67.2369 14.5656C67.4643 14.5656 67.671 14.538 67.857 14.4829C68.0396 14.4278 68.205 14.3451 68.3463 14.2383C68.4875 14.1315 68.5943 14.004 68.6632 13.8627C68.7321 13.7215 68.7666 13.5595 68.7666 13.3804C68.7666 13.2185 68.7287 13.0772 68.6563 12.9532C68.5805 12.8291 68.4668 12.7223 68.3153 12.6328H68.3118C68.1533 12.5397 67.9569 12.4467 67.7227 12.3571C67.4849 12.2641 67.2059 12.1745 66.8889 12.085C66.6925 12.0298 66.5168 11.9781 66.3618 11.9265C66.2067 11.8748 66.0689 11.8266 65.9552 11.7818C65.8415 11.737 65.7175 11.6818 65.5831 11.6164C65.4522 11.5509 65.3109 11.4786 65.1697 11.3959C65.0215 11.3098 64.8906 11.2133 64.7769 11.1065C64.6632 10.9962 64.5736 10.8756 64.4978 10.7413C64.4255 10.6104 64.3704 10.4657 64.3359 10.3072C64.298 10.1521 64.2808 9.98331 64.2808 9.80415C64.2808 9.46651 64.3428 9.15988 64.4703 8.8808C64.5977 8.60518 64.7872 8.36056 65.0422 8.1504C65.2937 7.94023 65.5831 7.78175 65.907 7.67839C66.2274 7.57503 66.5857 7.52335 66.975 7.52335C67.478 7.52335 67.9673 7.5957 68.4358 7.7404C68.9044 7.88511 69.3557 8.10216 69.7899 8.38812C69.8209 8.4088 69.8312 8.45014 69.8105 8.48115L69.2868 9.34937C69.2662 9.38037 69.2248 9.39416 69.1904 9.37348H69.1835C68.8079 9.12542 68.4324 8.94282 68.0569 8.81879C67.6848 8.6982 67.3092 8.63619 66.9371 8.63619C66.7201 8.63619 66.5237 8.66375 66.348 8.71198C66.1757 8.76366 66.0241 8.83946 65.8932 8.94282C65.7657 9.04273 65.6692 9.15643 65.6038 9.28735C65.5418 9.41483 65.5073 9.55953 65.5073 9.71802C65.5073 9.78003 65.5176 9.84205 65.5349 9.90062C65.5521 9.95919 65.5797 10.0143 65.6141 10.0694C65.652 10.128 65.6899 10.1797 65.7347 10.2245C65.776 10.2727 65.8208 10.3141 65.8691 10.352C65.9173 10.3899 65.9759 10.4278 66.0517 10.4691C66.1275 10.5104 66.217 10.5518 66.3239 10.5966H66.3273C66.4307 10.6414 66.5271 10.6793 66.6098 10.7103C66.696 10.7413 66.7683 10.7688 66.8303 10.7861L67.4436 10.979C67.6296 11.0341 67.7985 11.0893 67.95 11.1409C68.1016 11.1926 68.2395 11.2443 68.36 11.296C68.4806 11.3477 68.6047 11.4062 68.7356 11.4751C68.8631 11.544 68.9974 11.6198 69.1318 11.706C69.2696 11.7921 69.3936 11.892 69.497 12.0023C69.6004 12.1125 69.6899 12.2331 69.7588 12.3675C69.8278 12.4984 69.8829 12.6431 69.9173 12.7981C69.9518 12.9532 69.969 13.1151 69.969 13.2908C69.969 13.6595 69.9035 13.9902 69.7692 14.2796C69.6348 14.5725 69.435 14.8274 69.1662 15.0376C68.901 15.2478 68.5978 15.4097 68.2636 15.513C67.9294 15.6198 67.5573 15.6715 67.1507 15.6715L67.1749 15.6784ZM59.8845 15.6784C59.602 15.6784 59.3161 15.6509 59.0301 15.5992C58.7441 15.5475 58.4547 15.4683 58.1653 15.3683C57.8759 15.265 57.6037 15.1444 57.3522 15.0031C57.0973 14.8619 56.863 14.7034 56.6459 14.5277C56.6184 14.5036 56.6115 14.4622 56.6356 14.4312L57.2179 13.6112C57.2385 13.5802 57.2833 13.5733 57.3143 13.594H57.3178C57.7484 13.9213 58.186 14.1625 58.6236 14.3244C59.0611 14.4863 59.5021 14.5656 59.9466 14.5656C60.1739 14.5656 60.3807 14.538 60.5667 14.4829C60.7493 14.4278 60.9147 14.3451 61.056 14.2383C61.1972 14.1315 61.304 14.004 61.3729 13.8627C61.4418 13.718 61.4763 13.5595 61.4763 13.3804C61.4763 13.2185 61.4384 13.0772 61.366 12.9532C61.2902 12.8291 61.1765 12.7223 61.0249 12.6328C60.8665 12.5397 60.6666 12.4467 60.4323 12.3571C60.1946 12.2641 59.9155 12.1745 59.5986 12.085C59.4022 12.0298 59.2265 11.9781 59.0714 11.9265C58.9164 11.8748 58.7786 11.8266 58.6649 11.7818C58.5512 11.737 58.4272 11.6818 58.2928 11.6164C58.1619 11.5509 58.0206 11.4786 57.8794 11.3959C57.7312 11.3098 57.6003 11.2133 57.4866 11.1065C57.3729 10.9962 57.2833 10.8756 57.2075 10.7413C57.1352 10.6104 57.08 10.4657 57.0456 10.3072C57.0077 10.1521 56.9905 9.98331 56.9905 9.80415C56.9905 9.46651 57.0525 9.15988 57.18 8.8808C57.3074 8.60518 57.4969 8.36056 57.7519 8.1504C58.0068 7.94023 58.2928 7.78175 58.6167 7.67839C58.9371 7.57503 59.2954 7.52335 59.6813 7.52335C60.1843 7.52335 60.6735 7.5957 61.1421 7.7404C61.6106 7.88511 62.062 8.10216 62.4961 8.38812C62.5271 8.4088 62.5374 8.45014 62.5168 8.48115L61.9931 9.34937C61.9724 9.38037 61.9311 9.39416 61.8966 9.37348H61.8897C61.5142 9.12542 61.1386 8.94282 60.7631 8.81879C60.3876 8.6982 60.0155 8.63619 59.6434 8.63619C59.4263 8.63619 59.2299 8.66375 59.0577 8.71198C58.8854 8.76366 58.7338 8.83946 58.6029 8.94282C58.4754 9.04273 58.3789 9.15643 58.3135 9.28735C58.2515 9.41483 58.217 9.55953 58.217 9.71802C58.217 9.78003 58.2273 9.84205 58.2446 9.90062C58.2618 9.95919 58.2894 10.0143 58.3273 10.0694C58.3652 10.128 58.4065 10.1797 58.4478 10.2245C58.4892 10.2727 58.534 10.3141 58.5822 10.352C58.6304 10.3899 58.689 10.4278 58.7648 10.4691C58.8406 10.5104 58.9302 10.5518 59.037 10.5966H59.0404C59.1438 10.6414 59.2403 10.6793 59.323 10.7103C59.4091 10.7413 59.4814 10.7688 59.5435 10.7861L60.1567 10.979C60.3428 11.0341 60.5116 11.0893 60.6632 11.1409C60.8148 11.1926 60.9526 11.2443 61.0732 11.296C61.1938 11.3477 61.3212 11.4062 61.4487 11.4751C61.5796 11.544 61.7106 11.6198 61.8449 11.706C61.9827 11.7921 62.1068 11.892 62.2101 12.0023C62.3169 12.1125 62.4031 12.2331 62.472 12.3675C62.5409 12.4984 62.596 12.6431 62.6305 12.7981C62.6649 12.9532 62.6821 13.1151 62.6821 13.2908C62.6821 13.6595 62.6167 13.9902 62.4823 14.2796C62.3479 14.5725 62.1481 14.8274 61.8794 15.0376C61.6141 15.2512 61.3109 15.4097 60.9767 15.513C60.6425 15.6198 60.2704 15.6715 59.8639 15.6715L59.8845 15.6784ZM49.2488 12.1366C49.2902 12.4915 49.3797 12.8119 49.5176 13.0979C49.6623 13.4011 49.8586 13.6664 50.1067 13.8937C50.3582 14.1177 50.6304 14.29 50.9267 14.4002C51.223 14.5139 51.5469 14.569 51.8914 14.569C52.7975 14.569 53.5934 14.2142 54.279 13.501C54.3066 13.4734 54.3479 13.4734 54.3755 13.501L55.0921 14.1418C55.1197 14.1659 55.1231 14.2107 55.099 14.2383C54.658 14.7275 54.1688 15.0962 53.6313 15.3408C53.0904 15.5854 52.5012 15.7094 51.8673 15.7094C51.316 15.7094 50.8061 15.613 50.341 15.4235C49.8759 15.2305 49.4521 14.9446 49.0766 14.5621C48.6976 14.1797 48.4151 13.7421 48.2256 13.2495C48.0361 12.7568 47.943 12.209 47.943 11.6095C47.943 11.01 48.0326 10.5104 48.2118 10.0246C48.3909 9.53886 48.6597 9.09786 49.0214 8.70165C49.3832 8.30199 49.7863 8.00569 50.2376 7.80586C50.6855 7.60604 51.1817 7.50612 51.7191 7.50612C52.2566 7.50612 52.7872 7.60604 53.2351 7.80242C53.683 8.00225 54.0723 8.29855 54.403 8.69476C54.7338 9.09097 54.9784 9.53541 55.1438 10.0315C55.3092 10.5277 55.3918 11.072 55.3918 11.6681V11.8886C55.385 11.9575 55.3815 12.0229 55.3781 12.0781C55.3781 12.116 55.3436 12.1401 55.3092 12.1401H49.2592L49.2488 12.1366ZM49.2488 11.072H54.0688C54.0309 10.7344 53.9551 10.4243 53.8449 10.1418C53.7243 9.8386 53.5589 9.56642 53.3557 9.32525C53.1524 9.08752 52.9112 8.90837 52.6321 8.78778C52.3531 8.66719 52.0361 8.60862 51.6812 8.60862C51.3608 8.60862 51.0645 8.66719 50.7923 8.78434C50.5202 8.90148 50.2686 9.08063 50.0412 9.31836C49.8139 9.55609 49.6313 9.82827 49.4969 10.1315C49.3729 10.414 49.2867 10.7275 49.2454 11.0686L49.2488 11.072ZM39.6949 15.4579V7.73696C39.6949 7.69906 39.7259 7.66805 39.7638 7.66805H40.9146C40.9525 7.66805 40.9835 7.69906 40.9835 7.73696V8.84635C41.2695 8.43291 41.6071 8.1125 41.9964 7.88855C42.4478 7.63015 42.968 7.50268 43.5571 7.50268C44.0223 7.50268 44.4426 7.57503 44.8112 7.71973C45.1833 7.86444 45.5038 8.08149 45.7725 8.3709C46.0447 8.6603 46.2445 8.9945 46.3823 9.38038C46.5167 9.76281 46.5856 10.1935 46.5856 10.6689V15.4648C46.5856 15.5027 46.5546 15.5337 46.5167 15.5337H45.3659C45.328 15.5337 45.297 15.5027 45.297 15.4648V10.9514C45.297 10.5966 45.2522 10.2796 45.1592 10.0005C45.0696 9.72491 44.9318 9.48718 44.7527 9.28735C44.5735 9.08752 44.3565 8.93937 44.105 8.83946C43.85 8.73955 43.5571 8.68787 43.2264 8.68787C42.8956 8.68787 42.6062 8.74299 42.3375 8.8498C42.0688 8.9566 41.831 9.12198 41.6174 9.33903C41.4038 9.55609 41.2453 9.80759 41.1385 10.0901C41.0317 10.3726 40.98 10.6896 40.98 11.041V15.4648C40.98 15.5027 40.949 15.5337 40.9111 15.5337H39.7604C39.7225 15.5337 39.6915 15.5027 39.6915 15.4648L39.6949 15.4579ZM35.7948 6.04531V4.77398C35.7948 4.73609 35.8258 4.70508 35.8637 4.70508H37.1799C37.2177 4.70508 37.2488 4.73609 37.2488 4.77398V6.04531C37.2488 6.08321 37.2177 6.11421 37.1799 6.11421H35.8637C35.8258 6.11421 35.7948 6.08321 35.7948 6.04531ZM35.8706 15.4579V7.73696C35.8706 7.69906 35.9016 7.66805 35.9395 7.66805H37.0903C37.1282 7.66805 37.1592 7.69906 37.1592 7.73696V15.4614C37.1592 15.4993 37.1282 15.5303 37.0903 15.5303H35.9395C35.9016 15.5303 35.8706 15.4993 35.8706 15.4614V15.4579ZM30.9507 15.6061C30.3926 15.6061 29.8275 15.5027 29.2556 15.2994C28.6837 15.0962 28.1807 14.8171 27.7534 14.4691L28.3357 13.6491C29.2108 14.3072 30.1032 14.6345 31.0093 14.6345C31.4778 14.6345 31.8603 14.5208 32.16 14.29C32.4598 14.0591 32.6079 13.7559 32.6079 13.3769C32.6079 13.029 32.446 12.7602 32.1221 12.5707C31.7983 12.3812 31.3194 12.1986 30.682 12.0195C30.2926 11.9092 29.986 11.8093 29.7552 11.7197C29.5243 11.6302 29.2659 11.5027 28.9765 11.3373C28.6871 11.1719 28.4735 10.9652 28.3357 10.7103C28.1979 10.4553 28.1255 10.1556 28.1255 9.8076C28.1255 9.14954 28.3702 8.61896 28.8663 8.20897C29.359 7.79897 29.9895 7.5957 30.7578 7.5957C31.7535 7.5957 32.6803 7.87822 33.5381 8.44669L33.0145 9.31491C32.2461 8.81534 31.4847 8.56728 30.7268 8.56728C30.2789 8.56728 29.9171 8.67409 29.6449 8.8877C29.3727 9.1013 29.2349 9.37693 29.2349 9.71802C29.2349 9.85583 29.2763 9.98675 29.3555 10.1073C29.4348 10.2279 29.5243 10.3278 29.6243 10.4071C29.7242 10.4863 29.8827 10.5725 30.0963 10.662C30.3099 10.7516 30.4821 10.8171 30.6131 10.855C30.744 10.8963 30.9473 10.9583 31.2263 11.0479C31.595 11.1582 31.8982 11.2615 32.1393 11.3614C32.3771 11.4613 32.632 11.5957 32.9008 11.7645C33.1695 11.9334 33.3728 12.147 33.5071 12.3985C33.6415 12.6534 33.7104 12.9497 33.7104 13.2874C33.7104 14.004 33.452 14.569 32.9318 14.9825C32.415 15.3959 31.7569 15.6026 30.961 15.6026L30.9507 15.6061Z" fill="#9AA0A2"/>
<path fill-rule="evenodd" clip-rule="evenodd" d="M9.47627 1.18066C14.0999 1.18066 17.8484 4.92917 17.8484 9.55279C17.8484 14.1764 14.0999 17.9249 9.47627 17.9249C4.85264 17.9249 1.10413 14.1799 1.10413 9.55279C1.10413 4.92573 4.85264 1.18066 9.47627 1.18066Z" fill="#A2C62C"/>
<path fill-rule="evenodd" clip-rule="evenodd" d="M11.7023 7.26883C14.1037 7.26883 16.0537 9.21543 16.0537 11.6203C16.0537 14.0251 14.1071 15.9717 11.7023 15.9717C9.29744 15.9717 7.35083 14.0251 7.35083 11.6203V11.6065V4.77441H8.74619V8.42645C9.52139 7.70638 10.5584 7.26883 11.7023 7.26883ZM11.7023 8.81577C13.2527 8.81577 14.5068 10.0699 14.5068 11.6203C14.5068 13.1707 13.2527 14.4248 11.7023 14.4248C10.1519 14.4248 8.89778 13.1672 8.89778 11.6203C8.89778 10.0733 10.1519 8.81577 11.7023 8.81577Z" fill="white"/>
<path d="M11.7018 7.11304C12.9456 7.11304 14.0722 7.61605 14.8853 8.4326L14.8922 8.44293C15.7018 9.25603 16.2014 10.3792 16.2014 11.6195C16.2014 12.8598 15.6984 13.9899 14.8818 14.803C14.0687 15.6195 12.9421 16.1226 11.6984 16.1226C10.4546 16.1226 9.32797 15.6195 8.51487 14.803L8.50454 14.7927C7.69488 13.9796 7.19531 12.8564 7.19531 11.6161V4.77366C7.19531 4.69098 7.26422 4.62207 7.34691 4.62207H8.74226C8.82495 4.62207 8.89386 4.69098 8.89386 4.77366V8.09151C9.66217 7.47824 10.6372 7.11304 11.6949 7.11304H11.7018ZM7.50539 9.98299C7.73278 9.39729 8.08076 8.87015 8.51832 8.4326L8.59411 8.3568V4.9287H7.50539V9.98644V9.98299ZM7.50884 11.4473H8.59411V8.79436C7.95328 9.50065 7.54674 10.4274 7.50884 11.4473ZM8.74915 11.7539H7.50884C7.54329 12.8529 8.00496 13.8486 8.72848 14.579L8.73537 14.5859C9.49334 15.3439 10.5442 15.8159 11.7018 15.8159C12.8594 15.8159 13.9103 15.3474 14.6717 14.5859C15.4331 13.8245 15.9017 12.7771 15.9017 11.6161C15.9017 10.455 15.4331 9.41451 14.6786 8.65654L14.6717 8.64965C13.9137 7.89168 12.8629 7.41967 11.7018 7.41967C10.6269 7.41967 9.64149 7.82622 8.90075 8.49117V11.6023C8.90075 11.685 8.83184 11.7539 8.74915 11.7539Z" fill="white"/>
<path fill-rule="evenodd" clip-rule="evenodd" d="M93.7938 22.9795L90.9445 27.0036L88.0986 22.9795H86.376V31.2035H87.9815V25.3361L90.9445 29.4843L93.9075 25.3361V31.2035H95.5164V22.9795H93.7938Z" fill="#797876"/>
<path fill-rule="evenodd" clip-rule="evenodd" d="M97.0255 22.9795H98.6345V31.2035H97.0255V22.9795Z" fill="#797876"/>
<path fill-rule="evenodd" clip-rule="evenodd" d="M100.092 22.9795H101.698V26.3662L104.719 22.9795H106.59L103 26.9692L106.583 31.2035H104.612L101.698 27.6686V31.2035H100.092V22.9795Z" fill="#797876"/>
<path fill-rule="evenodd" clip-rule="evenodd" d="M85.3076 25.5979C85.3076 24.144 84.0087 22.9795 82.4101 22.9795H79.8708V24.4438H82.2343C83.0302 24.4438 83.6504 25.0019 83.6504 25.7013C83.6504 26.4007 83.0406 26.914 82.2343 26.914H81.1525V28.175L83.7468 31.2035H85.7486L82.9544 28.1509C84.5599 27.865 85.3076 26.8107 85.311 25.6014L85.3076 25.5979Z" fill="#797876"/>
<path fill-rule="evenodd" clip-rule="evenodd" d="M70.4103 22.9795H66.2518V24.4231H70.4103V22.9795Z" fill="#797876"/>
<path fill-rule="evenodd" clip-rule="evenodd" d="M66.2242 31.2027H67.8298V27.6781H70.3035V26.2139H66.2242V31.2027Z" fill="#797876"/>
<path fill-rule="evenodd" clip-rule="evenodd" d="M113.904 31.2268L110.228 22.9512L106.552 31.2268H108.278L110.228 26.9477L112.182 31.2268H113.904Z" fill="#797876"/>
<path fill-rule="evenodd" clip-rule="evenodd" d="M110.866 31.2269L110.242 29.8281L109.622 31.2269H110.866Z" fill="#76B82A"/>
<path fill-rule="evenodd" clip-rule="evenodd" d="M75.4817 29.9318C73.9141 29.9318 72.6428 28.6605 72.6428 27.0894C72.6428 25.5183 73.9106 24.247 75.4817 24.247C77.0493 24.247 78.3241 25.5183 78.3241 27.0894C78.3241 28.6605 77.0493 29.9318 75.4817 29.9318ZM75.4817 22.6553C73.0321 22.6553 71.051 24.6398 71.051 27.0894C71.051 29.539 73.0321 31.5235 75.4817 31.5235C77.9313 31.5235 79.9193 29.539 79.9193 27.0894C79.9193 24.6398 77.9313 22.6553 75.4817 22.6553Z" fill="#797876"/>
<path fill-rule="evenodd" clip-rule="evenodd" d="M76.9287 27.0891C76.9287 27.8884 76.2844 28.5327 75.4817 28.5327C74.6858 28.5327 74.0381 27.885 74.0381 27.0891C74.0381 26.2898 74.6824 25.6455 75.4817 25.6455C76.2844 25.6455 76.9287 26.2932 76.9287 27.0891Z" fill="#76B82A"/>
<path d="M59.9916 23.2551H1.10413V22.9795H59.9916V23.2551Z" fill="#9AA0A2"/>
<path d="M1.10413 31.114V27.7617H3.24712V28.1062H1.48311V31.114H1.10413ZM4.4392 31.114V27.7617H5.6933C6.07573 27.7617 6.38236 27.8582 6.60976 28.0477C6.83715 28.2406 6.95084 28.5024 6.95084 28.8332C6.95084 29.1639 6.82681 29.4499 6.5753 29.6428C6.32379 29.8358 6.01027 29.9288 5.63473 29.9288H4.82163V31.1105H4.44265L4.4392 31.114ZM4.81819 29.5843H5.64851C5.92758 29.5843 6.14808 29.5154 6.3169 29.381C6.48572 29.2466 6.56841 29.064 6.56841 28.8366C6.56841 28.6092 6.48917 28.4232 6.32724 28.2992C6.16531 28.1717 5.94481 28.1097 5.66918 28.1097H4.82163V29.5843H4.81819ZM8.64594 31.1691C8.44956 31.1691 8.26007 31.1243 8.08091 31.0313L8.22906 30.7281C8.35309 30.797 8.49435 30.828 8.65628 30.828C8.92846 30.828 9.15241 30.6592 9.32812 30.325L7.85352 27.7583H8.28418L9.52105 29.9495L10.5891 27.7583H11.0025L9.67609 30.4077C9.42459 30.9142 9.0835 31.1691 8.64939 31.1691H8.64594ZM12.1567 31.1105V27.7583H14.8027V31.1105H14.4238V28.1028H12.5357V31.1105H12.1567ZM16.2636 31.1105V27.7583H18.9096V31.1105H18.5306V28.1028H16.6425V31.1105H16.2636ZM20.081 31.1105L21.6107 27.7341H21.9656L23.4953 31.1105H23.0887L22.696 30.2251H20.87L20.4737 31.1105H20.0844H20.081ZM21.0147 29.884H22.5444L21.783 28.1751L21.0147 29.884ZM27.5401 31.1105V27.7583H27.9191V29.76L29.845 27.7583H30.3343L28.8976 29.2225L30.3963 31.1105H29.9208L28.6323 29.4878L27.9191 30.2113V31.1105H27.5401ZM34.286 30.6592C33.9622 31.0003 33.5522 31.1691 33.0561 31.1691C32.5599 31.1691 32.1499 31.0003 31.8295 30.6627C31.5091 30.325 31.3506 29.915 31.3506 29.4361C31.3506 28.9572 31.5126 28.5507 31.833 28.213C32.1568 27.8719 32.5668 27.7031 33.063 27.7031C33.5591 27.7031 33.9691 27.8719 34.2895 28.2096C34.6099 28.5472 34.7684 28.9572 34.7684 29.4361C34.7684 29.915 34.6065 30.3216 34.286 30.6592ZM32.1189 30.418C32.3704 30.6868 32.684 30.8211 33.0664 30.8211C33.4488 30.8211 33.7589 30.6868 34.007 30.4215C34.255 30.1562 34.3791 29.8254 34.3791 29.4361C34.3791 29.0468 34.255 28.7229 34.0035 28.4542C33.752 28.1855 33.4385 28.0511 33.0561 28.0511C32.6736 28.0511 32.3636 28.1855 32.1155 28.4508C31.8674 28.7161 31.7434 29.0468 31.7434 29.4361C31.7434 29.8254 31.8674 30.1493 32.1189 30.418ZM36.0845 31.114V27.7617H36.4669L37.69 29.5912L38.9131 27.7617H39.2956V31.114H38.9166V28.3991L37.6935 30.1975H37.6763L36.4532 28.406V31.1174H36.0845V31.114ZM40.7564 31.114V27.7617H43.4024V31.114H43.0234V28.1062H41.1354V31.114H40.7564ZM44.5738 31.114L46.1035 27.7376H46.4584L47.9881 31.114H47.5816L47.1888 30.2285H45.3628L44.9666 31.114H44.5772H44.5738ZM45.5075 29.8875H47.0372L46.2758 28.1786L45.5109 29.8875H45.5075ZM49.1595 31.114V27.7617H49.5385V29.2501H51.4748V27.7617H51.8538V31.114H51.4748V29.6049H49.5385V31.114H49.1595ZM53.3146 31.114V27.7617H53.6936V30.5455L55.6953 27.7617H56.0536V31.114H55.6815V28.3302L53.6832 31.114H53.3146ZM57.5179 31.114V27.7617H57.8969V30.5455L59.8986 27.7617H60.2569V31.114H59.8848V28.3302L57.8865 31.114H57.5179ZM59.368 27.3173C59.244 27.4275 59.0924 27.4826 58.9132 27.4826C58.7341 27.4826 58.5825 27.4275 58.4584 27.3173C58.3344 27.207 58.2586 27.0657 58.2276 26.8935L58.486 26.8418C58.5515 27.0657 58.6927 27.176 58.9132 27.176C59.1337 27.176 59.275 27.0657 59.3405 26.8418L59.5989 26.8935C59.5713 27.0657 59.492 27.207 59.368 27.3173Z" fill="#797876"/>
</g>
<defs>
<clipPath id="clip0_343_1219">
<rect width="114" height="31.2" fill="white" transform="translate(0.261963 0.709961)"/>
</clipPath>
</defs>
</svg>
