<svg width="170" height="21" viewBox="0 0 170 21" fill="none" xmlns="http://www.w3.org/2000/svg">
<g clip-path="url(#clip0_110_7130)">
<path d="M21.65 15.85H10.81C10.5023 15.9015 10.2051 16.0028 9.93 16.15C9.62859 16.3243 9.36373 16.5552 9.15 16.83L7 20.52H24.43L21.65 15.85Z" fill="#231F20"/>
<path d="M15.5699 14.38C15.8754 14.5595 16.217 14.6688 16.5699 14.7H20.9999L12.2099 0L9.41992 4.69L14.7399 13.63C14.9539 13.9416 15.2383 14.1986 15.5699 14.38Z" fill="#231F20"/>
<path d="M11.15 10.52C11.1479 10.1738 11.0694 9.83232 10.92 9.52L8.74 5.84L0 20.52H5.59L10.87 11.65C11.055 11.3022 11.1512 10.914 11.15 10.52Z" fill="#231F20"/>
<path d="M37.7598 8.77999H36.1998L36.3598 1.77999L34.5198 8.77999H33.0798L31.2398 1.77999C31.3398 6.25999 31.3898 8.59332 31.3898 8.77999H29.8398V0.269989H32.1498L33.8198 6.58999L35.4598 0.269989H37.7598V8.77999Z" fill="#231F20"/>
<path d="M41.7502 8.77999H40.1802V0.269989H41.7502V8.77999Z" fill="#231F20"/>
<path d="M50.81 8.77999H49.42L45.69 2.77999C45.75 6.65999 45.79 8.64999 45.79 8.77999H44.23V0.269989H45.67L49.44 6.26999C49.32 2.39999 49.25 0.399989 49.25 0.269989H50.81V8.77999Z" fill="#231F20"/>
<path d="M54.82 8.77999H53.25V0.269989H54.82V8.77999Z" fill="#231F20"/>
<path d="M63.8498 1.77999L62.5298 2.77999C62.3113 2.38623 61.9885 2.06031 61.5968 1.83802C61.2052 1.61574 60.7599 1.5057 60.3098 1.51999C60.1734 1.50705 60.0361 1.50705 59.8998 1.51999C59.7265 1.5492 59.5559 1.59268 59.3898 1.64999C59.2006 1.70992 59.0335 1.82479 58.9098 1.97999C58.7812 2.1299 58.7134 2.32256 58.7198 2.51999C58.719 2.63931 58.75 2.75669 58.8098 2.85999C58.8569 2.95443 58.9254 3.03659 59.0098 3.09999C59.112 3.17649 59.2272 3.23407 59.3498 3.26999C59.4833 3.32548 59.6202 3.37224 59.7598 3.40999L60.2798 3.52999L61.1698 3.71999C61.5097 3.78807 61.8439 3.88167 62.1698 3.99999C62.4727 4.11242 62.7613 4.26011 63.0298 4.43999C63.3116 4.61927 63.5397 4.87153 63.6898 5.16999C63.8475 5.5043 63.9262 5.8704 63.9198 6.23999C63.9258 6.61706 63.8436 6.99032 63.6798 7.32999C63.5457 7.63746 63.34 7.90835 63.0798 8.11999C62.8217 8.3289 62.5356 8.50058 62.2298 8.62999C61.9081 8.76077 61.5726 8.8547 61.2298 8.90999C60.8991 8.96354 60.5647 8.99029 60.2298 8.98999C59.4795 8.99539 58.7366 8.84203 58.0498 8.53999C57.3982 8.26762 56.8562 7.78545 56.5098 7.16999L57.8498 6.23999C58.1434 6.66153 58.5404 7.00061 59.0026 7.22474C59.4649 7.44886 59.9769 7.55053 60.4898 7.51999C60.9039 7.53693 61.314 7.43267 61.6698 7.21999C61.8124 7.1365 61.9302 7.01652 62.011 6.8724C62.0919 6.72828 62.1329 6.56521 62.1298 6.39999C62.1398 6.26289 62.1114 6.12571 62.0478 6.00384C61.9842 5.88197 61.8879 5.78021 61.7698 5.70999C61.3628 5.51799 60.9325 5.38015 60.4898 5.29999L59.3998 5.05999L58.7298 4.87999C58.5058 4.80874 58.2883 4.71841 58.0798 4.60999C57.8645 4.49896 57.6686 4.35374 57.4998 4.17999C57.3393 3.99605 57.2108 3.78647 57.1198 3.55999C57.0156 3.28546 56.9647 2.99358 56.9698 2.69999C56.9725 2.32966 57.0616 1.96507 57.23 1.63522C57.3984 1.30538 57.6414 1.01938 57.9398 0.799988C58.648 0.264773 59.5235 -0.00107231 60.4098 0.049988C61.0817 0.0302162 61.748 0.178004 62.3485 0.480023C62.9491 0.782042 63.465 1.22879 63.8498 1.77999Z" fill="#231F20"/>
<path d="M70.8701 1.70999H68.5201V8.77999H66.9301V1.70999H64.6201V0.269989H70.8701V1.70999Z" fill="#231F20"/>
<path d="M72.1001 0.270007H75.5901C76.3295 0.247002 77.0481 0.516494 77.5901 1.02001C77.8561 1.27784 78.0634 1.58992 78.198 1.93503C78.3326 2.28014 78.3913 2.65019 78.3701 3.02001C78.3654 3.49125 78.2378 3.95311 78.0001 4.36001C77.6974 4.82488 77.235 5.16282 76.7001 5.31001L78.5901 8.78001H76.7901L75.1201 5.62001H73.6801V8.78001H72.1001V0.270007ZM73.6801 1.65001V4.30001H74.9101C76.1601 4.30001 76.7801 3.85001 76.7801 2.96001C76.7801 2.07001 76.2301 1.65001 75.1301 1.65001H73.6801Z" fill="#231F20"/>
<path d="M86.09 0.269989L83.22 5.41999V8.77999H81.64V5.41999L78.79 0.269989H80.6L82.45 3.78999L84.3 0.269989H86.09Z" fill="#231F20"/>
<path d="M90.26 4.54001C90.2239 3.3679 90.6309 2.22524 91.4 1.34001C91.7636 0.920201 92.216 0.58662 92.7246 0.363487C93.2331 0.140354 93.7849 0.0332694 94.34 0.050009C95.102 0.038945 95.8513 0.245773 96.4997 0.646151C97.1481 1.04653 97.6686 1.62379 98 2.31001C98.3065 2.99223 98.4633 3.73214 98.46 4.48001C98.4613 4.8902 98.4178 5.2993 98.33 5.70001C98.2415 6.11898 98.0933 6.52309 97.89 6.90001C97.6831 7.30919 97.4094 7.68097 97.08 8.00001C96.7464 8.32858 96.3479 8.58401 95.91 8.75001C95.4 8.94755 94.857 9.04598 94.31 9.04001C93.7536 9.05987 93.1998 8.95319 92.6906 8.728C92.1813 8.50282 91.7298 8.16501 91.37 7.74001C90.616 6.84788 90.2204 5.70741 90.26 4.54001ZM91.9 4.48001C91.9016 4.81745 91.9453 5.15337 92.03 5.48001C92.1219 5.83001 92.2597 6.16628 92.44 6.48001C92.629 6.78862 92.8942 7.04345 93.21 7.22001C93.5607 7.41733 93.9577 7.51744 94.36 7.51001C94.6865 7.51181 95.0097 7.44407 95.308 7.31131C95.6062 7.17854 95.8728 6.98379 96.09 6.74001C96.6032 6.14919 96.8651 5.38125 96.82 4.60001C96.8226 4.09509 96.7345 3.59382 96.56 3.12001C96.3813 2.68046 96.092 2.29462 95.72 2.00001C95.3257 1.68595 94.834 1.51968 94.33 1.53001C93.9968 1.52207 93.6661 1.58995 93.3629 1.72854C93.0598 1.86713 92.7921 2.0728 92.58 2.33001C92.0992 2.93999 91.8574 3.70446 91.9 4.48001Z" fill="#231F20"/>
<path d="M105.58 1.68999H101.58V3.81999H105.14V5.17999H101.58V8.77999H100V0.269989H105.63L105.58 1.68999Z" fill="#231F20"/>
<path d="M111.75 8.77999H110.18V0.269989H111.75V8.77999Z" fill="#231F20"/>
<path d="M120.82 8.77999H119.42L115.69 2.77999C115.764 6.65999 115.797 8.65999 115.79 8.77999H114.24V0.269989H115.67L119.44 6.26999C119.32 2.40332 119.257 0.403322 119.25 0.269989H120.82V8.77999Z" fill="#231F20"/>
<path d="M123.14 0.269997H126.46C126.958 0.269051 127.451 0.353615 127.92 0.519997C128.378 0.692906 128.798 0.950769 129.16 1.28C129.544 1.66013 129.832 2.12635 130 2.64C130.232 3.28057 130.34 3.95913 130.32 4.64C130.411 5.765 130.051 6.87993 129.32 7.74C128.931 8.11293 128.469 8.40139 127.963 8.58724C127.457 8.7731 126.918 8.85234 126.38 8.82H123.16L123.14 0.269997ZM124.74 1.71V7.35H125.74C126.074 7.35337 126.409 7.33332 126.74 7.29C127.019 7.2569 127.292 7.18277 127.55 7.07C127.795 6.97143 128.009 6.80915 128.17 6.6C128.339 6.35794 128.461 6.08667 128.53 5.8C128.626 5.40748 128.67 5.00398 128.66 4.6C128.66 2.67 127.79 1.71 126.05 1.71H124.74Z" fill="#231F20"/>
<path d="M138.65 0.269989V5.53999C138.671 6.04788 138.621 6.55625 138.5 7.04999C138.293 7.60633 137.915 8.08258 137.42 8.40999C136.745 8.83412 135.956 9.04012 135.16 8.99999C134.464 9.00615 133.777 8.84133 133.16 8.51999C132.871 8.37269 132.614 8.16824 132.406 7.91901C132.198 7.66978 132.043 7.38095 131.95 7.06999C131.836 6.4974 131.793 5.91311 131.82 5.32999V0.269989H133.42V5.49999C133.404 5.81603 133.434 6.13271 133.51 6.43999C133.71 7.11999 134.3 7.43999 135.25 7.43999C135.608 7.48892 135.973 7.41722 136.286 7.23617C136.599 7.05512 136.843 6.77502 136.98 6.43999C137.068 6.09046 137.105 5.73009 137.09 5.36999V0.269989H138.65Z" fill="#231F20"/>
<path d="M147.15 1.77999L145.83 2.77999C145.612 2.38623 145.289 2.06031 144.897 1.83802C144.506 1.61574 144.06 1.5057 143.61 1.51999C143.474 1.50705 143.336 1.50705 143.2 1.51999C143.027 1.5492 142.856 1.59268 142.69 1.64999C142.501 1.70992 142.334 1.82479 142.21 1.97999C142.081 2.1299 142.014 2.32256 142.02 2.51999C142.019 2.63931 142.05 2.75669 142.11 2.85999C142.157 2.95443 142.226 3.03659 142.31 3.09999C142.412 3.17649 142.527 3.23407 142.65 3.26999C142.784 3.32548 142.921 3.37224 143.06 3.40999L143.58 3.52999L144.47 3.71999C144.81 3.78679 145.145 3.88042 145.47 3.99999C145.773 4.11242 146.062 4.26011 146.33 4.43999C146.612 4.61927 146.84 4.87153 146.99 5.16999C147.148 5.5043 147.226 5.8704 147.22 6.23999C147.234 6.61882 147.159 6.99561 147 7.33999C146.866 7.64746 146.66 7.91835 146.4 8.12999C146.142 8.3389 145.856 8.51058 145.55 8.63999C145.228 8.77077 144.893 8.8647 144.55 8.91999C144.219 8.97354 143.885 9.00029 143.55 8.99999C142.8 9.00539 142.057 8.85203 141.37 8.54999C140.718 8.27762 140.176 7.79545 139.83 7.17999L141.17 6.24999C141.464 6.67153 141.861 7.01061 142.323 7.23474C142.785 7.45886 143.297 7.56053 143.81 7.52999C144.224 7.54693 144.634 7.44267 144.99 7.22999C145.133 7.1465 145.25 7.02652 145.331 6.8824C145.412 6.73828 145.453 6.57521 145.45 6.40999C145.46 6.27289 145.432 6.13571 145.368 6.01384C145.305 5.89197 145.208 5.79021 145.09 5.71999C144.684 5.52634 144.253 5.38842 143.81 5.30999L142.72 5.06999L142.05 4.88999C141.826 4.81874 141.609 4.72841 141.4 4.61999C141.185 4.50896 140.989 4.36374 140.82 4.18999C140.66 4.00605 140.531 3.79647 140.44 3.56999C140.336 3.29546 140.285 3.00358 140.29 2.70999C140.289 2.33966 140.374 1.97417 140.539 1.64259C140.704 1.31101 140.944 1.02249 141.24 0.799988C141.948 0.264773 142.824 -0.00107231 143.71 0.049988C144.382 0.0302162 145.048 0.178004 145.649 0.480023C146.249 0.782042 146.765 1.22879 147.15 1.77999Z" fill="#231F20"/>
<path d="M154.17 1.70999H151.82V8.77999H150.23V1.70999H147.92V0.269989H154.17V1.70999Z" fill="#231F20"/>
<path d="M155.4 0.270007H158.89C159.629 0.247002 160.348 0.516494 160.89 1.02001C161.156 1.27784 161.363 1.58992 161.498 1.93503C161.632 2.28014 161.691 2.65019 161.67 3.02001C161.671 3.50914 161.54 3.98946 161.29 4.41001C160.987 4.87488 160.525 5.21282 159.99 5.36001L161.88 8.83001H160.06L158.39 5.67001H157V8.78001H155.4V0.270007ZM157 1.65001V4.30001H158.23C159.48 4.30001 160.1 3.85001 160.1 2.96001C160.1 2.07001 159.55 1.65001 158.45 1.65001H157Z" fill="#231F20"/>
<path d="M169.39 0.269989L166.52 5.41999V8.77999H164.94V5.41999L162.09 0.269989H163.9L165.75 3.78999L167.6 0.269989H169.39Z" fill="#231F20"/>
<path d="M37.4801 20.61H35.7801L35.2901 19H32.0901L31.6001 20.66H29.8901L32.7701 12.15H34.5801L37.4801 20.61ZM34.8701 17.55L33.7001 13.63L32.5201 17.55H34.8701Z" fill="#231F20"/>
<path d="M45.1698 20.61H43.7798L40.0498 14.61C40.1098 18.49 40.1498 20.48 40.1498 20.61H38.5898V12.1H39.9998L43.7698 18.1C43.6498 14.23 43.5798 12.23 43.5798 12.1H45.1398L45.1698 20.61Z" fill="#231F20"/>
<path d="M47.5 12.1H50.81C51.3111 12.0934 51.8092 12.1782 52.28 12.35C52.7363 12.5254 53.1566 12.783 53.52 13.11C53.915 13.4869 54.2134 13.9534 54.39 14.47C54.6167 15.1118 54.7251 15.7895 54.71 16.47C54.748 17.0304 54.6748 17.5928 54.4946 18.1249C54.3144 18.6569 54.0308 19.148 53.66 19.57C53.2709 19.9429 52.8088 20.2314 52.3029 20.4172C51.7969 20.6031 51.258 20.6823 50.72 20.65H47.5V12.1ZM49.09 13.53V19.18H50.09C50.4243 19.1827 50.7584 19.1627 51.09 19.12C51.369 19.085 51.6416 19.0109 51.9 18.9C52.1433 18.7986 52.3567 18.6368 52.52 18.43C52.6885 18.1879 52.8106 17.9167 52.88 17.63C52.9755 17.2374 53.0192 16.834 53.01 16.43C53.01 14.5 52.14 13.53 50.4 13.53H49.09Z" fill="#231F20"/>
<path d="M65.1699 13.53H62.8199V20.61H61.2299V13.53H58.9199V12.1H65.1699V13.53Z" fill="#231F20"/>
<path d="M66.3999 12.1H69.8899C70.6293 12.077 71.3479 12.3465 71.8899 12.85C72.1541 13.1087 72.3595 13.4212 72.4924 13.7663C72.6252 14.1113 72.6824 14.4809 72.6599 14.85C72.664 15.3382 72.5362 15.8184 72.2899 16.24C71.9872 16.7049 71.5248 17.0428 70.9899 17.19L72.8799 20.66H71.0899L69.4199 17.5H67.9999V20.66H66.3999V12.1ZM67.9999 13.47V16.13H69.2299C70.4799 16.13 71.0999 15.68 71.0999 14.79C71.0999 13.9 70.5499 13.47 69.4499 13.47H67.9999Z" fill="#231F20"/>
<path d="M80.88 20.61H79.18L78.69 19H75.49L75 20.61H73.29L76.17 12.1H78L80.88 20.61ZM78.26 17.55L77.09 13.63L75.91 17.55H78.26Z" fill="#231F20"/>
<path d="M81.8599 12.1H85.1699C85.6708 12.095 86.1687 12.1797 86.6399 12.35C87.0932 12.5253 87.5103 12.783 87.8699 13.11C88.2649 13.4888 88.5662 13.9544 88.7499 14.47C88.9766 15.1118 89.085 15.7895 89.0699 16.47C89.1603 17.595 88.8007 18.7099 88.0699 19.57C87.6807 19.9429 87.2187 20.2314 86.7127 20.4172C86.2068 20.6031 85.6679 20.6823 85.1299 20.65H81.8599V12.1ZM83.4499 13.53V19.18H84.4499C84.7842 19.1827 85.1183 19.1627 85.4499 19.12C85.7257 19.0855 85.9952 19.0114 86.2499 18.9C86.4947 18.8014 86.7088 18.6392 86.8699 18.43C87.0459 18.191 87.1718 17.9189 87.2399 17.63C87.3304 17.2365 87.374 16.8337 87.3699 16.43C87.3699 14.5 86.4999 13.53 84.7499 13.53H83.4499Z" fill="#231F20"/>
<path d="M96.83 20.61H90.48V12.1H96.48V13.52H92V15.52H96.11V16.9H92V19.18H96.79L96.83 20.61Z" fill="#231F20"/>
<path d="M101.12 16.37C101.084 15.1979 101.491 14.0552 102.26 13.17C102.625 12.7494 103.079 12.4154 103.589 12.1923C104.1 11.9691 104.653 11.8625 105.21 11.88C105.991 11.8632 106.759 12.0866 107.41 12.52C108.021 12.9186 108.509 13.4796 108.82 14.14C109.131 14.8207 109.288 15.5616 109.28 16.31C109.28 16.7196 109.239 17.1282 109.16 17.53C109.062 17.9463 108.915 18.3493 108.72 18.73C108.518 19.1226 108.255 19.4804 107.94 19.79C107.608 20.1207 107.209 20.3764 106.77 20.54C106.26 20.7375 105.717 20.836 105.17 20.83C104.615 20.8476 104.064 20.7398 103.556 20.5148C103.049 20.2897 102.599 19.9531 102.24 19.53C101.487 18.6521 101.088 17.5258 101.12 16.37ZM102.76 16.31C102.76 16.6475 102.804 16.9836 102.89 17.31C102.978 17.6613 103.116 17.9981 103.3 18.31C103.488 18.6217 103.753 18.8799 104.07 19.06C104.421 19.2564 104.818 19.3565 105.22 19.35C105.548 19.3507 105.872 19.2825 106.172 19.1498C106.471 19.0172 106.74 18.8231 106.96 18.58C107.469 17.9876 107.728 17.2199 107.68 16.44C107.682 15.9351 107.594 15.4338 107.42 14.96C107.253 14.5057 106.962 14.1073 106.58 13.81C106.189 13.4967 105.701 13.3303 105.2 13.34C104.865 13.332 104.533 13.3998 104.228 13.5384C103.923 13.6769 103.654 13.8826 103.44 14.14C102.958 14.7574 102.717 15.5283 102.76 16.31Z" fill="#231F20"/>
<path d="M116.44 13.52H112.44V15.64H116V17H112.44V20.6H110.86V12.1H116.49L116.44 13.52Z" fill="#231F20"/>
<path d="M121.06 12.1H124.54C124.906 12.087 125.271 12.1465 125.615 12.2752C125.958 12.404 126.272 12.5993 126.54 12.85C126.806 13.1078 127.013 13.4199 127.148 13.765C127.282 14.1101 127.341 14.4802 127.32 14.85C127.326 15.3397 127.194 15.8213 126.94 16.24C126.644 16.7069 126.183 17.0458 125.65 17.19L127.54 20.66H125.72L124.04 17.5H122.61V20.66H121.03L121.06 12.1ZM122.64 13.47V16.13H123.87C125.11 16.13 125.74 15.68 125.74 14.79C125.74 13.9 125.19 13.47 124.09 13.47H122.64Z" fill="#231F20"/>
<path d="M136.2 12.1V17.37C136.219 17.874 136.172 18.3783 136.06 18.87C135.864 19.4289 135.492 19.9094 135 20.24C134.329 20.6652 133.543 20.8714 132.75 20.83C132.054 20.8382 131.367 20.6733 130.75 20.35C130.46 20.2019 130.203 19.9973 129.994 19.7483C129.784 19.4993 129.626 19.2108 129.53 18.9C129.422 18.3267 129.378 17.743 129.4 17.16V12.1H131V17.33C130.982 17.6455 131.009 17.962 131.08 18.27C131.29 18.95 131.87 19.27 132.83 19.27C133.187 19.3201 133.551 19.2488 133.863 19.0675C134.175 18.8861 134.417 18.6053 134.55 18.27C134.638 17.9205 134.675 17.5601 134.66 17.2V12.1H136.2Z" fill="#231F20"/>
<path d="M144.7 13.61L143.39 14.61C143.17 14.2177 142.847 13.893 142.455 13.671C142.064 13.4489 141.62 13.3379 141.17 13.35H140.76C140.583 13.3816 140.409 13.4285 140.24 13.49C140.054 13.557 139.889 13.6706 139.76 13.82C139.64 13.9705 139.577 14.1578 139.58 14.35C139.574 14.4718 139.602 14.5928 139.66 14.7C139.71 14.7924 139.778 14.8739 139.86 14.94C139.963 15.0145 140.078 15.0719 140.2 15.11L140.61 15.25L141.13 15.37L142.02 15.56C142.36 15.6268 142.695 15.7204 143.02 15.84C143.324 15.9504 143.613 16.0982 143.88 16.28C144.162 16.4593 144.39 16.7115 144.54 17.01C144.703 17.3423 144.783 17.7098 144.77 18.08C144.779 18.4563 144.7 18.8295 144.54 19.17C144.399 19.4733 144.194 19.7428 143.94 19.96C143.678 20.169 143.389 20.3406 143.08 20.47C142.758 20.6001 142.423 20.694 142.08 20.75C141.749 20.8035 141.415 20.8303 141.08 20.83C140.33 20.8366 139.586 20.6832 138.9 20.38C138.279 20.0863 137.768 19.6031 137.44 19L138.78 18.07C139.074 18.4915 139.471 18.8306 139.933 19.0547C140.395 19.2789 140.907 19.3805 141.42 19.35C141.834 19.3681 142.245 19.2638 142.6 19.05C142.744 18.9681 142.863 18.8485 142.944 18.704C143.025 18.5595 143.065 18.3956 143.06 18.23C143.071 18.0927 143.043 17.9551 142.98 17.833C142.916 17.7109 142.819 17.6093 142.7 17.54C142.294 17.3448 141.864 17.2068 141.42 17.13L140.34 16.89L139.66 16.71C139.439 16.6387 139.225 16.5484 139.02 16.44C138.805 16.329 138.609 16.1837 138.44 16.01C138.276 15.8283 138.148 15.6181 138.06 15.39C137.948 15.114 137.893 14.8179 137.9 14.52C137.893 14.1538 137.97 13.791 138.127 13.4597C138.283 13.1284 138.513 12.8377 138.8 12.61C139.508 12.0837 140.379 11.8219 141.26 11.87C141.933 11.8467 142.602 11.9941 143.203 12.2982C143.805 12.6024 144.32 13.0537 144.7 13.61Z" fill="#231F20"/>
<path d="M153 13.61L151.69 14.61C151.472 14.2162 151.149 13.8903 150.757 13.668C150.366 13.4457 149.92 13.3357 149.47 13.35H149.06C148.884 13.3841 148.71 13.4309 148.54 13.49C148.356 13.5546 148.194 13.6688 148.07 13.82C147.969 13.9407 147.906 14.0878 147.886 14.2438C147.866 14.3999 147.892 14.5582 147.96 14.7C148.014 14.79 148.081 14.871 148.16 14.94C148.266 15.0163 148.385 15.0738 148.51 15.11L148.92 15.25L149.44 15.37L150.33 15.56C150.671 15.6262 151.005 15.7198 151.33 15.84C151.637 15.9506 151.929 16.0984 152.2 16.28C152.482 16.4593 152.71 16.7115 152.86 17.01C153.019 17.3439 153.098 17.7103 153.09 18.08C153.096 18.4571 153.014 18.8303 152.85 19.17C152.716 19.4775 152.51 19.7484 152.25 19.96C151.989 20.169 151.699 20.3406 151.39 20.47C151.069 20.6029 150.734 20.6969 150.39 20.75C150.06 20.8035 149.725 20.8303 149.39 20.83C148.64 20.8366 147.897 20.6832 147.21 20.38C146.583 20.0922 146.067 19.6077 145.74 19L147.07 18.07C147.364 18.4915 147.761 18.8306 148.223 19.0547C148.685 19.2789 149.197 19.3805 149.71 19.35C150.128 19.3683 150.541 19.264 150.9 19.05C151.042 18.966 151.158 18.8457 151.237 18.7014C151.316 18.5572 151.355 18.3944 151.35 18.23C151.364 18.0936 151.338 17.9562 151.276 17.834C151.214 17.7118 151.118 17.6098 151 17.54C150.59 17.3468 150.156 17.209 149.71 17.13L148.63 16.89L147.95 16.71C147.73 16.6367 147.516 16.5465 147.31 16.44C147.095 16.329 146.899 16.1837 146.73 16.01C146.57 15.8261 146.441 15.6165 146.35 15.39C146.168 14.9074 146.141 14.3797 146.274 13.8811C146.406 13.3825 146.692 12.938 147.09 12.61C147.802 12.0822 148.676 11.8204 149.56 11.87C150.234 11.8467 150.902 11.994 151.504 12.2982C152.105 12.6024 152.62 13.0536 153 13.61Z" fill="#231F20"/>
<path d="M156.54 20.61H155V12.1H156.57L156.54 20.61Z" fill="#231F20"/>
<path d="M165.19 20.61H163.49L163 19H159.8L159.31 20.66H157.6L160.48 12.15H162.29L165.19 20.61ZM162.58 17.55L161.41 13.63L160.23 17.55H162.58Z" fill="#231F20"/>
</g>
<defs>
<clipPath id="clip0_110_7130">
<rect width="169.39" height="20.83" fill="white"/>
</clipPath>
</defs>
</svg>
