<svg width="131" height="36" viewBox="0 0 131 36" fill="none" xmlns="http://www.w3.org/2000/svg">
<g clip-path="url(#clip0_1_249)">
<path d="M25.0158 17.3884C24.4813 17.3884 23.9983 17.3044 23.5747 17.1365C23.1472 16.9685 22.779 16.7166 22.4702 16.3807C22.1574 16.0448 21.9238 15.657 21.7694 15.2091C21.615 14.7653 21.5358 14.2655 21.5358 13.7137V8.14757C21.5358 8.10358 21.5715 8.0676 21.615 8.0676H22.9373C22.9809 8.0676 23.0165 8.10358 23.0165 8.14757V13.3858C23.0165 13.7976 23.068 14.1695 23.1749 14.4894C23.2778 14.8093 23.4362 15.0852 23.642 15.3171C23.8479 15.549 24.0973 15.721 24.3863 15.8369C24.6793 15.9529 25.0158 16.0129 25.3959 16.0129C25.7759 16.0129 26.1085 15.9489 26.4173 15.8249C26.7261 15.701 26.9993 15.509 27.2447 15.2571C27.4902 15.0052 27.6723 14.7133 27.795 14.3854C27.9178 14.0575 27.9772 13.6897 27.9772 13.2818V8.14757C27.9772 8.10358 28.0128 8.0676 28.0563 8.0676H29.3628C29.4064 8.0676 29.442 8.10358 29.442 8.14757V17.1125C29.442 17.1565 29.4064 17.1925 29.3628 17.1925H28.0563C28.0128 17.1925 27.9772 17.1565 27.9772 17.1125V15.8169C27.6406 16.3008 27.2447 16.6726 26.7934 16.9325C26.2748 17.2324 25.6809 17.3804 25.0158 17.3804V17.3884ZM127.491 17.1885V9.41513H126.034C125.99 9.41513 125.955 9.37914 125.955 9.33516V8.15557C125.955 8.11158 125.99 8.07559 126.034 8.07559H127.491V5.4525C127.491 5.40851 127.527 5.37253 127.57 5.37253H128.892C128.936 5.37253 128.972 5.40851 128.972 5.4525V8.07559H130.508C130.551 8.07559 130.587 8.11158 130.587 8.15557V9.33516C130.587 9.37914 130.551 9.41513 130.508 9.41513H128.972V17.1925C128.972 17.2364 128.936 17.2724 128.892 17.2724H127.57C127.527 17.2724 127.491 17.2364 127.491 17.1925V17.1885ZM116.485 17.1165V8.15557C116.485 8.11158 116.52 8.07559 116.564 8.07559H117.886C117.93 8.07559 117.966 8.11158 117.966 8.15557V9.44312C118.294 8.96329 118.682 8.59142 119.129 8.33151C119.648 8.03161 120.246 7.88366 120.923 7.88366C121.457 7.88366 121.94 7.96763 122.364 8.13557C122.792 8.30352 123.16 8.55543 123.472 8.89131C123.785 9.2272 124.019 9.61506 124.173 10.0629C124.328 10.5068 124.407 11.0066 124.407 11.5584V17.1245C124.407 17.1685 124.371 17.2044 124.328 17.2044H123.005C122.962 17.2044 122.926 17.1685 122.926 17.1245V11.8863C122.926 11.0626 122.72 10.4188 122.305 9.95495C122.099 9.72303 121.849 9.55109 121.56 9.43513C121.267 9.31917 120.931 9.25919 120.551 9.25919C120.171 9.25919 119.838 9.32316 119.529 9.44712C119.221 9.57108 118.947 9.76301 118.702 10.0149C118.456 10.2668 118.274 10.5587 118.152 10.8866C118.029 11.2145 117.969 11.5824 117.969 11.9902V17.1245C117.969 17.1685 117.934 17.2044 117.89 17.2044H116.568C116.524 17.2044 116.489 17.1685 116.489 17.1245L116.485 17.1165ZM107.724 13.2618C107.771 13.6737 107.874 14.0455 108.032 14.3774C108.199 14.7293 108.424 15.0372 108.709 15.3011C108.998 15.561 109.311 15.7609 109.652 15.8889C109.992 16.0209 110.36 16.0848 110.76 16.0848C111.801 16.0848 112.716 15.673 113.5 14.8453C113.531 14.8133 113.579 14.8133 113.611 14.8453L114.434 15.589C114.466 15.617 114.47 15.669 114.442 15.701C113.935 16.2688 113.373 16.6966 112.755 16.9805C112.134 17.2644 111.457 17.4084 110.728 17.4084C110.095 17.4084 109.509 17.2964 108.975 17.0765C108.44 16.8526 107.953 16.5207 107.522 16.0768C107.086 15.633 106.762 15.1252 106.544 14.5534C106.326 13.9816 106.219 13.3458 106.219 12.65C106.219 11.9543 106.322 11.3745 106.528 10.8107C106.734 10.2468 107.043 9.73502 107.458 9.27518C107.874 8.81134 108.337 8.46746 108.856 8.23554C109.371 8.00362 109.941 7.88766 110.558 7.88766C111.176 7.88766 111.786 8.00362 112.296 8.23154C112.811 8.46346 113.258 8.80734 113.638 9.26718C114.018 9.72702 114.299 10.2428 114.49 10.8186C114.68 11.3944 114.775 12.0262 114.775 12.718V12.9699C114.767 13.0499 114.763 13.1259 114.759 13.1898C114.759 13.2338 114.719 13.2618 114.68 13.2618H107.728H107.724ZM107.724 12.0262H113.262C113.219 11.6344 113.132 11.2745 113.005 10.9466C112.866 10.5947 112.68 10.2788 112.443 9.99893C112.209 9.72303 111.932 9.5151 111.611 9.37515C111.291 9.23519 110.926 9.16722 110.519 9.16722C110.15 9.16722 109.81 9.23519 109.497 9.37115C109.184 9.5071 108.895 9.71503 108.634 9.99093C108.373 10.2668 108.163 10.5827 108.009 10.9346C107.866 11.2625 107.767 11.6264 107.72 12.0222L107.724 12.0262ZM100.51 17.2164L96.666 8.18756C96.6502 8.14757 96.666 8.09959 96.7096 8.08359C96.7215 8.07959 96.7294 8.07559 96.7413 8.07559H98.1982C98.2338 8.07559 98.2615 8.09959 98.2734 8.12758L101.187 15.3811L104.117 8.12358C104.129 8.09159 104.16 8.07559 104.192 8.07559H105.617C105.661 8.07559 105.697 8.11158 105.697 8.15557C105.697 8.16756 105.697 8.17956 105.689 8.19155L101.829 17.2204C101.817 17.2524 101.785 17.2684 101.757 17.2684H100.589C100.554 17.2684 100.526 17.2444 100.514 17.2164H100.51ZM89.0924 13.2618C89.1439 13.6737 89.2429 14.0455 89.4012 14.3774C89.5675 14.7293 89.7932 15.0372 90.0782 15.3011C90.3672 15.561 90.68 15.7609 91.0205 15.8889C91.361 16.0209 91.7331 16.0848 92.129 16.0848C93.1702 16.0848 94.0848 15.673 94.8726 14.8453C94.9043 14.8133 94.9518 14.8133 94.9835 14.8453L95.8069 15.589C95.8386 15.617 95.8426 15.669 95.8148 15.701C95.3081 16.2688 94.7459 16.6966 94.1283 16.9805C93.5067 17.2644 92.8297 17.4084 92.1013 17.4084C91.4678 17.4084 90.8819 17.2964 90.3474 17.0765C89.813 16.8526 89.326 16.5207 88.8945 16.0768C88.459 15.633 88.1344 15.1252 87.9166 14.5534C87.6989 13.9816 87.592 13.3458 87.592 12.65C87.592 11.3225 88.0037 10.1989 88.8311 9.27518C89.2429 8.81134 89.71 8.46746 90.2287 8.23554C90.7434 8.00362 91.3134 7.88766 91.9311 7.88766C92.5487 7.88766 93.1583 8.00362 93.673 8.23154C94.1877 8.46346 94.6351 8.80734 95.0151 9.26718C95.3952 9.72702 95.6763 10.2428 95.8663 10.8186C96.0563 11.3944 96.1514 12.0262 96.1514 12.718V12.9699C96.1434 13.0499 96.1395 13.1259 96.1355 13.1898C96.1355 13.2338 96.0959 13.2618 96.0563 13.2618H89.1043H89.0924ZM89.0924 12.0262H94.6311C94.5876 11.6344 94.5004 11.2745 94.3738 10.9466C94.2352 10.5947 94.0491 10.2788 93.8116 9.99893C93.578 9.72303 93.3009 9.5151 92.9802 9.37515C92.6595 9.23519 92.2953 9.16722 91.8875 9.16722C91.5193 9.16722 91.1788 9.23519 90.8661 9.37115C90.5533 9.5071 90.2643 9.71503 90.003 9.99093C89.7417 10.2668 89.5319 10.5827 89.3775 10.9346C89.235 11.2625 89.136 11.6264 89.0885 12.0222L89.0924 12.0262ZM76.8908 17.3724C76.5661 17.3724 76.2375 17.3404 75.9089 17.2804C75.5803 17.2204 75.2478 17.1285 74.9152 17.0125C74.5827 16.8926 74.2699 16.7526 73.9809 16.5887C73.6879 16.4247 73.4187 16.2408 73.1693 16.0368C73.1376 16.0089 73.1297 15.9609 73.1574 15.9249L73.8265 14.9732C73.8502 14.9372 73.9017 14.9292 73.9373 14.9532H73.9413C74.4362 15.3331 74.939 15.613 75.4418 15.8009C75.9446 15.9889 76.4513 16.0808 76.962 16.0808C77.2233 16.0808 77.4609 16.0488 77.6746 15.9849C77.8845 15.9209 78.0745 15.8249 78.2368 15.701C78.3991 15.577 78.5219 15.4291 78.6011 15.2651C78.6802 15.1012 78.7198 14.9132 78.7198 14.7053C78.7198 14.5174 78.6763 14.3534 78.5931 14.2095C78.506 14.0655 78.3754 13.9416 78.2012 13.8376H78.1972C78.0151 13.7296 77.7895 13.6217 77.5202 13.5177C77.2471 13.4098 76.9264 13.3058 76.5622 13.2018C76.3365 13.1378 76.1346 13.0779 75.9564 13.0179C75.7783 12.9579 75.6199 12.9019 75.4893 12.8499C75.3586 12.798 75.2161 12.734 75.0617 12.658C74.9113 12.582 74.7489 12.4981 74.5866 12.4021C74.4164 12.3021 74.2659 12.1902 74.1353 12.0662C74.0046 11.9383 73.9017 11.7983 73.8146 11.6424C73.7315 11.4904 73.6681 11.3225 73.6285 11.1385C73.585 10.9586 73.5652 10.7627 73.5652 10.5547C73.5652 10.1629 73.6365 9.807 73.7829 9.48311C73.9294 9.16322 74.1472 8.87932 74.4401 8.6354C74.7291 8.39148 75.0617 8.20755 75.4338 8.08759C75.802 7.96763 76.2138 7.90765 76.6611 7.90765C77.2392 7.90765 77.8013 7.99162 78.3398 8.15957C78.8782 8.32751 79.3968 8.57942 79.8957 8.91131C79.9313 8.9353 79.9432 8.98328 79.9194 9.01927L79.3176 10.0269C79.2939 10.0629 79.2464 10.0789 79.2068 10.0549H79.1989C78.7673 9.76701 78.3358 9.55508 77.9043 9.41113C77.4767 9.27118 77.0452 9.19921 76.6176 9.19921C76.3682 9.19921 76.1425 9.2312 75.9406 9.28718C75.7426 9.34716 75.5685 9.43513 75.418 9.55508C75.2715 9.67104 75.1607 9.803 75.0855 9.95495C75.0142 10.1029 74.9746 10.2708 74.9746 10.4548C74.9746 10.5267 74.9865 10.5987 75.0063 10.6667C75.0261 10.7347 75.0577 10.7987 75.0973 10.8626C75.1409 10.9306 75.1844 10.9906 75.2359 11.0426C75.2834 11.0986 75.3349 11.1465 75.3903 11.1905C75.4457 11.2345 75.513 11.2785 75.6001 11.3265C75.6872 11.3745 75.7902 11.4224 75.9129 11.4744H75.9168C76.0356 11.5264 76.1465 11.5704 76.2415 11.6064C76.3405 11.6424 76.4236 11.6744 76.4949 11.6943L77.1996 11.9183C77.4134 11.9822 77.6073 12.0462 77.7815 12.1062C77.9557 12.1662 78.1141 12.2262 78.2527 12.2861C78.3912 12.3461 78.5338 12.4141 78.6842 12.4941C78.8307 12.574 78.9851 12.662 79.1395 12.762C79.2978 12.8619 79.4404 12.9779 79.5591 13.1059C79.6779 13.2338 79.7808 13.3738 79.86 13.5297C79.9392 13.6817 80.0025 13.8496 80.0421 14.0295C80.0817 14.2095 80.1015 14.3974 80.1015 14.6013C80.1015 15.0292 80.0263 15.4131 79.8719 15.7489C79.7175 16.0888 79.4879 16.3847 79.1791 16.6286C78.8742 16.8726 78.5258 17.0605 78.1418 17.1805C77.7578 17.3044 77.3302 17.3644 76.863 17.3644L76.8908 17.3724ZM68.5135 17.3724C68.1889 17.3724 67.8603 17.3404 67.5317 17.2804C67.2031 17.2204 66.8705 17.1285 66.5379 17.0125C66.2054 16.8926 65.8926 16.7526 65.6036 16.5887C65.3106 16.4247 65.0414 16.2408 64.792 16.0368C64.7603 16.0089 64.7524 15.9609 64.7801 15.9249L65.4492 14.9732C65.473 14.9372 65.5244 14.9292 65.5601 14.9532H65.564C66.0589 15.3331 66.5617 15.613 67.0645 15.8009C67.5673 15.9889 68.074 16.0808 68.5848 16.0808C68.846 16.0808 69.0836 16.0488 69.2974 15.9849C69.5072 15.9209 69.6972 15.8249 69.8596 15.701C70.0219 15.577 70.1446 15.4291 70.2238 15.2651C70.303 15.0972 70.3426 14.9132 70.3426 14.7053C70.3426 14.5174 70.299 14.3534 70.2159 14.2095C70.1288 14.0655 69.9981 13.9416 69.8239 13.8376C69.6418 13.7296 69.4122 13.6217 69.143 13.5177C68.8698 13.4098 68.5491 13.3058 68.1849 13.2018C67.9592 13.1378 67.7573 13.0779 67.5792 13.0179C67.401 12.9579 67.2427 12.9019 67.112 12.8499C66.9814 12.798 66.8388 12.734 66.6844 12.658C66.534 12.582 66.3717 12.4981 66.2093 12.4021C66.0391 12.3021 65.8887 12.1902 65.758 12.0662C65.6274 11.9383 65.5244 11.7983 65.4373 11.6424C65.3542 11.4904 65.2909 11.3225 65.2513 11.1385C65.2077 10.9586 65.1879 10.7627 65.1879 10.5547C65.1879 10.1629 65.2592 9.807 65.4057 9.48311C65.5521 9.16322 65.7699 8.87932 66.0629 8.6354C66.3558 8.39148 66.6844 8.20755 67.0566 8.08759C67.4248 7.96763 67.8365 7.90765 68.2799 7.90765C68.8579 7.90765 69.4201 7.99162 69.9585 8.15957C70.497 8.32751 71.0156 8.57942 71.5144 8.91131C71.5501 8.9353 71.5619 8.98328 71.5382 9.01927L70.9364 10.0269C70.9127 10.0629 70.8651 10.0789 70.8256 10.0549H70.8176C70.3861 9.76701 69.9546 9.55508 69.523 9.41113C69.0915 9.27118 68.6639 9.19921 68.2364 9.19921C67.9869 9.19921 67.7613 9.2312 67.5633 9.28718C67.3654 9.34716 67.1912 9.43513 67.0407 9.55508C66.8943 9.67104 66.7834 9.803 66.7082 9.95495C66.6369 10.1029 66.5973 10.2708 66.5973 10.4548C66.5973 10.5267 66.6092 10.5987 66.629 10.6667C66.6488 10.7347 66.6805 10.7987 66.724 10.8626C66.7676 10.9306 66.8151 10.9906 66.8626 11.0426C66.9101 11.0986 66.9616 11.1465 67.017 11.1905C67.0724 11.2345 67.1397 11.2785 67.2268 11.3265C67.3139 11.3745 67.4168 11.4224 67.5396 11.4744H67.5435C67.6623 11.5264 67.7732 11.5704 67.8682 11.6064C67.9671 11.6424 68.0503 11.6744 68.1215 11.6943L68.8263 11.9183C69.04 11.9822 69.234 12.0462 69.4082 12.1062C69.5824 12.1662 69.7408 12.2262 69.8793 12.2861C70.0179 12.3461 70.1644 12.4141 70.3109 12.4941C70.4613 12.574 70.6118 12.662 70.7662 12.762C70.9245 12.8619 71.0671 12.9779 71.1858 13.1059C71.3086 13.2338 71.4075 13.3738 71.4867 13.5297C71.5659 13.6817 71.6292 13.8496 71.6688 14.0295C71.7084 14.2095 71.7282 14.3974 71.7282 14.6013C71.7282 15.0292 71.653 15.4131 71.4986 15.7489C71.3442 16.0888 71.1146 16.3847 70.8058 16.6286C70.5009 16.8766 70.1525 17.0605 69.7685 17.1805C69.3845 17.3044 68.9569 17.3644 68.4897 17.3644L68.5135 17.3724ZM56.292 13.2618C56.3395 13.6737 56.4425 14.0455 56.6008 14.3774C56.7671 14.7293 56.9928 15.0372 57.2778 15.3011C57.5668 15.561 57.8796 15.7609 58.2201 15.8889C58.5605 16.0209 58.9327 16.0848 59.3286 16.0848C60.3698 16.0848 61.2843 15.673 62.0722 14.8453C62.1038 14.8133 62.1514 14.8133 62.183 14.8453L63.0065 15.589C63.0382 15.617 63.0421 15.669 63.0144 15.701C62.5077 16.2688 61.9455 16.6966 61.3279 16.9805C60.7063 17.2644 60.0293 17.4084 59.3009 17.4084C58.6674 17.4084 58.0815 17.2964 57.547 17.0765C57.0126 16.8526 56.5256 16.5207 56.0941 16.0768C55.6586 15.633 55.3339 15.1252 55.1162 14.5534C54.8984 13.9816 54.7916 13.3458 54.7916 12.65C54.7916 11.9543 54.8945 11.3745 55.1004 10.8107C55.3062 10.2468 55.615 9.73502 56.0307 9.27518C56.4464 8.81134 56.9096 8.46746 57.4283 8.23554C57.9429 8.00362 58.513 7.88766 59.1306 7.88766C59.7482 7.88766 60.3579 8.00362 60.8726 8.23154C61.3873 8.46346 61.8346 8.80734 62.2147 9.26718C62.5948 9.72702 62.8759 10.2428 63.0659 10.8186C63.2559 11.3944 63.3509 12.0262 63.3509 12.718V12.9739C63.343 13.0539 63.3391 13.1299 63.3351 13.1938C63.3351 13.2378 63.2955 13.2658 63.2559 13.2658H56.3039L56.292 13.2618ZM56.292 12.0262H61.8307C61.7871 11.6344 61.7 11.2745 61.5733 10.9466C61.4348 10.5947 61.2447 10.2788 61.0112 9.99893C60.7776 9.72303 60.5004 9.5151 60.1798 9.37515C59.8591 9.23519 59.4949 9.16722 59.0871 9.16722C58.7189 9.16722 58.3784 9.23519 58.0657 9.37115C57.7529 9.5071 57.4639 9.71503 57.2026 9.99093C56.9413 10.2668 56.7315 10.5827 56.5771 10.9346C56.4345 11.2625 56.3356 11.6264 56.2881 12.0222L56.292 12.0262ZM45.3137 17.1165V8.15557C45.3137 8.11158 45.3493 8.07559 45.3929 8.07559H46.7152C46.7587 8.07559 46.7943 8.11158 46.7943 8.15557V9.44312C47.1229 8.96329 47.5109 8.59142 47.9583 8.33151C48.4769 8.03161 49.0747 7.88366 49.7517 7.88366C50.2862 7.88366 50.7692 7.96763 51.1928 8.13557C51.6204 8.30352 51.9886 8.55543 52.2974 8.89131C52.6101 9.2272 52.8398 9.61506 52.9981 10.0629C53.1525 10.5068 53.2317 11.0066 53.2317 11.5584V17.1245C53.2317 17.1685 53.1961 17.2044 53.1525 17.2044H51.8302C51.7867 17.2044 51.751 17.1685 51.751 17.1245V11.8863C51.751 11.4744 51.6996 11.1065 51.5927 10.7827C51.4897 10.4628 51.3314 10.1869 51.1255 9.95495C50.9196 9.72303 50.6702 9.55109 50.3812 9.43513C50.0882 9.31917 49.7517 9.25919 49.3717 9.25919C48.9916 9.25919 48.659 9.32316 48.3502 9.44712C48.0414 9.57108 47.7683 9.76301 47.5228 10.0149C47.2773 10.2668 47.0952 10.5587 46.9725 10.8866C46.8498 11.2145 46.7904 11.5824 46.7904 11.9902V17.1245C46.7904 17.1685 46.7548 17.2044 46.7112 17.2044H45.3889C45.3453 17.2044 45.3097 17.1685 45.3097 17.1245L45.3137 17.1165ZM40.8321 6.19224V4.71675C40.8321 4.67277 40.8677 4.63678 40.9113 4.63678H42.4236C42.4671 4.63678 42.5028 4.67277 42.5028 4.71675V6.19224C42.5028 6.23623 42.4671 6.27222 42.4236 6.27222H40.9113C40.8677 6.27222 40.8321 6.23623 40.8321 6.19224ZM40.9192 17.1165V8.15557C40.9192 8.11158 40.9548 8.07559 40.9984 8.07559H42.3207C42.3642 8.07559 42.3998 8.11158 42.3998 8.15557V17.1205C42.3998 17.1645 42.3642 17.2004 42.3207 17.2004H40.9984C40.9548 17.2004 40.9192 17.1645 40.9192 17.1205V17.1165ZM35.2657 17.2884C34.6243 17.2884 33.9751 17.1685 33.3179 16.9325C32.6607 16.6966 32.0827 16.3727 31.5917 15.9689L32.2608 15.0172C33.2664 15.7809 34.2918 16.1608 35.333 16.1608C35.8714 16.1608 36.3109 16.0289 36.6553 15.7609C36.9997 15.493 37.17 15.1412 37.17 14.7013C37.17 14.2974 36.9839 13.9856 36.6118 13.7656C36.2396 13.5457 35.6893 13.3338 34.9569 13.1259C34.5095 12.9979 34.1572 12.8819 33.8919 12.778C33.6267 12.674 33.3297 12.5261 32.9972 12.3341C32.6646 12.1422 32.4192 11.9023 32.2608 11.6064C32.1024 11.3105 32.0193 10.9626 32.0193 10.5587C32.0193 9.795 32.3004 9.17921 32.8705 8.70338C33.4366 8.22754 34.1611 7.99162 35.044 7.99162C36.1881 7.99162 37.2531 8.31951 38.2389 8.97928L37.6371 9.98694C36.7543 9.40714 35.8793 9.11923 35.0084 9.11923C34.4937 9.11923 34.078 9.24319 33.7652 9.49111C33.4525 9.73902 33.2941 10.0589 33.2941 10.4548C33.2941 10.6147 33.3416 10.7667 33.4327 10.9066C33.5237 11.0466 33.6267 11.1625 33.7415 11.2545C33.8563 11.3465 34.0384 11.4464 34.2839 11.5504C34.5293 11.6544 34.7273 11.7303 34.8777 11.7743C35.0282 11.8223 35.2617 11.8943 35.5824 11.9982C36.006 12.1262 36.3544 12.2462 36.6316 12.3621C36.9047 12.4781 37.1977 12.634 37.5065 12.83C37.8153 13.0259 38.0489 13.2738 38.2033 13.5657C38.3577 13.8616 38.4369 14.2055 38.4369 14.5973C38.4369 15.4291 38.1399 16.0848 37.5421 16.5647C36.9483 17.0445 36.1921 17.2844 35.2776 17.2844L35.2657 17.2884Z" fill="white"/>
<path fill-rule="evenodd" clip-rule="evenodd" d="M10.5884 0.545868C15.9014 0.545868 20.2088 4.89637 20.2088 10.2625C20.2088 15.6287 15.9014 19.9792 10.5884 19.9792C5.27541 19.9792 0.968002 15.6327 0.968002 10.2625C0.968002 4.89237 5.27541 0.545868 10.5884 0.545868Z" fill="#A2C62C"/>
<path fill-rule="evenodd" clip-rule="evenodd" d="M13.1464 7.61134C15.9058 7.61134 18.1466 9.87056 18.1466 12.6616C18.1466 15.4526 15.9098 17.7119 13.1464 17.7119C10.383 17.7119 8.14617 15.4526 8.14617 12.6616V12.6456V4.71634H9.74957V8.95488C10.6404 8.11917 11.832 7.61134 13.1464 7.61134ZM13.1464 9.40672C14.928 9.40672 16.3691 10.8622 16.3691 12.6616C16.3691 14.461 14.928 15.9165 13.1464 15.9165C11.3649 15.9165 9.92377 14.457 9.92377 12.6616C9.92377 10.8662 11.3649 9.40672 13.1464 9.40672Z" fill="white"/>
<path d="M13.1462 7.43156C14.5754 7.43156 15.87 8.01536 16.8043 8.96304L16.8122 8.97503C17.7426 9.91871 18.3167 11.2223 18.3167 12.6618C18.3167 14.1013 17.7387 15.4128 16.8004 16.3565C15.866 17.3042 14.5714 17.888 13.1422 17.888C11.713 17.888 10.4184 17.3042 9.48411 16.3565L9.47223 16.3445C8.54186 15.4008 7.9678 14.0973 7.9678 12.6578V4.7165C7.9678 4.62053 8.04698 4.54056 8.142 4.54056H9.7454C9.84042 4.54056 9.9196 4.62053 9.9196 4.7165V8.56717C10.8025 7.85542 11.9229 7.43156 13.1383 7.43156H13.1462ZM8.32412 10.7624C8.58541 10.0827 8.98527 9.47086 9.48807 8.96304L9.57516 8.87507V4.89644H8.32412V10.7664V10.7624ZM8.32807 12.4618H9.57516V9.38289C8.83879 10.2026 8.37162 11.2782 8.32807 12.4618ZM9.75332 12.8177H8.32807C8.36766 14.0933 8.89817 15.2489 9.72957 16.0966L9.73748 16.1046C10.6085 16.9843 11.816 17.5321 13.1462 17.5321C14.4764 17.5321 15.6839 16.9883 16.5589 16.1046C17.4338 15.2209 17.9722 14.0053 17.9722 12.6578C17.9722 11.3102 17.4338 10.1026 16.5668 9.22295L16.5589 9.21495C15.6879 8.33525 14.4804 7.78744 13.1462 7.78744C11.911 7.78744 10.7787 8.25928 9.92752 9.03101V12.6418C9.92752 12.7377 9.84834 12.8177 9.75332 12.8177Z" fill="white"/>
<path fill-rule="evenodd" clip-rule="evenodd" d="M107.478 25.8452L104.204 30.5156L100.933 25.8452H98.9539V35.3899H100.799V28.5802L104.204 33.3946L107.608 28.5802V35.3899H109.457V25.8452H107.478Z" fill="white"/>
<path fill-rule="evenodd" clip-rule="evenodd" d="M111.192 25.8452H113.041V35.3899H111.192V25.8452Z" fill="white"/>
<path fill-rule="evenodd" clip-rule="evenodd" d="M114.714 25.8452H116.559V29.7758L120.031 25.8452H122.181L118.056 30.4756L122.173 35.3899H119.909L116.559 31.2873V35.3899H114.714V25.8452Z" fill="white"/>
<path fill-rule="evenodd" clip-rule="evenodd" d="M97.7258 28.8841C97.7258 27.1967 96.2333 25.8452 94.3963 25.8452H91.4785V27.5446H94.1944C95.1089 27.5446 95.8216 28.1924 95.8216 29.0041C95.8216 29.8158 95.1208 30.4116 94.1944 30.4116H92.9513V31.8751L95.9324 35.3899H98.2326L95.0218 31.8471C96.8667 31.5152 97.7259 30.2917 97.7298 28.8881L97.7258 28.8841Z" fill="white"/>
<path fill-rule="evenodd" clip-rule="evenodd" d="M80.6068 25.8452H75.8283V27.5206H80.6068V25.8452Z" fill="white"/>
<path fill-rule="evenodd" clip-rule="evenodd" d="M75.7971 35.39H77.642V31.2995H80.4846V29.6H75.7971V35.39Z" fill="white"/>
<path fill-rule="evenodd" clip-rule="evenodd" d="M130.587 35.418L126.363 25.8133L122.139 35.418H124.122L126.363 30.4517L128.608 35.418H130.587Z" fill="white"/>
<path fill-rule="evenodd" clip-rule="evenodd" d="M127.095 35.4179L126.378 33.7945L125.666 35.4179H127.095Z" fill="#76B82A"/>
<path fill-rule="evenodd" clip-rule="evenodd" d="M86.435 33.9144C84.6336 33.9144 83.1728 32.4389 83.1728 30.6156C83.1728 28.7922 84.6297 27.3167 86.435 27.3167C88.2364 27.3167 89.7012 28.7922 89.7012 30.6156C89.7012 32.4389 88.2364 33.9144 86.435 33.9144ZM86.435 25.4693C83.6201 25.4693 81.3437 27.7725 81.3437 30.6156C81.3437 33.4586 83.6201 35.7618 86.435 35.7618C89.2499 35.7618 91.5342 33.4586 91.5342 30.6156C91.5342 27.7725 89.2499 25.4693 86.435 25.4693Z" fill="white"/>
<path fill-rule="evenodd" clip-rule="evenodd" d="M88.0985 30.6155C88.0985 31.5432 87.3582 32.291 86.4358 32.291C85.5212 32.291 84.7769 31.5392 84.7769 30.6155C84.7769 29.6879 85.5173 28.9401 86.4358 28.9401C87.3582 28.9401 88.0985 29.6919 88.0985 30.6155Z" fill="#76B82A"/>
<path d="M68.6357 26.1651H0.968231V25.8452H68.6357V26.1651Z" fill="white"/>
<path d="M0.968231 35.2857V31.3951H3.43074V31.7949H1.40372V35.2857H0.968231ZM4.80056 35.2857V31.3951H6.24164C6.68109 31.3951 7.03344 31.507 7.29473 31.7269C7.55603 31.9509 7.68668 32.2548 7.68668 32.6386C7.68668 33.0225 7.54415 33.3544 7.25514 33.5783C6.96614 33.8022 6.60587 33.9102 6.17433 33.9102H5.24001V35.2817H4.80451L4.80056 35.2857ZM5.23605 33.5103H6.19017C6.51085 33.5103 6.76423 33.4304 6.95822 33.2744C7.15221 33.1185 7.24723 32.9065 7.24723 32.6426C7.24723 32.3787 7.15617 32.1628 6.97009 32.0188C6.78402 31.8709 6.53064 31.7989 6.21392 31.7989H5.24001V33.5103H5.23605ZM9.63451 35.3497C9.40885 35.3497 9.1911 35.2977 8.98523 35.1897L9.15547 34.8379C9.29799 34.9178 9.46031 34.9538 9.64639 34.9538C9.95915 34.9538 10.2165 34.7579 10.4184 34.37L8.72394 31.3911H9.21881L10.6401 33.9342L11.8674 31.3911H12.3425L10.8183 34.466C10.5292 35.0538 10.1373 35.3497 9.63847 35.3497H9.63451ZM13.6687 35.2817V31.3911H16.7093V35.2817H16.2738V31.7909H14.1042V35.2817H13.6687ZM18.3879 35.2817V31.3911H21.4284V35.2817H20.9929V31.7909H18.8234V35.2817H18.3879ZM22.7745 35.2817L24.5323 31.3631H24.9401L26.6979 35.2817H26.2307L25.7794 34.2541H23.6811L23.2258 35.2817H22.7784H22.7745ZM23.8474 33.8582H25.6052L24.7302 31.8749L23.8474 33.8582ZM31.3457 35.2817V31.3911H31.7812V33.7143L33.9943 31.3911H34.5565L32.9056 33.0905L34.6278 35.2817H34.0814L32.6007 33.3984L31.7812 34.2381V35.2817H31.3457ZM39.0975 34.7579C38.7253 35.1538 38.2542 35.3497 37.6841 35.3497C37.114 35.3497 36.6429 35.1538 36.2747 34.7619C35.9065 34.37 35.7244 33.8942 35.7244 33.3384C35.7244 32.7826 35.9105 32.3107 36.2787 31.9189C36.6508 31.523 37.1219 31.3271 37.692 31.3271C38.2621 31.3271 38.7333 31.523 39.1014 31.9149C39.4696 32.3067 39.6517 32.7826 39.6517 33.3384C39.6517 33.8942 39.4657 34.366 39.0975 34.7579ZM36.6073 34.478C36.8963 34.7899 37.2565 34.9458 37.696 34.9458C38.1354 34.9458 38.4918 34.7899 38.7768 34.482C39.0619 34.1741 39.2044 33.7902 39.2044 33.3384C39.2044 32.8865 39.0618 32.5107 38.7728 32.1988C38.4838 31.8869 38.1236 31.7309 37.6841 31.7309C37.2447 31.7309 36.8884 31.8869 36.6033 32.1948C36.3183 32.5027 36.1757 32.8865 36.1757 33.3384C36.1757 33.7902 36.3183 34.1661 36.6073 34.478ZM41.1641 35.2857V31.3951H41.6035L43.009 33.5183L44.4144 31.3951H44.8539V35.2857H44.4184V32.1348L43.0129 34.2221H42.9932L41.5877 32.1428V35.2897H41.1641V35.2857ZM46.5325 35.2857V31.3951H49.573V35.2857H49.1375V31.7949H46.968V35.2857H46.5325ZM50.9191 35.2857L52.6769 31.3671H53.0847L54.8425 35.2857H54.3753L53.924 34.2581H51.8257L51.3704 35.2857H50.9231H50.9191ZM51.992 33.8622H53.7498L52.8748 31.8789L51.9959 33.8622H51.992ZM56.1885 35.2857V31.3951H56.624V33.1225H58.849V31.3951H59.2845V35.2857H58.849V33.5343H56.624V35.2857H56.1885ZM60.9631 35.2857V31.3951H61.3986V34.6259L63.6988 31.3951H64.1105V35.2857H63.683V32.0548L61.3867 35.2857H60.9631ZM65.7931 35.2857V31.3951H66.2286V34.6259L68.5288 31.3951H68.9405V35.2857H68.5129V32.0548L66.2167 35.2857H65.7931ZM67.9191 30.8792C67.7766 31.0072 67.6024 31.0712 67.3965 31.0712C67.1906 31.0712 67.0164 31.0072 66.8739 30.8792C66.7314 30.7513 66.6443 30.5873 66.6087 30.3874L66.9056 30.3274C66.9808 30.5873 67.1431 30.7153 67.3965 30.7153C67.6499 30.7153 67.8122 30.5873 67.8874 30.3274L68.1843 30.3874C68.1527 30.5873 68.0616 30.7513 67.9191 30.8792Z" fill="white"/>
</g>
<defs>
<clipPath id="clip0_1_249">
<rect width="131" height="36" fill="white"/>
</clipPath>
</defs>
</svg>
