<svg width="167" height="45" viewBox="0 0 167 45" fill="none" xmlns="http://www.w3.org/2000/svg">
<g clip-path="url(#clip0_110_7062)">
<mask id="mask0_110_7062" style="mask-type:luminance" maskUnits="userSpaceOnUse" x="0" y="0" width="167" height="45">
<path d="M166.9 0H0V44.9H166.9V0Z" fill="white"/>
</mask>
<g mask="url(#mask0_110_7062)">
<path d="M31 21.5C30.3 21.5 29.7 21.4 29.1 21.2C28.6 21 28.1 20.7 27.7 20.2C27.3 19.8 27 19.3 26.8 18.7C26.6 18.1 26.5 17.5 26.5 16.8V9.69995C26.5 9.59995 26.5 9.59995 26.6 9.59995H28.3C28.4 9.59995 28.4 9.59995 28.4 9.69995V16.4C28.4 16.9 28.5 17.4 28.6 17.8C28.7 18.2 28.9 18.6 29.2 18.9C29.5 19.2 29.8 19.4 30.2 19.6C30.6 19.7 31 19.8 31.5 19.8C32 19.8 32.4 19.7 32.8 19.6C33.2 19.4 33.6 19.2 33.9 18.9C34.2 18.6 34.5 18.2 34.6 17.8C34.8 17.4 34.8 16.9 34.8 16.4V9.69995C34.8 9.59995 34.8 9.59995 34.9 9.59995H36.6C36.7 9.59995 36.7 9.59995 36.7 9.69995V21.1C36.7 21.2 36.7 21.2 36.6 21.2H34.9C34.8 21.2 34.8 21.2 34.8 21.1V19.4C34.4 20 33.9 20.5 33.3 20.8C32.6 21.3 31.8 21.5 31 21.5ZM162.9 21.2V11.3H161C160.9 11.3 160.9 11.3 160.9 11.2V9.69995C160.9 9.59995 160.9 9.59995 161 9.59995H162.9V6.29995C162.9 6.19995 162.9 6.19995 163 6.19995H164.7C164.8 6.19995 164.8 6.19995 164.8 6.29995V9.59995H166.8C166.9 9.59995 166.9 9.59995 166.9 9.69995V11.2C166.9 11.3 166.9 11.3 166.8 11.3H164.8V21.2C164.8 21.3 164.8 21.2999 164.7 21.2999H163C163 21.2999 162.9 21.3 162.9 21.2ZM148.7 21.1V9.69995C148.7 9.59995 148.7 9.59995 148.8 9.59995H150.5C150.6 9.59995 150.6 9.59995 150.6 9.69995V11.3C151 10.7 151.5 10.2 152.1 9.89995C152.8 9.49995 153.5 9.29995 154.4 9.29995C155.1 9.29995 155.7 9.39995 156.3 9.59995C156.8 9.79995 157.3 10.1 157.7 10.6C158.1 11 158.4 11.5 158.6 12.1C158.8 12.7 158.9 13.3 158.9 14V21.1C158.9 21.2 158.9 21.2 158.8 21.2H157.1C157 21.2 157 21.2 157 21.1V14.4C157 13.4 156.7 12.5 156.2 11.9C155.9 11.6 155.6 11.4 155.2 11.2C154.8 11.1 154.4 11 153.9 11C153.4 11 153 11.1 152.6 11.2C152.2 11.4 151.8 11.6 151.5 11.9C151.2 12.2 151 12.6 150.8 13C150.6 13.4 150.6 13.9 150.6 14.4V20.9C150.6 21 150.6 21 150.5 21H148.8C148.8 21.2 148.7 21.2 148.7 21.1ZM137.5 16.2C137.6 16.7 137.7 17.2 137.9 17.6C138.1 18.1 138.4 18.4 138.8 18.8C139.2 19.1 139.6 19.4 140 19.6C140.4 19.8 140.9 19.9 141.4 19.9C142.7 19.9 143.9 19.4 144.9 18.3H145L146.1 19.2V19.3C145.4 20 144.7 20.6 143.9 20.9C143.1 21.3 142.2 21.4 141.3 21.4C140.5 21.4 139.7 21.3 139 21C138.3 20.7 137.7 20.3 137.1 19.7C136.5 19.1 136.1 18.5 135.8 17.8C135.5 17.1 135.4 16.3 135.4 15.4C135.4 14.6 135.5 13.8 135.8 13.1C136.1 12.4 136.5 11.7 137 11.1C137.5 10.5 138.1 10.1 138.8 9.79995C139.5 9.49995 140.2 9.39995 141 9.39995C141.8 9.39995 142.6 9.49995 143.2 9.79995C143.9 10.1 144.4 10.5 144.9 11.1C145.4 11.7 145.8 12.3 146 13.1C146.2 13.8 146.4 14.6 146.4 15.5V15.8C146.4 15.9 146.4 16 146.4 16.1C146.4 16.2 146.4 16.2 146.3 16.2H137.5ZM137.5 14.6H144.6C144.5 14.1 144.4 13.6 144.3 13.2C144.1 12.8 143.9 12.4 143.6 12C143.3 11.6 142.9 11.4 142.5 11.2C142.1 11 141.6 10.9 141.1 10.9C140.6 10.9 140.2 11 139.8 11.2C139.4 11.4 139 11.6 138.7 12C138.4 12.4 138.1 12.8 137.9 13.2C137.6 13.7 137.5 14.1 137.5 14.6ZM128.2 21.2999L123.3 9.79995C123.3 9.69995 123.3 9.69995 123.4 9.69995H125.3C125.3 9.69995 125.4 9.69995 125.4 9.79995L129.2 19L133 9.69995L133.1 9.59995H134.9C135 9.59995 135 9.59995 135 9.69995L130 21.2L129.9 21.2999H128.2ZM113.5 16.2C113.6 16.7 113.7 17.2 113.9 17.6C114.1 18.1 114.4 18.4 114.8 18.8C115.2 19.1 115.6 19.4 116 19.6C116.4 19.8 116.9 19.9 117.4 19.9C118.7 19.9 119.9 19.4 120.9 18.3H121L122.1 19.2V19.3C121.4 20 120.7 20.6 119.9 20.9C119.1 21.3 118.2 21.4 117.3 21.4C116.5 21.4 115.7 21.3 115 21C114.3 20.7 113.7 20.3 113.1 19.7C112.5 19.1 112.1 18.5 111.8 17.8C111.5 17.1 111.4 16.3 111.4 15.4C111.4 13.7 111.9 12.3 113 11.1C113.5 10.5 114.1 10.1 114.8 9.79995C115.5 9.49995 116.2 9.39995 117 9.39995C117.8 9.39995 118.6 9.49995 119.2 9.79995C119.9 10.1 120.4 10.5 120.9 11.1C121.4 11.7 121.8 12.3 122 13.1C122.2 13.8 122.4 14.6 122.4 15.5V15.8C122.4 15.9 122.4 16 122.4 16.1C122.4 16.2 122.4 16.2 122.3 16.2H113.5ZM113.5 14.6H120.6C120.5 14.1 120.4 13.6 120.3 13.2C120.1 12.8 119.9 12.4 119.6 12C119.3 11.6 118.9 11.4 118.5 11.2C118.1 11 117.6 10.9 117.1 10.9C116.6 10.9 116.2 11 115.8 11.2C115.4 11.4 115 11.6 114.7 12C114.4 12.4 114.1 12.8 113.9 13.2C113.7 13.7 113.5 14.1 113.5 14.6ZM97.8 21.5C97.4 21.5 97 21.5 96.5 21.4C96.1 21.3 95.6 21.2 95.2 21.1C94.8 20.9 94.4 20.8 94 20.6C93.6 20.4 93.3 20.2 93 19.9V19.8L93.9 18.6C93.9 18.6 94 18.5 94 18.6C94.6 19.1 95.3 19.4 95.9 19.7C96.5 19.9 97.2 20.1 97.9 20.1C98.2 20.1 98.5 20.1 98.8 20C99.1 19.9 99.3 19.8 99.5 19.6C99.7 19.4 99.9 19.3 100 19C100.1 18.8 100.2 18.6 100.2 18.3C100.2 18.1 100.1 17.8 100 17.7C99.9 17.5 99.7 17.4 99.5 17.2C99.3 17.1 99 16.9 98.6 16.8C98.2 16.7 97.8 16.5 97.4 16.4C97.1 16.3 96.9 16.2 96.6 16.2C96.4 16.1 96.2 16.1 96 16C95.8 15.9 95.6 15.9 95.5 15.8C95.3 15.7 95.1 15.6 94.9 15.5C94.7 15.4 94.5 15.2 94.3 15.1C94.1 14.9 94 14.8 93.9 14.6C93.8 14.4 93.7 14.2 93.7 14C93.6 13.8 93.6 13.5 93.6 13.3C93.6 12.8 93.7 12.3 93.9 11.9C94.1 11.5 94.4 11.1 94.7 10.8C95.1 10.5 95.5 10.3 96 10.1C96.5 9.89995 97 9.89995 97.6 9.89995C98.3 9.89995 99.1 9.99995 99.8 10.2C100.5 10.4 101.2 10.7 101.8 11.2C101.8 11.2 101.9 11.3 101.8 11.3L101 12.6C101 12.6 100.9 12.7 100.9 12.6C100.3 12.2 99.8 12 99.2 11.8C98.5 11.1 98 11 97.4 11C97.1 11 96.8 11 96.5 11.1C96.2 11.2 96 11.3 95.8 11.4C95.6 11.5 95.5 11.7 95.4 11.9C95.3 12.1 95.3 12.3 95.3 12.5C95.3 12.6 95.3 12.7 95.3 12.8C95.3 12.9 95.4 13 95.4 13C95.5 13.1 95.5 13.2 95.6 13.2C95.7 13.3 95.7 13.3 95.8 13.4C95.9 13.5 96 13.5 96.1 13.6C96.2 13.7 96.3 13.7 96.5 13.8C96.7 13.9 96.8 13.9 96.9 14C97 14 97.1 14.1 97.2 14.1L98.1 14.4C98.4 14.5 98.6 14.6 98.9 14.6C99.1 14.7 99.3 14.8 99.5 14.8C99.7 14.9 99.9 15 100.1 15.1C100.3 15.2 100.5 15.3 100.7 15.4C100.9 15.5 101.1 15.7 101.2 15.8C101.4 16 101.5 16.1 101.6 16.3C101.7 16.5 101.8 16.7 101.8 16.9C101.9 17.1 101.9 17.4 101.9 17.6C101.9 18.1 101.8 18.6 101.6 19.1C101.4 19.5 101.1 19.9 100.7 20.2C100.3 20.5 99.9 20.7 99.4 20.9C98.9 21.4 98.4 21.5 97.8 21.5ZM87 21.5C86.6 21.5 86.2 21.5 85.7 21.4C85.3 21.3 84.8 21.2 84.4 21.1C84 20.9 83.6 20.8 83.2 20.6C82.8 20.4 82.5 20.2 82.2 19.9V19.8L83.1 18.6C83.1 18.6 83.2 18.5 83.2 18.6C83.8 19.1 84.5 19.4 85.1 19.7C85.7 19.9 86.4 20.1 87.1 20.1C87.4 20.1 87.7 20.1 88 20C88.3 19.9 88.5 19.8 88.7 19.6C88.9 19.4 89.1 19.3 89.2 19C89.3 18.8 89.4 18.6 89.4 18.3C89.4 18.1 89.3 17.8 89.2 17.7C89.1 17.5 88.9 17.4 88.7 17.2C88.5 17.1 88.2 16.9 87.8 16.8C87.4 16.7 87 16.5 86.6 16.4C86.3 16.3 86.1 16.2 85.8 16.2C85.6 16.1 85.4 16.1 85.2 16C85 15.9 84.8 15.9 84.7 15.8C84.5 15.7 84.3 15.6 84.1 15.5C83.9 15.4 83.7 15.2 83.5 15.1C83.3 14.9 83.2 14.8 83.1 14.6C83 14.4 82.9 14.2 82.9 14C82.8 13.8 82.8 13.5 82.8 13.3C82.8 12.8 82.9 12.3 83.1 11.9C83.3 11.5 83.6 11.1 83.9 10.8C84.3 10.5 84.7 10.3 85.2 10.1C85.7 9.89995 86.2 9.89995 86.8 9.89995C87.5 9.89995 88.3 9.99995 89 10.2C89.7 10.4 90.4 10.7 91 11.2C91 11.2 91.1 11.3 91 11.3L90.2 12.6C90.2 12.6 90.1 12.7 90.1 12.6C89.5 12.2 89 12 88.4 11.8C87.8 11.6 87.3 11.5 86.7 11.5C86.4 11.5 86.1 11.5 85.8 11.6C85.5 11.7 85.3 11.8 85.1 11.9C84.9 12 84.8 12.2 84.7 12.4C84.6 12.6 84.6 12.8 84.6 13C84.6 13.1 84.6 13.2 84.6 13.3C84.6 13.4 84.7 13.5 84.7 13.5C84.8 13.6 84.8 13.7 84.9 13.7C85 13.8 85 13.8 85.1 13.9C85.2 14 85.3 14 85.4 14.1C85.5 14.2 85.6 14.2 85.8 14.3C86 14.4 86.1 14.4 86.2 14.5C86.3 14.5 86.4 14.6 86.5 14.6L87.4 14.9C87.7 15 87.9 15.1 88.1 15.1C88.3 15.2 88.5 15.3 88.7 15.3C88.9 15.4 89.1 15.5 89.3 15.6C89.5 15.7 89.7 15.8 89.9 15.9C90.1 16 90.3 16.2 90.4 16.3C90.6 16.5 90.7 16.6 90.8 16.8C90.9 17 91 17.2 91 17.4C91.1 17.6 91.1 17.9 91.1 18.1C91.1 18.6 91 19.1 90.8 19.6C90.6 20 90.3 20.4 89.9 20.7C89.5 21 89.1 21.2 88.6 21.4C88.1 21.4 87.6 21.5 87 21.5ZM71.2 16.2C71.3 16.7 71.4 17.2 71.6 17.6C71.8 18.1 72.1 18.4 72.5 18.8C72.9 19.1 73.3 19.4 73.7 19.6C74.1 19.8 74.6 19.9 75.1 19.9C76.4 19.9 77.6 19.4 78.6 18.3H78.7L79.8 19.2V19.3C79.1 20 78.4 20.6 77.6 20.9C76.8 21.3 75.9 21.4 75 21.4C74.2 21.4 73.4 21.3 72.7 21C72 20.7 71.4 20.3 70.8 19.7C70.2 19.1 69.8 18.5 69.5 17.8C69.2 17.1 69.1 16.3 69.1 15.4C69.1 14.6 69.2 13.8 69.5 13.1C69.8 12.4 70.2 11.7 70.7 11.1C71.2 10.5 71.8 10.1 72.5 9.79995C73.2 9.49995 73.9 9.39995 74.7 9.39995C75.5 9.39995 76.3 9.49995 76.9 9.79995C77.6 10.1 78.1 10.5 78.6 11.1C79.1 11.7 79.5 12.3 79.7 13.1C79.9 13.8 80.1 14.6 80.1 15.5V15.8C80.1 15.9 80.1 16 80.1 16.1C80.1 16.2 80.1 16.2 80 16.2H71.2ZM71.2 14.6H78.3C78.2 14.1 78.1 13.6 78 13.2C77.8 12.8 77.6 12.3 77.3 12C77 11.6 76.6 11.4 76.2 11.2C75.8 11 75.3 10.9 74.8 10.9C74.3 10.9 73.9 11 73.5 11.2C73.1 11.4 72.7 11.6 72.4 12C72.1 12.4 71.8 12.8 71.6 13.2C71.4 13.7 71.3 14.1 71.2 14.6ZM57.1 21.1V9.69995C57.1 9.59995 57.1 9.59995 57.2 9.59995H58.9C59 9.59995 59 9.59995 59 9.69995V11.3C59.4 10.7 59.9 10.2 60.5 9.89995C61.2 9.49995 61.9 9.29995 62.8 9.29995C63.5 9.29995 64.1 9.39995 64.7 9.59995C65.2 9.79995 65.7 10.1 66.1 10.6C66.5 11 66.8 11.5 67 12.1C67.2 12.7 67.3 13.3 67.3 14V21.1C67.3 21.2 67.3 21.2 67.2 21.2H65.5C65.4 21.2 65.4 21.2 65.4 21.1V14.4C65.4 13.9 65.3 13.4 65.2 13C65.1 12.6 64.9 12.2 64.6 11.9C64.3 11.6 64 11.4 63.6 11.2C63.2 11.1 62.8 11 62.3 11C61.8 11 61.4 11.1 61 11.2C60.6 11.4 60.2 11.6 59.9 11.9C59.6 12.2 59.4 12.6 59.2 13C59 13.4 59 13.9 59 14.4V20.9C59 21 59 21 58.9 21H57.2C57.1 21.2 57.1 21.2 57.1 21.1ZM51.3 7.19995V5.29995C51.3 5.19995 51.3 5.19995 51.4 5.19995H53.3C53.4 5.19995 53.4 5.19995 53.4 5.29995V7.19995C53.4 7.29995 53.4 7.29995 53.3 7.29995H51.4C51.4 7.29995 51.3 7.29995 51.3 7.19995ZM51.4 21.1V9.69995C51.4 9.59995 51.4 9.59995 51.5 9.59995H53.2C53.3 9.59995 53.3 9.59995 53.3 9.69995V21.1C53.3 21.2 53.3 21.2 53.2 21.2H51.5C51.5 21.2 51.4 21.2 51.4 21.1ZM44.2 21.2999C43.4 21.2999 42.5 21.1 41.7 20.8C40.9 20.5 40.1 20.1 39.5 19.6L40.4 18.4C41.7 19.4 43 19.9 44.4 19.9C45.1 19.9 45.7 19.7 46.1 19.4C46.5 19.1 46.8 18.6 46.8 18.1C46.8 17.6 46.6 17.2 46.1 16.9C45.6 16.6 44.9 16.3 44 16.1C43.4 15.9 43 15.8 42.6 15.7C42.3 15.6 41.9 15.4 41.5 15.1C41.1 14.9 40.8 14.5 40.5 14.2C40.3 13.8 40.2 13.4 40.2 12.9C40.2 11.9 40.6 11.1 41.3 10.5C42 9.89995 43 9.59995 44.1 9.59995C45.6 9.59995 46.9 9.99995 48.2 10.9L47.2 12C46.1 11.3 44.9 10.9 43.8 10.9C43.1 10.9 42.6 11.1 42.2 11.4C41.8 11.7 41.6 12.1 41.6 12.6C41.6 12.8 41.7 13 41.8 13.2C41.9 13.4 42.1 13.5 42.2 13.6C42.3 13.7 42.6 13.8 42.9 14C43.2 14.1 43.5 14.2 43.7 14.3C43.9 14.4 44.2 14.5 44.6 14.6C45.1 14.8 45.6 14.9 45.9 15.1C46.3 15.2 46.6 15.4 47 15.7C47.4 16 47.7 16.3 47.9 16.6C48.1 17 48.2 17.4 48.2 17.9C48.2 19 47.8 19.8 47 20.4C46.3 21 45.3 21.2999 44.2 21.2999Z" fill="#9AA0A2"/>
<path fill-rule="evenodd" clip-rule="evenodd" d="M12.4 0C19.2 0 24.8 5.5 24.8 12.4C24.8 19.2 19.3 24.8 12.4 24.8C5.5 24.8 0 19.2 0 12.4C0 5.5 5.5 0 12.4 0Z" fill="#A2C62C"/>
<path fill-rule="evenodd" clip-rule="evenodd" d="M15.6998 9.00005C19.2998 9.00005 22.0998 11.9 22.0998 15.4C22.0998 19 19.1998 21.8 15.6998 21.8C12.0998 21.8 9.2998 18.9 9.2998 15.4V5.30005H11.3998V10.7C12.4998 9.70005 13.9998 9.00005 15.6998 9.00005ZM15.6998 11.3C17.9998 11.3 19.7998 13.2 19.7998 15.4C19.7998 17.7 17.8998 19.5 15.6998 19.5C13.3998 19.5 11.5998 17.6 11.5998 15.4C11.4998 13.2 13.3998 11.3 15.6998 11.3Z" fill="white"/>
<path d="M15.7 8.79998C17.5 8.79998 19.2 9.49998 20.4 10.8C21.6 12 22.3 13.7 22.3 15.5C22.3 17.3 21.6 19 20.3 20.2C19.1 21.4 17.4 22.2 15.6 22.2C13.8 22.2 12.1 21.5 10.9 20.2C9.8 18.9 9 17.3 9 15.4V5.29998C9 5.19998 9.1 5.09998 9.2 5.09998H11.3C11.4 5.09998 11.5 5.19998 11.5 5.29998V10.2C12.7 9.29998 14.1 8.79998 15.7 8.79998ZM9.5 13C9.8 12.1 10.4 11.4 11 10.7L11.1 10.6V5.49998H9.5V13ZM9.5 15.2H11.1V11.3C10.1 12.3 9.5 13.7 9.5 15.2ZM11.3 15.6H9.5C9.6 17.2 10.2 18.7 11.3 19.8C12.4 20.9 14 21.6 15.7 21.6C17.4 21.6 19 20.9 20.1 19.8C21.2 18.7 21.9 17.1 21.9 15.4C21.9 13.7 21.2 12.1 20.1 11C19 9.89998 17.4 9.19998 15.7 9.19998C14.1 9.19998 12.7 9.79998 11.6 10.8V15.4C11.5 15.5 11.4 15.6 11.3 15.6Z" fill="white"/>
<path fill-rule="evenodd" clip-rule="evenodd" d="M137.1 32.3L132.9 38.2001L128.7 32.3H126.2V44.4001H128.5V35.7001L132.9 41.9001L137.3 35.7001V44.4001H139.7V32.3H137.1Z" fill="#797876"/>
<path fill-rule="evenodd" clip-rule="evenodd" d="M141.9 32.3H144.3V44.4001H141.9V32.3Z" fill="#797876"/>
<path fill-rule="evenodd" clip-rule="evenodd" d="M146.5 32.3H148.8V37.3L153.3 32.3H156.1L150.8 38.2001L156.1 44.4001H153.2L148.8 39.2001V44.4001H146.5V32.3Z" fill="#797876"/>
<path fill-rule="evenodd" clip-rule="evenodd" d="M124.6 36.0999C124.6 33.9999 122.7 32.2 120.3 32.2H116.5V34.4H118.4H120C121.2 34.4 122.1 35.1999 122.1 36.2999C122.1 37.2999 121.2 38.0999 120 38.0999H118.4V40L122.2 44.5H125.2L121.1 40C123.5 39.5 124.6 37.8999 124.6 36.0999Z" fill="#797876"/>
<path fill-rule="evenodd" clip-rule="evenodd" d="M102.5 32.3H96.3999V34.4001H102.5V32.3Z" fill="#797876"/>
<path fill-rule="evenodd" clip-rule="evenodd" d="M96.3999 44.4H98.6999V39.2H102.4V37H96.3999V44.4Z" fill="#797876"/>
<path fill-rule="evenodd" clip-rule="evenodd" d="M166.9 44.5L161.5 32.2L156 44.5H158.6L161.5 38.0999L164.3 44.5H166.9Z" fill="#797876"/>
<path fill-rule="evenodd" clip-rule="evenodd" d="M162.4 44.5L161.5 42.4L160.6 44.5H162.4Z" fill="#76B82A"/>
<path fill-rule="evenodd" clip-rule="evenodd" d="M110.1 42.5C107.8 42.5 105.9 40.6 105.9 38.3C105.9 36 107.8 34.1 110.1 34.1C112.4 34.1 114.3 36 114.3 38.3C114.3 40.7 112.4 42.5 110.1 42.5ZM110.1 31.8C106.5 31.8 103.5 34.7001 103.5 38.4001C103.5 42.0001 106.4 45 110.1 45C113.7 45 116.7 42.1001 116.7 38.4001C116.6 34.7001 113.7 31.8 110.1 31.8Z" fill="#797876"/>
<path fill-rule="evenodd" clip-rule="evenodd" d="M112.2 38.2999C112.2 39.4999 111.2 40.4 110.1 40.4C108.9 40.4 108 39.3999 108 38.2999C108 37.0999 109 36.2 110.1 36.2C111.2 36.2 112.2 37.1999 112.2 38.2999Z" fill="#76B82A"/>
<path d="M87.1 32.7001H0V32.3H87.1V32.7001Z" fill="#9AA0A2"/>
<path d="M4.5 43.5999C3.9 44.0999 3.3 44.4 2.5 44.4C1.7 44.4 1.1 44.2 0.7 43.7C0.2 43.2 0 42.4999 0 41.7999C0 41.0999 0.2 40.5 0.7 40C1.2 39.5 1.8 39.2 2.5 39.2C2.9 39.2 3.2 39.3 3.5 39.4C3.8 39.5 4.1 39.7 4.3 39.9L4 40.2999C3.5 39.9999 3 39.7999 2.5 39.7999C2 39.7999 1.5 40 1.2 40.4C0.8 40.8 0.7 41.2999 0.7 41.7999C0.7 42.3999 0.9 42.8999 1.2 43.2999C1.6 43.6999 2 43.9 2.6 43.9C3.1 43.9 3.6 43.7 4 43.4V42.2H2.5V41.7H4.5V43.5999ZM6 44.2999V39.4H8.1C8.7 39.4 9.2 39.6 9.5 39.9C9.8 40.2 9.9 40.5 9.9 40.9C9.9 41.3 9.8 41.6 9.5 41.9C9.3 42.1 8.9 42.3 8.5 42.4L10 44.4H9.4L8 42.4H6.5V44.2999H6ZM6.5 41.9H8C8.4 41.9 8.7 41.7999 8.9 41.5999C9.1 41.3999 9.3 41.1999 9.3 40.7999C9.3 40.4999 9.2 40.2999 9 40.0999C8.8 39.8999 8.5 39.7999 8.1 39.7999H6.5V41.9ZM15.4 43.5999C14.9 44.0999 14.3 44.4 13.6 44.4C12.9 44.4 12.3 44.2 11.8 43.7C11.3 43.2 11.1 42.6 11.1 41.9C11.1 41.2 11.3 40.5999 11.8 40.0999C12.3 39.5999 12.9 39.2999 13.6 39.2999C14.3 39.2999 14.9 39.5 15.4 40C15.9 40.5 16.1 41.0999 16.1 41.7999C16.1 42.4999 15.9 43.0999 15.4 43.5999ZM12.2 43.2999C12.6 43.6999 13 43.9 13.6 43.9C14.2 43.9 14.6 43.6999 15 43.2999C15.4 42.8999 15.5 42.3999 15.5 41.7999C15.5 41.1999 15.3 40.7 14.9 40.4C14.5 40 14.1 39.7999 13.5 39.7999C12.9 39.7999 12.5 40 12.1 40.4C11.7 40.8 11.6 41.3 11.6 41.9C11.7 42.4 11.9 42.8999 12.2 43.2999ZM19.5 44.4C18.9 44.4 18.4 44.1999 18 43.7999C17.6 43.3999 17.4 42.9 17.4 42.2V39.2999H18V42.0999C18 42.5999 18.1 42.9999 18.4 43.2999C18.7 43.5999 19 43.7 19.5 43.7C20 43.7 20.3 43.5999 20.6 43.2999C20.9 42.9999 21 42.5999 21 42.0999V39.2H21.6V42C21.6 42.7 21.4 43.1999 21 43.5999C20.7 44.1999 20.2 44.4 19.5 44.4ZM23.1 44.2999V39.4H25C25.6 39.4 26 39.4999 26.3 39.7999C26.6 40.0999 26.8 40.5 26.8 41C26.8 41.5 26.6 41.9 26.2 42.2C25.8 42.5 25.4 42.5999 24.8 42.5999H23.6V44.2999H23.1ZM23.7 42H24.9C25.3 42 25.6 41.9 25.9 41.7C26.1 41.5 26.3 41.2 26.3 40.9C26.3 40.6 26.2 40.2999 25.9 40.0999C25.7 39.8999 25.3 39.7999 24.9 39.7999H23.6V42H23.7ZM34.3 43.5999C33.8 44.0999 33.2 44.4 32.5 44.4C31.8 44.4 31.2 44.2 30.7 43.7C30.2 43.2 30 42.6 30 41.9C30 41.2 30.2 40.5999 30.7 40.0999C31.2 39.5999 31.8 39.2999 32.5 39.2999C33.2 39.2999 33.8 39.5 34.3 40C34.8 40.5 35 41.0999 35 41.7999C35 42.4999 34.8 43.0999 34.3 43.5999ZM31.1 43.2999C31.5 43.6999 31.9 43.9 32.5 43.9C33.1 43.9 33.5 43.6999 33.9 43.2999C34.3 42.8999 34.4 42.3999 34.4 41.7999C34.4 41.1999 34.2 40.7 33.8 40.4C33.4 40 33 39.7999 32.4 39.7999C31.8 39.7999 31.4 40 31 40.4C30.6 40.8 30.5 41.3 30.5 41.9C30.6 42.4 30.7 42.8999 31.1 43.2999ZM36.4 44.2999V39.4H40V39.9H37V41.7H39.7V42.2H37V44.4H36.4V44.2999ZM45.7 44.4C45 44.4 44.4 44.2 43.9 43.7C43.4 43.2 43.2 42.6 43.2 41.9C43.2 41.2 43.4 40.5999 43.9 40.0999C44.4 39.5999 45 39.4 45.7 39.4C46.1 39.4 46.5 39.4999 46.8 39.5999C47.1 39.6999 47.4 39.9 47.7 40.2L47.3 40.5999C46.8 40.0999 46.3 39.9 45.7 39.9C45.2 39.9 44.7 40.1 44.3 40.5C43.9 40.9 43.8 41.4 43.8 42C43.8 42.6 44 43.1 44.4 43.5C44.8 43.9 45.2 44.0999 45.8 44.0999C46.1 44.0999 46.4 44 46.6 43.9C46.8 43.8 47.1 43.6 47.3 43.4L47.7 43.7999C47.4 44.0999 47.1 44.3 46.8 44.4C46.5 44.3 46.1 44.4 45.7 44.4ZM52.8 43.5999C52.3 44.0999 51.7 44.4 51 44.4C50.3 44.4 49.7 44.2 49.2 43.7C48.7 43.2 48.5 42.6 48.5 41.9C48.5 41.2 48.7 40.5999 49.2 40.0999C49.7 39.5999 50.3 39.2999 51 39.2999C51.7 39.2999 52.3 39.5 52.8 40C53.3 40.5 53.5 41.0999 53.5 41.7999C53.5 42.4999 53.3 43.0999 52.8 43.5999ZM49.6 43.2999C50 43.6999 50.4 43.9 51 43.9C51.6 43.9 52 43.6999 52.4 43.2999C52.8 42.8999 52.9 42.3999 52.9 41.7999C52.9 41.1999 52.7 40.7 52.3 40.4C52 40 51.6 39.7999 51 39.7999C50.4 39.7999 50 40 49.6 40.4C49.2 40.8 49.1 41.3 49.1 41.9C49.1 42.4 49.3 42.8999 49.6 43.2999ZM54.9 44.2999V39.4H55.5L57.3 42.0999L59.1 39.4H59.7V44.2999H59.1V40.2999L57.3 42.9L55.5 40.2999V44.2999H54.9ZM61.3 44.2999V39.4H63.2C63.8 39.4 64.2 39.4999 64.5 39.7999C64.8 40.0999 65 40.5 65 41C65 41.5 64.8 41.9 64.4 42.2C64 42.5 63.6 42.5999 63 42.5999H61.8V44.2999H61.3ZM61.9 42H63.1C63.5 42 63.8 41.9 64.1 41.7C64.3 41.5 64.5 41.2 64.5 40.9C64.5 40.6 64.4 40.2999 64.1 40.0999C63.9 39.8999 63.5 39.7999 63.1 39.7999H61.8V42H61.9ZM65.3 44.2999L67.6 39.2999H68.1L70.4 44.2999H69.8L69.2 43H66.5L65.9 44.2999H65.3ZM66.7 42.5H69L67.8 40L66.7 42.5ZM71.6 44.2999V39.4H72.1L75.2 43.4V39.4H75.7V44.2999H75.3L72.1 40.2V44.2999H71.6ZM77.4 44.2999V39.4H78V44.2999H77.4ZM79.6 44.2999V39.4H83.2V39.9H80.2V41.5999H82.9V42.0999H80.2V43.7999H83.3V44.2999H79.6ZM86.3 44.4C85.5 44.4 84.9 44.0999 84.3 43.5999L84.6 43.2C84.9 43.4 85.1 43.6 85.4 43.7C85.7 43.8 86 43.9 86.3 43.9C86.6 43.9 86.9 43.8 87.1 43.7C87.3 43.5 87.4 43.2999 87.4 43.0999C87.4 42.8999 87.3 42.7 87.1 42.5C86.9 42.4 86.6 42.1999 86.1 42.0999C85.5 41.9999 85.1 41.7999 84.8 41.5999C84.5 41.3999 84.4 41.1 84.4 40.7C84.4 40.3 84.6 40 84.9 39.7C85.2 39.4 85.6 39.2999 86.1 39.2999C86.8 39.2999 87.3 39.5 87.8 39.9L87.5 40.2999C87.1 39.8999 86.6 39.7999 86.1 39.7999C85.8 39.7999 85.5 39.9 85.3 40C85.1 40.2 85 40.2999 85 40.5999C85 40.7999 85.1 41 85.3 41.2C85.5 41.3 85.8 41.4999 86.4 41.5999C87 41.6999 87.4 41.8999 87.6 42.0999C87.9 42.2999 88 42.6 88 43C88 43.4 87.8 43.8 87.5 44C87.2 44.2 86.8 44.4 86.3 44.4Z" fill="#797876"/>
</g>
</g>
<defs>
<clipPath id="clip0_110_7062">
<rect width="167" height="45" fill="white"/>
</clipPath>
</defs>
</svg>
