<svg width="107" height="26" viewBox="0 0 107 26" fill="none" xmlns="http://www.w3.org/2000/svg">
<g clip-path="url(#clip0_2856_2057)">
<path d="M21.8626 16.8797H27.1325L17.4999 0.224121H14.1912L11.7471 4.44805L17.4786 14.3528C17.9242 15.1213 18.5619 15.759 19.3331 16.202C20.1042 16.6449 20.9767 16.8797 21.8653 16.8797H21.8626Z" fill="white"/>
<path d="M10.6052 6.32959L0.967285 22.9825L2.62164 25.8403H7.51531L13.2442 15.9408C13.6871 15.1724 13.9219 14.3025 13.9219 13.4166C13.9219 12.5307 13.6898 11.6609 13.2442 10.8924L10.6052 6.32959Z" fill="white"/>
<path d="M28.2107 18.7529H16.7583C15.8698 18.7529 14.9946 18.9851 14.2261 19.4307C13.455 19.8736 12.8172 20.5113 12.3716 21.2798L9.73535 25.8373H29.0059L30.6602 22.9795L28.2161 18.7529H28.2107Z" fill="white"/>
<path d="M38.5022 21.0929V14.6169H41.3093C41.8242 14.6036 42.3366 14.6997 42.8115 14.8998C43.2091 15.0679 43.548 15.3507 43.7854 15.7083C44.0096 16.0872 44.1297 16.5194 44.1297 16.9624C44.1297 17.4053 44.0123 17.8349 43.7854 18.2165C43.548 18.5767 43.2091 18.8569 42.8115 19.025C42.3366 19.2251 41.8242 19.3212 41.3093 19.3078H39.3347L40.0018 18.6327V21.0956H38.5049L38.5022 21.0929ZM40.0018 18.7982L39.3347 18.0938H41.2239C41.6882 18.0938 42.035 17.995 42.2618 17.7976C42.3766 17.6962 42.4673 17.5681 42.526 17.4267C42.5847 17.2853 42.6114 17.1305 42.6034 16.9757C42.6114 16.821 42.5874 16.6635 42.526 16.5194C42.4673 16.3754 42.3766 16.2473 42.2592 16.1432C42.0297 15.9458 41.6855 15.847 41.2212 15.847H39.3294L39.9965 15.1346V18.7982H40.0018Z" fill="white"/>
<path d="M62.405 21.0934V16.1196H63.8406V19.359L65.8445 16.1196H67.5922V21.0934H66.1567V17.854L64.1608 21.0934H62.4023H62.405Z" fill="white"/>
<path d="M64.0914 18.9561H63.8406V19.367H64.0914V18.9561Z" fill="white"/>
<path d="M66.1593 17.8242H65.9084V18.2538H66.1593V17.8242Z" fill="white"/>
<path d="M68.9236 21.0934V16.1196H70.3591V19.359L72.3657 16.1196H74.1134V21.0934H72.6779V17.854L70.682 21.0934H68.9263H68.9236Z" fill="white"/>
<path d="M70.6073 18.9561H70.3564V19.367H70.6073V18.9561Z" fill="white"/>
<path d="M72.6754 17.8242H72.4246V18.2538H72.6754V17.8242Z" fill="white"/>
<path d="M54.0852 19.3532C53.9438 19.7481 53.6609 19.9402 53.2206 19.9402C53.0792 19.9455 52.9378 19.9188 52.8071 19.8601C52.6763 19.8014 52.5642 19.7134 52.4762 19.6013C52.2894 19.3692 52.1933 19.0383 52.1933 18.6007C52.1933 18.1631 52.2867 17.8242 52.4762 17.5947C52.5642 17.4827 52.679 17.3946 52.8071 17.3359C52.9378 17.2772 53.0766 17.2505 53.2206 17.2559C53.4154 17.2479 53.6102 17.3039 53.7703 17.4133C53.9197 17.52 54.0291 17.6748 54.0825 17.8509L54.1092 17.9283H55.6621L55.6275 17.7869C55.5127 17.2612 55.2192 16.7943 54.7949 16.4634C54.3413 16.1352 53.789 15.9697 53.2287 15.9911C52.775 15.9831 52.3268 16.0952 51.9292 16.3166C51.5503 16.5328 51.2434 16.8503 51.038 17.2345C50.8272 17.6615 50.7178 18.1284 50.7178 18.6034C50.7178 19.0783 50.8272 19.5453 51.038 19.9722C51.2434 20.3564 51.553 20.674 51.9292 20.8901C52.3268 21.1116 52.7724 21.2236 53.2287 21.2156C53.7863 21.2316 54.3333 21.0609 54.7816 20.7273C55.2005 20.3965 55.494 19.9349 55.6168 19.4172L55.6541 19.2758H54.1012L54.0852 19.3532Z" fill="white"/>
<path d="M59.7874 19.3535C59.646 19.7484 59.3632 19.9405 58.9229 19.9405C58.7815 19.9458 58.64 19.9191 58.5093 19.8604C58.3812 19.8017 58.2665 19.7137 58.1784 19.6016C57.9916 19.3695 57.8956 19.0386 57.8956 18.601C57.8956 18.1634 57.989 17.8245 58.1784 17.595C58.2665 17.483 58.3785 17.3949 58.5093 17.3362C58.64 17.2775 58.7815 17.2508 58.9229 17.2562C59.1177 17.2482 59.3098 17.3042 59.4726 17.4136C59.622 17.5203 59.7314 17.6751 59.7847 17.8512L59.8114 17.9259H61.3644L61.3297 17.7845C61.215 17.2588 60.9188 16.7919 60.4972 16.461C60.0462 16.1355 59.4992 15.9701 58.9442 15.9887C58.4906 15.9807 58.0423 16.0928 57.6448 16.3143C57.2659 16.5304 56.9563 16.8479 56.7535 17.2322C56.5428 17.6564 56.4333 18.126 56.4333 18.601C56.4333 19.076 56.5428 19.5429 56.7535 19.9698C56.959 20.3541 57.2685 20.6716 57.6448 20.8877C58.0423 21.1092 58.4879 21.2213 58.9442 21.2133C59.5019 21.232 60.0489 21.0585 60.4972 20.725C60.9161 20.3941 61.2123 19.9325 61.335 19.4148L61.3697 19.2734H59.8088L59.7874 19.3535Z" fill="white"/>
<path d="M48.674 16.3194C48.2657 16.106 47.8121 15.9966 47.3532 15.9966C46.8942 15.9966 46.4379 16.1087 46.0297 16.3194C45.6348 16.5329 45.3092 16.8504 45.0878 17.24C44.8556 17.6563 44.7356 18.1286 44.7436 18.6062C44.7356 19.0838 44.8503 19.5534 45.0771 19.9724C45.2906 20.3593 45.6108 20.6795 46.0003 20.8929C46.4032 21.1117 46.8542 21.2238 47.3131 21.2185C47.7774 21.2238 48.239 21.1117 48.65 20.8956C49.0449 20.6821 49.3757 20.3646 49.6025 19.975C49.8427 19.5588 49.9654 19.0865 49.9548 18.6089C49.9628 18.1312 49.8454 17.6589 49.6106 17.2427C49.3891 16.8558 49.0635 16.5356 48.6686 16.3221L48.674 16.3194ZM47.8868 19.7749C47.7134 19.871 47.5213 19.9217 47.3238 19.9217C47.1771 19.927 47.0303 19.8976 46.8942 19.8416C46.7581 19.7829 46.6354 19.6975 46.5367 19.5881C46.3285 19.364 46.2218 19.0331 46.2218 18.6035C46.2218 18.1739 46.3312 17.8457 46.5447 17.6189C46.6461 17.5095 46.7715 17.4241 46.9076 17.3654C47.0436 17.3067 47.1931 17.28 47.3425 17.2827C47.4919 17.28 47.6413 17.3067 47.7828 17.3654C47.9215 17.4241 48.0469 17.5095 48.151 17.6189C48.3698 17.8431 48.4819 18.1739 48.4819 18.6035C48.4899 18.857 48.4338 19.1078 48.3218 19.3346C48.2257 19.5188 48.0789 19.6708 47.8975 19.7749" fill="white"/>
<path d="M38.4997 12.1623V5.68896H40.8692L42.0459 8.14648H42.2967L43.4281 5.68896H45.7976L45.8082 12.1623H44.3994L44.3887 7.42337H44.0952L42.7637 10.0703H41.5336L40.1541 7.42337H39.9059V12.1623H38.4971H38.4997Z" fill="white"/>
<path d="M53.6528 12.1622V7.18848H55.0884V9.13101H57.2577V7.18848H58.7039V12.1622H57.2577V10.3024H55.0884V12.1622H53.6528Z" fill="white"/>
<path d="M60.0303 12.1622V7.18848H64.988V12.1622H63.5418V8.04767L63.8673 8.37054H61.143L61.4685 8.04767V12.1622H60.0329H60.0303Z" fill="white"/>
<path d="M87.0814 12.1624V8.03723L87.4069 8.37076H85.395V7.18604H90.206V8.37076H88.1941L88.5196 8.03723V12.1624H87.0841H87.0814Z" fill="white"/>
<path d="M102.969 12.1622V7.18848H106.963V8.37321H104.081L104.407 8.05835V12.1622H102.971H102.969Z" fill="white"/>
<path d="M47.1369 12.1622V7.18848H48.5725V10.4305L50.5764 7.18848H52.3241V12.1622H50.8886V8.92288L48.8927 12.1622H47.1343H47.1369Z" fill="white"/>
<path d="M48.826 10.0249H48.5752V10.4358H48.826V10.0249Z" fill="white"/>
<path d="M50.8912 8.89648H50.6404V9.32608H50.8912V8.89648Z" fill="white"/>
<path d="M78.4602 12.1622V7.18848H80.2533L81.43 9.74739H81.3927L82.6975 7.18848H84.3331L84.3518 12.1622H83.0444V8.24513L83.1244 8.39188L81.977 10.6946H80.8003L79.6423 8.29049L79.7703 8.22645V12.1622H78.4629H78.4602Z" fill="white"/>
<path d="M80.0186 8.55469H79.7678V9.07234H80.0186V8.55469Z" fill="white"/>
<path d="M83.0445 8.55469H82.7856V9.07234H83.0445V8.55469Z" fill="white"/>
<path d="M81.5421 9.44873H81.2913V9.96638H81.5421V9.44873Z" fill="white"/>
<path d="M76.2722 7.38878C75.8639 7.17799 75.4103 7.06592 74.9487 7.06592C74.4871 7.06592 74.0335 7.17532 73.6252 7.38878C73.233 7.60225 72.9074 7.92245 72.686 8.30935C72.4538 8.72561 72.3337 9.1979 72.3417 9.67552C72.3311 10.1505 72.4458 10.6228 72.6753 11.039C72.8914 11.4259 73.209 11.7461 73.5985 11.9596C74.0014 12.1784 74.4551 12.2905 74.914 12.2825C75.3783 12.2878 75.8372 12.1784 76.2482 11.9596C76.6457 11.7461 76.9739 11.4286 77.2034 11.0417C77.4436 10.6254 77.5636 10.1532 77.5556 9.67552C77.5636 9.1979 77.4462 8.72561 77.2114 8.30935C76.9899 7.91978 76.6644 7.60225 76.2722 7.38878ZM75.4877 10.8469C75.3142 10.9403 75.1195 10.9883 74.922 10.9883C74.7752 10.9937 74.6285 10.9643 74.4924 10.9083C74.3563 10.8496 74.2336 10.7642 74.1349 10.6548C73.9241 10.4307 73.82 10.0918 73.82 9.67019C73.82 9.2486 73.9294 8.91239 74.1429 8.68558C74.2443 8.57618 74.367 8.48813 74.5057 8.43209C74.6445 8.37339 74.7913 8.34671 74.9407 8.34938C75.0928 8.34671 75.2422 8.37339 75.381 8.43209C75.5197 8.4908 75.6451 8.57618 75.7492 8.68558C75.9707 8.90972 76.0801 9.2486 76.0801 9.67019C76.0881 9.92368 76.032 10.1745 75.92 10.4013C75.8239 10.5854 75.6771 10.7375 75.4957 10.8416" fill="white"/>
<path d="M94.6141 7.38878C94.2059 7.17799 93.7523 7.06592 93.2907 7.06592C92.829 7.06592 92.3754 7.17532 91.9672 7.38878C91.5749 7.60225 91.2467 7.92245 91.0253 8.30935C90.7931 8.72561 90.6731 9.1979 90.6811 9.67552C90.6731 10.1505 90.7878 10.6228 91.0146 11.039C91.2281 11.4259 91.5483 11.7461 91.9378 11.9596C92.3407 12.1784 92.7944 12.2905 93.2506 12.2825C93.7149 12.2878 94.1765 12.1784 94.5875 11.9596C94.9824 11.7461 95.3132 11.4286 95.54 11.0417C95.7802 10.6254 95.9029 10.1532 95.8923 9.67552C95.9003 9.1979 95.7829 8.72561 95.548 8.30935C95.3266 7.92245 95.001 7.60225 94.6088 7.38878H94.6141ZM93.827 10.8469C93.6509 10.9403 93.4561 10.991 93.256 10.9883C93.1092 10.9937 92.9625 10.9643 92.8264 10.9083C92.6903 10.8496 92.5676 10.7642 92.4688 10.6548C92.2607 10.4307 92.154 10.0918 92.154 9.67019C92.154 9.2486 92.2634 8.91239 92.4768 8.68558C92.5782 8.57618 92.701 8.48813 92.8397 8.43209C92.9785 8.37339 93.1252 8.34671 93.2747 8.34938C93.4241 8.34671 93.5735 8.37339 93.7149 8.43209C93.8537 8.4908 93.9791 8.57618 94.0831 8.68558C94.302 8.90972 94.414 9.2486 94.414 9.67019C94.422 9.92368 94.366 10.1745 94.2539 10.4013C94.1579 10.5854 94.0111 10.7375 93.8297 10.8416" fill="white"/>
<path d="M70.4392 7.38616C70.0843 7.1727 69.6787 7.0633 69.2625 7.06597C68.1845 7.06597 67.7735 8.07459 67.7735 8.07459V7.18871H66.3167V13.8061H67.7682V11.2712C67.7682 11.2712 68.2885 12.2798 69.2571 12.2798C69.676 12.2852 70.087 12.1704 70.4419 11.949C70.8021 11.7222 71.0903 11.3993 71.2797 11.0177C71.4878 10.5935 71.5919 10.1238 71.5839 9.65156C71.5919 9.18193 71.4878 8.71765 71.2797 8.29606C71.0903 7.91982 70.7994 7.60496 70.4419 7.38349M70.1083 9.65956C70.1137 9.90771 70.0576 10.1532 69.9429 10.3747C69.8415 10.5615 69.6921 10.7189 69.5106 10.8309C69.3372 10.9323 69.1397 10.9857 68.9369 10.9857C68.7341 10.9857 68.5367 10.9323 68.3632 10.8309C68.1818 10.7242 68.0324 10.5668 67.9336 10.38C67.8242 10.1612 67.7682 9.92106 67.7682 9.67557C67.7682 9.43009 67.8242 9.18994 67.9336 8.97114C68.0324 8.78436 68.1818 8.62959 68.3632 8.52019C68.534 8.4188 68.7288 8.36543 68.9289 8.36543C69.1317 8.36543 69.3318 8.41613 69.5079 8.51753C69.6894 8.62159 69.8388 8.77368 69.9375 8.95513C70.0523 9.17126 70.111 9.41408 70.1056 9.65956H70.1083Z" fill="white"/>
<path d="M68.0191 11.2739H67.7683V11.6395H68.0191V11.2739Z" fill="white"/>
<path d="M68.0191 7.67432H67.7683V8.08524H68.0191V7.67432Z" fill="white"/>
<path d="M100.922 7.38581C100.565 7.17234 100.156 7.06028 99.74 7.06561C98.6647 7.06561 98.2538 8.07423 98.2538 8.07423V7.18835H96.7996V13.8058H98.2511V11.2709C98.2511 11.2709 98.7688 12.2795 99.7374 12.2795C100.156 12.2848 100.567 12.1701 100.922 11.9486C101.28 11.7191 101.571 11.3989 101.757 11.0174C101.968 10.5931 102.072 10.1235 102.064 9.6512C102.072 9.18158 101.968 8.71463 101.757 8.2957C101.568 7.91947 101.28 7.60194 100.919 7.38314M100.589 9.65921C100.597 9.90736 100.538 10.1528 100.423 10.3743C100.322 10.5611 100.175 10.7212 99.9909 10.8306C99.8174 10.932 99.62 10.9854 99.4198 10.9854C99.2197 10.9854 99.0223 10.932 98.8488 10.8306C98.67 10.7212 98.5233 10.5664 98.4246 10.3797C98.3152 10.1609 98.2591 9.9207 98.2591 9.67522C98.2591 9.42973 98.3152 9.18959 98.4246 8.97078C98.5233 8.784 98.67 8.62924 98.8488 8.51984C99.0196 8.41844 99.2144 8.36508 99.4145 8.36508C99.6173 8.36508 99.8174 8.41578 99.9935 8.51717C100.172 8.62124 100.319 8.776 100.418 8.95744C100.535 9.17091 100.597 9.41372 100.594 9.65921H100.589Z" fill="white"/>
<path d="M98.5018 11.2739H98.251V11.6395H98.5018V11.2739Z" fill="white"/>
<path d="M98.5018 7.67432H98.251V8.08524H98.5018V7.67432Z" fill="white"/>
</g>
<defs>
<clipPath id="clip0_2856_2057">
<rect width="107" height="26" fill="white"/>
</clipPath>
</defs>
</svg>
