<svg width="231" height="38" viewBox="0 0 231 38" fill="none" xmlns="http://www.w3.org/2000/svg">
<g clip-path="url(#clip0_110_7083)">
<mask id="mask0_110_7083" style="mask-type:luminance" maskUnits="userSpaceOnUse" x="0" y="0" width="231" height="38">
<path d="M0 0.000141144H230.551V37.8001H0V0.000141144Z" fill="white"/>
</mask>
<g mask="url(#mask0_110_7083)">
<path d="M9.87018 37.3939L18.7995 21.9179C19.1222 21.3085 19.3075 20.6099 19.3075 19.8699C19.3075 19.2005 19.1555 18.5659 18.8875 17.9992L15.0462 11.3432L-0.000488281 37.3939H9.87018Z" fill="#373535"/>
<path d="M38.2356 28.8679L20.3663 28.8732C19.6796 28.9012 18.981 29.0865 18.341 29.4559C17.7596 29.7919 17.2876 30.2399 16.929 30.7559L13.085 37.4119L43.1716 37.4172L38.2356 28.8679Z" fill="#373535"/>
<path d="M16.6431 8.55281L25.5817 24.0261C25.9497 24.6101 26.4604 25.1208 27.1017 25.4901C27.6804 25.8261 28.3057 26.0115 28.9337 26.0635H36.6177L21.5804 0.00481033L16.6431 8.55281Z" fill="#373535"/>
<path d="M65.3026 17.5716C65.3026 17.1876 65.5946 4.51293 65.5946 4.51293L62.1492 17.5716H59.4706L56.0252 4.51293C56.0252 4.51293 56.3186 17.0529 56.3186 17.5716H53.4146V1.67559H57.7346L60.8426 13.4743L63.9052 1.67559H68.2066V17.5716H65.3026Z" fill="#373535"/>
<path d="M84.8482 17.5716H81.8749V7.16893L74.7602 15.6809V17.5716H71.7896V1.67559H74.7602V11.9889L81.8749 3.47693V1.67559H84.8482V17.5716Z" fill="#373535"/>
<path d="M98.268 17.5716V10.3436H91.4454V17.5716H88.4507V1.67559H91.4454V7.66493H98.268V1.67559H101.263V17.5716H98.268Z" fill="#373535"/>
<path d="M117.477 1.67508V17.5711H114.504V4.37641H107.838V17.5711H104.868V1.67508H117.477Z" fill="#373535"/>
<path d="M124.096 9.73508H126.709C128.824 9.73508 129.884 8.74441 129.884 6.87641C129.884 4.31108 127.811 4.21908 126.371 4.21908H124.096V9.73508ZM127.293 1.67508C130.58 1.67508 132.947 3.70174 132.947 6.96708C132.947 9.84841 131.28 12.1684 127.136 12.1684H124.096V17.5711H121.124V1.67508H127.293Z" fill="#373535"/>
<path d="M142.088 15.2071C144.451 15.2071 146.68 13.3844 146.68 9.78041C146.68 6.94441 145.196 3.99374 142.043 3.99374C139.431 3.99374 137.495 6.04308 137.495 9.53374C137.495 12.0111 138.688 15.2071 142.088 15.2071ZM142.064 1.26974C146.906 1.26974 149.676 5.23241 149.676 9.53374C149.676 13.1351 147.715 17.9764 141.999 17.9764C137.315 17.9764 134.434 14.1057 134.434 9.64574C134.434 4.98441 137.471 1.26974 142.064 1.26974Z" fill="#373535"/>
<path d="M164.311 17.5716C164.311 17.1876 164.604 4.51293 164.604 4.51293L161.16 17.5716H158.48L155.035 4.51293C155.035 4.51293 155.328 17.0529 155.328 17.5716H152.423V1.67559H156.747L159.854 13.4743L162.918 1.67559H167.216V17.5716H164.311Z" fill="#373535"/>
<path d="M176.787 4.35481V17.5721H173.815V4.35481H169.492V1.67481H181.176V4.35481H176.787Z" fill="#373535"/>
<path d="M190.387 15.2071C192.75 15.2071 194.979 13.3844 194.979 9.78041C194.979 6.94441 193.494 3.99374 190.342 3.99374C187.731 3.99374 185.795 6.04308 185.795 9.53374C185.795 12.0111 186.986 15.2071 190.387 15.2071ZM190.364 1.26974C195.206 1.26974 197.974 5.23241 197.974 9.53374C197.974 13.1351 196.016 17.9764 190.298 17.9764C185.614 17.9764 182.732 14.1057 182.732 9.64574C182.732 4.98441 185.771 1.26974 190.364 1.26974Z" fill="#373535"/>
<path d="M203.83 9.73508H206.442C208.558 9.73508 209.616 8.74441 209.616 6.87641C209.616 4.31108 207.545 4.21908 206.105 4.21908H203.83V9.73508ZM207.028 1.67508C210.314 1.67508 212.68 3.70174 212.68 6.96708C212.68 9.84841 211.013 12.1684 206.87 12.1684H203.83V17.5711H200.858V1.67508H207.028Z" fill="#373535"/>
<path d="M224.387 1.67508V4.37641H217.858V17.5711H214.887V1.67508H224.387Z" fill="#373535"/>
<path d="M56.3861 29.558H58.9994C61.1141 29.558 62.1741 28.5687 62.1741 26.698C62.1741 24.134 60.1007 24.042 58.6607 24.042H56.3861V29.558ZM59.5834 21.498C62.8701 21.498 65.2354 23.5247 65.2354 26.79C65.2354 29.6727 63.5701 31.99 59.4261 31.99H56.3861V37.394H53.4141V21.498H59.5834Z" fill="#373535"/>
<path d="M74.6028 35.0293C76.9668 35.0293 79.1961 33.2067 79.1961 29.6053C79.1961 26.7667 77.7108 23.816 74.5588 23.816C71.9468 23.816 70.0108 25.868 70.0108 29.3573C70.0108 31.832 71.2028 35.0293 74.6028 35.0293ZM74.5801 21.092C79.4214 21.092 82.1921 25.056 82.1921 29.3573C82.1921 32.9587 80.2334 37.8 74.5134 37.8C69.8308 37.8 66.9468 33.928 66.9468 29.4693C66.9468 24.808 69.9881 21.092 74.5801 21.092Z" fill="#373535"/>
<path d="M98.5846 32.9589C98.0659 34.3109 96.2886 37.8003 91.7179 37.8003C87.9579 37.8003 84.2886 35.2323 84.2886 29.2896C84.2886 25.7536 86.2926 21.0923 91.8299 21.0923C95.9272 21.0923 97.6166 23.7269 98.2926 26.0003L95.3419 26.7656C95.1619 25.0349 93.6992 23.8163 91.9432 23.8163C89.3539 23.8163 87.5072 25.8003 87.5072 29.3336C87.5072 31.4949 88.3859 34.9856 91.9192 34.9856C93.9699 34.9856 95.2979 33.4096 95.7712 31.7896L98.5846 32.9589Z" fill="#373535"/>
<path d="M114.777 32.9589C114.258 34.3109 112.478 37.8003 107.909 37.8003C104.147 37.8003 100.477 35.2323 100.477 29.2896C100.477 25.7536 102.481 21.0923 108.022 21.0923C112.118 21.0923 113.807 23.7269 114.482 26.0003L111.531 26.7656C111.354 25.0349 109.89 23.8163 108.134 23.8163C105.543 23.8163 103.698 25.8003 103.698 29.3336C103.698 31.4949 104.577 34.9856 108.111 34.9856C110.159 34.9856 111.489 33.4096 111.961 31.7896L114.777 32.9589Z" fill="#373535"/>
<path d="M130.221 37.3939H127.249V26.9925L120.134 35.5032V37.3939H117.164V21.4979H120.134V31.8112L127.249 23.3005V21.4979H130.221V37.3939Z" fill="#373535"/>
<path d="M146.884 37.3939H143.912V26.9925L136.798 35.5032V37.3939H133.827V21.4979H136.798V31.8112L143.912 23.3005V21.4979H146.884V37.3939Z" fill="#373535"/>
</g>
</g>
<defs>
<clipPath id="clip0_110_7083">
<rect width="230.551" height="37.8001" fill="white"/>
</clipPath>
</defs>
</svg>
