<svg width="16" height="16" viewBox="0 0 16 16" fill="none" xmlns="http://www.w3.org/2000/svg">
<path d="M7.03583 4.15998L4.7805 1.55665C4.5205 1.25665 4.04383 1.25798 3.74183 1.56065L1.88716 3.41865C1.33516 3.97131 1.17716 4.79198 1.4965 5.44998C3.40424 9.39996 6.58986 12.59 10.5372 14.5033C11.1945 14.8226 12.0145 14.6646 12.5665 14.112L14.4385 12.2366C14.7418 11.9333 14.7425 11.454 14.4398 11.194L11.8265 8.95065C11.5532 8.71598 11.1285 8.74665 10.8545 9.02131L9.94516 9.93198C9.89861 9.98077 9.83733 10.0129 9.77073 10.0235C9.70413 10.0341 9.63589 10.0226 9.5765 9.99065C8.09013 9.13471 6.85716 7.90013 6.00316 6.41265C5.97118 6.35315 5.9596 6.2848 5.9702 6.21808C5.98079 6.15137 6.01298 6.08997 6.06183 6.04331L6.9685 5.13598C7.24316 4.85998 7.27316 4.43331 7.03583 4.15931V4.15998Z" stroke="white" stroke-width="1.5" stroke-linecap="round" stroke-linejoin="round"/>
</svg>
