<svg width="52" height="77" viewBox="0 0 52 77" fill="none" xmlns="http://www.w3.org/2000/svg">
<g clip-path="url(#clip0_0_1174)">
<path d="M51.0416 24.4335C51.0377 24.3383 51.0258 24.2432 51.0178 24.148C50.994 23.7833 50.9663 23.4225 50.9266 23.0616C50.9147 22.9546 50.8989 22.8436 50.887 22.7365C50.8434 22.3876 50.7958 22.0427 50.7403 21.7017C50.7244 21.5986 50.7006 21.4916 50.6848 21.3885C50.6213 21.0435 50.5579 20.6986 50.4786 20.3576C50.4707 20.314 50.4588 20.2743 50.4509 20.2347H41.74C41.7558 20.2743 41.7638 20.314 41.7796 20.3536C41.9581 20.877 42.1127 21.4083 42.2396 21.9515C42.2713 22.0784 42.299 22.2052 42.3268 22.3321C42.3506 22.4431 42.3704 22.5581 42.3942 22.6691C42.422 22.8198 42.4497 22.9744 42.4735 23.1251C42.4894 23.2242 42.5052 23.3194 42.5171 23.4185C42.5449 23.5969 42.5647 23.7753 42.5845 23.9537C42.5924 24.033 42.6004 24.1123 42.6083 24.1877C42.6281 24.4137 42.6479 24.6436 42.6598 24.8736V24.9727C42.6797 25.2503 42.6876 25.5318 42.6876 25.8133C42.6876 35.0713 35.1821 42.5768 25.924 42.5768C22.5103 42.5768 19.3344 41.5539 16.6858 39.7975H25.9201C33.6358 39.7975 39.8924 33.5409 39.8924 25.8252C39.8924 23.8388 39.476 21.9475 38.7306 20.2347H32.1687C33.497 21.7175 34.3058 23.6762 34.3058 25.8252C34.3058 30.4562 30.5511 34.207 25.9201 34.207H2.22589C5.68328 43.9646 14.9889 50.9586 25.932 50.9586C39.817 50.9586 51.0773 39.7023 51.0813 25.8172C51.0813 25.3534 51.0694 24.8934 51.0416 24.4335Z" fill="#0C5DA9"/>
<path d="M25.932 0.660034C14.6518 0.660034 5.10835 8.08627 1.92058 18.3157C1.18708 20.6788 0.790588 23.1885 0.790588 25.7895C0.790588 27.7125 1.00866 29.5799 1.41308 31.38H10.12C9.50542 29.6355 9.1684 27.764 9.1684 25.8093C9.1684 24.6476 9.28735 23.5176 9.51335 22.4194C11.0795 14.7869 17.8357 9.04578 25.932 9.04578C29.3418 9.04578 32.5097 10.0687 35.1583 11.8133H25.9399C18.2242 11.8133 11.9676 18.0699 11.9676 25.7855C11.9676 27.7759 12.3839 29.6632 13.1293 31.376H19.6912C18.363 29.8932 17.5541 27.9345 17.5541 25.7855C17.5541 21.1546 21.3089 17.4038 25.9359 17.4038H49.6301C46.1807 7.65014 36.8751 0.660034 25.932 0.660034Z" fill="#6CC9F1"/>
<path d="M5.96081 62.6789H1.1514V59.5981H14.2117V62.6789H9.42612V77H5.96081V62.6789Z" fill="#0C5DA9"/>
<path d="M23.779 71.5761L20.4089 65.8627V76.9961H17.0665V59.5981H20.4089L24.9011 67.2781L29.3933 59.5981H32.6366V76.9961H29.2942V65.8627L25.924 71.5761H23.779Z" fill="#0C5DA9"/>
<path d="M35.8323 75.8304L41.054 67.9522L36.32 60.7638V59.5981H39.8606L43.203 65.1886L46.7674 59.5981H50.0861V60.7638L45.3004 67.9244L50.5737 75.8304V77H47.0608L43.1277 70.7831L39.1509 77H35.8323V75.8304Z" fill="#0C5DA9"/>
</g>
<defs>
<clipPath id="clip0_0_1174">
<rect width="50.2907" height="76.34" fill="white" transform="translate(0.790588 0.660034)"/>
</clipPath>
</defs>
</svg>
