<svg width="77" height="77" viewBox="0 0 77 77" fill="none" xmlns="http://www.w3.org/2000/svg">
<path d="M42.2893 23.4056C39.9665 21.3125 36.3905 21.4962 34.2974 23.8124C32.2042 26.1352 32.3945 29.7112 34.7107 31.8043C37.0335 33.8975 40.6095 33.7137 42.7027 31.3975C44.7958 29.0748 44.6055 25.4987 42.2893 23.4056Z" fill="url(#paint0_radial_0_1205)"/>
<path d="M22.3029 6.08323C18.6022 8.87843 15.643 12.5988 13.7795 16.9097C16.017 17.4609 22.7163 19.6393 25.7936 27.9396C26.7188 27.6378 28.7135 26.4764 30.0914 21.9949C31.9483 15.9911 35.4653 10.217 40.0255 8.27477C35.4784 3.77358 29.4812 2.71717 22.3029 6.08323Z" fill="url(#paint1_linear_0_1205)"/>
<path d="M59.2376 10.4269C54.3034 4.46909 46.843 0.669983 38.4967 0.669983C32.4142 0.669983 26.8041 2.68437 22.2964 6.08323C32.2633 1.40487 39.9468 5.26304 44.6514 15.0134C52.1447 16.3585 57.2364 12.6316 59.2376 10.4204V10.4269Z" fill="url(#paint2_linear_0_1205)"/>
<path d="M27.9655 52.3878C32.237 54.1988 36.9416 54.8943 41.6003 54.3562C40.9573 52.145 39.4941 45.2489 45.1501 38.438C44.4283 37.7884 42.4271 36.6402 37.8471 37.69C31.7187 39.0876 24.9603 38.9301 20.9972 35.9446C19.3765 42.1321 21.4565 47.8538 27.9589 52.3878H27.9655Z" fill="url(#paint3_linear_0_1205)"/>
<path d="M13.2546 18.222C10.5644 25.479 11.004 33.8384 15.1771 41.0626C18.2151 46.3315 22.7688 50.1831 27.9655 52.3877C18.9303 46.0953 18.4316 37.5128 24.5273 28.5629C21.942 21.4043 16.1745 18.8585 13.2612 18.222H13.2546Z" fill="url(#paint4_linear_0_1205)"/>
<path d="M65.2283 24.3308C64.664 19.7312 62.9121 15.3021 60.1169 11.5358C58.5224 13.1959 53.2798 17.9136 44.5596 16.4242C44.3561 17.3756 44.3693 19.6852 47.5582 23.1234C51.8297 27.7296 55.0711 33.6678 54.474 38.5889C60.6484 36.8961 64.559 32.2374 65.2349 24.3373L65.2283 24.3308Z" fill="url(#paint5_linear_0_1205)"/>
<path d="M42.9979 54.1528C50.6289 52.8536 57.6432 48.2934 61.8163 41.0691C64.8543 35.8003 65.9173 29.9343 65.2283 24.3307C64.2966 35.3016 57.1117 40.0259 46.318 39.2254C41.41 45.0454 42.0924 51.3117 42.9979 54.1528Z" fill="url(#paint6_linear_0_1205)"/>
<path d="M2.48717 76.8163H0.184086V66.0554H3.88477C4.56061 66.0554 5.17083 66.1276 5.71544 66.272C6.26004 66.4163 6.71935 66.6328 7.10647 66.9281C7.4936 67.2168 7.78231 67.5974 7.99228 68.0501C8.19568 68.5029 8.30067 69.0409 8.30067 69.6577C8.30067 70.2745 8.19568 70.7994 7.98572 71.2718C7.77575 71.7442 7.47392 72.1379 7.07367 72.466C6.67341 72.7875 6.18786 73.0369 5.61045 73.2009C5.0396 73.3715 4.39001 73.4568 3.67481 73.4568H2.49374V76.8228L2.48717 76.8163ZM2.44124 71.4227H3.70105C4.39657 71.4227 4.94118 71.2849 5.32831 71.0159C5.71544 70.7469 5.91228 70.3204 5.91228 69.7495C5.91228 69.1459 5.722 68.7194 5.34143 68.4635C4.96086 68.2142 4.41626 68.0895 3.71418 68.0895H2.44124V71.4227Z" fill="#3C3C3B"/>
<path d="M15.2755 77C14.4947 77 13.7861 76.8819 13.1496 76.6391C12.5066 76.3964 11.9554 76.042 11.4961 75.5696C11.0368 75.0972 10.6759 74.5198 10.4266 73.8242C10.1773 73.1353 10.0526 72.3348 10.0526 71.4359C10.0526 70.5369 10.1838 69.7364 10.4463 69.0475C10.7087 68.3585 11.0696 67.7745 11.5289 67.3021C11.9882 66.8297 12.5328 66.4754 13.1627 66.2326C13.7926 65.9898 14.475 65.8717 15.2165 65.8717C16.0432 65.8717 16.7847 66.0029 17.4343 66.2588C18.0839 66.5147 18.635 66.8822 19.0812 67.3546C19.5274 67.8336 19.8686 68.4176 20.1048 69.1065C20.341 69.7955 20.4591 70.5763 20.4591 71.4359C20.4591 72.3873 20.3279 73.214 20.0654 73.9161C19.803 74.6182 19.4421 75.1956 18.9762 75.6549C18.5104 76.1077 17.9592 76.4489 17.3293 76.6719C16.6994 76.895 16.017 77 15.2755 77ZM15.3543 74.9725C15.7414 74.9725 16.1023 74.9003 16.4304 74.756C16.7584 74.6116 17.0406 74.3951 17.2768 74.0998C17.513 73.8111 17.6967 73.4437 17.8214 73.0041C17.9461 72.5644 18.0117 72.0395 18.0117 71.4359C18.0117 70.2154 17.7558 69.3231 17.244 68.7522C16.7322 68.1814 16.0564 67.8992 15.2165 67.8992C14.8359 67.8992 14.4816 67.9714 14.147 68.1157C13.8123 68.2601 13.5236 68.4766 13.2808 68.7719C13.0381 69.0606 12.8412 69.4346 12.7034 69.8808C12.5656 70.327 12.4935 70.8453 12.4935 71.4424C12.4935 72.0395 12.5656 72.571 12.7166 73.0106C12.8675 73.4502 13.0643 73.8177 13.3268 74.1064C13.5827 74.4017 13.8845 74.6182 14.2323 74.7625C14.58 74.9069 14.954 74.9791 15.3543 74.9791V74.9725Z" fill="#3C3C3B"/>
<path d="M30.7804 76.3898C30.636 76.462 30.4786 76.5342 30.3145 76.6063C30.1439 76.6785 29.9471 76.7441 29.7174 76.8032C29.4878 76.8622 29.2187 76.9147 28.9169 76.9475C28.6151 76.9803 28.2673 77 27.8802 77C27.06 77 26.312 76.8819 25.6427 76.6457C24.9735 76.4095 24.396 76.0617 23.9236 75.609C23.4446 75.1562 23.0772 74.5854 22.8147 73.9095C22.5523 73.2337 22.421 72.4529 22.421 71.5737C22.421 70.6944 22.5523 69.8349 22.8147 69.1196C23.0772 68.4044 23.4512 67.8139 23.9433 67.3284C24.4354 66.8494 25.0325 66.4819 25.7346 66.2391C26.4367 65.9964 27.2306 65.8717 28.1099 65.8717C28.6938 65.8717 29.2187 65.9242 29.6846 66.0226C30.1505 66.1276 30.5245 66.2457 30.8132 66.3769L30.308 68.3126C29.9799 68.201 29.6452 68.1157 29.3106 68.0698C28.9694 68.0173 28.6807 67.9911 28.4314 67.9911C27.8999 67.9911 27.4143 68.0567 26.9813 68.1945C26.5482 68.3257 26.1742 68.5357 25.8593 68.8178C25.5443 69.1 25.3015 69.4608 25.1309 69.8939C24.9538 70.3335 24.8685 70.8453 24.8685 71.4424C24.8685 72.5841 25.19 73.4371 25.8265 74.0145C26.4695 74.5919 27.329 74.8741 28.4182 74.8741C28.6676 74.8741 28.9628 74.8413 29.3106 74.7757C29.6584 74.7101 29.9996 74.6051 30.3276 74.4607L30.7869 76.3832L30.7804 76.3898Z" fill="#3C3C3B"/>
<path d="M39.5466 74.4673H35.4128L34.6451 76.8163H32.3683L36.0427 66.0554H39.0413L42.6698 76.8163H40.3208L39.5531 74.4673H39.5466ZM36.0427 72.4398H38.9167L37.4862 67.9189L36.0427 72.4398Z" fill="#3C3C3B"/>
<path d="M47.9059 76.8163H45.6028V68.1813H42.5452V66.062H50.9505V68.1813H47.9059V76.8163Z" fill="#3C3C3B"/>
<path d="M57.2495 77C56.4687 77 55.76 76.8819 55.1236 76.6391C54.4806 76.3964 53.9294 76.042 53.4701 75.5696C53.0108 75.0972 52.6499 74.5198 52.4006 73.8242C52.1512 73.1353 52.0265 72.3348 52.0265 71.4359C52.0265 70.5369 52.1578 69.7364 52.4202 69.0475C52.6827 68.3585 53.0436 67.7745 53.5029 67.3021C53.9622 66.8297 54.5068 66.4754 55.1367 66.2326C55.7666 65.9898 56.449 65.8717 57.1904 65.8717C58.0172 65.8717 58.7587 66.0029 59.4082 66.2588C60.0578 66.5147 60.609 66.8822 61.0552 67.3546C61.5014 67.8336 61.8426 68.4176 62.0788 69.1065C62.315 69.7955 62.4331 70.5763 62.4331 71.4359C62.4331 72.3873 62.3019 73.214 62.0394 73.9161C61.7769 74.6182 61.4161 75.1956 60.9502 75.6549C60.4843 76.1077 59.9332 76.4489 59.3033 76.6719C58.6733 76.895 57.991 77 57.2495 77ZM57.3282 74.9725C57.7154 74.9725 58.0763 74.9003 58.4043 74.756C58.7324 74.6116 59.0145 74.3951 59.2508 74.0998C59.487 73.8111 59.6707 73.4437 59.7954 73.0041C59.9266 72.5644 59.9857 72.0395 59.9857 71.4359C59.9857 70.2154 59.7298 69.3231 59.218 68.7522C58.7062 68.1814 58.0303 67.8992 57.1904 67.8992C56.8099 67.8992 56.4556 67.9714 56.1209 68.1157C55.7863 68.2601 55.4976 68.4766 55.2548 68.7719C55.0055 69.0606 54.8152 69.4346 54.6774 69.8808C54.5396 70.327 54.4674 70.8453 54.4674 71.4424C54.4674 72.0395 54.5396 72.571 54.6905 73.0106C54.8414 73.4502 55.0448 73.8177 55.3007 74.1064C55.5566 74.4017 55.8585 74.6182 56.2062 74.7625C56.554 74.9069 56.928 74.9791 57.3282 74.9791V74.9725Z" fill="#3C3C3B"/>
<path d="M76.8159 76.8163H74.4931L73.9092 69.6708L71.6979 76.8163H69.4998L67.3149 69.7036L66.7309 76.8163H64.4081L65.4842 66.0554H68.2335L70.6612 74.172L73.0562 66.0554H75.7136L76.8028 76.8163H76.8159Z" fill="#3C3C3B"/>
<defs>
<radialGradient id="paint0_radial_0_1205" cx="0" cy="0" r="1" gradientUnits="userSpaceOnUse" gradientTransform="translate(36.6857 24.4489) scale(7.95911)">
<stop stop-color="#4A96D2"/>
<stop offset="1" stop-color="#1F2466"/>
</radialGradient>
<linearGradient id="paint1_linear_0_1205" x1="19.4027" y1="23.7993" x2="32.7882" y2="3.17648" gradientUnits="userSpaceOnUse">
<stop stop-color="#4A96D2"/>
<stop offset="1" stop-color="#1F2466"/>
</linearGradient>
<linearGradient id="paint2_linear_0_1205" x1="24.7438" y1="0.0335175" x2="58.0106" y2="13.4715" gradientUnits="userSpaceOnUse">
<stop stop-color="#4A96D2"/>
<stop offset="1" stop-color="#1F2466"/>
</linearGradient>
<linearGradient id="paint3_linear_0_1205" x1="44.6251" y1="46.1429" x2="20.0692" y2="44.8565" gradientUnits="userSpaceOnUse">
<stop stop-color="#4A96D2"/>
<stop offset="1" stop-color="#1F2466"/>
</linearGradient>
<linearGradient id="paint4_linear_0_1205" x1="21.3728" y1="53.4003" x2="16.3737" y2="17.8657" gradientUnits="userSpaceOnUse">
<stop stop-color="#4A96D2"/>
<stop offset="1" stop-color="#1F2466"/>
</linearGradient>
<linearGradient id="paint5_linear_0_1205" x1="51.4984" y1="13.0252" x2="62.6623" y2="34.9344" gradientUnits="userSpaceOnUse">
<stop stop-color="#4A96D2"/>
<stop offset="1" stop-color="#1F2466"/>
</linearGradient>
<linearGradient id="paint6_linear_0_1205" x1="69.4096" y1="29.5336" x2="41.1353" y2="51.6302" gradientUnits="userSpaceOnUse">
<stop stop-color="#4A96D2"/>
<stop offset="1" stop-color="#1F2466"/>
</linearGradient>
</defs>
</svg>
