<svg width="67" height="67" viewBox="0 0 67 67" fill="none" xmlns="http://www.w3.org/2000/svg">
<g clip-path="url(#clip0_1_1769)">
<path d="M36.8 19.8114C34.777 17.9884 31.6626 18.1484 29.8396 20.1657C28.0166 22.1887 28.1823 25.3032 30.1996 27.1261C32.2226 28.9491 35.3371 28.7891 37.1601 26.7718C38.983 24.7488 38.8173 21.6344 36.8 19.8114Z" fill="url(#paint0_radial_1_1769)"/>
<path d="M19.3931 4.72465C16.17 7.15909 13.5927 10.3993 11.9697 14.1538C13.9184 14.6339 19.7531 16.5311 22.4333 23.7602C23.239 23.4973 24.9763 22.4858 26.1764 18.5827C27.7936 13.3538 30.8567 8.32488 34.8283 6.63334C30.8681 2.71309 25.6449 1.79303 19.3931 4.72465Z" fill="url(#paint1_linear_1_1769)"/>
<path d="M51.5666 8.5077C47.2634 3.31879 40.7659 0.0100098 33.5026 0.0100098C28.2051 0.0100098 23.319 1.76441 19.3931 4.7246C28.0736 0.650051 34.7655 4.01027 38.8629 12.5022C45.389 13.6738 49.8236 10.4278 51.5666 8.50199V8.5077Z" fill="url(#paint2_linear_1_1769)"/>
<path d="M24.3309 45.0529C28.0511 46.6301 32.1485 47.2359 36.2059 46.7673C35.6459 44.8414 34.3715 38.8353 39.2976 32.9035C38.6689 32.3378 36.926 31.3377 32.9371 32.252C27.5997 33.4693 21.7136 33.3321 18.2619 30.7319C16.8504 36.1209 18.6619 41.104 24.3252 45.0529H24.3309Z" fill="url(#paint3_linear_1_1769)"/>
<path d="M11.5185 15.2966C9.17545 21.617 9.55833 28.8975 13.1929 35.1893C15.8387 39.7782 19.8047 43.1327 24.3307 45.0528C16.4616 39.5725 16.0273 32.0977 21.3362 24.3029C19.0847 18.0682 14.0615 15.851 11.5242 15.2966H11.5185Z" fill="url(#paint4_linear_1_1769)"/>
<path d="M56.7786 20.617C56.2871 16.611 54.7613 12.7536 52.3268 9.47339C50.9382 10.9192 46.3722 15.028 38.7774 13.7308C38.6002 14.5594 38.6117 16.571 41.389 19.5655C45.1092 23.5772 47.9323 28.7489 47.4122 33.0349C52.7897 31.5605 56.1957 27.5031 56.7843 20.6227L56.7786 20.617Z" fill="url(#paint5_linear_1_1769)"/>
<path d="M37.4172 46.5901C44.0633 45.4585 50.1723 41.4869 53.8068 35.195C56.4527 30.6062 57.3785 25.4973 56.7784 20.6169C55.967 30.1718 49.7094 34.2864 40.3088 33.5892C36.0343 38.6581 36.6286 44.1156 37.4172 46.5901Z" fill="url(#paint6_linear_1_1769)"/>
<path d="M2.28353 62.4769V66.1799H0.271973V56.7908H3.46646C4.65511 56.7908 5.55803 57.0079 6.1695 57.4422C6.78096 57.8766 7.08956 58.5623 7.08956 59.4995C7.08956 59.8481 7.04384 60.1567 6.94669 60.4253C6.85526 60.6939 6.72382 60.9282 6.55809 61.1282C6.39237 61.3282 6.19807 61.4996 5.98091 61.6311C5.76376 61.7625 5.52946 61.8711 5.27801 61.9511C5.48374 62.0311 5.65518 62.1454 5.80376 62.2997C5.94663 62.454 6.09521 62.6826 6.25522 62.9912C6.40951 63.2998 6.5981 63.7112 6.80954 64.2198C7.02669 64.7284 7.30671 65.3799 7.65531 66.1799H5.5066C5.18658 65.4828 4.94085 64.8999 4.77512 64.4256C4.6094 63.9512 4.46081 63.5741 4.31795 63.2883C4.1808 63.0026 4.02079 62.7969 3.84935 62.6712C3.67791 62.5454 3.42075 62.4826 3.07787 62.4826H2.28925L2.28353 62.4769ZM2.24353 60.8139H3.40932C3.63219 60.8139 3.84363 60.7967 4.03793 60.7625C4.23223 60.7282 4.40367 60.6653 4.54082 60.5796C4.67797 60.4939 4.78655 60.3796 4.87227 60.231C4.95228 60.0824 4.99228 59.8938 4.99228 59.6595C4.99228 59.2481 4.84941 58.9623 4.56939 58.8023C4.28938 58.6423 3.86649 58.5623 3.30074 58.5623H2.24353V60.8139Z" fill="#3C3C3B"/>
<path d="M13.6955 66.34C13.0155 66.34 12.3983 66.2371 11.8383 66.0257C11.2782 65.8142 10.7982 65.5056 10.3982 65.0942C9.99817 64.6827 9.68386 64.1741 9.4667 63.5741C9.24955 62.9683 9.13525 62.2768 9.13525 61.4882C9.13525 60.6996 9.24955 60.0081 9.47813 59.4024C9.70672 58.7966 10.021 58.2937 10.4211 57.8823C10.8211 57.4708 11.3011 57.1622 11.8497 56.9508C12.3983 56.7393 12.9984 56.6365 13.6384 56.6365C14.3642 56.6365 15.0099 56.7508 15.5757 56.9736C16.1414 57.1965 16.6215 57.5165 17.01 57.9337C17.3986 58.3509 17.6958 58.8595 17.9015 59.4652C18.1073 60.071 18.2101 60.7453 18.2101 61.4996C18.2101 62.334 18.0958 63.054 17.8672 63.6655C17.6387 64.277 17.3244 64.7856 16.9129 65.1799C16.5072 65.5799 16.0271 65.8714 15.4785 66.0657C14.9299 66.26 14.3299 66.3514 13.6898 66.3514L13.6955 66.34ZM13.7641 64.5684C14.1013 64.5684 14.4156 64.5056 14.7013 64.3798C14.9871 64.2541 15.2328 64.0655 15.4385 63.8084C15.6442 63.5512 15.8043 63.2312 15.9128 62.8483C16.0271 62.4654 16.0786 62.0083 16.0786 61.4825C16.0786 60.4196 15.8557 59.6367 15.4099 59.1395C14.9642 58.6423 14.3756 58.3966 13.6384 58.3966C13.307 58.3966 12.9984 58.4595 12.7069 58.5852C12.4155 58.7109 12.164 58.8995 11.9469 59.1566C11.7297 59.4138 11.564 59.7338 11.444 60.1224C11.324 60.511 11.2611 60.9625 11.2611 61.4825C11.2611 62.0025 11.324 62.4654 11.4554 62.8483C11.5868 63.2312 11.764 63.5512 11.9869 63.8084C12.2097 64.0655 12.4726 64.2541 12.7755 64.3798C13.0784 64.5056 13.4041 64.5684 13.7527 64.5684H13.7641Z" fill="#3C3C3B"/>
<path d="M20.3247 63.957C20.4333 64.0313 20.5704 64.0999 20.7361 64.1799C20.9019 64.2542 21.0847 64.3285 21.2905 64.3971C21.4962 64.4656 21.7133 64.5171 21.9419 64.5571C22.1705 64.5971 22.4048 64.6199 22.6448 64.6199C23.1706 64.6199 23.5592 64.5285 23.8049 64.3399C24.0506 64.1513 24.1764 63.8828 24.1764 63.5342C24.1764 63.3399 24.1478 63.1741 24.0906 63.0427C24.0335 62.9113 23.9421 62.797 23.8221 62.6998C23.702 62.6027 23.542 62.517 23.3477 62.4369C23.1534 62.3627 22.9134 62.2712 22.6391 62.1741L22.3191 62.0655C21.5762 61.814 21.0333 61.4712 20.6904 61.0311C20.3475 60.5911 20.1761 60.0425 20.1761 59.3796C20.1761 58.951 20.2561 58.5681 20.4218 58.2252C20.5876 57.8881 20.8161 57.5966 21.1133 57.3623C21.4105 57.128 21.7533 56.9452 22.1534 56.8194C22.5534 56.6937 22.9877 56.6309 23.462 56.6309C24.0792 56.6309 24.6107 56.6823 25.0507 56.7852C25.4964 56.888 25.8508 56.9966 26.1193 57.1166L25.6507 58.8424C25.3193 58.6938 24.9764 58.5796 24.6221 58.511C24.2678 58.4424 23.9421 58.4024 23.6506 58.4024C23.1934 58.4024 22.8448 58.4767 22.6048 58.6196C22.3648 58.7681 22.2448 58.9967 22.2448 59.3053C22.2448 59.4653 22.2677 59.6025 22.3191 59.7111C22.3705 59.8196 22.4563 59.9225 22.5877 60.0197C22.7191 60.1111 22.8963 60.2082 23.1192 60.3054C23.342 60.4025 23.6278 60.5111 23.9763 60.6254L24.3249 60.7454C24.7364 60.8883 25.0736 61.054 25.3422 61.2426C25.6107 61.4312 25.8222 61.6369 25.9708 61.8598C26.1251 62.0826 26.2279 62.3227 26.2908 62.5855C26.3536 62.8427 26.3879 63.117 26.3879 63.4027C26.3879 63.877 26.3022 64.2942 26.1251 64.6657C25.9479 65.0314 25.7079 65.34 25.3936 65.5914C25.0793 65.8429 24.7135 66.0315 24.2849 66.1572C23.8621 66.2829 23.3992 66.3458 22.8963 66.3458C22.6105 66.3458 22.3248 66.3286 22.0391 66.2943C21.7533 66.2601 21.479 66.2143 21.2219 66.1515C20.9647 66.0943 20.719 66.0258 20.4961 65.9457C20.2733 65.8657 20.079 65.78 19.9189 65.6886L20.3361 63.957H20.3247Z" fill="#3C3C3B"/>
<path d="M34.0056 64.1284H30.3996L29.731 66.1799H27.748L30.954 56.7908H33.5713L36.7372 66.1799H34.6856L34.017 64.1284H34.0056ZM30.9483 62.3568H33.457L32.2112 58.4137L30.9483 62.3568Z" fill="#3C3C3B"/>
<path d="M41.3659 66.1799H39.3543V58.6423H36.6855V56.7908H44.0232V58.6423H41.3659V66.1799Z" fill="#3C3C3B"/>
<path d="M49.5896 66.34C48.9095 66.34 48.2924 66.2371 47.7323 66.0257C47.1723 65.8142 46.6923 65.5056 46.2922 65.0942C45.8922 64.6827 45.5779 64.1741 45.3607 63.5741C45.1436 62.9683 45.0293 62.2768 45.0293 61.4882C45.0293 60.6996 45.1436 60.0081 45.3722 59.4024C45.6008 58.7966 45.9151 58.2937 46.3151 57.8823C46.7151 57.4708 47.1952 57.1622 47.7438 56.9508C48.2924 56.7393 48.8924 56.6365 49.5324 56.6365C50.2582 56.6365 50.904 56.7508 51.4697 56.9736C52.0355 57.1965 52.5155 57.5165 52.9041 57.9337C53.2927 58.3509 53.5899 58.8595 53.7956 59.4652C54.0013 60.071 54.1042 60.7453 54.1042 61.4996C54.1042 62.334 53.9899 63.054 53.7613 63.6655C53.5327 64.277 53.2184 64.7856 52.8069 65.1799C52.4012 65.5799 51.9212 65.8714 51.3726 66.0657C50.824 66.26 50.2239 66.3514 49.5839 66.3514L49.5896 66.34ZM49.6582 64.5684C49.9953 64.5684 50.3096 64.5056 50.5954 64.3798C50.8811 64.2541 51.1268 64.0655 51.3326 63.8084C51.5383 63.5512 51.6983 63.2312 51.8069 62.8483C51.9212 62.4654 51.9726 62.0083 51.9726 61.4825C51.9726 60.4196 51.7497 59.6367 51.304 59.1395C50.8582 58.6423 50.2696 58.3966 49.5324 58.3966C49.201 58.3966 48.8924 58.4595 48.601 58.5852C48.3095 58.7109 48.0581 58.8995 47.8409 59.1566C47.6237 59.4138 47.458 59.7338 47.338 60.1224C47.218 60.511 47.1551 60.9625 47.1551 61.4825C47.1551 62.0025 47.218 62.4654 47.3494 62.8483C47.4809 63.2312 47.658 63.5512 47.8809 63.8084C48.1038 64.0655 48.3667 64.2541 48.6695 64.3798C48.9724 64.5056 49.2981 64.5684 49.6467 64.5684H49.6582Z" fill="#3C3C3B"/>
<path d="M66.7275 66.1799H64.7045L64.1959 59.9453L62.2644 66.1799H60.3442L58.4413 59.9681L57.9327 66.1799H55.9097L56.8469 56.7908H59.247L61.3672 63.8712L63.4587 56.7908H65.7789L66.7332 66.1799H66.7275Z" fill="#3C3C3B"/>
</g>
<defs>
<radialGradient id="paint0_radial_1_1769" cx="0" cy="0" r="1" gradientUnits="userSpaceOnUse" gradientTransform="translate(31.9197 20.72) scale(6.93188 6.93188)">
<stop stop-color="#4A96D2"/>
<stop offset="1" stop-color="#1F2466"/>
</radialGradient>
<linearGradient id="paint1_linear_1_1769" x1="16.8672" y1="20.1542" x2="28.5308" y2="2.19306" gradientUnits="userSpaceOnUse">
<stop stop-color="#4A96D2"/>
<stop offset="1" stop-color="#1F2466"/>
</linearGradient>
<linearGradient id="paint2_linear_1_1769" x1="21.5246" y1="-0.544312" x2="50.4922" y2="11.1593" gradientUnits="userSpaceOnUse">
<stop stop-color="#4A96D2"/>
<stop offset="1" stop-color="#1F2466"/>
</linearGradient>
<linearGradient id="paint3_linear_1_1769" x1="38.8385" y1="39.6207" x2="17.4568" y2="38.4974" gradientUnits="userSpaceOnUse">
<stop stop-color="#4A96D2"/>
<stop offset="1" stop-color="#1F2466"/>
</linearGradient>
<linearGradient id="paint4_linear_1_1769" x1="18.5871" y1="45.9414" x2="14.2381" y2="14.9902" gradientUnits="userSpaceOnUse">
<stop stop-color="#4A96D2"/>
<stop offset="1" stop-color="#1F2466"/>
</linearGradient>
<linearGradient id="paint5_linear_1_1769" x1="44.8282" y1="10.7641" x2="54.5463" y2="29.8428" gradientUnits="userSpaceOnUse">
<stop stop-color="#4A96D2"/>
<stop offset="1" stop-color="#1F2466"/>
</linearGradient>
<linearGradient id="paint6_linear_1_1769" x1="60.4199" y1="25.1439" x2="35.7976" y2="44.3837" gradientUnits="userSpaceOnUse">
<stop stop-color="#4A96D2"/>
<stop offset="1" stop-color="#1F2466"/>
</linearGradient>
<clipPath id="clip0_1_1769">
<rect width="66.4557" height="66.33" fill="white" transform="translate(0.271973 0.0100098)"/>
</clipPath>
</defs>
</svg>
