<svg width="44" height="67" viewBox="0 0 44 67" fill="none" xmlns="http://www.w3.org/2000/svg">
<g clip-path="url(#clip0_1_1719)">
<path d="M43.8713 20.6529C43.8678 20.5698 43.8574 20.4868 43.8505 20.4037C43.8297 20.0888 43.8055 19.7739 43.7709 19.459C43.7605 19.3656 43.7467 19.2721 43.7363 19.1752C43.7017 18.8741 43.6602 18.5731 43.6083 18.2755C43.5944 18.1855 43.5771 18.0955 43.5598 18.0055C43.5079 17.7045 43.4491 17.4068 43.3833 17.1092C43.3729 17.0746 43.366 17.0366 43.3556 17.002H35.7873C35.8011 17.0366 35.808 17.0712 35.8219 17.1058C35.9776 17.5591 36.1126 18.0194 36.2233 18.4935C36.251 18.6042 36.2752 18.7115 36.2994 18.8222C36.3202 18.9191 36.3375 19.0195 36.3583 19.1164C36.3825 19.2479 36.4067 19.3794 36.4275 19.5144C36.4413 19.6009 36.4552 19.6874 36.4656 19.7704C36.4863 19.9227 36.5071 20.0784 36.5244 20.2342C36.5313 20.3034 36.5382 20.3691 36.5451 20.4383C36.5625 20.6356 36.5798 20.8329 36.5901 21.0336L36.5971 21.1201C36.6074 21.3623 36.6144 21.6046 36.6144 21.8503C36.6144 29.8927 30.0946 36.4125 22.0521 36.4125C19.0863 36.4125 16.3282 35.5232 14.0269 34.0005H22.0521C28.7553 34.0005 34.1919 28.5673 34.1919 21.8607C34.1919 20.1338 33.832 18.4935 33.1814 17.0054H27.4818C28.6342 18.2962 29.3367 19.9954 29.3367 21.8607C29.3367 25.8819 26.0768 29.1453 22.0521 29.1453H1.46143C4.46178 37.6238 12.5492 43.6971 22.0555 43.6971C34.1193 43.6971 43.899 33.9174 43.9024 21.8572C43.9024 21.4558 43.892 21.0543 43.8678 20.6564" fill="#0C5DA9"/>
<path d="M22.0592 0C12.2588 0 3.96713 6.45059 1.19864 15.3374C0.561882 17.3896 0.21582 19.5698 0.21582 21.8296C0.21582 23.4976 0.402694 25.1241 0.759137 26.6848H8.32058C7.78765 25.1691 7.4935 23.5426 7.4935 21.8469C7.4935 20.8398 7.59731 19.8535 7.79111 18.9019C9.15459 12.2713 15.0238 7.28459 22.0558 7.28459C25.0181 7.28459 27.7727 8.17051 30.0705 9.68972H22.0627C15.3595 9.68972 9.92285 15.1229 9.92285 21.8296C9.92285 23.5564 10.2862 25.1967 10.9333 26.6848H16.633C15.4771 25.3975 14.7781 23.6948 14.7781 21.8296C14.7781 17.8083 18.038 14.545 22.0627 14.545H42.6464C39.6461 6.07338 31.5621 0 22.0592 0Z" fill="#6CC9F1"/>
<path d="M4.68681 53.8817H0.50293V51.1997H11.8641V53.8817H7.70447V66.3399H4.68681V53.8817Z" fill="#0C5DA9"/>
<path d="M21.0417 61.6231L18.1105 56.6502V66.3399H15.2036V51.1997H18.1105L22.0176 57.8822L25.9281 51.1997H28.7519V66.3399H25.8415V56.6502L22.9104 61.6231H21.0417Z" fill="#0C5DA9"/>
<path d="M32.147 51.1997H35.1646V57.4288H40.6013V51.1997H43.6155V66.3399H40.6013V60.1108H35.1646V66.3399H32.147V51.1997Z" fill="#0C5DA9"/>
</g>
<defs>
<clipPath id="clip0_1_1719">
<rect width="43.6868" height="66.34" fill="white" transform="translate(0.21582)"/>
</clipPath>
</defs>
</svg>
